<?xml version="1.0" encoding="utf-8"?>
<!-- Generator: Adobe Illustrator 21.0.2, SVG Export Plug-In . SVG Version: 6.00 Build 0)  -->
<svg version="1.1" id="Layer_1" xmlns="http://www.w3.org/2000/svg" xmlns:xlink="http://www.w3.org/1999/xlink" x="0px" y="0px"
	 viewBox="0 0 512 512" style="enable-background:new 0 0 512 512;" xml:space="preserve">
<style type="text/css">
	.st0{clip-path:url(#SVGID_2_);}
	.st1{clip-path:url(#SVGID_4_);fill:#FFFFD5;}
	.st2{opacity:0.2;clip-path:url(#SVGID_4_);}
	.st3{clip-path:url(#SVGID_6_);}
	.st4{clip-path:url(#SVGID_4_);fill:#00C54F;}
	.st5{clip-path:url(#SVGID_4_);fill:#FFFFFF;}
	.st6{clip-path:url(#SVGID_4_);fill:#FF0000;}
	.st7{clip-path:url(#SVGID_4_);}
	.st8{clip-path:url(#SVGID_4_);fill:none;stroke:#000000;stroke-width:16;stroke-miterlimit:10;}
	.st9{clip-path:url(#SVGID_4_);fill:#FFFFAB;}
	.st10{clip-path:url(#SVGID_4_);fill:#FF3B00;}
	.st11{clip-path:url(#SVGID_4_);fill:#FF5700;}
	.st12{clip-path:url(#SVGID_4_);fill:none;stroke:#FFFFFF;stroke-width:16;stroke-miterlimit:10;}
</style>
<g>
	<defs>
		<rect id="SVGID_1_" width="512" height="512"/>
	</defs>
	<clipPath id="SVGID_2_">
		<use xlink:href="#SVGID_1_"  style="overflow:visible;"/>
	</clipPath>
	<g class="st0">
		<defs>
			<rect id="SVGID_3_" width="512" height="512"/>
		</defs>
		<clipPath id="SVGID_4_">
			<use xlink:href="#SVGID_3_"  style="overflow:visible;"/>
		</clipPath>
		<path class="st1" d="M48,320h416c26.5,0,48-21.5,48-48V48c0-26.5-21.5-48-48-48H48C21.5,0,0,21.5,0,48v224
			C0,298.5,21.5,320,48,320"/>
		<g class="st2">
			<g>
				<defs>
					<rect id="SVGID_5_" width="111.7" height="320"/>
				</defs>
				<clipPath id="SVGID_6_">
					<use xlink:href="#SVGID_5_"  style="overflow:visible;"/>
				</clipPath>
				<path class="st3" d="M48,320h63.7V0H48C21.5,0,0,21.5,0,48v224C0,298.5,21.5,320,48,320"/>
			</g>
		</g>
		<polygon class="st4" points="28.3,9.8 12.3,24 8.8,62.9 24,51.6 64,9.8 		"/>
		<polygon class="st5" points="8.8,62.9 72,8 111.7,5 84.9,40 7.7,107.7 		"/>
		<polygon class="st6" points="108.9,16 131.2,8 160,12 11.4,162.7 7.7,112 		"/>
		<path class="st7" d="M464,16c17.6,0,32,14.4,32,32v224c0,17.6-14.4,32-32,32H48c-17.6,0-32-14.4-32-32V48c0-17.6,14.4-32,32-32
			H464 M464,0H48C21.5,0,0,21.5,0,48v224c0,26.5,21.5,48,48,48h416c26.5,0,48-21.5,48-48V48C512,21.5,490.5,0,464,0"/>
		<line class="st8" x1="8.1" y1="67.5" x2="67.6" y2="8"/>
		<line class="st8" x1="8.8" y1="116.1" x2="115.1" y2="9.8"/>
		<line class="st8" x1="7.7" y1="166.4" x2="164.3" y2="9.8"/>
		<path class="st9" d="M152,200H72c-8.8,0-16-7.2-16-16v-48c0-8.8,7.2-16,16-16h80c8.8,0,16,7.2,16,16v48
			C168,192.8,160.8,200,152,200"/>
		<path class="st8" d="M152,200H72c-8.8,0-16-7.2-16-16v-48c0-8.8,7.2-16,16-16h80c8.8,0,16,7.2,16,16v48
			C168,192.8,160.8,200,152,200z"/>
		<circle class="st8" cx="112" cy="160" r="16"/>
		<path class="st8" d="M144,120v24l-10.5,10.5c-3,3-3,8,0,11L144,176v24"/>
		<path class="st8" d="M80,120v24l10.5,10.5c3,3,3,8,0,11L80,176v24"/>
		<path class="st5" d="M464,160c0-53-28.7-96-64-96s-64,43-64,96s28.7,96,64,96S464,213,464,160"/>
		<ellipse class="st8" cx="400" cy="160" rx="64" ry="96"/>
		<circle class="st8" cx="400" cy="136" r="32"/>
		<path class="st8" d="M352.3,224c0,0,15.7-56,47.7-56s47.7,56,47.7,56"/>
		<line class="st8" x1="304" y1="120" x2="208" y2="120"/>
		<line class="st8" x1="336" y1="56.3" x2="176" y2="56.3"/>
		<line class="st8" x1="304" y1="152" x2="224" y2="152"/>
		<line class="st8" x1="304" y1="184" x2="224" y2="184"/>
		<line class="st8" x1="304" y1="216" x2="208" y2="216"/>
		<path class="st8" d="M75.7,280c0,0,68-16,52-32s-16.8-15.3-32,0s52,32,52,32"/>
		<polygon class="st10" points="256,262.2 276.3,256 293.6,268.1 314.8,268.5 327.6,285.4 347.6,292.4 354.6,312.4 371.5,325.2 
			371.9,346.4 384,363.7 377.8,384 384,404.3 371.9,421.6 371.5,442.8 354.6,455.6 347.6,475.6 327.6,482.6 314.8,499.5 
			293.6,499.9 276.3,512 256,505.8 235.7,512 218.4,499.9 197.2,499.5 184.4,482.6 164.4,475.6 157.4,455.6 140.5,442.8 
			140.1,421.6 128,404.3 134.2,384 128,363.7 140.1,346.4 140.5,325.2 157.4,312.4 164.4,292.4 184.4,285.4 197.2,268.5 
			218.4,268.1 235.7,256 		"/>
		<path class="st11" d="M188.9,435.5c0-70.6,57.2-127.8,127.8-127.8c14,0,27.5,2.3,40.1,6.4l-2.2-1.7l-6.9-20l-20-6.9l-12.8-16.9
			l-21.2-0.4L276.3,256l-20.3,6.2l-20.3-6.2l-17.4,12.1l-21.2,0.4l-12.8,16.9l-20,6.9l-6.9,20l-16.9,12.8l-0.4,21.2L128,363.7
			l6.2,20.3l-6.2,20.3l12.1,17.4l0.4,21.2l16.9,12.8l6.9,20l20,6.9l12.8,16.9l9,0.2C195.2,480.8,188.9,458.9,188.9,435.5"/>
		<path class="st7" d="M238.5,273.6l12.8,3.9l4.7,1.4l4.7-1.4l12.8-3.9l11,7.7l4,2.8l4.9,0.1l13.4,0.2l8.1,10.7l2.9,3.9l4.6,1.6
			l12.7,4.4l4.4,12.7l1.6,4.6l3.9,2.9l10.7,8.1l0.2,13.4l0.1,4.9l2.8,4l7.7,11l-3.9,12.8l-1.4,4.7l1.4,4.7l3.9,12.8l-7.7,11l-2.8,4
			l-0.1,4.9l-0.2,13.4l-10.7,8.1l-3.9,2.9l-1.6,4.6l-4.4,12.7l-12.7,4.4l-4.6,1.6l-2.9,3.9l-8.1,10.7l-13.4,0.2l-4.9,0.1l-4,2.8
			l-11,7.7l-12.8-3.9l-4.7-1.4l-4.7,1.4l-12.8,3.9l-11-7.7l-4-2.8l-4.9-0.1l-13.4-0.2l-8.1-10.7l-2.9-3.9l-4.6-1.6l-12.7-4.4
			l-4.4-12.7l-1.6-4.6l-3.9-2.9l-10.7-8.1l-0.2-13.4l-0.1-4.9l-2.8-4l-7.7-11l3.9-12.8l1.4-4.7l-1.4-4.7l-3.9-12.8l7.7-11l2.8-4
			l0.1-4.9l0.2-13.4l10.7-8.1l3.9-2.9l1.6-4.6l4.4-12.7l12.7-4.4l4.6-1.6l2.9-3.9l8.1-10.7l13.4-0.2l4.9-0.1l4-2.8L238.5,273.6z
			 M276.3,256l-20.3,6.2l-20.3-6.2l-17.4,12.1l-21.2,0.4l-12.8,16.9l-20,6.9l-6.9,20l-16.9,12.8l-0.4,21.2L128,363.7l6.2,20.3
			l-6.2,20.3l12.1,17.4l0.4,21.2l16.9,12.8l6.9,20l20,6.9l12.8,16.9l21.2,0.4l17.4,12.1l20.3-6.2l20.3,6.2l17.4-12.1l21.2-0.4
			l12.8-16.9l20-6.9l6.9-20l16.9-12.8l0.4-21.2l12.1-17.4l-6.2-20.3l6.2-20.3l-12.1-17.4l-0.4-21.2l-16.9-12.8l-6.9-20l-20-6.9
			l-12.8-16.9l-21.2-0.4L276.3,256z"/>
		<line class="st12" x1="323.1" y1="384" x2="188.9" y2="384"/>
	</g>
</g>
</svg>
