<?xml version="1.0" encoding="utf-8"?>
<!-- Generator: Adobe Illustrator 21.0.2, SVG Export Plug-In . SVG Version: 6.00 Build 0)  -->
<svg version="1.1" id="Layer_1" xmlns="http://www.w3.org/2000/svg" xmlns:xlink="http://www.w3.org/1999/xlink" x="0px" y="0px"
	 viewBox="0 0 512 512" style="enable-background:new 0 0 512 512;" xml:space="preserve">
<style type="text/css">
	.st0{clip-path:url(#SVGID_2_);}
	.st1{clip-path:url(#SVGID_4_);fill:#FB9D15;}
	.st2{opacity:0.2;clip-path:url(#SVGID_4_);}
	.st3{clip-path:url(#SVGID_6_);fill:#FFFFFF;}
	.st4{clip-path:url(#SVGID_4_);}
	.st5{clip-path:url(#SVGID_4_);fill:#5FC6FF;}
	.st6{clip-path:url(#SVGID_4_);fill:none;stroke:#000000;stroke-width:16;stroke-miterlimit:10;}
	.st7{clip-path:url(#SVGID_4_);fill:none;stroke:#008100;stroke-width:16;stroke-miterlimit:10;}
	.st8{clip-path:url(#SVGID_8_);fill:#FFFFFF;}
	.st9{clip-path:url(#SVGID_4_);fill:#864590;}
	.st10{clip-path:url(#SVGID_10_);fill:#FFFFFF;}
	.st11{clip-path:url(#SVGID_12_);fill:#FFFFFF;}
	.st12{clip-path:url(#SVGID_4_);fill:#AB4AFF;}
	.st13{clip-path:url(#SVGID_14_);fill:#FFFFFF;}
	.st14{clip-path:url(#SVGID_4_);fill:#869D15;}
	.st15{clip-path:url(#SVGID_16_);fill:#FFFFFF;}
	.st16{clip-path:url(#SVGID_18_);fill:#FFFFFF;}
	.st17{clip-path:url(#SVGID_4_);fill:#FF3F55;}
	.st18{clip-path:url(#SVGID_20_);fill:#FFFFFF;}
	.st19{clip-path:url(#SVGID_4_);fill:#3FA0FF;}
	.st20{clip-path:url(#SVGID_22_);fill:#FFFFFF;}
</style>
<g>
	<defs>
		<rect id="SVGID_1_" width="512" height="512"/>
	</defs>
	<clipPath id="SVGID_2_">
		<use xlink:href="#SVGID_1_"  style="overflow:visible;"/>
	</clipPath>
	<g class="st0">
		<defs>
			<rect id="SVGID_3_" width="512" height="512"/>
		</defs>
		<clipPath id="SVGID_4_">
			<use xlink:href="#SVGID_3_"  style="overflow:visible;"/>
		</clipPath>
		<path class="st1" d="M352,80c0,44.2,35.8,80,80,80s80-35.8,80-80S476.2,0,432,0S352,35.8,352,80"/>
		<g class="st2">
			<g>
				<defs>
					<rect id="SVGID_5_" x="352" width="152.9" height="152.9"/>
				</defs>
				<clipPath id="SVGID_6_">
					<use xlink:href="#SVGID_5_"  style="overflow:visible;"/>
				</clipPath>
				<path class="st3" d="M392,120c0-44.2,35.8-80,80-80c11.7,0,22.9,2.5,32.9,7.1C492.4,19.3,464.4,0,432,0c-44.2,0-80,35.8-80,80
					c0,32.4,19.3,60.4,47.1,72.9C394.5,142.9,392,131.7,392,120"/>
			</g>
		</g>
		<path class="st4" d="M432,16c35.3,0,64,28.7,64,64s-28.7,64-64,64s-64-28.7-64-64S396.7,16,432,16 M432,0c-44.2,0-80,35.8-80,80
			s35.8,80,80,80s80-35.8,80-80S476.2,0,432,0"/>
		<path class="st5" d="M232,71c-4.4,0-8-3.6-8-8V52c0-4.4,3.6-8,8-8h88c4.4,0,8,3.6,8,8v11c0,4.4-3.6,8-8,8H232z"/>
		<path class="st4" d="M320,63h-88V52h88V63z M320,36h-88c-8.8,0-16,7.2-16,16v11c0,8.8,7.2,16,16,16h88c8.8,0,16-7.2,16-16V52
			C336,43.2,328.8,36,320,36"/>
		<line class="st6" x1="328" y1="96" x2="232" y2="96"/>
		<polygon class="st1" points="187,104 181.5,78.6 184,64 178.8,37.1 172.5,16.5 140.5,16.5 132,33.5 20,33.5 37,78.6 20,128 
			70.5,120.1 79.5,128 120.7,132 120,141 158,143.5 162.5,127 184,116 		"/>
		<line class="st7" x1="328" y1="125" x2="240" y2="125"/>
		<g class="st2">
			<g>
				<defs>
					<rect id="SVGID_7_" x="20" y="16.5" width="158.8" height="71.5"/>
				</defs>
				<clipPath id="SVGID_8_">
					<use xlink:href="#SVGID_7_"  style="overflow:visible;"/>
				</clipPath>
				<polygon class="st8" points="36,88 178.8,69.5 178.8,37.1 172.5,16.5 140.5,16.5 125.5,30.5 79,31.5 67.2,43 48,25.5 20,33.5 
					30.5,63 				"/>
			</g>
		</g>
		<path class="st4" d="M166,25.5l-3.8,12.1c4.8,0.6,8.7,1.4,11.6,2.3c-0.1,1.9-0.4,4.6-0.9,8c-0.5,3.4-1.1,6.5-1.7,9.3l-3.3-0.1
			c-12.6-0.9-20.7-1.3-24.1-1.3c-1.5,0-2.3,0.1-2.5,0.1c-0.4,0.2-0.7,0.6-1,1.3c-0.3,0.7-0.4,1.5-0.4,2.3c0,2,1,3.6,3.1,4.8
			c2.1,1.2,5.4,2.4,9.8,3.8c5.3,1.7,9.7,3.4,13.2,5.1c3.4,1.6,6.4,4.2,9,7.7c2.6,3.5,3.9,8,3.9,13.7c0,15.2-8.3,24-24.9,26.3
			l-4.2,13.7h-23.1l4.2-13.8c-6.6-0.7-12.1-1.6-16.6-2.8c0.2-2,0.6-5,1.2-8.9c0.6-3.9,1.2-6.9,1.8-8.8c3.4,0.5,8.5,1.1,15.3,1.7
			c6.8,0.7,12,1,15.5,1c2,0,3.2-0.1,3.6-0.4c0.6-0.4,1-1,1.4-2c0.3-0.9,0.5-1.7,0.5-2.4c0-1.9-0.9-3.4-2.8-4.4c-1.8-1-5-2.3-9.5-3.7
			c-5.3-1.6-9.7-3.3-13.2-5.1c-3.5-1.7-6.5-4.5-9.2-8.1c-2.6-3.7-3.9-8.5-3.9-14.5c0-4.3,1-8.5,2.9-12.6c1.9-4.1,3.9-6.9,6-8.4
			c1-0.7,2.9-1.4,5.8-2.1c2.9-0.7,6.1-1.3,9.5-1.8l3.6-11.9H166 M107.4,37.1L88.2,77.5l20.5,42.6H81.9L67.5,84.9l-14.8,35.2H25.8
			l21.1-42.6L27.4,37.1h26.8l13.4,32.6l13.8-32.6H107.4 M187.8,9.5H166h-23.1H131l-3.5,11.3l-0.1,0.3h-20.1h-26H70.7l-3,7l-2.9-7
			H54.1H27.4H1.9l11.1,23l16.1,33.4L11.4,113L0,136.1h25.8h26.9h10.6l4-9.5l3.9,9.5h10.7h26.8h0.7l-4.4,14.4h21.6h23.1h11.8
			l3.5-11.3l1.5-4.9c7.2-2.3,13.1-5.9,17.7-10.8c7-7.4,10.6-17.2,10.6-29c0-9.1-2.3-16.9-7-23.1c-0.8-1.1-1.7-2.2-2.5-3.2l1.6-7.8
			c0.6-3,1.2-6.4,1.8-10.1c0.6-4,1-7.2,1.1-9.7l0.6-12.1l-7.8-2.6L187.8,9.5z"/>
		<path class="st9" d="M352,288c0,44.2,35.8,80,80,80s80-35.8,80-80s-35.8-80-80-80S352,243.8,352,288"/>
		<g class="st2">
			<g>
				<defs>
					<rect id="SVGID_9_" x="352" y="208" width="152.9" height="152.9"/>
				</defs>
				<clipPath id="SVGID_10_">
					<use xlink:href="#SVGID_9_"  style="overflow:visible;"/>
				</clipPath>
				<path class="st10" d="M392,328c0-44.2,35.8-80,80-80c11.7,0,22.9,2.5,32.9,7.1C492.4,227.3,464.4,208,432,208
					c-44.2,0-80,35.8-80,80c0,32.4,19.3,60.4,47.1,72.9C394.5,350.9,392,339.7,392,328"/>
			</g>
		</g>
		<path class="st4" d="M432,224c35.3,0,64,28.7,64,64s-28.7,64-64,64s-64-28.7-64-64S396.7,224,432,224 M432,208
			c-44.2,0-80,35.8-80,80s35.8,80,80,80s80-35.8,80-80S476.2,208,432,208"/>
		<path class="st1" d="M232,279c-4.4,0-8-3.6-8-8v-11c0-4.4,3.6-8,8-8h88c4.4,0,8,3.6,8,8v11c0,4.4-3.6,8-8,8H232z"/>
		<path class="st4" d="M320,271h-88v-11h88V271z M320,244h-88c-8.8,0-16,7.2-16,16v11c0,8.8,7.2,16,16,16h88c8.8,0,16-7.2,16-16v-11
			C336,251.2,328.8,244,320,244"/>
		<line class="st6" x1="328" y1="304" x2="232" y2="304"/>
		<polygon class="st9" points="187,312 181.5,286.6 184,272 178.8,245.1 172.5,224.5 140.5,224.5 132,241.5 20,241.5 37,286.6 
			20,336 70.5,328.1 79.5,336 120.7,340 120,349 158,351.5 162.5,335 184,324 		"/>
		<line class="st7" x1="328" y1="333" x2="240" y2="333"/>
		<g class="st2">
			<g>
				<defs>
					<rect id="SVGID_11_" x="20" y="224.5" width="158.8" height="71.5"/>
				</defs>
				<clipPath id="SVGID_12_">
					<use xlink:href="#SVGID_11_"  style="overflow:visible;"/>
				</clipPath>
				<polygon class="st11" points="36,296 178.8,277.5 178.8,245.1 172.5,224.5 140.5,224.5 125.5,238.5 79,239.5 67.2,251 48,233.5 
					20,241.5 30.5,271 				"/>
			</g>
		</g>
		<path class="st4" d="M166,233.5l-3.8,12.1c4.8,0.6,8.7,1.4,11.6,2.3c-0.1,1.9-0.4,4.6-0.9,8c-0.5,3.4-1.1,6.5-1.7,9.3l-3.3-0.1
			c-12.6-0.9-20.7-1.3-24.1-1.3c-1.5,0-2.3,0-2.5,0.1c-0.4,0.2-0.7,0.6-1,1.3c-0.3,0.7-0.4,1.5-0.4,2.3c0,2,1,3.6,3.1,4.8
			c2.1,1.2,5.4,2.4,9.8,3.8c5.3,1.7,9.7,3.4,13.2,5.1c3.4,1.6,6.4,4.2,9,7.7c2.6,3.5,3.9,8,3.9,13.7c0,15.2-8.3,24-24.9,26.3
			l-4.2,13.7h-23.1l4.2-13.8c-6.6-0.7-12.1-1.6-16.6-2.8c0.2-2,0.6-5,1.2-8.9c0.6-3.9,1.2-6.9,1.8-8.8c3.4,0.5,8.5,1.1,15.3,1.7
			c6.8,0.7,12,1,15.5,1c2,0,3.2-0.1,3.6-0.4c0.6-0.4,1-1,1.4-2c0.3-0.9,0.5-1.7,0.5-2.4c0-1.9-0.9-3.4-2.8-4.4c-1.8-1-5-2.3-9.5-3.7
			c-5.3-1.6-9.7-3.3-13.2-5.1c-3.5-1.7-6.5-4.5-9.2-8.1c-2.6-3.7-3.9-8.5-3.9-14.5c0-4.3,1-8.5,2.9-12.6c1.9-4.1,3.9-6.9,6-8.4
			c1-0.7,2.9-1.4,5.8-2.1c2.9-0.7,6.1-1.3,9.5-1.8l3.6-11.9H166 M107.4,245.1l-19.2,40.4l20.5,42.6H81.9l-14.4-35.2l-14.8,35.2H25.8
			l21.1-42.6l-19.5-40.4h26.8l13.4,32.6l13.8-32.6H107.4 M187.8,217.5H166h-23.1H131l-3.5,11.3l-0.1,0.3h-20.1h-26H70.7l-3,7l-2.9-7
			H54.1H27.4H1.9l11.1,23l16.1,33.4L11.4,321L0,344.1h25.8h26.9h10.6l4-9.5l3.9,9.5h10.7h26.8h0.7l-4.4,14.4h21.6h23.1h11.8
			l3.5-11.3l1.5-4.9c7.2-2.3,13.1-6,17.7-10.8c7-7.4,10.6-17.2,10.6-29c0-9.1-2.3-16.9-7-23.1c-0.8-1.1-1.7-2.2-2.5-3.2l1.6-7.8
			c0.6-3,1.2-6.4,1.8-10.1c0.6-4,1-7.2,1.1-9.7l0.6-12.1l-7.8-2.6L187.8,217.5z"/>
		<line class="st5" x1="512" y1="184" x2="0" y2="184"/>
		<line class="st6" x1="512" y1="184" x2="0" y2="184"/>
		<line class="st5" x1="512" y1="392" x2="0" y2="392"/>
		<line class="st6" x1="512" y1="392" x2="0" y2="392"/>
		<path class="st12" d="M421.6,466.8c0,24.9,20.2,45.2,45.2,45.2c24.9,0,45.2-20.2,45.2-45.2c0-25-20.2-45.2-45.2-45.2
			C441.9,421.6,421.6,441.9,421.6,466.8"/>
		<g class="st2">
			<g>
				<defs>
					<rect id="SVGID_13_" x="421.6" y="421.6" width="86.4" height="86.4"/>
				</defs>
				<clipPath id="SVGID_14_">
					<use xlink:href="#SVGID_13_"  style="overflow:visible;"/>
				</clipPath>
				<path class="st13" d="M444.2,489.4c0-25,20.2-45.2,45.2-45.2c6.6,0,12.9,1.4,18.6,4c-7.1-15.7-22.9-26.6-41.2-26.6
					c-25,0-45.2,20.2-45.2,45.2c0,18.3,10.9,34.1,26.6,41.2C445.7,502.3,444.2,496,444.2,489.4"/>
			</g>
		</g>
		<path class="st4" d="M466.8,437.6c16.1,0,29.2,13.1,29.2,29.2c0,16.1-13.1,29.2-29.2,29.2c-16.1,0-29.2-13.1-29.2-29.2
			C437.6,450.7,450.7,437.6,466.8,437.6 M466.8,421.6c-25,0-45.2,20.2-45.2,45.2c0,25,20.2,45.2,45.2,45.2
			c24.9,0,45.2-20.2,45.2-45.2C512,441.9,491.8,421.6,466.8,421.6"/>
		<path class="st14" d="M316.2,466.8c0,24.9,20.2,45.2,45.2,45.2c25,0,45.2-20.2,45.2-45.2c0-25-20.2-45.2-45.2-45.2
			C336.5,421.6,316.2,441.9,316.2,466.8"/>
		<g class="st2">
			<g>
				<defs>
					<rect id="SVGID_15_" x="316.2" y="421.6" width="86.4" height="86.4"/>
				</defs>
				<clipPath id="SVGID_16_">
					<use xlink:href="#SVGID_15_"  style="overflow:visible;"/>
				</clipPath>
				<path class="st15" d="M338.8,489.4c0-25,20.2-45.2,45.2-45.2c6.6,0,12.9,1.4,18.6,4c-7.1-15.7-22.9-26.6-41.2-26.6
					c-25,0-45.2,20.2-45.2,45.2c0,18.3,10.9,34.1,26.6,41.2C340.3,502.3,338.8,496,338.8,489.4"/>
			</g>
		</g>
		<path class="st4" d="M361.4,437.6c16.1,0,29.2,13.1,29.2,29.2c0,16.1-13.1,29.2-29.2,29.2c-16.1,0-29.2-13.1-29.2-29.2
			C332.2,450.7,345.3,437.6,361.4,437.6 M361.4,421.6c-25,0-45.2,20.2-45.2,45.2c0,25,20.2,45.2,45.2,45.2
			c24.9,0,45.2-20.2,45.2-45.2C406.6,441.9,386.4,421.6,361.4,421.6"/>
		<path class="st1" d="M210.8,466.8c0,24.9,20.2,45.2,45.2,45.2s45.2-20.2,45.2-45.2c0-25-20.2-45.2-45.2-45.2
			S210.8,441.9,210.8,466.8"/>
		<g class="st2">
			<g>
				<defs>
					<rect id="SVGID_17_" x="210.8" y="421.6" width="86.4" height="86.4"/>
				</defs>
				<clipPath id="SVGID_18_">
					<use xlink:href="#SVGID_17_"  style="overflow:visible;"/>
				</clipPath>
				<path class="st16" d="M233.4,489.4c0-25,20.2-45.2,45.2-45.2c6.6,0,12.9,1.4,18.6,4c-7.1-15.7-22.9-26.6-41.2-26.6
					c-25,0-45.2,20.2-45.2,45.2c0,18.3,10.9,34.1,26.6,41.2C234.9,502.3,233.4,496,233.4,489.4"/>
			</g>
		</g>
		<path class="st4" d="M256,437.6c16.1,0,29.2,13.1,29.2,29.2c0,16.1-13.1,29.2-29.2,29.2c-16.1,0-29.2-13.1-29.2-29.2
			C226.8,450.7,239.9,437.6,256,437.6 M256,421.6c-25,0-45.2,20.2-45.2,45.2c0,25,20.2,45.2,45.2,45.2c24.9,0,45.2-20.2,45.2-45.2
			C301.2,441.9,280.9,421.6,256,421.6"/>
		<path class="st17" d="M105.4,466.8c0,24.9,20.2,45.2,45.2,45.2s45.2-20.2,45.2-45.2c0-25-20.2-45.2-45.2-45.2
			S105.4,441.9,105.4,466.8"/>
		<g class="st2">
			<g>
				<defs>
					<rect id="SVGID_19_" x="105.4" y="421.6" width="86.3" height="86.4"/>
				</defs>
				<clipPath id="SVGID_20_">
					<use xlink:href="#SVGID_19_"  style="overflow:visible;"/>
				</clipPath>
				<path class="st18" d="M128,489.4c0-25,20.2-45.2,45.2-45.2c6.6,0,12.9,1.4,18.6,4c-7.1-15.7-22.9-26.6-41.2-26.6
					c-25,0-45.2,20.2-45.2,45.2c0,18.3,10.9,34.1,26.6,41.2C129.4,502.3,128,496,128,489.4"/>
			</g>
		</g>
		<path class="st4" d="M150.6,437.6c16.1,0,29.2,13.1,29.2,29.2c0,16.1-13.1,29.2-29.2,29.2s-29.2-13.1-29.2-29.2
			C121.4,450.7,134.5,437.6,150.6,437.6 M150.6,421.6c-25,0-45.2,20.2-45.2,45.2c0,25,20.2,45.2,45.2,45.2
			c24.9,0,45.2-20.2,45.2-45.2C195.8,441.9,175.5,421.6,150.6,421.6"/>
		<path class="st19" d="M0,466.8C0,491.8,20.2,512,45.2,512c25,0,45.2-20.2,45.2-45.2c0-25-20.2-45.2-45.2-45.2
			C20.2,421.6,0,441.9,0,466.8"/>
		<g class="st2">
			<g>
				<defs>
					<rect id="SVGID_21_" y="421.6" width="86.4" height="86.4"/>
				</defs>
				<clipPath id="SVGID_22_">
					<use xlink:href="#SVGID_21_"  style="overflow:visible;"/>
				</clipPath>
				<path class="st20" d="M22.6,489.4c0-25,20.2-45.2,45.2-45.2c6.6,0,12.9,1.4,18.6,4c-7.1-15.7-22.9-26.6-41.2-26.6
					c-25,0-45.2,20.2-45.2,45.2c0,18.3,10.9,34.1,26.6,41.2C24,502.3,22.6,496,22.6,489.4"/>
			</g>
		</g>
		<path class="st4" d="M45.2,437.6c16.1,0,29.2,13.1,29.2,29.2c0,16.1-13.1,29.2-29.2,29.2S16,482.9,16,466.8
			C16,450.7,29.1,437.6,45.2,437.6 M45.2,421.6c-25,0-45.2,20.2-45.2,45.2c0,25,20.2,45.2,45.2,45.2c25,0,45.2-20.2,45.2-45.2
			C90.4,441.9,70.1,421.6,45.2,421.6"/>
	</g>
</g>
</svg>
