<?xml version="1.0" encoding="utf-8"?>
<!-- Generator: Adobe Illustrator 21.0.2, SVG Export Plug-In . SVG Version: 6.00 Build 0)  -->
<svg version="1.1" id="Layer_2_1_" xmlns="http://www.w3.org/2000/svg" xmlns:xlink="http://www.w3.org/1999/xlink" x="0px" y="0px"
	 viewBox="0 0 500 500" style="enable-background:new 0 0 500 500;" xml:space="preserve">
<style type="text/css">
	.st0{fill:#FFFFFF;}
</style>
<path class="st0" d="M380.1,180c-16.4,0-31.4,5.6-43.4,15.1c-11.9-9.4-27-15.1-43.4-15.1s-31.5,5.6-43.4,15.1
	c-11.9-9.4-27-15.1-43.4-15.1s-31.5,5.6-43.4,15.1c-11.9-9.4-27-15.1-43.4-15.1c-38.6,0-70,31.3-70,70c0,38.6,31.3,70,70,70
	c16.4,0,31.5-5.6,43.4-15.1c11.9,9.4,27,15.1,43.4,15.1s31.5-5.6,43.4-15.1c11.9,9.4,27,15.1,43.4,15.1s31.5-5.6,43.4-15.1
	c11.9,9.4,27,15.1,43.4,15.1c38.6,0,70-31.3,70-70C450.1,211.4,418.8,180,380.1,180L380.1,180z M151.8,293.5
	c-8.9,6.5-20.1,10.5-31.9,10.5C90.1,304,66,279.9,66,250.1s24.1-53.9,53.9-53.9c11.9,0,23,4,31.9,10.5c-9.5,11.9-15.1,27-15.1,43.5
	C136.7,266.4,142.4,281.5,151.8,293.5L151.8,293.5z M163.2,282c-6.6-9-10.6-20-10.6-32s3.9-23.1,10.6-32c6.7,9,10.6,20,10.6,32
	S169.9,273.1,163.2,282L163.2,282z M238.6,293.5c-9,6.6-20,10.5-32,10.5s-22.9-3.9-31.9-10.5c9.4-11.9,15.1-27.1,15.1-43.5
	s-5.6-31.5-15.1-43.5c8.9-6.6,19.9-10.5,31.9-10.5s23,3.9,32,10.5c-9.5,11.9-15.1,27-15.1,43.5C223.4,266.4,229.1,281.5,238.6,293.5
	L238.6,293.5z M250,282c-6.6-9-10.6-20-10.6-32s3.9-23.1,10.6-32c6.7,9,10.6,20,10.6,32S256.6,273.1,250,282L250,282z M325.3,293.5
	c-8.9,6.6-20,10.5-32,10.5s-22.9-3.9-31.9-10.5c9.4-11.9,15.1-27.1,15.1-43.5s-5.6-31.5-15.1-43.5c8.9-6.6,19.9-10.5,31.9-10.5
	s23,3.9,32,10.5c-9.5,11.9-15.1,27-15.1,43.5C310.2,266.4,315.9,281.5,325.3,293.5L325.3,293.5z M336.8,282c-6.6-9-10.6-20-10.6-32
	s3.9-23.1,10.6-32c6.7,9,10.6,20,10.6,32C347.3,262,343.4,273.1,336.8,282L336.8,282z M380.1,303.9c-11.9,0-23-4-31.9-10.5
	c9.4-11.9,15.1-27.1,15.1-43.5s-5.6-31.5-15.1-43.5c8.9-6.5,20.1-10.5,31.9-10.5c29.8,0,53.9,24.1,53.9,53.9
	C434.1,279.8,409.9,303.9,380.1,303.9L380.1,303.9z"/>
</svg>
