<?xml version="1.0" encoding="utf-8"?>
<!-- Generator: Adobe Illustrator 21.0.2, SVG Export Plug-In . SVG Version: 6.00 Build 0)  -->
<svg version="1.1" id="Layer_2_1_" xmlns="http://www.w3.org/2000/svg" xmlns:xlink="http://www.w3.org/1999/xlink" x="0px" y="0px"
	 viewBox="0 0 500 500" style="enable-background:new 0 0 500 500;" xml:space="preserve">
<style type="text/css">
	.st0{fill:#FFFFFF;}
</style>
<g>
	<path class="st0" d="M309.9,353.5c-9.8-0.2-19.8,0-19.9,0c-12,0-21.8,8.3-21.8,18.6c0,10.4,9.8,18.8,21.8,18.8
		c0.1,0,10.1,0.2,19.9,0c12,0,21.8-8.5,21.8-18.8C331.8,362,322.2,353.8,309.9,353.5z M303.2,385.8c0,0-3.6,0.1-6.3,0
		c-6.9,0-14.4-5.2-14.4-13.6s7.3-13.4,14.3-13.3c0.1,0,3.5-0.2,6.3,0c7.1,0,14.4,5,14.4,13.4C317.6,380.6,310.1,385.8,303.2,385.8z"
		/>
	<path class="st0" d="M428.8,354.1h-31c-0.5,0-1.7,0.1-1.7,1.4v33.7c0,0.9,0.7,1.4,1.3,1.4h13v-28.1c0-1.2,0.9-1.8,1.9-1.8h14.3
		c3.9,0,9.8,3.5,9.8,11.3v17c0,0,0,1.4,1.5,1.4H450v-17.8C450,362.2,440.7,354.1,428.8,354.1z"/>
	<path class="st0" d="M197,354.1h-53.3c-0.9,0-1.4,0.7-1.4,1.4v5.8H155c4.8,0,8,4.1,8,7.9v19.9c0,0.7,0.6,1.4,1.4,1.4h12.9v-27.3
		c0-1,0.8-1.9,1.9-1.9h19.1v-5.8C198.4,354.7,197.8,354.1,197,354.1z"/>
	<path class="st0" d="M133.3,354.1h-11.5c-0.8,0-1.4,0.6-1.4,1.4v33.6c0,0.8,0.7,1.4,1.4,1.4c0.1,0,12.9,0,12.9,0v-35
		C134.7,354.7,134.1,354.1,133.3,354.1z"/>
	<path class="st0" d="M251.8,377.1L251.8,377.1c6.4-1.5,10.5-6.1,10.5-11.4c0-5.6-5.5-11.7-14.4-11.7h-34.4c-4.2,0-7.4,3.3-7.4,7.4
		V389c0,0.8,0.6,1.4,1.4,1.4h12.9v-12.9h12.2c10.8,0,15.3,7.8,15.6,12.9h14.2C262,381,251.8,377.1,251.8,377.1z M242.7,371.1h-22.4
		v-7.3c0-2,1.4-3.4,3.4-3.4h19c2.9,0,5.3,2.4,5.3,5.3C248.1,368.7,245.7,371.1,242.7,371.1z"/>
	<path class="st0" d="M78.7,358.6c0.8,0,3.7-0.1,6.3,0c5.2,0,10.1,2.7,12.6,7c0.1,0.2,0.4,0.7,1.2,0.7c0,0,13.2,0,13.9,0
		c-3-7.6-11.7-13-20.9-13c-5,0-14-0.3-19.9,0c-6.9,0.3-11.2,1.9-15.4,5.6c-4.1,3.6-6.4,8.3-6.4,13.4c0,10.4,9.3,18.6,21.5,19
		c8.4,0.3,9.3,0.3,20.4,0c10.2-0.3,17.6-4.9,20.7-13c-0.7,0-13.9,0-13.9,0c-0.5,0-0.9,0.2-1.2,0.7c-2.5,4.3-7.2,6.9-12.4,7
		c-1.8,0-4.2,0-6.5,0c-7.2-0.1-14.4-5.1-14.4-13.7C64.3,363.8,71.6,358.6,78.7,358.6z"/>
	<path class="st0" d="M352.8,382.1v-6.9H382v-6.4h-29.2v-6.3c0,0,0-1.8,2.2-1.8h33.4v-5.1c0-1.5-1.6-1.4-1.6-1.4H340
		c-0.1,0-1.4,0-1.4,1.4v27.6c0,3.6,2.8,7.4,7.5,7.4h41c1.1,0,1.4-1,1.4-1.4V384c0,0-1.8,0-33.7,0
		C353.6,383.9,352.8,383.2,352.8,382.1z"/>
	<path class="st0" d="M360.3,340.9c-1.4-0.8-3-1.3-4.9-1.3s-3.6,0.4-5,1.3c-1.4,0.8-2.1,1.8-2.1,3s0.7,2.2,2.1,3s3,1.3,5,1.3
		c1.9,0,3.6-0.4,4.8-1.2c1.2-0.8,2.6-2,4-2s2.7,1.1,3.9,1.9c1.2,0.8,3,1.3,5,1.3s3.7-0.4,5-1.3c1.3-0.8,2-1.8,2-3s-0.7-2.2-2-3
		c-1.4-0.8-3-1.3-5-1.3c-1.9,0-3.6,0.5-5,1.3c-1.3,0.8-2.4,1.9-3.9,1.9C362.6,342.8,361.7,341.7,360.3,340.9z"/>
	<path class="st0" d="M136,235.8c1.6,0.2,2.4-0.5,3-1c9-7.9,81.2-69.8,111-69.8c29.9,0,102,61.9,111,69.8c0.6,0.5,1.5,1.2,3,1
		c2.3-0.3,2.3-3.7,2.3-3.7s0.5-7.9,0.5-15.8c0-10-7.8-18.7-7.8-18.7s-80.8-89-109.1-89s-109.1,89-109.1,89s-7.8,8.7-7.8,18.7
		c0,7.9,0.5,15.8,0.5,15.8S133.7,235.5,136,235.8z"/>
	<path class="st0" d="M361,316.6c0.6,0.5,1.5,1.2,3,1c2.3-0.3,2.3-3.7,2.3-3.7s0.5-7.9,0.5-15.8c0-10-7.8-18.7-7.8-18.7
		s-80.8-89-109.1-89s-109.1,89-109.1,89s-7.8,8.7-7.8,18.7c0,7.9,0.5,15.8,0.5,15.8s0.1,3.4,2.3,3.7c1.6,0.2,2.4-0.5,3-1
		c9-7.9,81.2-69.8,111-69.8C279.9,246.8,352,308.8,361,316.6z"/>
</g>
</svg>
