<?xml version="1.0" encoding="utf-8"?>
<!-- Generator: Adobe Illustrator 22.0.1, SVG Export Plug-In . SVG Version: 6.00 Build 0)  -->
<svg version="1.1" id="Layer_2_1_" xmlns="http://www.w3.org/2000/svg" xmlns:xlink="http://www.w3.org/1999/xlink" x="0px" y="0px"
	 viewBox="0 0 500 500" style="enable-background:new 0 0 500 500;" xml:space="preserve">
<style type="text/css">
	.st0{fill:#FFFFFF;}
</style>
<g>
	<g>
		<path class="st0" d="M250,303.8c105.3,0,190.6-56.8,190.6-126.9S355.2,50,250,50C144.7,50,59.4,106.8,59.4,176.9
			S144.7,303.8,250,303.8z M250,51.3c104.6,0,189.3,56.3,189.3,125.7S354.5,302.7,250,302.7c-104.6,0-189.4-56.2-189.4-125.7
			C60.6,107.5,145.4,51.3,250,51.3z M232.7,126.2v110.7c0,3.4-2.8,6.2-6.2,6.2h-7.3v14.6h61.5v-14.6h-7.3c-3.4,0-6.2-2.8-6.2-6.2
			V96.1h-17.8L224,106.8c-2.1,0.9-3.5,3-3.5,5.3v7.8h6C229.9,120,232.7,122.7,232.7,126.2z M365.2,186.2l6.6-15.5h-93.5v23.1h75.6
			C358.8,193.7,363.3,190.7,365.2,186.2z M378.1,150.6l6.7-15.7h-84.2v-4.1h-22.4v27.3h88.5C371.7,158.1,376.2,155.1,378.1,150.6z
			 M221.7,199.9l-23.8,11.9h-54.7l6.9,15.8c1.8,4.5,6.2,7.4,11.1,7.4h41.4l19.1-9.7L221.7,199.9L221.7,199.9z M221.7,193.7v-23.1
			h-93.5l6.6,15.5c1.9,4.6,6.4,7.5,11.3,7.5L221.7,193.7z M311.5,235.2h27.2c4.9,0,9.4-2.9,11.1-7.4l6.9-15.8h-40.5l-16.6-9h-21.4
			v22h13.9L311.5,235.2z M250,288.6c94.1,0,170.3-50,170.3-111.7S344.1,65.2,250,65.2c-94,0-170.3,50-170.3,111.7
			C79.7,238.6,155.9,288.6,250,288.6z M250,76.2c85.6,0,155,45.1,155,100.7s-69.4,100.7-155,100.7S95,232.5,95,176.9
			C94.9,121.3,164.4,76.2,250,76.2z M133.1,158.1h88.6v-23.2H115.1l6.7,15.7C123.7,155.1,128.2,158.1,133.1,158.1z M439.8,330.3
			c-6.9,0-13.8-0.1-20.7,0c-5,0.1-8.5,2.6-10.2,7.3c-8.2,23.2-16.4,46.5-24.7,69.8c-0.3,0.8-0.9,1.4-1.4,2.1c-0.3-0.8-0.8-1.5-1-2.3
			c-1.8-8.9-3.5-17.7-5.2-26.6c-2-10.4-4-20.8-6-31.3c-1.1-5.9-2.2-11.8-3.4-17.6c-0.2-0.8-0.3-1.5-1.5-1.5c-9.3,0.1-18.5,0-27.8,0
			c-0.9,0-1.3,0.2-1.5,1.2c-2.1,10.8-4.2,21.6-6.3,32.4c-2.1,10.9-4.3,21.9-6.4,32.8c-0.8,3.8-1.5,7.7-2.3,11.5
			c-0.1,0.4-0.5,0.8-0.7,1.2c-0.4-0.3-0.8-0.6-1.1-1c-0.2-0.2-0.2-0.5-0.3-0.8c-9-25.3-17.9-50.5-26.8-75.8c-0.4-1.2-1-1.7-2.3-1.7
			c-8.5,0.1-17,0-25.5,0c-0.6,0-1.1,0.1-1.9,0.1c0.2,0.7,0.4,1.2,0.6,1.7c13.7,38.8,27.5,77.5,41.2,116.3c0.4,1.2,0.9,1.6,2.2,1.6
			c10-0.1,19.9,0,29.9,0h1.7c4.4-22.7,8.8-45.2,13.2-67.7c0.1,0,0.3,0,0.4,0c4.4,22.5,8.8,45,13.2,67.6h1.8c9.9,0,19.7,0,29.6,0
			c1.4,0,1.9-0.5,2.4-1.8c11.8-33.3,23.6-66.5,35.4-99.8c2.1-5.9,4.2-11.9,6.3-18C440.2,330.3,440,330.3,439.8,330.3z M274.9,427.1
			c-11.3-31.8-22.5-63.5-33.8-95.3c-0.4-1.2-1-1.6-2.2-1.6c-10.7,0-21.4,0-32,0c-4.6,0-9.1,0.8-12.1,4.7c-1.5,2-2.7,4.2-3.6,6.6
			c-2.7,7.1-5.1,14.2-7.6,21.4c-9.5,26.8-19,53.7-28.5,80.5c-0.8,2.1-1.5,4.3-2.2,6.5c0.4,0.1,0.5,0.1,0.7,0.1c9.4,0,18.7,0,28.1,0
			c1,0,1.3-0.4,1.6-1.2c3.1-8.7,6.3-17.4,9.4-26.1c0.5-1.3,1-1.8,2.4-1.8c15.3,0,30.7,0,46,0c1.2,0,1.8,0.4,2.2,1.6
			c3,8.6,6.1,17.2,9.1,25.9c0.5,1.3,1.1,1.8,2.5,1.7c2.4-0.1,4.8,0,7.2,0H283c-0.2-0.6-0.3-0.9-0.4-1.3
			C280,441.5,277.5,434.3,274.9,427.1z M199.9,402.3c0.5-1.5,0.9-2.9,1.4-4.3c5-14.3,10-28.5,15-42.8c0.1-0.3,0.1-0.6,0.3-0.8
			c0.4-0.5,0.8-1,1.3-1.5c0.4,0.5,1,0.9,1.3,1.5c2.5,7,5,14,7.5,21c2.9,8.3,5.8,16.6,8.8,24.9c0.2,0.6,0.4,1.2,0.6,2L199.9,402.3
			L199.9,402.3z M89,378.7c-0.1-0.4-0.2-0.6-0.2-0.8c0-7.8-0.1-15.7,0-23.5c0-3.2,2-5,5.3-5.3c0.7-0.1,1.3,0,2,0
			c23.2,0,46.3,0,69.5,0c1.1,0,1.7-0.3,2.1-1.4c1.4-4.3,3-8.5,4.5-12.8c0.5-1.5,1-2.9,1.6-4.6H172c-31.2,0-62.3,0-93.5,0
			c-1.9,0-3.8,0.1-5.7,0.2c-6.2,0.4-11.1,4.2-12.6,10c-0.5,2-0.8,4.1-0.8,6.1c0,33.8,0,67.7,0,101.5c0,0.6,0.1,1.2,0.1,1.8H89v-51.5
			h29.9c9.8,0,19.5,0,29.3,0c1.2,0,1.8-0.3,2.1-1.5c0.4-1.5,1-3,1.6-4.5c1.6-4.5,3.2-9,4.9-13.8L89,378.7L89,378.7z"/>
	</g>
</g>
</svg>
