<?xml version="1.0" encoding="utf-8"?>
<!-- Generator: Adobe Illustrator 22.0.1, SVG Export Plug-In . SVG Version: 6.00 Build 0)  -->
<svg version="1.1" id="Layer_2_1_" xmlns="http://www.w3.org/2000/svg" xmlns:xlink="http://www.w3.org/1999/xlink" x="0px" y="0px"
	 viewBox="0 0 500 500" style="enable-background:new 0 0 500 500;" xml:space="preserve">
<style type="text/css">
	.st0{fill:#FFFFFF;}
</style>
<path class="st0" d="M449.8,175.6c-0.1,0.3-0.4,0.7-0.8,1.1c-1.2,1.1-7.9,6.3-12.5,8.9c-2.8,1.6-8.2,1.7-11.4,1.9
	c-26.1,1.6-48.4,4.3-67.5,8c0.2,2.5,0.3,5,0.3,7.5c0,59.6-48.3,107.9-107.8,107.9c-59.6,0-107.8-48.3-107.8-107.9
	c0-2.5,0.1-5,0.3-7.5c-19.1-3.6-41.4-6.4-67.5-8c-3.2-0.2-8.6-0.3-11.4-1.9c-4.6-2.6-11.3-7.8-12.5-8.9c-0.4-0.4-0.9-1-1-1.6
	c0,0,0-0.2,0-0.4c0.2-1.4,1.2-2.3,2.7-2.3h93.9c13.2-44.7,54.5-77.3,103.4-77.3s90.2,32.6,103.4,77.3h93.9c1.7,0,2.8,1.2,2.7,2.7
	C450,175.1,450,175.3,449.8,175.6z M165.1,202.9c0,49.2,38,89.1,84.9,89.1c46.8,0,84.9-39.9,84.9-89.1c0-0.8,0-1.6,0-2.4
	c-39.1,10.4-61.9,25.5-76.2,42.8c-1.3,1.6-2.5,3.3-4.1,4.6c-1.3,1.1-2.6,1.7-4.5,1.7c-3,0-4.6-1.6-6.4-3.7c-0.7-0.8-1.4-1.6-2.2-2.6
	c-14.4-17.3-37.1-32.4-76.2-42.8C165.2,201.3,165.1,202.1,165.1,202.9z M250,113.9c-36.6,0-67.8,24.4-79.7,58.5h159.4
	C317.8,138.2,286.6,113.9,250,113.9z M117.2,372.3h28.3v-18.9h17.6v51.4h-17.6v-19.4h-28.3v19.4H99.6v-51.4h17.5L117.2,372.3
	L117.2,372.3z M176.8,374.5c2.6-0.8,7-1.3,13.1-1.3h18.2c0-3.5-0.8-4.6-2.4-5.8c-1.6-1.2-4.1-1.8-8.7-1.8h-26.7v-12H197
	c4.6,0,7.8,0.1,9.6,0.2c1.8,0.2,3.6,0.4,5.4,1c8.5,2.8,12.8,10.4,12.8,21.4v15l-5.4,13.7h-27.6c-5.8,0-9.8,0.1-12-0.2
	c-2.2-0.3-4.2-1-5.9-2c-4.6-2.7-7.5-7.5-7.5-13.1c0-3.4,1.2-7.1,3-9.7C171.2,377.2,173.9,375.4,176.8,374.5z M191.6,393h16.5v-7.8
	l-19.1-0.1c-3.7,0-5.7,1.1-5.7,3.8C183.1,393.2,188.6,393,191.6,393z M260.8,353.4l-20.1,51.4h-18.2l20.1-51.4H260.8z M314.6,353.5
	c5.2,0,9.1,0.3,11.7,1c2.7,0.7,5.6,1.9,7.3,3.6c3.4,3.3,5.1,8.5,5.1,14.2v32.4H322v-30.2c0-2.4-0.1-3.5-0.4-4.4
	c-0.2-0.9-0.8-1.8-1.6-2.6c-1.6-1.4-3.3-2.1-6.6-2.1H306v39.2h-16.7v-39.2H274v39.2h-16.7V370l6.4-16.6h50.9V353.5z M352.4,374.5
	c2.6-0.8,7-1.3,13.1-1.3h18.2c0-3.5-0.8-4.6-2.4-5.8c-1.6-1.2-4.1-1.8-8.7-1.8H346v-12h26.7c4.6,0,7.8,0.1,9.6,0.2
	c1.8,0.2,3.6,0.4,5.4,1c8.5,2.8,12.8,10.4,12.8,21.4v28.7h-33.1c-5.8,0-9.8,0.3-12,0s-4.2-1.2-5.9-2.2c-4.6-2.7-7.5-7.5-7.5-13.1
	c0-3.4,1.2-7.1,3-9.7C346.8,377.2,349.5,375.4,352.4,374.5z M367.2,393h16.5v-7.8l-19.1-0.1c-3.7,0-5.7,1.1-5.8,3.8
	C358.7,393.2,364.3,393,367.2,393z"/>
</svg>
