<?xml version="1.0" encoding="utf-8"?>
<!-- Generator: Adobe Illustrator 22.0.1, SVG Export Plug-In . SVG Version: 6.00 Build 0)  -->
<svg version="1.1" id="Layer_2_1_" xmlns="http://www.w3.org/2000/svg" xmlns:xlink="http://www.w3.org/1999/xlink" x="0px" y="0px"
	 viewBox="0 0 500 500" style="enable-background:new 0 0 500 500;" xml:space="preserve">
<style type="text/css">
	.st0{fill:#FFFFFF;}
</style>
<g>
	<polygon class="st0" points="50,294.6 65.5,294.6 65.5,311.6 93.1,311.6 93.1,294.6 108.4,294.6 108.4,342.3 93.1,342.3 
		93.1,322.2 65.3,322.2 65.3,342.1 50,342.1 	"/>
	<polygon class="st0" points="110.2,294.6 125.3,294.6 141.1,312.9 156.8,294.6 171.7,294.6 148.7,323.8 148.7,342.3 133.4,342.3 
		133.4,322.4 	"/>
	<path class="st0" d="M173.6,294.6h15.3v37h24.6c3.9,0,6.4-3.9,6.4-7.9v-29h15.3v38.1c0,6-6.8,9.5-10.6,9.5h-50.9v-47.7H173.6z"/>
	<path class="st0" d="M238.4,294.6h50.9c6,0,10.8,3.7,10.8,11.1v36.6l-15.3,0.1v-29c0-4.1-1.4-6.5-6.6-6.5h-23v35.6h-16.8
		L238.4,294.6L238.4,294.6z"/>
	<path class="st0" d="M304.8,294.6h44.5c8.9,0,15.8,7.2,15.8,12.7v22c-0.1,3.9-5.5,13.2-12.3,13.2h-48V294.6L304.8,294.6z
		 M320.4,331.7h23.5c3.4,0,6-2.5,6-5.6v-13.9c0-3.4-2.8-5.4-6.4-5.4h-23.1V331.7L320.4,331.7z"/>
	<path class="st0" d="M383.9,294.4h47.7v48h-17V330h-29.3v12.4h-17.2v-31.1C367.7,300.7,377,294.4,383.9,294.4L383.9,294.4z
		 M385.1,311.4v7.7h29.4v-12.2h-24.8C386.8,306.9,385.1,308.7,385.1,311.4L385.1,311.4z"/>
	<polygon class="st0" points="434.7,294.5 450,294.5 450,343.8 434.7,343.8 	"/>
	<path class="st0" d="M250.9,156.2c-63.4,0-114.8,25.4-114.8,56.7s51.4,56.7,114.8,56.7s114.8-25.4,114.8-56.7
		C365.8,181.6,314.3,156.2,250.9,156.2L250.9,156.2z M240,168.8c13.1-4.6,52,0,67.2,7.3c4.8,4.6-21.6,19.6-53.1,26
		C209.2,211.2,230.6,176.5,240,168.8L240,168.8z M162.8,236c-9.9-7.1-29.3-27.2,2.8-48.2c16.9-9.9,26.4-12.1,38.1-14.5
		c5.7-1.2,9.7,0.2,4.6,4.4c-10.7,11.1-32.9,47.8-34.9,55.9C171.9,239,168.6,240.4,162.8,236L162.8,236z M255.2,259.4
		c-19,2-61.1-4.2-61.9-9.7c0.8-13.1,67-34.9,78.9-22.8C277.2,236.4,267.5,258.8,255.2,259.4L255.2,259.4z M351.6,221.3
		c-4.8,11.1-21.2,23.6-55.5,32.1c-5.2,1.2-7.1-2-3.6-5c5.7-3.4,32.9-49,36.3-58.1c2-4.6,5.8-2.8,8.3-1
		C348,196.3,356.2,207.8,351.6,221.3L351.6,221.3z"/>
</g>
</svg>
