<?xml version="1.0" encoding="utf-8"?>
<!-- Generator: Adobe Illustrator 22.0.1, SVG Export Plug-In . SVG Version: 6.00 Build 0)  -->
<svg version="1.1" id="Layer_2_1_" xmlns="http://www.w3.org/2000/svg" xmlns:xlink="http://www.w3.org/1999/xlink" x="0px" y="0px"
	 viewBox="0 0 500 500" style="enable-background:new 0 0 500 500;" xml:space="preserve">
<style type="text/css">
	.st0{fill:#FFFFFF;}
</style>
<g>
	<g>
		<path class="st0" d="M303.1,66.7l0.4,0.2l0.4,0.2l0.4,0.2l0.4,0.1l0.5,0.1l0.4,0.1l0.5,0.1l0.4,0.1l0.9,0.1h0.9h0.9h0.9l4.3,1.2
			l4.4,1.3l4.3,1.3l4.3,1.4l4.3,1.4l4.2,1.5l2.1,1l2.1,0.8l2.1,0.8l2.1,0.8l2.1,0.9l2.1,0.8l2,0.9l2.1,0.9l2,0.9l2,0.9l2,1l2,1l2,1
			l2,1l2,1l2,1.1l1.9,1.1l2,1.2l1.9,1.1l1.9,1.2l0.6,0.2l0.6,0.2l0.6,0.3l0.6,0.3l0.5,0.3l0.5,0.4l0.5,0.4l0.5,0.4l1.1,0.9l1.1,0.8
			l0.5,0.4l0.6,0.3l0.6,0.3l0.6,0.3l1.1,0.8l1.1,0.7l1.1,0.7l1.1,0.7l1.1,0.7l1.1,0.8l0.5,0.4l0.5,0.5l0.5,0.5l0.5,0.5l1.2,0.9
			l1.1,0.9l1.2,0.9l1.2,0.9l1.1,0.9l1.2,0.9l1.2,0.9l1.1,0.9l15.5,14.7v0.2v0.2v0.2l0.1,0.2l0.2,0.4l0.2,0.4l0.2,0.4l0.3,0.3
			l0.3,0.3l0.3,0.3l0.6,0.6l0.6,0.6l0.2,0.3l0.2,0.3l0.1,0.1l0.1,0.2v0.2v0.2l0.5,0.4l0.4,0.4l0.4,0.4l0.3,0.4l0.6,0.8l0.5,0.8
			l0.5,0.8l0.6,0.8l0.4,0.4l0.4,0.4l0.4,0.4l0.5,0.4l0.3,0.6l0.3,0.6l0.4,0.7l0.4,0.7l0.4,0.7l0.4,0.8l0.4,0.8l0.3,0.8l0.3,0.1
			l0.2,0.2l0.2,0.2l0.2,0.2l0.4,0.5l0.3,0.6l0.6,1.2l0.5,1.2l1.4,1.4l1.4,2.5l1.4,2.6l1.3,2.6l1.2,2.7l1.2,2.7l1.1,2.8l1,2.9
			l0.9,2.9l0.9,2.9l0.8,2.9l0.7,3l0.7,3l0.6,3l0.5,3.1l0.4,3.1l0.4,3.1l0.3,3.1l0.2,3.1l0.1,3.1l0.1,3.1v3.1l-0.1,3.1l-0.2,3.1
			l-0.2,3.1l-0.3,3.1l-0.4,3.1l-0.5,3.1l-0.5,3.1l-0.6,3l-0.7,3l-0.8,3l-0.9,3l-0.5,1.9l-0.6,1.9l-0.6,1.9l-0.7,1.9l-0.7,1.9
			l-0.7,1.9l-0.8,1.8l-0.8,1.8l-0.9,1.8l-0.9,1.8l-0.9,1.8l-1,1.8l-1,1.7l-1,1.7l-1,1.7l-1.1,1.7l-1.1,1.7l-1.2,1.7l-1.2,1.7
			l-1.2,1.6l-1.3,1.6l-1.3,1.6l-1.3,1.6l-1.3,1.6l-1.4,1.6l-1.4,1.6l-1.4,1.5l-1.5,1.5l-1.5,1.5l-1.5,1.5l-1.6,1.5l-1.6,1.5h-0.7
			l-0.8,1l-0.8,1l-0.4,0.5l-0.4,0.5L406,305l-0.4,0.5l-0.5,0.5l-0.5,0.5l-0.5,0.4l-0.5,0.4l-0.5,0.3l-0.6,0.4l-0.6,0.3l-0.6,0.3
			l-0.3,0.5l-0.3,0.5l-0.3,0.4l-0.4,0.3l-0.4,0.3l-0.4,0.3l-0.4,0.3l-0.4,0.2l-0.9,0.6l-0.9,0.6l-0.4,0.3l-0.4,0.4l-0.4,0.5
			l-0.4,0.5h-0.3l-0.2,0.1l-0.2,0.1l-0.2,0.2l-0.4,0.5l-0.4,0.5l-0.2,0.2l-0.2,0.3l-0.3,0.2l-0.3,0.2l-0.3,0.2l-0.3,0.1l-0.3,0.1
			H391l-0.6,0.6l-0.7,0.6l-0.7,0.5l-0.7,0.5l-1.5,0.9l-1.4,0.8l-1.5,0.8l-1.4,0.8l-0.7,0.5l-0.7,0.5l-0.7,0.6l-0.7,0.6l-0.5,0.2
			l-0.5,0.2l-0.5,0.2l-0.5,0.3l-0.9,0.6l-1,0.6l-0.9,0.7l-0.9,0.6l-0.5,0.3l-0.5,0.2l-0.5,0.2L372,329l-1.4,1.4l-2.2,1l-2.2,1
			l-2.2,1l-2.2,1l-2.2,1l-2.2,1l-2.2,1l-2.2,1l-2.2,0.9l-2.2,0.9l-2.2,0.9l-2.3,0.8l-2.3,0.8l-2.3,0.8l-2.3,0.7l-2.3,0.7l-1.1,0.5
			l-1.1,0.5l-1.1,0.4l-1.1,0.3l-1.1,0.3l-1.1,0.3l-1.1,0.3l-1.1,0.2l-0.8,0.3l-0.8,0.3l-0.8,0.3l-0.8,0.3l-0.8,0.3l-0.8,0.2
			l-0.4,0.1l-0.4,0.1h-0.4h-0.4l-0.5,0.3l-0.5,0.3l-0.6,0.2l-0.6,0.2l-0.6,0.2l-0.6,0.1l-0.6,0.1l-0.7,0.1l-0.6,0.1l-0.6,0.1
			l-0.6,0.1l-0.6,0.2l-0.6,0.2l-0.6,0.2l-0.5,0.3l-0.5,0.3l-2.5,0.6l-2.6,0.6l-2.6,0.5l-2.6,0.5l-2.6,0.5l-2.7,0.5l-2.6,0.4
			l-2.7,0.4l-2.7,0.4l-2.7,0.3l-2.7,0.3l-2.7,0.3l-2.7,0.3l-2.7,0.2l-2.8,0.2l-2.8,0.2l-2.8,0.1l-2.8,0.1l-2.8,0.1l-2.8,0.1
			l-2.8,0.1h-2.8h-2.8h-2.8h-2.8l-2.8-0.1l-2.8-0.1l-2.8-0.1l-2.8-0.2l-2.7-0.2l-2.7-0.2l-2.7-0.2l-4.3-0.6l-4.3-0.6l-4.3-0.7
			l-4.2-0.7l-4.2-0.8l-4.2-0.8l-4.2-0.9l-4.2-0.9l-4.1-1l-4.1-1l-4.1-1.1l-4.1-1.2l-4-1.2l-4-1.3l-4-1.4l-4-1.4l-1.1-0.6l-1.1-0.6
			l-1.1-0.6l-1.1-0.6L152,340l-0.6-0.2l-0.6-0.2l-0.6-0.2l-0.6-0.1l-0.6-0.1l-0.6-0.1h-0.6l-1.3-0.8l-1.3-0.8l-1.3-0.9l-1.4-0.8
			l-0.7-0.4l-0.7-0.4l-0.7-0.3l-0.7-0.3l-0.7-0.3l-0.7-0.2l-0.8-0.2l-0.8-0.2l-3.4-2l-3.4-2l-3.4-2.1l-3.4-2.1l-3.3-2.2l-3.3-2.2
			l-1.7-1.1l-1.6-1.2l-1.6-1.2l-1.6-1.2l-1.6-1.2l-1.6-1.2l-1.6-1.2l-1.6-1.2l-1.6-1.3l-1.6-1.3l-1.6-1.3l-1.5-1.3l-1.5-1.3
			l-1.5-1.4l-1.5-1.4l-1.5-1.4l-1.5-1.4l-1.5-1.5l-1.5-1.5l-1.5-1.5l-0.1-0.4L85,294l-0.3-0.4l-0.3-0.3l-0.7-0.7l-0.9-0.7l-0.9-0.7
			l-0.9-0.8l-0.4-0.4l-0.4-0.5l-0.3-0.5l-0.3-0.5l-0.5-0.4l-0.4-0.4l-0.4-0.5l-0.4-0.4l-0.6-0.9l-0.6-0.9l-0.3-0.5l-0.3-0.5
			l-0.3-0.5l-0.4-0.4l-0.4-0.5l-0.5-0.4l-0.5-0.4l-0.6-0.4l-0.3-0.8l-0.4-0.8l-0.4-0.8l-0.4-0.8l-0.5-0.8l-0.5-0.8l-0.5-0.8
			l-0.5-0.8l-0.2-0.1l-0.2-0.2l-0.2-0.2l-0.1-0.2l-0.2-0.5l-0.2-0.5l-0.1-0.2l-0.1-0.3l-0.1-0.2l-0.2-0.2l-0.2-0.2l-0.2-0.2
			l-0.3-0.2l-0.4-0.1v-0.5l-0.1-0.5l-0.1-0.5l-0.2-0.4l-0.2-0.5l-0.2-0.4l-0.3-0.4l-0.3-0.4l-0.6-0.9l-0.6-1l-0.3-0.5l-0.2-0.6
			l-0.2-0.6l-0.1-0.6l-0.7-0.7l-1.3-2.6l-1.2-2.6l-1.1-2.7l-1.1-2.7l-1-2.7l-1-2.8l-0.9-2.8l-0.9-2.8l-0.7-2.9l-0.7-2.9l-0.6-2.9
			l-0.5-2.9l-0.5-3l-0.4-3l-0.3-3l-0.3-3l-0.2-3l-0.1-3v-3v-3l0.1-3l0.1-3l0.2-3l0.3-3l0.4-3l0.4-2.9l0.5-2.9l0.6-2.9l0.7-2.9
			l0.7-2.9l0.8-2.8l0.9-2.8l0.7-1.9l0.7-1.9l0.7-1.9l0.8-1.9l0.9-1.9l0.9-1.9l0.9-1.9l0.9-1.9l1-1.8l1-1.8l1-1.8l1.1-1.8l1.1-1.8
			l1.2-1.8l1.2-1.8l1.2-1.8l1.2-1.7l1.3-1.7l1.3-1.7l1.3-1.7l1.4-1.7l1.4-1.7l1.4-1.7l1.4-1.7l1.5-1.7l1.5-1.7l1.5-1.6L88,121
			l1.6-1.6l1.6-1.6l1.6-1.6l1.6-1.6l0.5-0.2l0.5-0.2l0.4-0.2l0.4-0.3l0.4-0.3l0.4-0.3l0.4-0.3l0.4-0.3l0.7-0.7l0.7-0.6l0.4-0.3
			l0.3-0.2l0.4-0.2l0.4-0.2l0.4-0.5l0.4-0.5l0.4-0.4l0.4-0.4l0.9-0.7l0.9-0.6l0.8-0.6l0.8-0.6l0.4-0.3l0.3-0.3l0.3-0.3l0.3-0.3
			l0.8-0.6l0.8-0.5l0.8-0.5l0.8-0.5l0.8-0.5l0.8-0.4l0.8-0.4l0.8-0.3l0.3-0.4l0.3-0.3l0.3-0.3l0.3-0.3l0.7-0.6l0.8-0.5l0.8-0.6
			l0.7-0.6l0.4-0.3l0.3-0.3l0.3-0.3l0.3-0.4l0.5-0.1l0.5-0.2l0.5-0.2l0.5-0.2l1-0.5l0.9-0.5l0.9-0.5l1-0.5l0.5-0.2l0.5-0.2l0.5-0.2
			l0.5-0.1l0.4-0.4l0.4-0.3l0.4-0.3l0.4-0.3l0.9-0.5l0.9-0.5L131,90l0.9-0.4l0.9-0.5l0.9-0.5l2.1-1l2.1-1l2.1-1l2.1-1l2.1-1l2.1-0.9
			l2.1-0.9l2.1-0.8l0.1-0.2l0.1-0.2l0.1-0.2l0.1-0.1l0.1-0.1l0.2-0.1h0.1h0.2l0.7,0.1l1,0.1l2.5-1.2l2.6-1.1l2.6-1.1l2.6-1l2.6-1
			l2.7-0.9l2.7-0.9l2.7-0.9l2.7-0.8l2.8-0.8l2.7-0.8l2.8-0.7l2.8-0.7l2.8-0.7l2.8-0.7l2.8-0.7l0.2-0.2l0.2-0.1l0.2-0.1l0.2-0.1h0.2
			h0.3h0.3h0.3l0.6,0.1h0.6h0.3h0.3l0.3-0.1l0.3-0.1l2.6-0.6l2.6-0.6l2.7-0.5l2.7-0.5L214,63l2.7-0.4l2.8-0.4l2.8-0.3l2.8-0.3
			l2.8-0.3l2.8-0.2l2.8-0.2l2.8-0.2l2.9-0.2l2.8-0.1l2.9-0.1l2.9-0.1h2.9h2.9h2.9l2.8,0.1l2.9,0.1l2.8,0.1l2.8,0.1l2.8,0.2l2.8,0.2
			l2.8,0.2l2.8,0.2l2.7,0.3l2.7,0.3l2.7,0.3l2.7,0.4l1.8,0.2l1.8,0.3l1.7,0.2l1.7,0.3l1.7,0.2l1.7,0.3l1.8,0.2L303.1,66.7
			L303.1,66.7z M320.7,83.6l-3.1-1l-3.1-1l-3.1-1l-3.1-0.9l-3.2-0.9l-3.2-0.9l-3.2-0.8l-3.2-0.8l-3.2-0.7L289,75l-3.3-0.6l-3.3-0.6
			l-3.3-0.5l-3.3-0.5l-3.3-0.3l-3.3-0.3l-4.4-0.2l-4.4-0.2l-4.3-0.1l-4.4-0.1h-4.3h-4.3l-2.1,0.1l-2.1,0.1l-2.1,0.1l-2.1,0.1
			l-2.1,0.1l-2.1,0.1l-2.1,0.2l-2.1,0.2l-2.1,0.2l-2.1,0.2l-2.1,0.2l-2.1,0.2l-2.1,0.3l-2,0.3l-2,0.3l-2,0.3l-2,0.4l-2,0.4l-2,0.4
			l-2,0.5l-0.7,0.2l-0.6,0.2l-0.6,0.2l-0.7,0.2l-1.3,0.3l-1.3,0.2l-1.3,0.3l-1.3,0.3l-0.6,0.2l-0.7,0.2l-0.6,0.2l-0.7,0.2l-1.8,0.5
			l-1.8,0.5l-1.7,0.5l-1.7,0.5l-1.7,0.5L181,82l-1.8,0.5l-1.8,0.5l-2,0.8l-2,0.8l-1.9,0.8l-1.9,0.9l-1.9,0.9l-1.9,0.9l-1.9,0.9
			l-1.9,0.9l-1.9,0.9l-1.9,1l-1.9,1l-1.9,1l-1.8,1.1l-1.9,1.1l-1.8,1.2l-1.8,1.2L146,99l-1.1,0.6l-0.5,0.3l-0.5,0.4l-0.5,0.5
			l-0.5,0.5l-0.3,0.2l-0.3,0.2l-0.3,0.2l-0.3,0.2l-0.6,0.3l-0.6,0.3l-0.3,0.1l-0.3,0.2l-0.3,0.2l-0.3,0.2l-0.3,0.2l-0.3,0.3
			l-0.3,0.3l-0.3,0.4l-0.8,0.5l-0.8,0.5l-0.8,0.6l-0.8,0.5l-0.8,0.5l-0.8,0.5L132,109l-0.8,0.5l-0.6,0.6l-0.6,0.6l-0.7,0.6l-0.6,0.5
			l-1.3,1l-1.3,1l-0.6,0.5l-0.6,0.5l-0.6,0.5l-0.6,0.6l-0.6,0.6l-0.5,0.6l-0.5,0.7l-0.5,0.7l-0.5,0.3l-0.5,0.3l-0.5,0.3l-0.5,0.4
			l-0.4,0.3l-0.5,0.3L118,121l-0.4,0.4l-0.9,0.8l-0.8,0.9l-0.8,0.9l-0.8,0.9l-1.6,1.9l-1.7,1.9l-0.9,0.9l-0.9,0.9l-1,0.9l-1,0.8v0.4
			l-0.1,0.3l-0.1,0.3l-0.2,0.3l-0.2,0.3l-0.2,0.3l-0.3,0.3l-0.3,0.2l-0.2,0.3l-0.3,0.3l-0.2,0.3l-0.2,0.3l-0.2,0.3l-0.1,0.3
			l-0.1,0.3v0.4l-0.5,0.3l-0.4,0.3l-0.3,0.3l-0.3,0.3l-0.3,0.3l-0.2,0.3l-0.2,0.3l-0.2,0.3l-0.2,0.3l-0.2,0.3l-0.2,0.3l-0.3,0.3
			l-0.3,0.3l-0.3,0.3l-0.4,0.3l-0.5,0.2l-1.6,2.9l-1.6,2.8l-1.7,2.8l-1.6,2.8l-0.8,1.4l-0.8,1.4l-0.7,1.5l-0.7,1.4l-0.7,1.5
			l-0.6,1.5l-0.6,1.5l-0.6,1.6l-0.3,0.4l-0.3,0.4l-0.3,0.4l-0.2,0.5l-0.2,0.5l-0.2,0.5l-0.2,0.5l-0.2,0.5l-0.3,0.9l-0.3,0.9
			l-0.2,0.5l-0.2,0.4l-0.2,0.4l-0.2,0.4l-0.9,3.3l-0.9,3.4l-0.8,3.4l-0.7,3.5l-0.4,1.7l-0.3,1.8l-0.3,1.8l-0.3,1.8l-0.3,1.8
			l-0.3,1.8l-0.2,1.8l-0.2,1.8l-0.2,1.8l-0.2,1.9l-0.1,1.9l-0.1,1.8l-0.1,1.9v1.9v1.9v1.9v1.9l0.1,1.9l0.1,1.9l0.2,1.9l0.2,1.9
			l0.2,1.9l0.3,1.9l0.3,1.9l0.6,2.9l0.6,3l0.7,3l0.8,3l0.4,1.5l0.4,1.5l0.4,1.5l0.4,1.4l0.5,1.4l0.5,1.4l0.5,1.4l0.5,1.3l0.3,1
			l0.3,1l0.4,1l0.5,1l0.5,1l0.5,1l0.5,1l0.5,1l1.2,2.1l1.1,2.1l0.5,1.1l0.5,1.1l0.5,1.2l0.4,1.2l0.4,0.2l0.3,0.2l0.2,0.2l0.2,0.3
			l0.2,0.3l0.2,0.3l0.1,0.3l0.1,0.3l0.3,0.7l0.3,0.7l0.2,0.4l0-0.2l0.3,0.3l0.3,0.3l0.3,0.8l0.3,0.7l0.4,0.7l0.4,0.6l0.4,0.7
			l0.4,0.7l0.4,0.7l0.3,0.8l0.2,0.1l0.2,0.1l0.2,0.1l0.1,0.1l0.3,0.2l0.2,0.3l0.4,0.6l0.3,0.6l0.2,0.3l0.2,0.2l0.2,0.2l0.3,0.1
			l0.1,0.1h0.2h0.1h0.2h0.2l0.2-0.1l0.2-0.1l0.2-0.1l4.9-10l4.9-10l4.9-10l4.9-10l4.9-10l4.9-10l4.9-10l4.9-10l4.9-10l4.9-10l4.9-10
			l4.9-10l4.9-10l4.9-10l4.9-10l4.9-10h74l0.7,0.7l-0.7,0.7l-0.9,1.9l-0.9,1.8l-0.9,1.8l-0.9,1.8l-0.9,1.8l-0.9,1.8l-0.9,1.8
			l-0.9,1.8l-0.9,1.8l-0.9,1.8l-0.9,1.8l-0.9,1.8l-0.9,1.8l-0.8,1.8l-0.8,1.9l-0.8,1.8l-1.3,2.2l-1.2,2.3l-1.2,2.3l-1.2,2.3
			l-1.1,2.3l-1.1,2.3l-1.1,2.3l-1.1,2.3l-1.1,2.3l-1,2.3l-1,2.3l-1,2.3l-1.1,2.3l-1,2.3l-1,2.3l-1.1,2.2l-1.4,0.7l-1,1.7l-1,1.7
			l-1,1.7l-1,1.7l-1,1.7l-1,1.7l-1.1,1.7l-1.1,1.7l-1.1,1.7l-1.1,1.7l-1.2,1.7l-1.2,1.6l-1.2,1.6l-1.2,1.6l-1.3,1.5l-1.3,1.5
			l-0.1,0.2l-0.1,0.2l-0.1,0.2l-0.1,0.2l-0.3,0.4l-0.3,0.4l-0.3,0.3l-0.4,0.3l-0.4,0.4l-0.4,0.3l-0.4,0.3l-0.4,0.3l-0.4,0.3
			l-0.3,0.3l-0.3,0.4l-0.3,0.4l-0.1,0.2l-0.1,0.2l-0.1,0.2l-0.1,0.2l-18.3,18.3h-0.2l-0.3,0.1l-0.3,0.1l-0.3,0.2l-0.5,0.5l-0.6,0.6
			l-0.6,0.6l-0.6,0.6l-0.4,0.2l-0.3,0.2l-0.4,0.2l-0.4,0.1l-0.3,0.4l-0.3,0.3l-0.3,0.3l-0.3,0.2l-0.7,0.5l-0.8,0.5l-0.4,0.2
			l-0.4,0.2l-0.4,0.3l-0.4,0.3l-0.3,0.3l-0.3,0.4l-0.3,0.5l-0.3,0.5l-0.6,0.3l-0.7,0.3l-0.6,0.3l-0.6,0.4l-0.6,0.4l-0.6,0.4
			l-0.6,0.4l-0.6,0.5l-1.2,0.9l-1.2,1l-1.2,1l-1.1,1l-2.3,1.2l-2.4,1.2l-2.3,1.2l-2.3,1.2l-2.3,1.2l-2.3,1.2l-2.3,1.2l-2.3,1.2
			l-2.3,1.2l-2.3,1.2l-2.4,1.1l-2.4,1.1l-2.4,1l-2.5,1l-2.5,1l-2.5,0.9l-0.5,0.2l-0.5,0.2l-0.5,0.2l-0.6,0.1l-1.1,0.2l-1.1,0.2
			l-0.5,0.1l-0.5,0.2l-0.5,0.2l-0.4,0.2l-0.4,0.3l-0.4,0.3l-0.2,0.2L116,279l-0.2,0.2l-0.1,0.2l80.3,0.7l-0.4,1.2l-0.4,1.2l-0.4,1.1
			l-0.4,1.1l-0.9,2.1l-0.9,2.1l-0.9,2l-0.9,2l-0.9,2.1l-0.8,2.1l-0.2,0.3l-0.2,0.3l-0.1,0.3l-0.1,0.3l-0.2,0.7l-0.2,0.7L188,300
			l-0.1,0.3l-0.1,0.3l-0.2,0.3l-0.2,0.3l-0.3,0.3l-0.3,0.3l-0.3,0.3l-64.8,0.7v0.7l0.5,0.8l0.6,0.8l0.7,0.9l0.7,0.9l0.4,0.4l0.4,0.4
			l0.4,0.4l0.5,0.4l0.5,0.4l0.5,0.3l0.5,0.3l0.5,0.3l0.3,0.5l0.3,0.5l0.3,0.4l0.4,0.3l0.4,0.3l0.4,0.3l0.4,0.3l0.4,0.2l0.9,0.6
			l0.9,0.6l0.4,0.3l0.4,0.4l0.4,0.5l0.4,0.5h0.3l0.2,0.1l0.2,0.1l0.2,0.1l0.4,0.4l0.4,0.4l0.4,0.4l0.4,0.3l0.2,0.1l0.2,0.1l0.2,0.1
			h0.3l0.4,0.5l0.4,0.4l0.4,0.3l0.4,0.3l0.5,0.2l0.4,0.2l0.5,0.2l0.4,0.2l0.5,0.2l0.4,0.2l0.5,0.2l0.4,0.2l0.4,0.3l0.4,0.3l0.4,0.4
			l0.4,0.5l0.6,0.3l0.6,0.3l0.6,0.3l0.6,0.3l1.2,0.7l1.2,0.7l0.6,0.3l0.6,0.3l0.6,0.3l0.6,0.3l0.6,0.2l0.6,0.2l0.6,0.2l0.6,0.1
			l0.5,0.5l0.5,0.5l0.5,0.4l0.5,0.4l1.1,0.7l1.2,0.7l1.2,0.6l1.2,0.6l1.2,0.5l1.2,0.5l2.4,0.9l2.3,0.9l1.1,0.5l1.2,0.5l1.1,0.5
			l1.1,0.5l3.7,1.5l3.8,1.4l3.9,1.4l4,1.3l4,1.2l4.1,1.1l4.2,1l4.2,0.9l4.3,0.9l4.3,0.7l4.4,0.7l4.4,0.6l4.4,0.5l4.4,0.4l4.4,0.3
			l4.5,0.2l4.4,0.1l4.5,0.1h4.4l4.4-0.1l4.4-0.2l4.4-0.3l4.4-0.3l4.4-0.5l4.3-0.6l4.3-0.6l4.2-0.7l4.2-0.8l4.1-0.9l4.1-1l4-1
			l3.9-1.1l1.1-0.3l1.1-0.2l1.1-0.3l1.1-0.3l1.1-0.2l1.1-0.3l1.1-0.2l1.1-0.3l0.8-0.5l0.7-0.4l0.7-0.3l0.7-0.3l0.6-0.2l0.7-0.1
			l0.3-0.1h0.4h0.4h0.4h0.3l0.2-0.1l0.2-0.1l0.2-0.1l0.3-0.3l0.3-0.3l0.2-0.1l0.2-0.1l0.2-0.1l0.2-0.1l0.3-0.1h0.3h0.3l0.4,0.1
			l1.9-1l1.9-1l2-1l2-1l2.1-1l2.1-0.9l2.1-0.9l2.1-0.8l0.3-0.3l0.3-0.2l0.3-0.2l0.3-0.2l0.7-0.4l0.7-0.3l0.7-0.3l0.7-0.3l0.8-0.3
			l0.8-0.3l1.1-0.8l1.2-0.8l1.2-0.8l1.2-0.8l1.2-0.8l1.2-0.8l1.1-0.8l1.1-0.8l0.8-0.5l0.8-0.5l0.8-0.5l0.8-0.5l0.8-0.5l0.8-0.4
			l0.8-0.3l0.8-0.3l0.3-0.5l0.3-0.5l0.3-0.4l0.3-0.3l0.3-0.3l0.3-0.3l0.3-0.2l0.4-0.2l0.7-0.5l0.8-0.5l0.4-0.2l0.4-0.3l0.4-0.3
			l0.4-0.4l0.4-0.1l0.4-0.2l0.3-0.2l0.3-0.2l0.6-0.6l0.5-0.7l0.5-0.7l0.6-0.6l0.3-0.2l0.3-0.2l0.3-0.2l0.4-0.1l2.7-2.4l2.6-2.4
			l1.3-1.2l1.3-1.2l1.3-1.2l1.3-1.3l1.3-1.3l1.2-1.3l1.2-1.3l1.2-1.3l1.2-1.4l1.2-1.4l1.1-1.4l1.1-1.4v-0.2l0.1-0.2l0.1-0.2l0.2-0.2
			l0.4-0.4l0.4-0.4l0.2-0.2l0.2-0.2l0.2-0.2l0.2-0.2l0.1-0.2v-0.2v-0.2l-0.1-0.3l0.5-0.4l0.5-0.4l0.4-0.4l0.4-0.5l0.3-0.5l0.3-0.5
			l0.3-0.5l0.3-0.5l0.6-0.9l0.6-0.9l0.3-0.5l0.3-0.4l0.3-0.4l0.4-0.4l1.9-2.9l1.8-2.9l1.7-3l1.6-3.1l1.6-3.2l1.4-3.3l1.4-3.3
			l1.3-3.4l1.2-3.4l1.1-3.5l0.9-3.5l0.9-3.5l0.7-3.6l0.6-3.6l0.5-3.6l0.4-3.6l0.3-3.6l0.2-3.6l0.1-3.7v-3.7l-0.1-3.7l-0.2-3.6
			l-0.3-3.6l-0.4-3.6l-0.5-3.6l-0.6-3.6l-0.8-3.5l-0.9-3.5l-1-3.5L415,173l-1.2-3.4l-1.3-3.3l-0.5-1.2l-0.5-1.2l-0.5-1.2l-0.6-1.2
			l-1.2-2.2l-1.2-2.2l-1.3-2.3l-1.3-2.2l-1.3-2.3l-1.3-2.3l-0.5-1l-0.6-1l-0.3-0.5L401,145l-0.4-0.5l-0.5-0.5h-0.2l-0.2,0.1
			l-0.1,0.1l-0.1,0.1l-0.1,0.1l-0.1,0.1l-0.2,0.1h-0.2l-1.4,2.9l-1.5,2.8l-1.5,2.9l-1.4,2.8l-1.5,2.9l-1.5,2.9l-1.4,2.8l-1.5,2.9
			l-1.5,2.9l-1.4,2.8l-1.5,2.9l-1.5,2.9l-1.5,2.8l-1.4,2.9l-1.5,2.9l-1.5,2.8l-0.5,0.8l-0.4,0.7l-0.4,0.7l-0.4,0.7l-0.4,0.7
			l-0.4,0.7l-0.4,0.7l-0.5,0.8l-0.4,0.3l-0.3,0.3l-0.3,0.3l-0.3,0.3l-0.4,0.7l-0.4,0.6l-0.4,0.7l-0.4,0.6l-0.3,0.3l-0.3,0.3
			l-0.3,0.3l-0.4,0.3l-0.2,0.4l-0.2,0.3l-0.2,0.4l-0.3,0.3l-0.6,0.7l-0.6,0.7l-0.3,0.3l-0.3,0.3l-0.3,0.3l-0.2,0.3l-0.2,0.3
			l-0.1,0.4l-0.1,0.3v0.4l-1.2,1.1l-1.2,1.1l-1.2,1.1l-1.2,1.1l-2.4,2.3l-2.4,2.4l-2.4,2.3l-2.4,2.3l-1.2,1.2l-1.2,1.1l-1.2,1.1
			l-1.2,1.1l-0.4,0.1l-0.4,0.2l-0.4,0.2l-0.4,0.2l-0.8,0.5l-0.8,0.6l-0.8,0.6l-0.8,0.6l-0.8,0.6l-0.8,0.6l-0.6,0.1l-0.6,0.2
			l-0.6,0.2l-0.6,0.3l-0.5,0.3l-0.5,0.4l-0.5,0.4l-0.5,0.4l-0.5,0.4l-0.5,0.4l-0.5,0.4l-0.6,0.3l-0.5,0.3l-0.6,0.2l-0.6,0.2
			l-0.6,0.1l-0.1,0.2l-0.1,0.2l-0.1,0.1l-0.1,0.1l-0.2,0.2l-0.3,0.2L328,235l-0.3,0.1l-0.3,0.1l-0.3,0.1h-0.3l-0.3,0.1l-0.3,0.1
			l-0.3,0.1l-0.2,0.2l-0.2,0.2l-0.1,0.1l-0.1,0.2l-0.1,0.1l-0.1,0.2l-0.9,0.5l-0.9,0.5l-0.9,0.5l-0.9,0.5l-1.9,0.8l-1.8,0.8L316,241
			l-1.9,0.8l-0.9,0.4l-0.9,0.5l-0.9,0.5l-0.9,0.5l-0.4,0.2l-0.4,0.2l-0.5,0.2l-0.5,0.1l-1,0.2l-1,0.2l-0.4,0.1l-0.4,0.2l-0.4,0.2
			l-0.4,0.2l-0.1,0.1l-0.2,0.2l-0.1,0.1l-0.1,0.2l-0.1,0.2l-0.1,0.2l-0.1,0.2l-0.1,0.2l54.3,0.7l-0.3,1l-0.3,1l-0.4,1l-0.4,1l-0.5,1
			l-0.5,0.9l-0.5,0.9l-0.5,0.8l-0.1,0.5l-0.1,0.5l-0.2,0.5l-0.2,0.4l-0.4,0.8l-0.4,0.7l-0.5,0.7l-0.5,0.7l-0.5,0.7L351,262h-62.7
			l-0.7-0.7l4.3-8.6l4.2-8.6l4.2-8.6l4.2-8.6l4.2-8.6l4.2-8.6l4.3-8.6l4.2-8.6l4.2-8.6l4.2-8.6l4.2-8.6l4.2-8.6l4.3-8.6l4.2-8.6
			l4.2-8.6l4.2-8.6H382l-0.3-0.7l-0.4-0.7l-0.4-0.6l-0.5-0.7l-0.6-0.7l-0.6-0.6l-0.6-0.6l-0.6-0.6l-1.3-1.3l-1.4-1.2l-1.3-1.1
			l-1.2-1.1h-0.7l-1.5-1.2l-1.5-1.2l-1.5-1.2l-1.4-1.2l-1.5-1.2l-1.5-1.2l-1.5-1.1l-1.5-1.1l-1.5-1.1l-1.5-1l-1.5-1l-1.5-1l-1.5-0.9
			l-1.6-0.9l-1.6-0.9l-1.6-0.8l-1.7-1l-1.7-1l-1.7-1l-1.7-0.9l-1.7-0.9l-1.7-0.9l-1.7-0.8l-1.7-0.8l-1.7-0.8l-1.7-0.8l-1.7-0.8
			l-1.7-0.7l-1.7-0.7l-1.7-0.7l-1.7-0.7L320.7,83.6L320.7,83.6z M336.9,123.6h-64.1l-4.7,9.6l-4.7,9.7l-4.7,9.6l-4.7,9.6l-4.7,9.7
			l-4.7,9.6l-4.7,9.6l-4.7,9.7l-4.7,9.6l-4.7,9.6l-4.7,9.7l-4.7,9.6l-4.7,9.6l-4.7,9.7l-4.7,9.6l-4.7,9.7v1.4H277l0.4-1l0.5-1l0.5-1
			l0.5-1l1.1-2l1.1-2l0.5-1l0.5-1l0.4-1l0.4-1l0.3-1l0.3-1l0.1-0.5l0.1-0.5l0.1-0.5l0.1-0.5H217l-1.4-1.4l2.6-1l2.7-1l2.6-1l2.6-1
			l1.3-0.6l1.3-0.6l1.3-0.6l1.3-0.6l1.2-0.6l1.2-0.7l1.2-0.7l1.2-0.8l1.1-0.4l1-0.4l1-0.4l1-0.5l2-0.9l1.9-1l1.9-1l1.9-1l1.9-1
			l1.8-1l0.3-0.2l0.3-0.2l0.3-0.2l0.3-0.2l0.6-0.3l0.6-0.2l0.6-0.3l0.5-0.3l0.2-0.2l0.2-0.2l0.2-0.2l0.1-0.2l0.8-0.6l0.8-0.5
			l0.8-0.5l0.8-0.5l0.8-0.5l0.8-0.4l0.8-0.4l0.8-0.3l0.3-0.5l0.3-0.5l0.3-0.4l0.3-0.3l0.4-0.3l0.4-0.3l0.4-0.2l0.4-0.2l0.8-0.5
			l0.8-0.5l0.3-0.2l0.3-0.3l0.3-0.3l0.3-0.4h0.3l0.2-0.1l0.2-0.1l0.2-0.2l0.4-0.5l0.4-0.5l0.2-0.2l0.3-0.3l0.2-0.2l0.3-0.2l0.3-0.2
			l0.3-0.1l0.3-0.1h0.4l2.5-2.5l2.3-2.3l2.2-2.2l2.1-2.1l2-2.1l2-2.2l2.1-2.3l2.3-2.5l0.1-0.2l0.1-0.2l0.2-0.2l0.2-0.2l0.4-0.4
			l0.4-0.4l1-0.8l1.1-0.9v-0.4l0.1-0.3l0.1-0.3l0.1-0.3l0.1-0.3l0.2-0.2l0.2-0.2l0.2-0.2l0.4-0.5l0.3-0.4l0.1-0.2l0.1-0.2l0.1-0.2
			v-0.3l0.8-0.8l0.7-0.8l0.7-0.8l0.6-0.9l0.6-0.9l0.6-0.9l0.6-0.9l0.6-0.9l1.1-1.9l1.1-1.9l0.6-1l0.6-0.9l0.6-0.9l0.6-0.9l0.5-1
			l0.5-1l0.5-1l0.6-1l0.6-1l0.7-1.1l0.7-1l0.8-1l1.7-3.6l1.7-3.6l1.7-3.7l1.7-3.6l1.7-3.6l1.7-3.7l1.7-3.6l1.7-3.6l1.7-3.6l1.7-3.7
			l1.7-3.6l1.7-3.6l1.7-3.6l1.7-3.7l1.7-3.6L336.9,123.6z"/>
	</g>
	<path class="st0" d="M65,388.6l-13.8,34.6c0,0-5.3,12.3,7.2,14.1h75.1c0,0,7.2-3.1,7.8-10.1H79.9c0,0-4.5-0.1-5.5-2
		c-1.1-1.9-0.3-3.3,0.1-4.7c0.4-1.4,12.9-32,12.9-32L65,388.6L65,388.6z M163.2,388.5h22.3l-19.4,48.8h-21.5L163.2,388.5
		L163.2,388.5z M172.1,437.4h23.1l7.7-19.4h53.8c0,0,5.5-1.3,7.6-8h-58.2l3.6-9.2c0,0,0.7-3.2,5.5-3.7c4.7-0.5,60.9,0,60.9,0
		s7.1-3.3,7-8.7h-82.5c0,0-8.3-0.5-12.6,8.6C183.7,406.1,172.1,437.4,172.1,437.4L172.1,437.4z M240.3,437.4
		c0,0,61.4-46.5,62.9-47.3s4.8-2.6,9.8-1.6s7.1,6.7,7.1,6.7l12.4,37.2c0,0,1,1.9,0.4,3.4s-2.1,1.6-2.1,1.6h-45.6l-1.6-8.6h20.2
		c0,0,0.9,0.1,1.8-0.8s0.2-3.3,0.2-3.3s-4-13.3-4.5-14.6c-0.4-1.3-1.2-2.3-2.6-2.5s-2.7,0.6-3.7,1.3l-38.3,28.5L240.3,437.4
		L240.3,437.4z M338.6,437.4l17.2-43.2c0,0,3-8.9,11.7-5.4l42,29.4c0,0,4,2.7,5.9-0.7l11.6-29.1h23l-16.2,40.2c0,0-2.7,7.5-7.9,9.1
		c-5.2,1.6-10.6-3.2-10.6-3.2l-38.6-27.1c0,0-1.7-1.4-2.9-0.9c-1.2,0.5-1.5,2-1.8,3c-0.4,1-11.1,28-11.1,28S338.6,437.5,338.6,437.4
		z"/>
</g>
</svg>
