<?xml version="1.0" encoding="utf-8"?>
<!-- Generator: Adobe Illustrator 22.0.1, SVG Export Plug-In . SVG Version: 6.00 Build 0)  -->
<svg version="1.1" id="Layer_2_1_" xmlns="http://www.w3.org/2000/svg" xmlns:xlink="http://www.w3.org/1999/xlink" x="0px" y="0px"
	 viewBox="0 0 500 500" style="enable-background:new 0 0 500 500;" xml:space="preserve">
<style type="text/css">
	.st0{fill:#FFFFFF;}
</style>
<path class="st0" d="M445.9,213.1c-0.9,1.2-1.9,2.5-2.8,3.7c-3.6,4.6-7.4,9.2-11.2,13.6c-10.5,12.2-21.8,23.9-33.6,34.9
	c-7.1,6.6-14.3,12.9-21.8,19c-5.2,4.2-10.5,8.3-15.9,12.2c-5.1,3.7-9.9,7-15.2,10.4h-32.6c-12.3,13.6-28.7,22.8-46.7,26.2
	c-5.2,1-10.5,1.5-15.8,1.5c-6.5,0-12.9-0.7-19.2-2.2c-5.7-1.3-11.3-3.3-16.7-5.8c-10.1-4.7-19.1-11.4-26.6-19.7h-33.1l-0.3-0.2
	c-6.9-4.5-13.7-9.3-20.3-14.3l-3.3-2.5h0.1c-4.4-3.4-8.7-6.8-12.9-10.4l0,0c-5.9-5-11.3-9.8-17-15.1l-2.5-2.4l0,0
	c-3.6-3.4-7.1-6.9-10.6-10.4l0,0c-5-5.1-9.5-9.9-14.2-15.1l-2-2.3l0,0c-3-3.4-6-6.9-8.9-10.4l0,0c-1.6-1.9-3.1-3.8-4.6-5.7
	c-1.4-1.8-2.8-3.5-4.1-5.3c-0.8-1.1-1.6-2.1-2.4-3.2l-1.6-2.2h127.2c7.8-13.4,19.1-24.4,32.7-31.8c6.5-3.5,13.4-6.2,20.6-7.9
	c6.5-1.5,13.1-2.3,19.7-2.3c8.1,0,16.2,1.2,24,3.5c7.1,2.1,13.9,5.1,20.2,9c11.9,7.3,21.8,17.5,28.9,29.6H450
	C448.5,209.6,447.5,211,445.9,213.1z M322.5,208.9c-10.7-18.7-28.2-32.6-48.7-38.7c-7.7-2.3-15.6-3.4-23.6-3.4
	c-6.5,0-13.1,0.8-19.4,2.3c-22.4,5.4-41.5,19.9-52.9,39.8H52.7c3,4.2,7.4,9.7,10.7,13.7l0,0c0.4,0.5,0.8,1,1.2,1.4h102.6
	c-1.1,3.4,2.3,8.2,1.6,11.7l-93.9,0.2c4.4,4.9,8.9,9.7,13.6,14.5l0,0c0.5,0.5,1,1,1.5,1.4h74.9c0.1,3.5,0.1,8.2,0.6,11.6H102l0,0
	l0,0c5.4,5,10.9,9.9,16.5,14.7l0,0c0.5,0.5,1.1,0.9,1.6,1.4l48.4,0.1c1.4,3.6,4.5,8.4,6.4,11.7l-39.7,0.1c6.5,4.9,13.1,9.5,20,14
	h33.3c11.4,12.7,26.4,21.6,43,25.5c6.2,1.4,12.5,2.2,18.9,2.2c5.2,0,10.4-0.5,15.5-1.5c17.9-3.4,34.2-12.6,46.4-26.2h32.8
	c5-3.3,10-6.7,14.8-10.2c1.8-1.3,3.6-2.6,5.4-4l-38.4-0.1c1.9-3.3,4-8.1,5.4-11.6h47.8c6-5,11.8-10.1,17.5-15.4
	c0.1-0.1,0.2-0.2,0.3-0.3H336c0.5-3.4,1.6-8.6,1.7-12.1h72.6c0.9-0.9,1.7-1.7,2.6-2.6c4.2-4.3,8.3-8.7,12.4-13.3l-90.4-0.3
	c-0.7-3.5-1.8-7.7-3-11.1l103.7-0.4c2.2-2.7,4.4-5.4,6.6-8.1c1-1.2,1.9-2.4,2.8-3.7c0.8-1.1,1.7-2.2,2.5-3.4l0,0L322.5,208.9
	L322.5,208.9z M250.2,325.8c-41.6,0-75.2-33.9-75.2-75.8c0-41.8,33.7-75.8,75.2-75.8c41.6,0,75.2,33.9,75.2,75.8
	C325.5,291.8,291.8,325.8,250.2,325.8z M250.2,181.2c-38,0-68.7,30.8-68.7,68.8s30.8,68.8,68.7,68.8c38,0,68.7-30.8,68.7-68.8
	C319,212,288.2,181.2,250.2,181.2z M250.2,313.6c-35.1,0-63.6-28.5-63.6-63.6s28.5-63.6,63.6-63.6s63.6,28.5,63.6,63.6
	S285.4,313.6,250.2,313.6z M233.7,232.4h-8.6H225h-0.9L214,255.9l-9.2-23.4H195V268h7.5v-21.4L211,268h5.1l8.9-20.9V268h8.8v-35.6
	H233.7z M250.2,232.4h-8.7V268h8.7V232.4z M296.4,268h8.7v-35.6h-8.7V268z M288.6,268v-35.6H281V254l0,0l-16.6-21.7h-6.5V268h7.5
	v-21.5l16.5,21.5H288.6z"/>
</svg>
