<?xml version="1.0" encoding="utf-8"?>
<!-- Generator: Adobe Illustrator 22.0.1, SVG Export Plug-In . SVG Version: 6.00 Build 0)  -->
<svg version="1.1" id="Layer_2_1_" xmlns="http://www.w3.org/2000/svg" xmlns:xlink="http://www.w3.org/1999/xlink" x="0px" y="0px"
	 viewBox="0 0 500 500" style="enable-background:new 0 0 500 500;" xml:space="preserve">
<style type="text/css">
	.st0{fill:#FFFFFF;}
</style>
<g>
	<path class="st0" d="M380.7,382.5l-28,48.5l0,0L250,371.6L147.3,431l-28-48.5L250,307L380.7,382.5z"/>
	<path class="st0" d="M210.8,82.8h-57.1l0,0v119.8L50,262.5L78.6,312l132.3-76.4L210.8,82.8L210.8,82.8z"/>
	<path class="st0" d="M289.2,82.8h57.1l0,0v119.8L450,262.5L421.4,312l-132.3-76.4V82.8H289.2z"/>
	<path class="st0" d="M249.9,69l28.3,13.8l0,0v159l137.7,79.5l0.2,32.7l-28.4,16.2L250,290.7l-137.7,79.5L83.9,354v-32.7l137.7-79.5
		v-159L249.9,69z"/>
</g>
</svg>
