<?xml version="1.0" encoding="utf-8"?>
<!-- Generator: Adobe Illustrator 21.0.2, SVG Export Plug-In . SVG Version: 6.00 Build 0)  -->
<svg version="1.1" id="Layer_2_1_" xmlns="http://www.w3.org/2000/svg" xmlns:xlink="http://www.w3.org/1999/xlink" x="0px" y="0px"
	 viewBox="0 0 500 500" style="enable-background:new 0 0 500 500;" xml:space="preserve">
<style type="text/css">
	.st0{fill:#FFFFFF;}
</style>
<path class="st0" d="M250,374.4c-110.3,0-200-55.8-200-124.4s89.7-124.4,200-124.4S450,181.4,450,250S360.3,374.4,250,374.4z
	 M250,316.2c14.7,0,26.2-30.2,26.2-68.9v-0.1c-8.6,0.7-17.4,1.1-26.2,1.1s-17.7-0.4-26.2-1.1v0.1C223.8,286,235.3,316.2,250,316.2z
	 M114.9,194.7C95.4,211.5,85,231.2,85,251.8c0,49.6,60.8,91.6,141.7,98.5c-18.2-17.6-29.3-55.1-29.3-99.3c0,0,0.1-5.9,0.1-7.2
	C152.3,235.5,120.9,216.8,114.9,194.7z M147.2,179.8c-0.5,1.3-0.7,2.6-0.7,3.8c0,2.1,0.6,4.1,1.8,6.2c5.8,9.9,25.3,18.5,52.2,23.2
	c4.8-28.1,14.8-50.4,27.9-62.3C185.5,153.8,152.3,165.6,147.2,179.8z M226.5,216.1c7.7,0.6,15.6,0.9,23.5,0.9s15.8-0.3,23.5-0.9
	c-4.3-23.1-13.3-37.4-23.5-37.4C239.8,178.7,230.8,193.1,226.5,216.1z M352.8,179.8c-5-14.2-38.3-26-81.2-29.1
	c13.1,11.9,23.1,34.2,27.9,62.3c26.9-4.7,46.4-13.3,52.2-23.2c1.2-2,1.8-4.1,1.8-6.2C353.5,182.3,353.2,181.1,352.8,179.8z
	 M385.1,194.7c-6,22.1-37.3,40.8-82.6,49.1c0,1.3,0.1,7.2,0.1,7.2c0,44.2-11.2,81.7-29.3,99.3c81-6.9,141.7-48.9,141.7-98.5
	C415,231.2,404.6,211.5,385.1,194.7z"/>
</svg>
