<?xml version="1.0" encoding="utf-8"?>
<!-- Generator: Adobe Illustrator 21.0.2, SVG Export Plug-In . SVG Version: 6.00 Build 0)  -->
<svg version="1.1" id="Layer_2" xmlns="http://www.w3.org/2000/svg" xmlns:xlink="http://www.w3.org/1999/xlink" x="0px" y="0px"
	 viewBox="0 0 512 512" style="enable-background:new 0 0 512 512;" xml:space="preserve">
<style type="text/css">
	.st0{fill:#FFFFFF;}
</style>
<path class="st0" d="M464,255.9C463.9,140.8,371.3,48.1,256.2,48c-0.1,0-0.2,0-0.2,0c0,0,0,0,0,0s0,0,0,0c-0.1,0-0.2,0-0.2,0
	C140.7,48.1,48.1,140.8,48,255.9c0,0,0,0.1,0,0.1v0v0c0,2,0,3.9,0.1,5.8c0,0.6,0,1.3,0.1,1.9c0,1.3,0.1,2.6,0.2,3.9
	c0,0.7,0.1,1.5,0.1,2.2c0.1,1.2,0.2,2.4,0.3,3.6c0.1,0.8,0.1,1.5,0.2,2.3c0.1,1.2,0.2,2.4,0.4,3.6c0.1,0.7,0.2,1.5,0.2,2.2
	c0.2,1.3,0.3,2.5,0.5,3.8c0.1,0.6,0.2,1.3,0.3,1.9c0.2,1.6,0.5,3.2,0.8,4.8c0,0.3,0.1,0.5,0.1,0.8c0.3,1.9,0.7,3.7,1.1,5.6
	c0.1,0.5,0.2,1,0.3,1.5c0.3,1.4,0.6,2.7,0.9,4c0.2,0.6,0.3,1.3,0.5,1.9c0.3,1.2,0.6,2.4,0.9,3.6c0.2,0.7,0.4,1.3,0.5,2
	c0.3,1.2,0.6,2.3,1,3.5c0.2,0.7,0.4,1.3,0.6,1.9c0.4,1.2,0.8,2.4,1.1,3.6c0.2,0.6,0.4,1.1,0.6,1.7c0.5,1.4,1,2.9,1.5,4.3
	c0.1,0.3,0.2,0.6,0.3,0.9c0.6,1.8,1.3,3.5,2,5.3c0.1,0.2,0.2,0.5,0.3,0.7c0.6,1.5,1.2,3,1.8,4.4c0.2,0.5,0.4,1,0.6,1.5
	c0.5,1.2,1.1,2.4,1.6,3.6c0.3,0.6,0.5,1.1,0.8,1.6c0.5,1.1,1.1,2.3,1.6,3.4c0.3,0.5,0.5,1.1,0.8,1.6c0.6,1.2,1.2,2.3,1.8,3.5
	c0.2,0.5,0.5,0.9,0.7,1.4c0.7,1.3,1.5,2.7,2.2,4c0.1,0.3,0.3,0.5,0.4,0.8c1.9,3.2,3.8,6.4,5.8,9.6c0.2,0.3,0.4,0.6,0.6,0.9
	c0.8,1.2,1.6,2.4,2.4,3.7c0.3,0.4,0.6,0.8,0.9,1.2c0.8,1.1,1.6,2.2,2.4,3.3c0.3,0.4,0.6,0.8,0.9,1.3c0.8,1.1,1.6,2.2,2.5,3.3
	c0.3,0.4,0.6,0.7,0.8,1.1c1,1.2,1.9,2.4,2.9,3.7c0.2,0.2,0.3,0.4,0.5,0.6c2.4,2.9,4.9,5.8,7.4,8.5c0.1,0.1,0.3,0.3,0.4,0.4
	c1.1,1.2,2.2,2.4,3.4,3.6c0.3,0.3,0.6,0.6,0.8,0.9c1,1,2,2.1,3.1,3.1c0.3,0.3,0.7,0.6,1,1c1,1,2.1,2,3.1,2.9
	c0.3,0.3,0.6,0.6,0.9,0.9c1.1,1,2.3,2.1,3.5,3.1c0.2,0.2,0.4,0.4,0.6,0.6c2.9,2.5,5.8,4.9,8.8,7.2l0,0c35.3,27.6,79.7,44,128,44
	s92.7-16.4,128-44l0,0c3-2.3,5.9-4.8,8.8-7.2c0.2-0.2,0.4-0.4,0.6-0.6c1.2-1,2.3-2.1,3.5-3.1c0.3-0.3,0.6-0.6,0.9-0.9
	c1-1,2.1-2,3.1-2.9c0.3-0.3,0.7-0.6,1-1c1-1,2-2,3.1-3.1c0.3-0.3,0.6-0.6,0.8-0.9c1.1-1.2,2.3-2.4,3.4-3.6c0.1-0.1,0.3-0.3,0.4-0.4
	c2.5-2.8,5-5.6,7.4-8.5c0.2-0.2,0.3-0.4,0.5-0.6c1-1.2,1.9-2.4,2.9-3.7c0.3-0.4,0.6-0.7,0.8-1.1c0.8-1.1,1.7-2.2,2.5-3.3
	c0.3-0.4,0.6-0.8,0.9-1.3c0.8-1.1,1.6-2.2,2.4-3.3c0.3-0.4,0.6-0.8,0.9-1.2c0.8-1.2,1.6-2.4,2.4-3.7c0.2-0.3,0.4-0.6,0.6-0.9
	c2-3.1,4-6.3,5.8-9.6c0.2-0.3,0.3-0.5,0.4-0.8c0.8-1.3,1.5-2.7,2.2-4c0.3-0.5,0.5-0.9,0.7-1.4c0.6-1.2,1.2-2.3,1.8-3.5
	c0.3-0.5,0.5-1.1,0.8-1.6c0.6-1.1,1.1-2.3,1.6-3.4c0.3-0.5,0.5-1.1,0.8-1.6c0.5-1.2,1.1-2.4,1.6-3.6c0.2-0.5,0.4-1,0.6-1.5
	c0.6-1.5,1.2-2.9,1.8-4.4c0.1-0.2,0.2-0.5,0.3-0.7c0.7-1.7,1.4-3.5,2-5.3c0.1-0.3,0.2-0.6,0.3-0.9c0.5-1.4,1-2.9,1.5-4.3
	c0.2-0.6,0.4-1.1,0.6-1.7c0.4-1.2,0.8-2.4,1.1-3.6c0.2-0.6,0.4-1.3,0.6-1.9c0.3-1.2,0.7-2.3,1-3.5c0.2-0.7,0.4-1.3,0.5-2
	c0.3-1.2,0.6-2.4,0.9-3.6c0.2-0.6,0.3-1.3,0.5-1.9c0.3-1.3,0.6-2.7,0.9-4c0.1-0.5,0.2-1,0.3-1.5c0.4-1.9,0.7-3.7,1.1-5.6
	c0-0.3,0.1-0.5,0.1-0.8c0.3-1.6,0.5-3.2,0.8-4.8c0.1-0.6,0.2-1.3,0.3-1.9c0.2-1.2,0.3-2.5,0.5-3.8c0.1-0.7,0.2-1.5,0.2-2.2
	c0.1-1.2,0.3-2.4,0.4-3.6c0.1-0.8,0.1-1.5,0.2-2.3c0.1-1.2,0.2-2.4,0.3-3.6c0-0.7,0.1-1.5,0.1-2.2c0.1-1.3,0.1-2.6,0.2-3.9
	c0-0.6,0.1-1.3,0.1-1.9c0.1-1.9,0.1-3.9,0.1-5.8v0v0C464,256,464,255.9,464,255.9z M280,130.3c22.9,4.4,44.4,15,61.9,30.8
	c0.2,0.2,0.4,0.3,0.5,0.5c1.1,1,2.1,2,3.1,3c0.1,0.1,0.2,0.2,0.4,0.4c0.7,0.7,1.4,1.3,2.1,2.1c0.4,0.5,0.9,1,1.4,1.5
	c0.9,1,1.8,2,2.7,3c0.3,0.4,0.6,0.7,1,1.1c0.5,0.6,1.1,1.3,1.6,1.9c13.7,16.6,23,36.5,27.1,57.6h-49.4c-4.4-14-12.5-26.3-23.2-35.8
	C290.9,180,280,157.1,280,132.7V130.3z M256,208c26.5,0,48,21.5,48,48c0,26.5-21.5,48-48,48s-48-21.5-48-48
	C208,229.5,229.5,208,256,208z M160.8,170.5c0.2-0.2,0.3-0.4,0.5-0.6c1-1.1,1.9-2.1,2.9-3.1c0.1-0.1,0.1-0.1,0.2-0.2
	c0.9-0.9,1.9-1.9,2.8-2.8c0.3-0.3,0.6-0.6,0.9-0.9c1-0.9,2-1.9,3-2.8c0.4-0.4,0.8-0.7,1.2-1c0.6-0.5,1.2-1,1.7-1.5
	c16.7-13.9,36.7-23.3,57.9-27.3v2.4c0,24.4-10.9,47.3-29.1,63.5c-10.7,9.5-18.8,21.8-23.2,35.8h-49.4
	C134.6,209.2,145.2,187.8,160.8,170.5z M346.5,346.5c-9.8,9.8-21,17.9-33.1,23.9c-35.3,17.8-57.5,54-57.5,93.5
	c0-39.5-22.2-75.8-57.5-93.5c-12.1-6.1-23.2-14.1-33.1-23.9C147.1,328.1,135,305,130.2,280h0c25.2,0,49.3,10.5,66.1,29.3
	C211,325.7,232.3,336,256,336s45-10.3,59.6-26.7c16.8-18.8,40.9-29.3,66.1-29.3h0C377,305,364.9,328.1,346.5,346.5z"/>
</svg>
