<?xml version="1.0" encoding="utf-8"?>
<!-- Generator: Adobe Illustrator 21.0.2, SVG Export Plug-In . SVG Version: 6.00 Build 0)  -->
<svg version="1.1" id="Layer_1" xmlns="http://www.w3.org/2000/svg" xmlns:xlink="http://www.w3.org/1999/xlink" x="0px" y="0px"
	 viewBox="0 0 900 300" style="enable-background:new 0 0 900 300;" xml:space="preserve">
<style type="text/css">
	.st0{opacity:5.000000e-02;}
	.st1{opacity:0.3;}
	.st2{opacity:0.4;}
	.st3{opacity:0.1;}
	.st4{opacity:0.5;}
	.st5{opacity:0.6;}
</style>
<g class="st0">
	<path class="st1" d="M33.3,250L33.3,250c0,9.2-7.5,16.7-16.7,16.7h0C7.5,266.7,0,259.2,0,250v0c0-9.2,7.5-16.7,16.7-16.7h0
		C25.9,233.3,33.3,240.8,33.3,250z"/>
	<path class="st1" d="M33.3,150L33.3,150c0,9.2-7.5,16.7-16.7,16.7h0C7.5,166.7,0,159.2,0,150v0c0-9.2,7.5-16.7,16.7-16.7h0
		C25.9,133.3,33.3,140.8,33.3,150z"/>
	<path class="st1" d="M33.3,16.7L33.3,16.7c0,9.2-7.5,16.7-16.7,16.7h0C7.5,33.3,0,25.9,0,16.7v0C0,7.5,7.5,0,16.7,0h0
		C25.9,0,33.3,7.5,33.3,16.7z"/>
	<path class="st1" d="M66.7,283.3L66.7,283.3c0,9.2-7.5,16.7-16.7,16.7h0c-9.2,0-16.7-7.5-16.7-16.7v0c0-9.2,7.5-16.7,16.7-16.7h0
		C59.2,266.7,66.7,274.1,66.7,283.3z"/>
	<path class="st2" d="M66.7,216.7L66.7,216.7c0,9.2-7.5,16.7-16.7,16.7h0c-9.2,0-16.7-7.5-16.7-16.7v0c0-9.2,7.5-16.7,16.7-16.7h0
		C59.2,200,66.7,207.5,66.7,216.7z"/>
	<path class="st3" d="M66.7,183.3L66.7,183.3c0,9.2-7.5,16.7-16.7,16.7h0c-9.2,0-16.7-7.5-16.7-16.7v0c0-9.2,7.5-16.7,16.7-16.7h0
		C59.2,166.7,66.7,174.1,66.7,183.3z"/>
	<path class="st1" d="M66.7,116.7L66.7,116.7c0,9.2-7.5,16.7-16.7,16.7h0c-9.2,0-16.7-7.5-16.7-16.7v0c0-9.2,7.5-16.7,16.7-16.7h0
		C59.2,100,66.7,107.5,66.7,116.7z"/>
	<path class="st3" d="M100,283.3L100,283.3c0,9.2-7.5,16.7-16.7,16.7h0c-9.2,0-16.7-7.5-16.7-16.7v0c0-9.2,7.5-16.7,16.7-16.7h0
		C92.5,266.7,100,274.1,100,283.3z"/>
	<path class="st4" d="M100,250L100,250c0,9.2-7.5,16.7-16.7,16.7h0c-9.2,0-16.7-7.5-16.7-16.7v0c0-9.2,7.5-16.7,16.7-16.7h0
		C92.5,233.3,100,240.8,100,250z"/>
	<path class="st1" d="M100,183.3L100,183.3c0,9.2-7.5,16.7-16.7,16.7h0c-9.2,0-16.7-7.5-16.7-16.7v0c0-9.2,7.5-16.7,16.7-16.7h0
		C92.5,166.7,100,174.1,100,183.3z"/>
	<path class="st5" d="M100,150L100,150c0,9.2-7.5,16.7-16.7,16.7h0c-9.2,0-16.7-7.5-16.7-16.7v0c0-9.2,7.5-16.7,16.7-16.7h0
		C92.5,133.3,100,140.8,100,150z"/>
	<path d="M100,50L100,50c0,9.2-7.5,16.7-16.7,16.7h0c-9.2,0-16.7-7.5-16.7-16.7v0c0-9.2,7.5-16.7,16.7-16.7h0
		C92.5,33.3,100,40.8,100,50z"/>
	<path class="st1" d="M133.3,250L133.3,250c0,9.2-7.5,16.7-16.7,16.7h0c-9.2,0-16.7-7.5-16.7-16.7v0c0-9.2,7.5-16.7,16.7-16.7h0
		C125.9,233.3,133.3,240.8,133.3,250z"/>
	<path class="st5" d="M133.3,216.7L133.3,216.7c0,9.2-7.5,16.7-16.7,16.7h0c-9.2,0-16.7-7.5-16.7-16.7v0c0-9.2,7.5-16.7,16.7-16.7h0
		C125.9,200,133.3,207.5,133.3,216.7z"/>
	<path class="st4" d="M133.3,150L133.3,150c0,9.2-7.5,16.7-16.7,16.7h0c-9.2,0-16.7-7.5-16.7-16.7v0c0-9.2,7.5-16.7,16.7-16.7h0
		C125.9,133.3,133.3,140.8,133.3,150z"/>
	<path class="st3" d="M133.3,83.3L133.3,83.3c0,9.2-7.5,16.7-16.7,16.7h0c-9.2,0-16.7-7.5-16.7-16.7v0c0-9.2,7.5-16.7,16.7-16.7h0
		C125.9,66.7,133.3,74.1,133.3,83.3z"/>
	<path class="st1" d="M166.7,283.3L166.7,283.3c0,9.2-7.5,16.7-16.7,16.7h0c-9.2,0-16.7-7.5-16.7-16.7v0c0-9.2,7.5-16.7,16.7-16.7h0
		C159.2,266.7,166.7,274.1,166.7,283.3z"/>
	<path class="st2" d="M166.7,250L166.7,250c0,9.2-7.5,16.7-16.7,16.7h0c-9.2,0-16.7-7.5-16.7-16.7v0c0-9.2,7.5-16.7,16.7-16.7h0
		C159.2,233.3,166.7,240.8,166.7,250z"/>
	<path class="st1" d="M166.7,150L166.7,150c0,9.2-7.5,16.7-16.7,16.7h0c-9.2,0-16.7-7.5-16.7-16.7v0c0-9.2,7.5-16.7,16.7-16.7h0
		C159.2,133.3,166.7,140.8,166.7,150z"/>
	<path class="st1" d="M166.7,116.7L166.7,116.7c0,9.2-7.5,16.7-16.7,16.7h0c-9.2,0-16.7-7.5-16.7-16.7v0c0-9.2,7.5-16.7,16.7-16.7h0
		C159.2,100,166.7,107.5,166.7,116.7z"/>
	<path class="st1" d="M166.7,50L166.7,50c0,9.2-7.5,16.7-16.7,16.7h0c-9.2,0-16.7-7.5-16.7-16.7v0c0-9.2,7.5-16.7,16.7-16.7h0
		C159.2,33.3,166.7,40.8,166.7,50z"/>
	<path class="st1" d="M200,250L200,250c0,9.2-7.5,16.7-16.7,16.7h0c-9.2,0-16.7-7.5-16.7-16.7v0c0-9.2,7.5-16.7,16.7-16.7h0
		C192.5,233.3,200,240.8,200,250z"/>
	<path class="st1" d="M200,216.7L200,216.7c0,9.2-7.5,16.7-16.7,16.7h0c-9.2,0-16.7-7.5-16.7-16.7v0c0-9.2,7.5-16.7,16.7-16.7h0
		C192.5,200,200,207.5,200,216.7z"/>
	<path class="st1" d="M200,183.3L200,183.3c0,9.2-7.5,16.7-16.7,16.7h0c-9.2,0-16.7-7.5-16.7-16.7v0c0-9.2,7.5-16.7,16.7-16.7h0
		C192.5,166.7,200,174.1,200,183.3z"/>
	<path class="st5" d="M200,116.7L200,116.7c0,9.2-7.5,16.7-16.7,16.7h0c-9.2,0-16.7-7.5-16.7-16.7v0c0-9.2,7.5-16.7,16.7-16.7h0
		C192.5,100,200,107.5,200,116.7z"/>
	<path class="st2" d="M200,50L200,50c0,9.2-7.5,16.7-16.7,16.7h0c-9.2,0-16.7-7.5-16.7-16.7v0c0-9.2,7.5-16.7,16.7-16.7h0
		C192.5,33.3,200,40.8,200,50z"/>
	<path class="st1" d="M233.3,283.3L233.3,283.3c0,9.2-7.5,16.7-16.7,16.7h0c-9.2,0-16.7-7.5-16.7-16.7v0c0-9.2,7.5-16.7,16.7-16.7h0
		C225.9,266.7,233.3,274.1,233.3,283.3z"/>
	<path class="st5" d="M233.3,250L233.3,250c0,9.2-7.5,16.7-16.7,16.7h0c-9.2,0-16.7-7.5-16.7-16.7v0c0-9.2,7.5-16.7,16.7-16.7h0
		C225.9,233.3,233.3,240.8,233.3,250z"/>
	<path class="st1" d="M233.3,150L233.3,150c0,9.2-7.5,16.7-16.7,16.7h0c-9.2,0-16.7-7.5-16.7-16.7v0c0-9.2,7.5-16.7,16.7-16.7h0
		C225.9,133.3,233.3,140.8,233.3,150z"/>
	<path class="st4" d="M233.3,83.3L233.3,83.3c0,9.2-7.5,16.7-16.7,16.7h0c-9.2,0-16.7-7.5-16.7-16.7v0c0-9.2,7.5-16.7,16.7-16.7h0
		C225.9,66.7,233.3,74.1,233.3,83.3z"/>
	<path class="st4" d="M266.7,283.3L266.7,283.3c0,9.2-7.5,16.7-16.7,16.7h0c-9.2,0-16.7-7.5-16.7-16.7v0c0-9.2,7.5-16.7,16.7-16.7h0
		C259.2,266.7,266.7,274.1,266.7,283.3z"/>
	<path class="st1" d="M266.7,216.7L266.7,216.7c0,9.2-7.5,16.7-16.7,16.7h0c-9.2,0-16.7-7.5-16.7-16.7v0c0-9.2,7.5-16.7,16.7-16.7h0
		C259.2,200,266.7,207.5,266.7,216.7z"/>
	<path class="st1" d="M266.7,116.7L266.7,116.7c0,9.2-7.5,16.7-16.7,16.7h0c-9.2,0-16.7-7.5-16.7-16.7v0c0-9.2,7.5-16.7,16.7-16.7h0
		C259.2,100,266.7,107.5,266.7,116.7z"/>
	<path class="st1" d="M266.7,16.7L266.7,16.7c0,9.2-7.5,16.7-16.7,16.7h0c-9.2,0-16.7-7.5-16.7-16.7v0C233.3,7.5,240.8,0,250,0h0
		C259.2,0,266.7,7.5,266.7,16.7z"/>
	<path class="st3" d="M300,283.3L300,283.3c0,9.2-7.5,16.7-16.7,16.7h0c-9.2,0-16.7-7.5-16.7-16.7v0c0-9.2,7.5-16.7,16.7-16.7h0
		C292.5,266.7,300,274.1,300,283.3z"/>
	<path class="st1" d="M300,250L300,250c0,9.2-7.5,16.7-16.7,16.7h0c-9.2,0-16.7-7.5-16.7-16.7v0c0-9.2,7.5-16.7,16.7-16.7h0
		C292.5,233.3,300,240.8,300,250z"/>
	<path class="st2" d="M300,216.7L300,216.7c0,9.2-7.5,16.7-16.7,16.7h0c-9.2,0-16.7-7.5-16.7-16.7v0c0-9.2,7.5-16.7,16.7-16.7h0
		C292.5,200,300,207.5,300,216.7z"/>
	<path d="M300,150L300,150c0,9.2-7.5,16.7-16.7,16.7h0c-9.2,0-16.7-7.5-16.7-16.7v0c0-9.2,7.5-16.7,16.7-16.7h0
		C292.5,133.3,300,140.8,300,150z"/>
	<path class="st1" d="M300,83.3L300,83.3c0,9.2-7.5,16.7-16.7,16.7h0c-9.2,0-16.7-7.5-16.7-16.7v0c0-9.2,7.5-16.7,16.7-16.7h0
		C292.5,66.7,300,74.1,300,83.3z"/>
	<path class="st5" d="M300,50L300,50c0,9.2-7.5,16.7-16.7,16.7h0c-9.2,0-16.7-7.5-16.7-16.7v0c0-9.2,7.5-16.7,16.7-16.7h0
		C292.5,33.3,300,40.8,300,50z"/>
	<path class="st4" d="M333.3,250L333.3,250c0,9.2-7.5,16.7-16.7,16.7h0c-9.2,0-16.7-7.5-16.7-16.7v0c0-9.2,7.5-16.7,16.7-16.7h0
		C325.9,233.3,333.3,240.8,333.3,250z"/>
	<path class="st1" d="M333.3,183.3L333.3,183.3c0,9.2-7.5,16.7-16.7,16.7h0c-9.2,0-16.7-7.5-16.7-16.7v0c0-9.2,7.5-16.7,16.7-16.7h0
		C325.9,166.7,333.3,174.1,333.3,183.3z"/>
	<path class="st1" d="M366.7,283.3L366.7,283.3c0,9.2-7.5,16.7-16.7,16.7h0c-9.2,0-16.7-7.5-16.7-16.7v0c0-9.2,7.5-16.7,16.7-16.7h0
		C359.2,266.7,366.7,274.1,366.7,283.3z"/>
	<path class="st1" d="M366.7,250L366.7,250c0,9.2-7.5,16.7-16.7,16.7h0c-9.2,0-16.7-7.5-16.7-16.7v0c0-9.2,7.5-16.7,16.7-16.7h0
		C359.2,233.3,366.7,240.8,366.7,250z"/>
	<path class="st4" d="M366.7,183.3L366.7,183.3c0,9.2-7.5,16.7-16.7,16.7h0c-9.2,0-16.7-7.5-16.7-16.7v0c0-9.2,7.5-16.7,16.7-16.7h0
		C359.2,166.7,366.7,174.1,366.7,183.3z"/>
	<path class="st3" d="M366.7,83.3L366.7,83.3c0,9.2-7.5,16.7-16.7,16.7h0c-9.2,0-16.7-7.5-16.7-16.7v0c0-9.2,7.5-16.7,16.7-16.7h0
		C359.2,66.7,366.7,74.1,366.7,83.3z"/>
	<path class="st1" d="M400,283.3L400,283.3c0,9.2-7.5,16.7-16.7,16.7h0c-9.2,0-16.7-7.5-16.7-16.7v0c0-9.2,7.5-16.7,16.7-16.7h0
		C392.5,266.7,400,274.1,400,283.3z"/>
	<path class="st2" d="M400,216.7L400,216.7c0,9.2-7.5,16.7-16.7,16.7h0c-9.2,0-16.7-7.5-16.7-16.7v0c0-9.2,7.5-16.7,16.7-16.7h0
		C392.5,200,400,207.5,400,216.7z"/>
	<path d="M400,183.3L400,183.3c0,9.2-7.5,16.7-16.7,16.7h0c-9.2,0-16.7-7.5-16.7-16.7v0c0-9.2,7.5-16.7,16.7-16.7h0
		C392.5,166.7,400,174.1,400,183.3z"/>
	<path class="st3" d="M400,150L400,150c0,9.2-7.5,16.7-16.7,16.7h0c-9.2,0-16.7-7.5-16.7-16.7v0c0-9.2,7.5-16.7,16.7-16.7h0
		C392.5,133.3,400,140.8,400,150z"/>
	<path class="st4" d="M400,16.7L400,16.7c0,9.2-7.5,16.7-16.7,16.7h0c-9.2,0-16.7-7.5-16.7-16.7v0c0-9.2,7.5-16.7,16.7-16.7h0
		C392.5,0,400,7.5,400,16.7z"/>
	<path class="st3" d="M433.3,250L433.3,250c0,9.2-7.5,16.7-16.7,16.7h0c-9.2,0-16.7-7.5-16.7-16.7v0c0-9.2,7.5-16.7,16.7-16.7h0
		C425.9,233.3,433.3,240.8,433.3,250z"/>
	<path class="st1" d="M433.3,216.7L433.3,216.7c0,9.2-7.5,16.7-16.7,16.7h0c-9.2,0-16.7-7.5-16.7-16.7v0c0-9.2,7.5-16.7,16.7-16.7h0
		C425.9,200,433.3,207.5,433.3,216.7z"/>
	<path class="st1" d="M433.3,150L433.3,150c0,9.2-7.5,16.7-16.7,16.7h0c-9.2,0-16.7-7.5-16.7-16.7v0c0-9.2,7.5-16.7,16.7-16.7h0
		C425.9,133.3,433.3,140.8,433.3,150z"/>
	<path class="st1" d="M433.3,83.3L433.3,83.3c0,9.2-7.5,16.7-16.7,16.7h0c-9.2,0-16.7-7.5-16.7-16.7v0c0-9.2,7.5-16.7,16.7-16.7h0
		C425.9,66.7,433.3,74.1,433.3,83.3z"/>
	<path class="st1" d="M466.7,283.3L466.7,283.3c0,9.2-7.5,16.7-16.7,16.7h0c-9.2,0-16.7-7.5-16.7-16.7v0c0-9.2,7.5-16.7,16.7-16.7h0
		C459.2,266.7,466.7,274.1,466.7,283.3z"/>
	<path class="st1" d="M466.7,250L466.7,250c0,9.2-7.5,16.7-16.7,16.7h0c-9.2,0-16.7-7.5-16.7-16.7v0c0-9.2,7.5-16.7,16.7-16.7h0
		C459.2,233.3,466.7,240.8,466.7,250z"/>
	<path class="st1" d="M466.7,183.3L466.7,183.3c0,9.2-7.5,16.7-16.7,16.7h0c-9.2,0-16.7-7.5-16.7-16.7v0c0-9.2,7.5-16.7,16.7-16.7h0
		C459.2,166.7,466.7,174.1,466.7,183.3z"/>
	<path class="st5" d="M466.7,150L466.7,150c0,9.2-7.5,16.7-16.7,16.7h0c-9.2,0-16.7-7.5-16.7-16.7v0c0-9.2,7.5-16.7,16.7-16.7h0
		C459.2,133.3,466.7,140.8,466.7,150z"/>
	<path class="st2" d="M466.7,83.3L466.7,83.3c0,9.2-7.5,16.7-16.7,16.7h0c-9.2,0-16.7-7.5-16.7-16.7v0c0-9.2,7.5-16.7,16.7-16.7h0
		C459.2,66.7,466.7,74.1,466.7,83.3z"/>
	<path d="M500,250L500,250c0,9.2-7.5,16.7-16.7,16.7h0c-9.2,0-16.7-7.5-16.7-16.7v0c0-9.2,7.5-16.7,16.7-16.7h0
		C492.5,233.3,500,240.8,500,250z"/>
	<path class="st1" d="M500,216.7L500,216.7c0,9.2-7.5,16.7-16.7,16.7h0c-9.2,0-16.7-7.5-16.7-16.7v0c0-9.2,7.5-16.7,16.7-16.7h0
		C492.5,200,500,207.5,500,216.7z"/>
	<path class="st2" d="M500,183.3L500,183.3c0,9.2-7.5,16.7-16.7,16.7h0c-9.2,0-16.7-7.5-16.7-16.7v0c0-9.2,7.5-16.7,16.7-16.7h0
		C492.5,166.7,500,174.1,500,183.3z"/>
	<path class="st1" d="M533.3,283.3L533.3,283.3c0,9.2-7.5,16.7-16.7,16.7l0,0c-9.2,0-16.7-7.5-16.7-16.7v0c0-9.2,7.5-16.7,16.7-16.7
		l0,0C525.9,266.7,533.3,274.1,533.3,283.3z"/>
	<path class="st1" d="M533.3,150L533.3,150c0,9.2-7.5,16.7-16.7,16.7l0,0c-9.2,0-16.7-7.5-16.7-16.7v0c0-9.2,7.5-16.7,16.7-16.7l0,0
		C525.9,133.3,533.3,140.8,533.3,150z"/>
	<path class="st1" d="M566.7,250L566.7,250c0,9.2-7.5,16.7-16.7,16.7l0,0c-9.2,0-16.7-7.5-16.7-16.7v0c0-9.2,7.5-16.7,16.7-16.7l0,0
		C559.2,233.3,566.7,240.8,566.7,250z"/>
	<path class="st1" d="M566.7,216.7L566.7,216.7c0,9.2-7.5,16.7-16.7,16.7l0,0c-9.2,0-16.7-7.5-16.7-16.7v0c0-9.2,7.5-16.7,16.7-16.7
		l0,0C559.2,200,566.7,207.5,566.7,216.7z"/>
	<path class="st1" d="M566.7,50L566.7,50c0,9.2-7.5,16.7-16.7,16.7l0,0c-9.2,0-16.7-7.5-16.7-16.7v0c0-9.2,7.5-16.7,16.7-16.7l0,0
		C559.2,33.3,566.7,40.8,566.7,50z"/>
	<path class="st4" d="M600,283.3L600,283.3c0,9.2-7.5,16.7-16.7,16.7h0c-9.2,0-16.7-7.5-16.7-16.7v0c0-9.2,7.5-16.7,16.7-16.7h0
		C592.5,266.7,600,274.1,600,283.3z"/>
	<path class="st2" d="M600,216.7L600,216.7c0,9.2-7.5,16.7-16.7,16.7h0c-9.2,0-16.7-7.5-16.7-16.7v0c0-9.2,7.5-16.7,16.7-16.7h0
		C592.5,200,600,207.5,600,216.7z"/>
	<path class="st1" d="M600,150L600,150c0,9.2-7.5,16.7-16.7,16.7h0c-9.2,0-16.7-7.5-16.7-16.7v0c0-9.2,7.5-16.7,16.7-16.7h0
		C592.5,133.3,600,140.8,600,150z"/>
	<path class="st1" d="M633.3,283.3L633.3,283.3c0,9.2-7.5,16.7-16.7,16.7l0,0c-9.2,0-16.7-7.5-16.7-16.7v0c0-9.2,7.5-16.7,16.7-16.7
		l0,0C625.9,266.7,633.3,274.1,633.3,283.3z"/>
	<path class="st4" d="M633.3,250L633.3,250c0,9.2-7.5,16.7-16.7,16.7l0,0c-9.2,0-16.7-7.5-16.7-16.7v0c0-9.2,7.5-16.7,16.7-16.7l0,0
		C625.9,233.3,633.3,240.8,633.3,250z"/>
	<path class="st1" d="M633.3,216.7L633.3,216.7c0,9.2-7.5,16.7-16.7,16.7l0,0c-9.2,0-16.7-7.5-16.7-16.7v0c0-9.2,7.5-16.7,16.7-16.7
		l0,0C625.9,200,633.3,207.5,633.3,216.7z"/>
	<path d="M633.3,183.3L633.3,183.3c0,9.2-7.5,16.7-16.7,16.7l0,0c-9.2,0-16.7-7.5-16.7-16.7v0c0-9.2,7.5-16.7,16.7-16.7l0,0
		C625.9,166.7,633.3,174.1,633.3,183.3z"/>
	<path class="st1" d="M633.3,116.7L633.3,116.7c0,9.2-7.5,16.7-16.7,16.7l0,0c-9.2,0-16.7-7.5-16.7-16.7v0c0-9.2,7.5-16.7,16.7-16.7
		l0,0C625.9,100,633.3,107.5,633.3,116.7z"/>
	<path class="st5" d="M633.3,50L633.3,50c0,9.2-7.5,16.7-16.7,16.7l0,0c-9.2,0-16.7-7.5-16.7-16.7v0c0-9.2,7.5-16.7,16.7-16.7l0,0
		C625.9,33.3,633.3,40.8,633.3,50z"/>
	<path class="st5" d="M666.7,250L666.7,250c0,9.2-7.5,16.7-16.7,16.7h0c-9.2,0-16.7-7.5-16.7-16.7v0c0-9.2,7.5-16.7,16.7-16.7h0
		C659.2,233.3,666.7,240.8,666.7,250z"/>
	<path class="st1" d="M666.7,216.7L666.7,216.7c0,9.2-7.5,16.7-16.7,16.7h0c-9.2,0-16.7-7.5-16.7-16.7v0c0-9.2,7.5-16.7,16.7-16.7h0
		C659.2,200,666.7,207.5,666.7,216.7z"/>
	<path class="st1" d="M666.7,150L666.7,150c0,9.2-7.5,16.7-16.7,16.7h0c-9.2,0-16.7-7.5-16.7-16.7v0c0-9.2,7.5-16.7,16.7-16.7h0
		C659.2,133.3,666.7,140.8,666.7,150z"/>
	<path class="st1" d="M666.7,16.7L666.7,16.7c0,9.2-7.5,16.7-16.7,16.7h0c-9.2,0-16.7-7.5-16.7-16.7v0C633.3,7.5,640.8,0,650,0h0
		C659.2,0,666.7,7.5,666.7,16.7z"/>
	<path class="st1" d="M700,283.3L700,283.3c0,9.2-7.5,16.7-16.7,16.7h0c-9.2,0-16.7-7.5-16.7-16.7v0c0-9.2,7.5-16.7,16.7-16.7h0
		C692.5,266.7,700,274.1,700,283.3z"/>
	<path class="st4" d="M700,83.3L700,83.3c0,9.2-7.5,16.7-16.7,16.7h0c-9.2,0-16.7-7.5-16.7-16.7v0c0-9.2,7.5-16.7,16.7-16.7h0
		C692.5,66.7,700,74.1,700,83.3z"/>
	<path class="st2" d="M733.3,283.3L733.3,283.3c0,9.2-7.5,16.7-16.7,16.7l0,0c-9.2,0-16.7-7.5-16.7-16.7v0c0-9.2,7.5-16.7,16.7-16.7
		l0,0C725.9,266.7,733.3,274.1,733.3,283.3z"/>
	<path class="st1" d="M733.3,183.3L733.3,183.3c0,9.2-7.5,16.7-16.7,16.7l0,0c-9.2,0-16.7-7.5-16.7-16.7v0c0-9.2,7.5-16.7,16.7-16.7
		l0,0C725.9,166.7,733.3,174.1,733.3,183.3z"/>
	<path class="st3" d="M733.3,116.7L733.3,116.7c0,9.2-7.5,16.7-16.7,16.7l0,0c-9.2,0-16.7-7.5-16.7-16.7v0c0-9.2,7.5-16.7,16.7-16.7
		l0,0C725.9,100,733.3,107.5,733.3,116.7z"/>
	<path class="st1" d="M766.7,216.7L766.7,216.7c0,9.2-7.5,16.7-16.7,16.7h0c-9.2,0-16.7-7.5-16.7-16.7v0c0-9.2,7.5-16.7,16.7-16.7h0
		C759.2,200,766.7,207.5,766.7,216.7z"/>
	<path d="M766.7,150L766.7,150c0,9.2-7.5,16.7-16.7,16.7h0c-9.2,0-16.7-7.5-16.7-16.7v0c0-9.2,7.5-16.7,16.7-16.7h0
		C759.2,133.3,766.7,140.8,766.7,150z"/>
	<path d="M766.7,16.7L766.7,16.7c0,9.2-7.5,16.7-16.7,16.7h0c-9.2,0-16.7-7.5-16.7-16.7v0C733.3,7.5,740.8,0,750,0h0
		C759.2,0,766.7,7.5,766.7,16.7z"/>
	<path class="st1" d="M800,283.3L800,283.3c0,9.2-7.5,16.7-16.7,16.7h0c-9.2,0-16.7-7.5-16.7-16.7v0c0-9.2,7.5-16.7,16.7-16.7h0
		C792.5,266.7,800,274.1,800,283.3z"/>
	<path class="st5" d="M800,216.7L800,216.7c0,9.2-7.5,16.7-16.7,16.7h0c-9.2,0-16.7-7.5-16.7-16.7v0c0-9.2,7.5-16.7,16.7-16.7h0
		C792.5,200,800,207.5,800,216.7z"/>
	<path class="st5" d="M800,116.7L800,116.7c0,9.2-7.5,16.7-16.7,16.7h0c-9.2,0-16.7-7.5-16.7-16.7v0c0-9.2,7.5-16.7,16.7-16.7h0
		C792.5,100,800,107.5,800,116.7z"/>
	<path class="st1" d="M800,50L800,50c0,9.2-7.5,16.7-16.7,16.7h0c-9.2,0-16.7-7.5-16.7-16.7v0c0-9.2,7.5-16.7,16.7-16.7h0
		C792.5,33.3,800,40.8,800,50z"/>
	<path class="st1" d="M833.3,283.3L833.3,283.3c0,9.2-7.5,16.7-16.7,16.7l0,0c-9.2,0-16.7-7.5-16.7-16.7v0c0-9.2,7.5-16.7,16.7-16.7
		l0,0C825.9,266.7,833.3,274.1,833.3,283.3z"/>
	<path class="st4" d="M833.3,250L833.3,250c0,9.2-7.5,16.7-16.7,16.7l0,0c-9.2,0-16.7-7.5-16.7-16.7v0c0-9.2,7.5-16.7,16.7-16.7l0,0
		C825.9,233.3,833.3,240.8,833.3,250z"/>
	<path class="st1" d="M833.3,183.3L833.3,183.3c0,9.2-7.5,16.7-16.7,16.7l0,0c-9.2,0-16.7-7.5-16.7-16.7v0c0-9.2,7.5-16.7,16.7-16.7
		l0,0C825.9,166.7,833.3,174.1,833.3,183.3z"/>
	<path class="st3" d="M866.7,83.3L866.7,83.3c0,9.2-7.5,16.7-16.7,16.7h0c-9.2,0-16.7-7.5-16.7-16.7v0c0-9.2,7.5-16.7,16.7-16.7h0
		C859.2,66.7,866.7,74.1,866.7,83.3z"/>
	<path class="st4" d="M900,250L900,250c0,9.2-7.5,16.7-16.7,16.7l0,0c-9.2,0-16.7-7.5-16.7-16.7v0c0-9.2,7.5-16.7,16.7-16.7l0,0
		C892.5,233.3,900,240.8,900,250z"/>
	<path class="st2" d="M900,183.3L900,183.3c0,9.2-7.5,16.7-16.7,16.7l0,0c-9.2,0-16.7-7.5-16.7-16.7v0c0-9.2,7.5-16.7,16.7-16.7l0,0
		C892.5,166.7,900,174.1,900,183.3z"/>
	<path class="st5" d="M900,116.7L900,116.7c0,9.2-7.5,16.7-16.7,16.7l0,0c-9.2,0-16.7-7.5-16.7-16.7v0c0-9.2,7.5-16.7,16.7-16.7l0,0
		C892.5,100,900,107.5,900,116.7z"/>
</g>
</svg>
