<?xml version="1.0" encoding="utf-8"?>
<!-- Generator: Adobe Illustrator 22.0.1, SVG Export Plug-In . SVG Version: 6.00 Build 0)  -->
<svg version="1.1" id="Layer_1" xmlns="http://www.w3.org/2000/svg" xmlns:xlink="http://www.w3.org/1999/xlink" x="0px" y="0px"
	 viewBox="0 0 512 512" style="enable-background:new 0 0 512 512;" xml:space="preserve">
<style type="text/css">
	.st0{fill:#FFFFFF;}
	.st1{fill:#42C4DA;}
	.st2{fill:#333333;}
	.st3{fill:#202020;}
	.st4{fill:#515151;}
	.st5{fill:#464646;}
</style>
<g id="New_Symbol">
	<path class="st0" d="M383,301.5c0,25.7-4.6,49.8-12.5,70.4c-4.1,6.9-8.8,13.4-14,19.5c-25.3,19.1-62.8,31.2-104.7,31.2
		s-79.4-12.1-104.7-31.2c-2.2-2.6-4.3-5.2-6.3-7.9c-11-22.9-17.5-51.3-17.5-82s6.5-59.1,17.5-82c25.1-34,65.5-56,111-56
		c50.5,0,94.6,27.1,118.7,67.5C378.4,251.7,383,275.8,383,301.5z"/>
	<g id="weel_1_">
		<path class="st1" d="M255.6,86.2c-41.8,0-81.1,7.2-114.8,19.9c-7.7,4.5-15,9.6-21.8,15.3c-32.2,42.1-52.6,105-52.6,175.3
			c0,33.8,4.7,65.8,13.2,94.7c0.5,1,0.9,2,1.4,3c18.3,38.1,53.4,65.2,94.5,75.1c25,6,52,9.3,80.2,9.3c29.5,0,57.7-3.6,83.6-10.2
			c33.2-8.4,62.4-28.4,81.2-56.9c0.7-1,1.4-2.1,2-3.2c6.1-9.7,10.4-20.5,13.1-31.6c6-25,9.3-52,9.3-80.2
			c0-70.3-20.4-133.1-52.6-175.3c-6.8-5.7-14-10.9-21.8-15.3C336.7,93.5,297.5,86.2,255.6,86.2z M255.6,356.1
			c-32.8,0-59.3-26.6-59.3-59.3s26.6-59.3,59.3-59.3s59.3,26.6,59.3,59.3S288.4,356.1,255.6,356.1z"/>
		<path class="st2" d="M130.2,347.3c-17.1,0-31-21.1-31.3-47.5c-0.6-56.5,15.8-107.4,41.9-141.1c21.5-17.9,47.3-31,75.6-37.3
			c11.7-1.7,23.7-2.6,36.1-2.8c14.5-0.2,28.8,0.8,42.6,2.8c27.6,6.2,53.3,18.8,75.4,37.2c2.2,2.8,4.4,5.8,6.4,8.9
			c22.4,33.3,35,78.1,35.5,126.1c0.3,26.7-13.5,48.7-30.8,49.2c-0.2,0-0.4,0-0.6,0c-3.7,0-7.3-1-10.6-2.8c-18.3-6.6-31.6-24-32-44.7
			c-0.4-22.1-9.4-42.8-25.3-58.2c-15.9-15.4-36.9-23.7-59-23.3c-45.7,0.8-82.2,38.6-81.4,84.3c0.4,21.2-13,39.5-32,46.3
			c-3.2,1.8-6.5,2.7-10.1,2.8C130.5,347.3,130.3,347.3,130.2,347.3z"/>
		<path class="st3" d="M259.6,212.1c-26.7,0-48.4-21.6-48.4-48.4c0-18.2,10.1-34.1,24.9-42.3c6.9-2.5,14.9-3.9,23.4-3.9
			c44.4,0,80.6-23.4,80.6-52.2c0-13.1,12.5-24.4,30.2-29.1c3.6-1.5,7.6-2.3,11.7-2.3c17.3,0,31.3,14,31.3,31.3
			c0,20.4-5.3,39.5-14.7,56.1c-7.3,19.9-16.9,37.5-28.4,51.7C340.1,197.5,301.5,212.1,259.6,212.1z"/>
		<path class="st4" d="M130.2,341.1c-17.3,0-31.3-21.6-31.3-48.4c0,0,0-96.3,0-171.2c0-30.9,0-56.1,0-56.1c0-17.3,14-31.3,31.3-31.3
			c3.7,0,7.3,0.7,10.6,1.8c18.6,4.3,32,15.9,32,29.5c0,0,0,25.3,0,56.1c0,74.9,0,171.2,0,171.2c0,21-13.3,38.8-32,45.5
			C137.5,340,133.9,341.1,130.2,341.1z"/>
		<path class="st5" d="M255.5,446.4c-39.5,0-77.1-8.2-108.1-23.5c-4.8-2.4-9.2-5.4-13-9.2l-0.1-0.1c-0.1-0.1-0.1-0.1-0.2-0.2
			c-11.1-10.8-19.3-24.3-23.9-39.1c-7.2-23-11.1-48.3-11.4-74.6c-0.3-26.7,13.5-48.7,30.8-49.2c3.9-0.1,7.7,0.9,11.2,2.9
			c18.3,6.6,31.6,24,32,44.7c0.4,22.1,9.4,42.8,25.3,58.2c15.9,15.4,36.9,23.6,59,23.3c22.1-0.4,42.8-9.4,58.2-25.3
			c15.4-15.9,23.6-36.9,23.3-59c-0.4-21.2,13-39.5,32-46.3c3.2-1.8,6.5-2.7,10.1-2.8c17.2-0.5,31.6,20.8,31.9,47.5
			c0.4,31.2-4.4,61.4-13.8,88.2c-2.5,7.3-6.3,14.1-11,20.2c-2.4,3.1-5,6.1-7.8,8.9c0,0-0.1,0.1-0.1,0.1
			c-5.6,5.7-12.2,10.3-19.5,13.7c-29.4,13.7-64.5,21.3-101.5,21.7C257.7,446.4,256.6,446.4,255.5,446.4z"/>
		<path class="st2" d="M381.1,342.8c-3.7,0-7.3-1-10.6-2.8c-18.3-6.6-31.6-24-32-44.7c-0.4-22.1-9.4-42.8-25.3-58.2
			c-15.9-15.4-36.9-23.7-59-23.3c-26.7,0.4-48.7-20.8-49.2-47.5c-0.3-19.9,11.4-37.2,28.4-44.9c5.8-1.7,12.3-2.7,19.1-2.8
			c14.5-0.2,28.8,0.8,42.6,2.8c27.6,6.2,53.3,18.8,75.4,37.2c2.2,2.8,4.4,5.8,6.4,8.9c22.4,33.3,35,78.1,35.5,126.1
			c0.3,26.7-13.5,48.7-30.8,49.2C381.4,342.8,381.2,342.8,381.1,342.8z"/>
	</g>
</g>
</svg>
