<?xml version="1.0" encoding="utf-8"?>
<!-- Generator: Adobe Illustrator 21.0.2, SVG Export Plug-In . SVG Version: 6.00 Build 0)  -->
<svg version="1.1" id="Layer_2_1_" xmlns="http://www.w3.org/2000/svg" xmlns:xlink="http://www.w3.org/1999/xlink" x="0px" y="0px"
	 viewBox="0 0 500 500" style="enable-background:new 0 0 500 500;" xml:space="preserve">
<style type="text/css">
	.st0{fill:#FFFFFF;}
</style>
<path class="st0" d="M391.4,391.4c-37.8,37.8-88,58.6-141.4,58.6s-103.6-20.8-141.4-58.6S50,303.4,50,250c0-110.3,89.7-200,200-200
	c53.4,0,103.6,20.8,141.4,58.6S450,196.6,450,250S429.2,353.6,391.4,391.4z M386.5,113.5C350.1,77,301.6,56.9,250,56.9
	S149.9,77,113.5,113.5C77,149.9,56.9,198.4,56.9,250S77,350.1,113.5,386.5c36.5,36.5,85,56.6,136.5,56.6
	c106.5,0,193.1-86.6,193.1-193.1C443.1,198.4,423,149.9,386.5,113.5z M250,435.1c-102.2,0-185.1-82.9-185.1-185.1
	S147.8,64.9,250,64.9S435.1,147.8,435.1,250S352.2,435.1,250,435.1z M250,368.2c65.3,0,118.2-52.9,118.2-118.2
	S315.3,131.8,250,131.8S131.8,184.7,131.8,250C131.7,315.3,184.7,368.2,250,368.2z M163.1,137.2c-3.9-3.8-10-5-15.7-1.4
	c1.1-2.8,0.6-5.7,0.1-7.3c-2.5-4.5-3.3-5-5.3-6.7c-6.5-5.5-13.4-0.8-18.3,5.1l-23.8,28.3l37.4,31.4l25.1-29.9
	C168.2,149.8,169.1,143,163.1,137.2z M278.8,75h-14.7l-13.3,34.7L237.6,75h-14.7v48.7h9.8v-34l12.8,34h10.7l12.8-34v34h9.8V75z
	 M387.4,144l-8.1-10L350,146.6l19.1-25l-7.5-9.3L331,151.5l8.9,10.9l28.9-11.9l0.1,0.1l-17.6,25.8l8.8,11l44.8-21.7l-7.5-9.3
	L369,170L387.4,144z M139.3,171.4l-9.3-7.8l15-17.9c1.7-2,5.5-2.6,8-0.5c2.9,2.4,3.2,6.1,1.2,8.4L139.3,171.4z M123.6,158.3
	l-8.8-7.4l14.3-17c1.7-2,5.4-1.9,7.8,0.1c2.6,2.2,2.7,5.4,0.9,7.5L123.6,158.3z M250,139.4V250H139.4
	C139.4,188.9,188.9,139.4,250,139.4z M250,360.6V250h110.6C360.6,311.1,311.1,360.6,250,360.6z"/>
</svg>
