<?xml version="1.0" encoding="utf-8"?>
<!-- Generator: Adobe Illustrator 22.0.1, SVG Export Plug-In . SVG Version: 6.00 Build 0)  -->
<svg version="1.1" id="Layer_2_1_" xmlns="http://www.w3.org/2000/svg" xmlns:xlink="http://www.w3.org/1999/xlink" x="0px" y="0px"
	 viewBox="0 0 500 500" style="enable-background:new 0 0 500 500;" xml:space="preserve">
<style type="text/css">
	.st0{fill:#FFFFFF;}
</style>
<g>
	<path class="st0" d="M133.5,345.6h-5.1l-16.1,45.1h10.1l3.1-8.8h7.9h7.9l3.1,8.8h12.3l-16.1-45.1H133.5z M133.5,375.4h-5.6
		l5.6-15.6l5.6,15.6H133.5z"/>
	<polygon class="st0" points="216.2,345.6 206.9,371.8 197.6,345.6 184.7,345.6 178.5,390.8 188.6,390.8 192.3,362.6 201.9,390.8 
		210.5,390.8 220.3,362.5 224,390.8 235.4,390.8 229.1,345.6 	"/>
	<rect x="96.1" y="345.6" class="st0" width="12.3" height="45.1"/>
	<path class="st0" d="M86.2,383.6l-12.7-18.2L89,345.6H76.2l-13.9,17.5v-17.5H50v45.1h12.3v-20.9l12,17.1c0,0,3,3.8,6.1,3.8h13
		C93.5,390.8,92.1,390.9,86.2,383.6z"/>
	<path class="st0" d="M410.7,384.3l-10.3-15.4c9.7-3.1,9.2-12.2,9.2-12.2c0-10.7-12.4-11.1-12.4-11.1s-6.4,0-10.4,0h-13.1v45.1h12.4
		v-38.6h4.4c0,0,7.1,0.4,7.1,6.3c0,0,1,9.4-10.7,9.4l13,19.5c0,0,2.2,3.3,7,3.3h9.6h0.9c0,0-0.4,0-0.9-0.4
		C415.4,389.7,413.6,388,410.7,384.3z"/>
	<path class="st0" d="M440,365.3c-13-4.5-11.9-9.4-11.9-9.4c0-5.2,8.2-5.5,8.2-5.5c5.9,0,9.3,3,9.3,3v-6.8c0,0-4.9-2.9-13.1-2.3
		c0,0-12.6,0.8-16,9.3c-0.7,1.4-1,3-1,4.8c0,0-0.3,2.2,1,4.9c1.1,2.6,3.7,5.7,9.2,8.2c0,0,12.7,4,12.4,9.2c-0.3,7-9.3,5.5-9.3,5.5
		c-5.3-0.8-10.8-3.3-12.3-4c-0.4-0.1-0.5-0.3-0.5-0.3l0.5,1.8l1.4,5.2c5.6,3.4,13.3,3.7,13.3,3.7c20.2,1,18.9-15.5,18.9-15.5
		C449.4,368.3,440,365.3,440,365.3z"/>
	<path class="st0" d="M345.1,343.6c-10.9,0-20.2,6.6-23.9,15.9c-1.1,2.7-1.6,5.6-1.6,8.7c0,3.2,0.5,6,1.6,8.7
		c3.7,9.3,13,15.9,23.9,15.9c14.1,0,25.6-10.9,25.6-24.6S359.2,343.6,345.1,343.6z M345.1,385.7c-7.4,0-13.3-7.8-13.3-17.5
		s5.9-17.5,13.3-17.5s13.3,7.8,13.3,17.5C358.4,377.9,352.5,385.7,345.1,385.7z"/>
	<polygon class="st0" points="322.9,352.2 322.9,345.6 321.2,345.6 285.9,345.6 284.7,345.6 284.7,352.2 285.9,352.2 297.6,352.2 
		297.6,390.8 309.9,390.8 309.9,352.2 321.2,352.2 	"/>
	<path class="st0" d="M261.5,343.6c-14.2,0-25.7,10.9-25.7,24.6s11.5,24.6,25.7,24.6c11.5,0,21.2-7.2,24.5-17.4
		c0.7-2.3,1.1-4.6,1.1-7.2c0-2.5-0.4-4.9-1.1-7.2C282.7,350.8,273,343.6,261.5,343.6z M261.5,385.7c-7.4,0-13.4-7.8-13.4-17.5
		s6-17.5,13.4-17.5c7.2,0,13.3,7.8,13.3,17.5C274.7,377.9,268.7,385.7,261.5,385.7z"/>
	<path class="st0" d="M250,312.5c110.5,0,200-46,200-102.7s-89.5-102.7-200-102.7s-200,46-200,102.7C50,266.6,139.5,312.5,250,312.5
		z M250.8,131.7c101,0,182.9,35.2,182.9,78.7c0,43.4-81.9,78.7-182.9,78.7C149.8,289,68,253.8,68,210.4
		C68,166.9,149.8,131.7,250.8,131.7z"/>
	<path class="st0" d="M287.9,259h23.4c1.1,0,2.3-0.9,2.7-2.1l20.1-61.2c0.1-0.6,0.5-1,1-1c0.6,0,0.9,0.4,1,1l20.1,61.2
		c0.4,1.2,1.6,2.1,2.7,2.1h23.5l0,0c1,0,1.8-0.8,1.8-1.8c0-0.2,0-0.4-0.1-0.5l-32.5-94.9c-0.4-1.2-1.4-1.4-2.6-1.4h-24.7H322h-10.5
		c-0.2,0-0.4,0.2-0.4,0.4v4.9c0,0.2,0.2,0.4,0.4,0.4h2.8l0,0c1.1,0,2.1,0.9,2.1,2.1c0,0.3-0.1,0.7-0.2,0.9l-30,87.6
		c-0.1,0.2-0.1,0.3-0.1,0.5C286.1,258.1,286.9,259,287.9,259z"/>
	<path class="st0" d="M232.8,166h3.1c1.1,0,2.1,0.9,2.1,2l0,0v0.9v2.1v0.5v85.4c0,1.1,0.9,2.1,2.1,2.1h23.8c1.1,0,2.1-0.9,2.1-2.1
		v-94.5c0-1.1-0.9-2.1-2.1-2.1h-22.4h-1.4h-2.4h-4.8c-0.2,0-0.4,0.2-0.4,0.4v4.9C232.4,165.9,232.6,166,232.8,166z"/>
	<path class="st0" d="M124.5,166h3.2c1.1,0,2,0.9,2,2.1l0,0v88.8c0,1.1,0.9,2.1,2,2.1h23.1c1.1,0,2-0.9,2-2.1V220v-0.5
		c0-0.7,0.4-1.3,1.1-1.3c0.3,0,0.6,0.1,0.8,0.2c0.3,0.3,0.3,0.4,0.8,0.8l27.3,37.6c0.8,1.1,2.4,2.1,3.6,2.1h27.4
		c1,0,1.8-0.8,1.8-1.8c0-0.5-0.1-0.9-0.4-1.2l-34.7-48.1c-0.3-0.4-0.4-0.7-0.4-1.2s0.2-0.9,0.5-1.3l29-42.2c0.2-0.3,0.3-0.6,0.3-1
		c0-1-0.8-1.8-1.8-1.8h-26.2c-1.1,0-2.7,0.9-3.6,2.1l-18.9,26.3l-3.8,5.2c-0.5,0.4-0.5,0.6-0.8,0.8c-0.2,0.1-0.5,0.2-0.8,0.2
		c-0.7,0-1.1-0.5-1.1-1.3v-0.5v-4.6v-1.8v-24.5c0-1.1-0.9-2.1-2-2.1h-23.1h-2.4h-4.8c-0.2,0-0.4,0.2-0.4,0.4v4.9
		C124.1,165.8,124.3,166,124.5,166z"/>
</g>
</svg>
