<?xml version="1.0" encoding="utf-8"?>
<!-- Generator: Adobe Illustrator 22.0.1, SVG Export Plug-In . SVG Version: 6.00 Build 0)  -->
<svg version="1.1" id="Layer_2_1_" xmlns="http://www.w3.org/2000/svg" xmlns:xlink="http://www.w3.org/1999/xlink" x="0px" y="0px"
	 viewBox="0 0 500 500" style="enable-background:new 0 0 500 500;" xml:space="preserve">
<style type="text/css">
	.st0{fill:#FFFFFF;}
</style>
<g>
	<polygon class="st0" points="249.1,262.4 129.2,262.4 69.8,366.7 190,366.7 	"/>
	<polygon class="st0" points="310,155.4 250.1,50 190,155.4 250.1,260.9 	"/>
	<polygon class="st0" points="310,366.7 430.2,366.7 370.8,262.4 250.9,262.4 	"/>
	<rect x="304.6" y="400.5" class="st0" width="9" height="48"/>
	<rect x="405.3" y="400.5" class="st0" width="9" height="48"/>
	<rect x="135.9" y="400.5" class="st0" width="9" height="48"/>
	<polygon class="st0" points="151.4,408.7 160.7,408.7 160.7,448.5 169.9,448.5 169.9,408.7 179.2,408.7 179.2,400.5 151.4,400.5 	
		"/>
	<polygon class="st0" points="387.3,418.8 367.1,418.8 367.1,400.5 358.2,400.5 358.2,448.5 367.1,448.5 367.1,426.9 387.3,426.9 
		387.3,448.5 396.3,448.5 396.3,400.5 387.3,400.5 	"/>
	<polygon class="st0" points="106.9,422 98.5,400.5 88.1,400.5 88.1,448.5 97.1,448.5 97.1,418.8 106.9,442.6 116.4,418.5 
		116.4,448.5 125.4,448.5 125.4,400.5 115.3,400.5 	"/>
	<path class="st0" d="M246.4,400.5v34.2c0,3.7-4.2,6.7-7.9,6.7s-7.9-3-7.9-6.7v-34.2h-9.1l0.1,33.8c0,8.7,8.2,15.7,16.8,15.7
		c8.7,0,16.8-7,16.8-15.7v-33.8H246.4z"/>
	<path class="st0" d="M289.9,422.5c1.3-0.8,6-3.6,6-9.7c0-8.4-6.7-12.2-11.2-12.3h-20.8v48h18.4c7.3,0,15.1-3.5,15.1-12.8
		C297.4,427.7,293.7,424.7,289.9,422.5z M282.7,440.4h-9.9v-31.7h9.4c2.5,0,4.5,2.1,4.5,4.6s-1,5.5-4.3,5.5h-3.9v8.1h4.2
		c2.5,0,6,2.4,5.9,7.3C288.5,438.4,285.1,440.4,282.7,440.4z"/>
	<path class="st0" d="M196.1,417.9c-2.5-1.5-3.7-2.7-3.8-5c0-3.3,2.2-5.6,5.5-5.6s5.9,2.7,5.9,5.9c0.1,0.8,0.1,1.7,0.1,2.2h8v-2.2
		c0-7.7-4.9-13.8-14-13.8c-7.7,0-14,5.3-14,13.8c0,3.8,1.8,7.4,6.1,10.3c4.7,3.1,10.5,5.4,12.5,7.4c1.2,1.2,1.9,2.8,1.9,4.6
		c0,3.6-2.9,6.2-6.5,6.2s-6.5-3.2-7-6.2c-0.1-0.8-0.3-2.1-0.3-2.7h-7.8c-0.1,0.5,0,1.1,0,2c0,8.3,6.7,14.6,15,14.6s15-5.6,15-13.9
		c0-4.4-1.7-7.7-4.7-10.4C205.7,422.9,198.8,419.6,196.1,417.9z"/>
	<path class="st0" d="M334.4,417.9c-2.5-1.5-3.7-2.7-3.8-5c0-3.3,2.2-5.6,5.5-5.6s5.9,2.7,5.9,5.9c0.1,0.8,0.1,1.7,0.1,2.2h8v-2.2
		c0-7.7-4.9-13.8-14-13.8c-7.7,0-14,5.3-14,13.8c0,3.8,1.8,7.4,6.1,10.3c4.7,3.1,10.5,5.4,12.5,7.4c1.2,1.2,1.9,2.8,1.9,4.6
		c0,3.6-2.9,6.2-6.5,6.2s-6.5-3.2-7-6.2c-0.1-0.8-0.3-2.1-0.3-2.7H321c-0.1,0.5,0,1.1,0,2c0,8.3,6.7,14.6,15,14.6s15-5.6,15-13.9
		c0-4.4-1.7-7.7-4.7-10.4C343.9,422.9,337.1,419.6,334.4,417.9z"/>
</g>
</svg>
