<?xml version="1.0" encoding="utf-8"?>
<!-- Generator: Adobe Illustrator 21.0.2, SVG Export Plug-In . SVG Version: 6.00 Build 0)  -->
<svg version="1.1" id="Layer_2_1_" xmlns="http://www.w3.org/2000/svg" xmlns:xlink="http://www.w3.org/1999/xlink" x="0px" y="0px"
	 viewBox="0 0 500 500" style="enable-background:new 0 0 500 500;" xml:space="preserve">
<style type="text/css">
	.st0{fill:#FFFFFF;}
</style>
<path class="st0" d="M430,150.6c0,0.5-0.6,11.9-4.4,25.9c0,0-12.9,45.1-12.9,45.2c0,0-13.7,38.3-13.7,38.4c-0.9,2.4-9,23.7-17,39.6
	c-0.2,0.5-5.5,11.8-20.1,35.6c-11.3,17.6-24.7,38.5-24.8,38.6c-0.1,0.2-11.2,16.5-24.8,32.9c-0.6,0.8-15.6,18.6-25.9,26.4
	c-2,1.8-20,17.4-36,16.8c-2.6,0.2-16.5,0.3-36.5-16.7c-10.4-7.9-25.2-25.7-25.8-26.4c-13.8-16.4-24.9-32.8-25.1-33
	c-9.2-14.4-24.7-38.5-24.8-38.6c-14.2-23.2-19.4-34.3-19.9-35.5c-8.5-16.8-17.2-39.5-17.3-39.8c0,0-13.5-38.3-13.6-38.3l-13-45.2
	c-3.8-13.8-4.4-25.4-4.4-25.9v-1.9c0-20.7,10.2-33.5,11.3-34.8c0.8-1.1,8-11.1,23.4-18.7c0.2-0.1,19.8-9.5,44.6-19.2
	c0.3-0.1,27-10.2,49.8-16.7c0.8-0.2,19.7-5.6,33.9-7.8c0.4-0.1,10-1.5,16.6-1.5h0.8c6.8,0,16.4,1.4,16.8,1.5
	c14.2,2.1,33.1,7.5,33.9,7.8c22.4,6.3,48.5,16.3,49.7,16.7c24.3,9.4,43.9,18.8,44.8,19.2c15.4,7.6,22.5,17.6,23.1,18.6
	c1.2,1.4,11.4,14.1,11.4,34.5C430,148.3,430,150.6,430,150.6z M412.8,118.5l-0.1-0.2l-0.1-0.2c-0.1-0.1-6.3-9.3-20.4-16.3
	c-0.2-0.1-19.7-9.5-44.2-18.9c-0.3-0.1-26.5-10.1-49-16.5c-0.2-0.1-19.3-5.5-32.9-7.5c-0.1,0-9.4-1.4-15.6-1.4h-0.8
	c-6,0-15.4,1.4-15.5,1.4c-13.6,2.1-32.8,7.5-32.9,7.5c-22.7,6.5-49,16.5-49.3,16.6c-24.3,9.4-43.8,18.8-44,18.9
	c-14.1,7-20.5,16.2-20.6,16.3l-0.2,0.3c-0.1,0.1-9.7,11.6-9.7,30.1c0,0.6,0,1.1,0,1.7c0,0.1,0.5,11.2,4.1,24.1
	c0,0,12.9,44.8,13,44.9c0.3,0.9,13.5,38.1,13.4,38c0.1,0.2,8.6,22.6,16.9,39l0.1,0.1c0.1,0.1,5.2,11.4,19.5,34.7l24.7,38.5
	c0.1,0.2,11,16.2,24.5,32.3c0.2,0.2,15,18,24.7,25.3l0.1,0.1l0.1,0.1c18.8,16.1,31,15,31.1,15h0.3h0.2c13.5,0.6,30.9-14.8,31.1-15
	l0.1-0.1l0.1-0.1c9.7-7.3,24.7-25.2,24.8-25.3c13.4-16.1,24.3-32.1,24.3-32.2l24.7-38.5c14.3-23.4,19.6-34.7,19.7-34.9
	c8.3-16.4,16.7-38.8,16.8-39c0,0,13.6-37.9,13.6-38.1c0.3-1.1,12.8-44.9,12.8-44.9c3.6-13.1,4.1-24.1,4.1-24.2
	C423.2,130.8,412.9,118.7,412.8,118.5z M384.6,157.6c0,0-19-27-21.1-30.1c-1.1,3.3-6.8,20.9-6.8,20.9l-6.3-2.1l8.5-26l0.3-1l7.8,2.5
	c0,0,18.9,27,21.1,30.1c1.1-3.3,6.8-20.9,6.8-20.9l6.3,2.1l-8.8,27L384.6,157.6z M251.3,360.6c-57.2,0-103.7-46.5-103.7-103.6
	s46.5-103.6,103.7-103.6S355,199.9,355,257S308.5,360.6,251.3,360.6z M251.3,160c-53.7,0-97.4,43.6-97.4,97.3
	c0,53.6,43.7,97.3,97.4,97.3s97.4-43.6,97.4-97.3C348.7,203.7,305,160,251.3,160z M338.8,254.7c-9.5,23.3-27.3,29.2-27.3,29.2
	c2-3.9,4.7-13,4.7-13l-12.3-5.5c-7.9-2.4-12.6,0.8-12.6,0.8c-11.1,4.3-22.5,9.5-22.5,9.5c-13.8,6.7-7.1,20.1-7.1,20.1
	c9.4,8.8,11.9,16.2,15.4,19.4c3.6,3.2,6.3,1.2,6.3,1.2l9.5-5.5c-9.9,35.1-42.3,35.9-42.3,35.9c-18.6-58.4-92.1-86.1-92.1-86.1
	c35.6-4.3,59.8,5.1,59.8,5.1c-12.1-20.6-55.5-39.1-55.5-39.1c37.2-2.8,62.8,11.8,62.8,11.8c-13.8-27.2-44.7-41.5-44.7-41.5
	c32.8-36.3,73.5-31.6,73.5-31.6c-16.6,3.6-30,24.1-30,24.1c15-6.7,44.3-4.3,44.3-4.3C308,201,338,236.1,338,236.1
	c-10.3-1.6-24.1-1.6-24.1-1.6C332.5,244,338.8,254.7,338.8,254.7z M245.9,296.9c0,0,5.1-20.9,2.8-38.3h32c0,0-16.6-7.9-45.5-7.5
	C235.3,251.1,245,259.9,245.9,296.9z M251.5,209.7c0,0,26.3,6.3,34.8,12.6c0,0-1.1-4.3-9.1-8.3l23.7-0.8
	C300.9,213.2,276,201.4,251.5,209.7z M344.2,133.9c-1.3,7.5-5.8,10-14.8,8.4l-19.1-3.4c-9-1.6-12.3-5.5-10.9-13l1.3-7.1
	c1.3-7.5,5.8-10,14.8-8.4l19.1,3.4c9,1.6,12.3,5.5,10.9,13L344.2,133.9z M333.3,118.7l-18.2-3.3c-2.9-0.5-4.8-0.4-6,0.5
	c-0.8,0.6-1.3,1.5-1.6,2.8l-1.7,9.7c-0.2,1.3-0.1,2.4,0.5,3.2c0.8,1.2,2.6,2,5.5,2.5l18.2,3.3c4.8,0.9,7-0.1,7.5-3.3l1.7-9.7
	C339.8,121.2,338,119.5,333.3,118.7z M277,111.7c-0.1,1.9-1.2,23.3-1.2,23.3l-6.6-0.3c0,0,1.1-21.4,1.2-23.3c-1.8-0.1-17-0.9-17-0.9
	l0.2-3.9l0.1-1l40.6,2.1l-0.3,5C294,112.6,278.9,111.8,277,111.7z M234.4,135l-19.3,1.5c-5.1,0.4-8.4-0.3-10.7-2.2
	c-1.9-1.6-2.9-4-3.2-7.6l-0.5-7.2c-0.6-7.6,3.1-11.1,12.2-11.8l19.3-1.5c9.1-0.7,13.2,2.3,13.8,9.9l0.5,7.2
	C247.1,130.8,243.5,134.3,234.4,135z M239.3,115.2c-0.2-3.2-2.3-4.4-7.2-4l-18.4,1.4c-2.9,0.2-4.7,0.8-5.7,1.9
	c-0.6,0.7-0.9,1.8-0.8,3.1l0.7,9.8c0.2,3.2,2.3,4.4,7.2,4l18.4-1.4c2.9-0.2,4.7-0.8,5.7-1.9c0.6-0.7,0.9-1.8,0.8-3.1L239.3,115.2z
	 M189.1,139l-11.5-7.7c-5.2,1.1-16.6,3.5-18.1,3.8c0.4,1.7,2.2,10.2,2.2,10.2l-6.5,1.4l-5.9-27.8l27.3-5.8c5.3-1.1,8.6-1,10.7,0.3
	c1.9,1.2,2.6,3.4,3,5.4l0.4,2.1c0.1,0.5,0.2,1.1,0.2,1.5c0,2-1,3.3-2.3,4.2c0,0-1.7,1.3-4.6,2.2l12.6,8.4L189.1,139z M184.4,122.7
	c0-0.2,0-0.5-0.1-0.7l-0.5-2.3c-0.3-1.6-0.6-2.8-7.7-1.3c0,0-17.4,3.7-19.2,4.1c0.3,1.5,1.4,6.4,1.7,7.8c1.9-0.4,20.3-4.3,20.3-4.3
	C183.5,125,184.4,123.8,184.4,122.7z M134.7,142.4c0,0-18.2,6.3-20,6.9c0.6,1.6,3.4,9.8,3.4,9.8l-6.3,2.2l-9.3-26.8l27.1-9.4
	c3.7-1.3,6.6-1.9,9-0.7c1.7,0.8,2.9,2.4,3.8,5c0.7,1.9,1.2,3.6,1.2,5.1C143.5,137.6,141.5,140,134.7,142.4z M136.8,133.5l-0.8-2.4
	c-0.6-1.8-1.7-2.4-5.7-1c0,0-18.1,6.3-19.9,6.9c0.5,1.4,2.2,6.2,2.6,7.6c4.2-1.4,20.2-7,20.2-7c1.9-0.7,3.1-1.5,3.6-2.3
	c0.1-0.2,0.2-0.5,0.2-0.8S136.9,133.9,136.8,133.5z"/>
</svg>
