<?xml version="1.0" encoding="utf-8"?>
<!-- Generator: Adobe Illustrator 21.0.2, SVG Export Plug-In . SVG Version: 6.00 Build 0)  -->
<svg version="1.1" id="Layer_2_1_" xmlns="http://www.w3.org/2000/svg" xmlns:xlink="http://www.w3.org/1999/xlink" x="0px" y="0px"
	 viewBox="0 0 500 500" style="enable-background:new 0 0 500 500;" xml:space="preserve">
<style type="text/css">
	.st0{fill:#FFFFFF;}
	.st1{clip-path:url(#SVGID_4_);}
	.st2{clip-path:url(#SVGID_6_);fill:#FFFFFF;}
	.st3{clip-path:url(#SVGID_8_);fill:#FFFFFF;}
	.st4{clip-path:url(#SVGID_10_);fill:#FFFFFF;}
	.st5{clip-path:url(#SVGID_12_);fill:#FFFFFF;}
	.st6{clip-path:url(#SVGID_14_);fill:#FFFFFF;}
	.st7{clip-path:url(#SVGID_16_);fill:#FFFFFF;}
	.st8{clip-path:url(#SVGID_18_);fill:#FFFFFF;}
	.st9{clip-path:url(#SVGID_20_);fill:#FFFFFF;}
	.st10{clip-path:url(#SVGID_22_);fill:#FFFFFF;}
</style>
<g>
	<g>
		<g>
			<g>
				<path id="SVGID_1_" class="st0" d="M220.2,301L220.2,301L220.2,301z M220.2,301L220.2,301L220.2,301z"/>
			</g>
			<g>
				<defs>
					<path id="SVGID_2_" d="M220.2,301L220.2,301L220.2,301z M220.2,301L220.2,301L220.2,301z"/>
				</defs>
				<clipPath id="SVGID_4_">
					<use xlink:href="#SVGID_2_"  style="overflow:visible;"/>
				</clipPath>
				<g class="st1">
					<g>
						<g>
							<path id="SVGID_3_" class="st0" d="M220.2,301L220.2,301L220.2,301z"/>
						</g>
						<g>
							<defs>
								<path id="SVGID_5_" d="M220.2,301L220.2,301L220.2,301z"/>
							</defs>
							<clipPath id="SVGID_6_">
								<use xlink:href="#SVGID_5_"  style="overflow:visible;"/>
							</clipPath>
							<polygon class="st2" points="220.2,301 220.2,301 220.3,301 							"/>
						</g>
					</g>
					<g>
						<defs>
							<path id="SVGID_7_" d="M220.2,301L220.2,301L220.2,301z M220.2,301L220.2,301L220.2,301z"/>
						</defs>
						<clipPath id="SVGID_8_">
							<use xlink:href="#SVGID_7_"  style="overflow:visible;"/>
						</clipPath>
						<polygon class="st3" points="450,367.9 450,377 431,377 431,417.1 418.2,417.1 418.2,377 399.2,377 399.2,367.9 						"/>
					</g>
					<g>
						<defs>
							<path id="SVGID_9_" d="M220.2,301L220.2,301L220.2,301z M220.2,301L220.2,301L220.2,301z"/>
						</defs>
						<clipPath id="SVGID_10_">
							<use xlink:href="#SVGID_9_"  style="overflow:visible;"/>
						</clipPath>
						<path class="st4" d="M331.9,188.1c-3.2-6.8-13.4-26.7-21.9-42.2c-11.8-21.3-32.7-56.4-35.1-59.6s-3.7-3.3-5.9-3.5h-0.3
							c-3.2-0.3-16.6-0.5-24.7-0.5c-6.9,0-21.7,0.2-25.1,0.5c-3.2,0.3-4.1,1.3-5.9,3.7c-2.5,3.3-23.9,39.4-35,59.4
							c-8,14.5-20.8,39.5-21.9,42.2c-1.1,2.4-1.6,4.3-1.6,6c0,1.8,0.5,3.7,1.6,6c2.7,5.8,10.7,21.8,21.9,42.2
							c11.7,21.3,32.9,56.5,35.1,59.6c2.4,3.2,3.9,3.4,6.1,3.6c3.3,0.3,17.3,0.5,24.8,0.5c8.1,0,22.8-0.3,24.8-0.5s3.7-0.3,6.1-3.6
							c2.1-3,24.9-40.9,35.1-59.6c9.8-17.9,20.7-39.4,21.9-42.2c1.4-3.1,1.6-4.7,1.6-6C333.5,193.1,333.3,190.9,331.9,188.1z
							 M274.6,200.6c-11.9,25.6-44,84.9-50.7,96.3c-0.4,0.7-0.8,1.3-1,1.7c-1,1.5-1.8,2.4-2.6,2.4c0,0,11.9-21.8,21.2-45.1
							c-10.4-19.3-19.4-37.1-28.1-55.4c-1.5-3.3-2.3-4.9-2.3-6.5l0,0l0,0l0,0l0,0c0-1.6,0.8-3.2,2.3-6.5
							c12.5-26.8,43-84.4,51.9-98.1c1-1.6,1.6-2.2,2.3-2.2c0,0,0,0,0.1,0c0,0-12.3,23.1-21.1,45.1c10.4,19.2,19.5,37.1,28.1,55.4
							c1.5,3.3,2.3,4.8,2.3,6.4C276.9,195.7,276.1,197.3,274.6,200.6z"/>
					</g>
					<g>
						<defs>
							<path id="SVGID_11_" d="M220.2,301L220.2,301L220.2,301z M220.2,301L220.2,301L220.2,301z"/>
						</defs>
						<clipPath id="SVGID_12_">
							<use xlink:href="#SVGID_11_"  style="overflow:visible;"/>
						</clipPath>
						<polygon class="st5" points="404.7,407.9 404.7,417.1 364,417.1 364,367.9 376.8,367.9 376.8,407.9 						"/>
					</g>
					<g>
						<defs>
							<path id="SVGID_13_" d="M220.2,301L220.2,301L220.2,301z M220.2,301L220.2,301L220.2,301z"/>
						</defs>
						<clipPath id="SVGID_14_">
							<use xlink:href="#SVGID_13_"  style="overflow:visible;"/>
						</clipPath>
						<polygon class="st6" points="158.3,407.9 158.3,417.1 115.6,417.1 115.6,367.9 157.5,367.9 157.5,377 128.4,377 128.4,387.8 
							155,387.8 155,396.6 128.4,396.6 128.4,407.9 						"/>
					</g>
					<g>
						<defs>
							<path id="SVGID_15_" d="M220.2,301L220.2,301L220.2,301z M220.2,301L220.2,301L220.2,301z"/>
						</defs>
						<clipPath id="SVGID_16_">
							<use xlink:href="#SVGID_15_"  style="overflow:visible;"/>
						</clipPath>
						<path class="st7" d="M211.9,367.8v32.6c-3-3.8-6.1-7.4-11.4-13.2c-4.3-4.7-13.3-14.4-17.9-19.4h-12.4l-0.5,3
							c0,0,0.5,0.9,1.1,2c0.7,1.2,0.8,1.7,0.8,2.4v41.9h11.5v-32.6c2.3,3.1,6.4,7.8,9.1,10.7c5.4,5.9,13.6,15,20,21.9h11.1v-49.2
							L211.9,367.8z"/>
					</g>
					<g>
						<defs>
							<path id="SVGID_17_" d="M220.2,301L220.2,301L220.2,301z M220.2,301L220.2,301L220.2,301z"/>
						</defs>
						<clipPath id="SVGID_18_">
							<use xlink:href="#SVGID_17_"  style="overflow:visible;"/>
						</clipPath>
						<path class="st8" d="M92.7,398.8c5.5-3,8.9-8.8,8.9-15c0-5.1-1.5-9.1-4.6-11.7c-3.6-3-8.6-4.3-17-4.3H50.5l-0.5,3
							c0,0,0.5,0.9,1.1,2c0.9,1.6,0.8,2,0.8,3.1v41.2h12.8v-15.8h15.9l8.5,15.8h14.1L92.7,398.8z M86.2,390.8c-1,1-2.1,1.4-4,1.4
							H64.8v-15h13.8c4.1,0,6.3,0.5,7.8,1.7c1.4,1.2,2.1,2.9,2.1,5.5C88.5,387.1,87.8,389.3,86.2,390.8z"/>
					</g>
					<g>
						<defs>
							<path id="SVGID_19_" d="M220.2,301L220.2,301L220.2,301z M220.2,301L220.2,301L220.2,301z"/>
						</defs>
						<clipPath id="SVGID_20_">
							<use xlink:href="#SVGID_19_"  style="overflow:visible;"/>
						</clipPath>
						<path class="st9" d="M337.2,367.9V398c0,3.4-0.7,5.4-2.3,6.9c-2.1,1.9-5.5,2.8-10.4,2.8c-5,0-8.5-0.9-10.6-2.8
							c-1.6-1.5-2.3-3.5-2.3-6.9v-30.1h-14.2l-0.5,3c0,0,0.5,0.9,1.1,2s0.8,1.7,0.8,2.3v23.3c0,12.9,8.7,19.4,25.5,19.4h0.4
							c16.8,0,25.1-6.4,25.1-19.4v-30.6L337.2,367.9L337.2,367.9z"/>
					</g>
					<g>
						<defs>
							<path id="SVGID_21_" d="M220.2,301L220.2,301L220.2,301z M220.2,301L220.2,301L220.2,301z"/>
						</defs>
						<clipPath id="SVGID_22_">
							<use xlink:href="#SVGID_21_"  style="overflow:visible;"/>
						</clipPath>
						<path class="st10" d="M270.3,367.9h-16c-4.9,10-13.3,28.5-21.2,49.2H246c1-2.8,2.1-5.7,3.2-8.5h26.3c1.1,2.9,2.2,5.7,3.2,8.5
							h12.9C283.6,396.4,275.2,377.9,270.3,367.9z M252.8,399.3c3.4-8.4,6.7-16.3,9.5-22.5c2.7,6.1,6.1,14.1,9.5,22.5H252.8z"/>
					</g>
				</g>
			</g>
		</g>
	</g>
</g>
</svg>
