<?xml version="1.0" encoding="utf-8"?>
<!-- Generator: Adobe Illustrator 21.0.2, SVG Export Plug-In . SVG Version: 6.00 Build 0)  -->
<svg version="1.1" id="Layer_2_1_" xmlns="http://www.w3.org/2000/svg" xmlns:xlink="http://www.w3.org/1999/xlink" x="0px" y="0px"
	 viewBox="0 0 500 500" style="enable-background:new 0 0 500 500;" xml:space="preserve">
<style type="text/css">
	.st0{fill:#FFFFFF;}
</style>
<g>
	<path class="st0" d="M286,306c0,0-20.2-15.4-75.7-50.7S85.7,269,85.7,269l164.2,116.7c72-76.4,164.2-103.7,164.2-103.7l-0.3-0.1
		L204,134.6c3.1-10.1,10.9-4.9,10.9-4.9s20.2,15.4,75.7,50.7s124.6-13.7,124.6-13.7L250.9,50c-72,76.4-164.2,103.7-164.2,103.7
		l0.3,0.1L297,301C293.8,311.1,286,306,286,306z"/>
	<path class="st0" d="M134.4,418.7c-4-1.5-10.6-2.9-19.8-4.4c-3.7-0.6-6.1-1.2-7.1-1.8c-1-0.6-1.5-1.3-1.5-2.1c0-1.1,1-1.9,2.2-2.7
		c2-1.2,4.6-1.2,6.9-0.7c2.8,0.6,5.6,1.5,6.5,4.5c0.1,0.3,0.7,1.7,0.5,2h21.5c-0.9-5.1-3.6-10.4-8.2-12.7
		c-4.6-2.4-11.2-3.5-19.9-3.5c-7.1,0-12.7,0.7-16.7,1.9c-4.1,1.3-7.1,3.1-9.1,5.4s-3,4.7-3,7.2c0,3.9,0.3,9.3,4.3,11.9
		c3.9,2.5,8.8,3.2,18.1,4.7c3.6,0.6,7.2,0.7,10.8,1.2c2.6,0.3,4.7,1.4,4.5,4.4c-0.2,2.8-3.6,3.4-5.8,3.8c-2.7,0.5-5.9,0-8-1.9
		c-1.3-1.2-0.6-1.2-1.1-3.6L84,432c0.6,5,3.1,8.4,7.6,11.7c4.5,3.3,12.5,4.9,24,4.9c6.6,0,12.1-0.7,16.4-2.1s7.7-3.4,10.1-6.1
		c2.4-2.7,3.6-5.6,3.6-8.8c0-2.7-0.9-5.2-2.7-7.4C141.3,422,138.4,420.2,134.4,418.7z"/>
	<path class="st0" d="M186.4,428c0,5.5-0.2,9.7-9.4,9.7c-9,0-9.7-4.1-9.7-9.5v-30.1h-18.8v35.1c0,6.6,4.9,11.8,14.8,15.8
		c4.2,1.1,8.7,1,13.7,1c5.6,0,10.6-0.1,14.7-1.4c9-3,13.4-8.1,13.4-15.3v-35.1h-18.7V428z"/>
	<path class="st0" d="M308.5,428c0,5.5-0.2,9.7-9.4,9.7c-9,0-9.7-4.1-9.7-9.5v-30.1h-18.8v35.1c0,6.6,4.9,11.8,14.8,15.8
		c4.2,1.1,8.7,1,13.8,1c5.6,0,10.6-0.1,14.7-1.4c9-3,13.4-8.1,13.4-15.3v-35.1h-18.7L308.5,428z"/>
	<polygon class="st0" points="209.1,411.6 236.7,411.6 209.1,436.7 209.1,448.8 266.9,448.8 266.9,434.7 238.7,434.7 266.9,409.3 
		266.9,398.5 209.1,398.5 	"/>
	<polygon class="st0" points="393.7,398.4 370.5,398.4 350.5,417 350.5,398.4 332,398.4 332,448.7 350.9,448.7 350.7,430.7 
		369.8,448.7 394.8,448.7 367.1,422.8 	"/>
	<rect x="397.5" y="398.4" class="st0" width="18.5" height="50.3"/>
</g>
</svg>
