<?xml version="1.0" encoding="utf-8"?>
<!-- Generator: Adobe Illustrator 21.0.2, SVG Export Plug-In . SVG Version: 6.00 Build 0)  -->
<svg version="1.1" id="Layer_2_1_" xmlns="http://www.w3.org/2000/svg" xmlns:xlink="http://www.w3.org/1999/xlink" x="0px" y="0px"
	 viewBox="0 0 500 500" style="enable-background:new 0 0 500 500;" xml:space="preserve">
<style type="text/css">
	.st0{fill-rule:evenodd;clip-rule:evenodd;fill:#FFFFFF;}
</style>
<g>
	<path class="st0" d="M250,50C139.5,50,50,139.5,50,250c0,110.5,89.5,200,200,200c110.5,0,200-89.5,200-200
		C450,139.5,360.5,50,250,50L250,50L250,50L250,50z M250,432.1c-100.6,0-182.1-81.5-182.1-182.1c0-100.6,81.5-182.1,182.1-182.1
		c100.6,0,182.1,81.5,182.1,182.1C432.1,350.6,350.6,432.1,250,432.1L250,432.1L250,432.1L250,432.1z"/>
	<path class="st0" d="M210.1,114c12.6-3.7,26-5.7,39.9-5.7c13.8,0,27.2,2,39.8,5.7l0,0L250,202.2L210.1,114L210.1,114L210.1,114z"/>
	<path class="st0" d="M326.1,130.4c14.9,9.5,28,21.8,38.4,36l0,0l-65.4,144.6L273.9,255h-47.8l-25.2,56.1l-65.3-144.8l0,0
		c10.4-14.2,23.4-26.4,38.3-35.9l0,0l52.2,115.8h47.9L326.1,130.4L326.1,130.4L326.1,130.4z"/>
	<path class="st0" d="M113.1,213.3c-3.1,11.7-4.8,24-4.8,36.7c0,55.5,31.9,103.6,78.5,126.8l0,0L113.1,213.3L113.1,213.3
		L113.1,213.3z"/>
	<path class="st0" d="M210.8,386.2c12.4,3.6,25.6,5.5,39.2,5.5c13.6,0,26.7-1.9,39.2-5.5l0,0l-39.2-87L210.8,386.2L210.8,386.2
		L210.8,386.2z"/>
	<path class="st0" d="M313.3,376.8c46.5-23.2,78.5-71.3,78.5-126.8c0-12.6-1.6-24.8-4.7-36.4l0,0L313.3,376.8L313.3,376.8
		L313.3,376.8z"/>
</g>
</svg>
