<?xml version="1.0" encoding="utf-8"?>
<!-- Generator: Adobe Illustrator 21.0.2, SVG Export Plug-In . SVG Version: 6.00 Build 0)  -->
<svg version="1.1" id="Layer_2" xmlns="http://www.w3.org/2000/svg" xmlns:xlink="http://www.w3.org/1999/xlink" x="0px" y="0px"
	 viewBox="0 0 570 570" style="enable-background:new 0 0 570 570;" xml:space="preserve">
<style type="text/css">
	.st0{fill:#FFE6B9;}
</style>
<g>
	<path class="st0" d="M361.9,156.9v215.3c0,8.5-6.9,15.4-15.4,15.4h-123c-8.5,0-15.4-6.9-15.4-15.4V156.9c0-8.5,6.9-15.4,15.4-15.4
		h123C355,141.5,361.9,148.4,361.9,156.9z M218.4,372.1c0,2.8,2.3,5.1,5.1,5.1h123c2.8,0,5.1-2.3,5.1-5.1V156.9
		c0-2.8-2.3-5.1-5.1-5.1h-123c-2.8,0-5.1,2.3-5.1,5.1V372.1z"/>
	<g>
		<line class="st0" x1="192.8" y1="300.4" x2="192.8" y2="331.1"/>
		<line class="st0" x1="192.8" y1="238.9" x2="192.8" y2="269.6"/>
	</g>
	<path class="st0" d="M187.6,336.3v97.4c0,8.5,6.9,15.4,15.4,15.4h164c8.5,0,15.4-6.9,15.4-15.4V136.4c0-8.5-6.9-15.4-15.4-15.4H203
		c-8.5,0-15.4,6.9-15.4,15.4v97.4 M187.6,274.8v20.5 M187.6,244v20.5 M187.6,305.5V326 M367,131.3c2.8,0,5.1,2.3,5.1,5.1v297.3
		c0,2.8-2.3,5.1-5.1,5.1H203c-2.8,0-5.1-2.3-5.1-5.1V331.1v-30.8v-30.8v-30.8V136.4c0-2.8,2.3-5.1,5.1-5.1L367,131.3L367,131.3z"/>
	<path class="st0" d="M254.3,413.1c0,8.5-6.9,15.4-15.4,15.4s-15.4-6.9-15.4-15.4s6.9-15.4,15.4-15.4S254.3,404.6,254.3,413.1z
		 M233.8,413.1c0,2.8,2.3,5.1,5.1,5.1s5.1-2.3,5.1-5.1s-2.3-5.1-5.1-5.1S233.8,410.3,233.8,413.1z"/>
	<path class="st0" d="M300.4,413.1c0,8.5-6.9,15.4-15.4,15.4s-15.4-6.9-15.4-15.4s6.9-15.4,15.4-15.4S300.4,404.6,300.4,413.1z
		 M279.9,413.1c0,2.8,2.3,5.1,5.1,5.1s5.1-2.3,5.1-5.1s-2.3-5.1-5.1-5.1S279.9,410.3,279.9,413.1z"/>
	<path class="st0" d="M346.5,413.1c0,8.5-6.9,15.4-15.4,15.4s-15.4-6.9-15.4-15.4s6.9-15.4,15.4-15.4S346.5,404.6,346.5,413.1z
		 M326,413.1c0,2.8,2.3,5.1,5.1,5.1s5.1-2.3,5.1-5.1s-2.3-5.1-5.1-5.1S326,410.3,326,413.1z"/>
	<polygon class="st0" points="236.3,384.9 227.3,379.9 261.2,318.5 208.3,253.3 216.3,246.9 273.5,317.4 	"/>
	<polygon class="st0" points="246.2,291 238.9,283.8 295,226.5 284.1,145.7 294.2,144.3 305.8,230.1 	"/>
	<polygon class="st0" points="300.7,233.8 243.9,214.8 209.4,175.6 217.1,168.9 249.8,205.9 300.1,222.8 355.2,197.4 359.5,206.7 	
		"/>
	<polygon class="st0" points="293.8,357.6 263.4,321.3 271.3,314.7 296,344.3 330.4,323.5 277.5,250.4 285.8,244.4 345.3,326.5 	"/>
	<rect x="289.8" y="351" class="st0" width="10.3" height="31.4"/>
	
		<rect x="342.5" y="318.6" transform="matrix(0.3921 -0.9199 0.9199 0.3921 -91.5599 519.9026)" class="st0" width="10.2" height="21.2"/>
	<g>
		<g>
			<path class="st0" d="M250.4,214.6l-16.3-16.3c-4.4-4.4-6.8-10.1-6.8-16.3s2.4-12,6.8-16.3c4.4-4.4,10.1-6.8,16.3-6.8
				s12,2.4,16.3,6.8c4.4,4.4,6.8,10.1,6.8,16.3s-2.4,12-6.8,16.3L250.4,214.6z M250.4,169.2c-3.4,0-6.6,1.3-9.1,3.8l0,0
				c-2.4,2.4-3.8,5.6-3.8,9.1c0,3.4,1.3,6.6,3.8,9.1l9.1,9.1l9.1-9.1c2.4-2.4,3.8-5.6,3.8-9.1c0-3.4-1.3-6.6-3.8-9.1
				S253.8,169.2,250.4,169.2z"/>
		</g>
		<circle class="st0" cx="250.4" cy="181.8" r="5.1"/>
	</g>
	<g>
		<g>
			<path class="st0" d="M317.9,288.5l-16.3-16.3c-9-9-9-23.6,0-32.6l0,0c4.4-4.4,10.1-6.8,16.3-6.8c6.2,0,12,2.4,16.3,6.8
				c4.4,4.4,6.8,10.1,6.8,16.3c0,6.2-2.4,12-6.8,16.3L317.9,288.5z M317.9,243.1c-3.4,0-6.6,1.3-9.1,3.8l0,0c-5,5-5,13.1,0,18.1
				l9.1,9.1l9.1-9.1c5-5,5-13.1,0-18.1C324.5,244.4,321.3,243.1,317.9,243.1z"/>
		</g>
		<circle class="st0" cx="317.9" cy="255.7" r="5.1"/>
	</g>
	<g>
		<g>
			<path class="st0" d="M283.4,329.1l-16.3-16.3c-4.4-4.4-6.8-10.1-6.8-16.3c0-6.2,2.4-12,6.8-16.3c4.4-4.4,10.1-6.8,16.3-6.8
				s12,2.4,16.3,6.8c9,9,9,23.6,0,32.6L283.4,329.1z M283.4,283.7c-3.4,0-6.6,1.3-9.1,3.8l0,0c-2.4,2.4-3.8,5.6-3.8,9.1
				c0,3.4,1.3,6.6,3.8,9.1l9.1,9.1l9.1-9.1c5-5,5-13.1,0-18.1C290,285,286.8,283.7,283.4,283.7z"/>
		</g>
		<circle class="st0" cx="283.4" cy="296.3" r="5.1"/>
	</g>
</g>
</svg>
