<?xml version="1.0" encoding="utf-8"?>
<!-- Generator: Adobe Illustrator 21.0.2, SVG Export Plug-In . SVG Version: 6.00 Build 0)  -->
<svg version="1.1" id="Layer_2" xmlns="http://www.w3.org/2000/svg" xmlns:xlink="http://www.w3.org/1999/xlink" x="0px" y="0px"
	 viewBox="0 0 512 512" style="enable-background:new 0 0 512 512;" xml:space="preserve">
<style type="text/css">
	.st0{fill:#444444;}
</style>
<path class="st0" d="M248.2,380.3l-100.7,52.9c-4.2,2.2-9-1.3-8.2-6l19.2-112.1c0.9-5.5-0.9-11-4.8-14.9l-81.4-79.4
	c-3.4-3.3-1.5-9,3.1-9.7l112.5-16.4c5.5-0.8,10.2-4.2,12.7-9.2l50.3-102c2.1-4.2,8.1-4.2,10.2,0l50.3,102c2.4,5,7.2,8.4,12.7,9.2
	l112.5,16.4c4.7,0.7,6.5,6.4,3.1,9.7l-81.4,79.4c-4,3.9-5.8,9.4-4.8,14.9l19.2,112.1c0.8,4.6-4.1,8.2-8.2,6l-100.7-52.9
	C258.9,377.8,253.1,377.8,248.2,380.3z"/>
</svg>
