<?xml version="1.0" encoding="utf-8"?>
<!-- Generator: Adobe Illustrator 21.0.2, SVG Export Plug-In . SVG Version: 6.00 Build 0)  -->
<svg version="1.1" id="Layer_2" xmlns="http://www.w3.org/2000/svg" xmlns:xlink="http://www.w3.org/1999/xlink" x="0px" y="0px"
	 viewBox="0 0 512 512" style="enable-background:new 0 0 512 512;" xml:space="preserve">
<style type="text/css">
	.st0{fill:#6A9600;}
	.st1{fill-rule:evenodd;clip-rule:evenodd;fill:#AAd620;}
</style>
<g>
	<circle class="st0" cx="256" cy="160" r="128"/>
</g>
<path class="st1" d="M291.4,141.3c10-9.4,16.2-22.7,16.2-37.4c0-7.7-6.3-14-14.1-14s-14.1,6.3-14.1,14c0,12.9-10.5,23.4-23.5,23.4
	c-8.5,0-16.4,2-23.5,5.6v-29c0-7.7-6.3-14-14.1-14c-7.8,0-14.1,6.3-14.1,14v74.8c0,28.3,23.2,51.4,51.7,51.4
	c28.5,0,51.7-23.1,51.7-51.4C307.7,164,301.4,150.7,291.4,141.3z M256,202.1c-12.9,0-23.5-10.5-23.5-23.4
	c0-12.9,10.5-23.4,23.5-23.4c12.9,0,23.5,10.5,23.5,23.4C279.5,191.6,268.9,202.1,256,202.1z"/>
<path fill="#d0f09a" d="M256,304c-79.4,0-144-64.6-144-144c0-2.9,0.1-5.8,0.3-8.7c0.5-8.8,8.1-15.6,16.9-15c8.8,0.5,15.5,8.1,15,16.9
	c-0.1,2.2-0.2,4.5-0.2,6.8c0,61.8,50.2,112,112,112s112-50.2,112-112S317.8,48,256,48c-27.3,0-53.6,9.9-74,27.9
	c-6.6,5.8-16.7,5.2-22.6-1.4c-5.8-6.6-5.2-16.7,1.4-22.6C187.1,28.8,220.9,16,256,16c79.4,0,144,64.6,144,144S335.4,304,256,304z"/>
<path fill="#d0f09a" d="M256,496c-8.8,0-16-7.2-16-16V288c0-8.8,7.2-16,16-16c8.8,0,16,7.2,16,16v192C272,488.8,264.8,496,256,496z"/>
</svg>
