<?xml version="1.0" encoding="utf-8"?>
<!-- Generator: Adobe Illustrator 21.0.2, SVG Export Plug-In . SVG Version: 6.00 Build 0)  -->
<svg version="1.1" id="Layer_2" xmlns="http://www.w3.org/2000/svg" xmlns:xlink="http://www.w3.org/1999/xlink" x="0px" y="0px"
	 viewBox="0 0 512 512" style="enable-background:new 0 0 512 512;" xml:space="preserve">
<style type="text/css">
	.st0{fill:#454545;}
</style>
<g>
	<path class="st0" d="M256,48c28.1,0,55.3,5.5,81,16.3c24.8,10.5,47,25.5,66.1,44.6s34.1,41.4,44.6,66.1
		c10.8,25.6,16.3,52.9,16.3,81s-5.5,55.3-16.3,81c-10.5,24.8-25.5,47-44.6,66.1s-41.4,34.1-66.1,44.6c-25.6,10.8-52.9,16.3-81,16.3
		s-55.3-5.5-81-16.3c-24.8-10.5-47-25.5-66.1-44.6S74.8,361.7,64.3,337C53.5,311.3,48,284.1,48,256s5.5-55.3,16.3-81
		c10.5-24.8,25.5-47,44.6-66.1s41.4-34.1,66.1-44.6C200.7,53.5,227.9,48,256,48 M256,32C132.3,32,32,132.3,32,256s100.3,224,224,224
		s224-100.3,224-224S379.7,32,256,32L256,32z"/>
</g>
<g>
	<path class="st0" d="M320.5,195.3c-2.2-5-4.6-10-7.6-14.6c-3-4.7-6.4-9-10.3-12.9c-3.8-3.8-8.2-7.2-12.9-9.9
		c-4.8-2.7-10-4.8-15.3-6.3c-5.4-1.5-11-2.2-16.6-2.6c-5.3-0.4-10.8,0-16,1.2c-5.6,1.2-10.8,3.1-15.9,5.6c-4.9,2.4-9.4,5.5-13.5,9
		c-4.1,3.6-7.9,7.7-11,12.2c-3.2,4.6-5.8,9.6-7.9,14.8c-0.5,1.2-0.9,2.3-1.3,3.5c-4.5,0-9,0-13.5,0c-4.6,0-9.3,0-13.9,0
		c-2.6,0-5.2,0-7.8,0c1-4.3,2.2-8.6,3.7-12.8c1.5-4.1,3.3-8.2,5.3-12c2.1-3.9,4.4-7.7,7-11.3c2.8-3.7,5.7-7.3,8.9-10.6
		c3.2-3.4,6.7-6.4,10.4-9.3c3.5-2.8,7.2-5.2,11-7.5c3.7-2.2,7.5-4.1,11.5-5.8c4-1.7,8.2-3.3,12.5-4.4c4.3-1.2,8.6-2.3,13-2.9
		s8.9-1.2,13.3-1.4c4.5-0.1,8.9-0.2,13.4,0.2c4.5,0.4,8.9,0.9,13.3,1.8s8.7,2,13,3.6s8.5,3.3,12.6,5.5c4,2.1,7.9,4.6,11.6,7.2
		c3.6,2.5,6.9,5.4,10,8.5c3,3,5.9,6.1,8.5,9.5c2.7,3.6,5.3,7.3,7.6,11.3c2.3,3.9,4.3,8,6.1,12.2c1.8,4.2,3.3,8.4,4.5,12.7
		c0.6,2,1.1,4.1,1.6,6.1c-4.5-0.1-9-0.1-13.5-0.2c-4.6-0.1-9.3-0.1-13.9-0.2C325.7,195.3,323.1,195.3,320.5,195.3L320.5,195.3z
		 M256.1,298.1l18-18l17.2,17.2c6.9-1.4,13.8-3.6,19.4-8.1c5.5-4.3,9-10.4,10.7-17.1c0.4-1.6,0.8-3.3,0.8-4.9c0-2,0-4,0-6.1
		c0-3.4,0-6.9,0-10.3c0-7.4,0-14.8,0-22.1c0-7,0-13.9,0-20.9c0-1,0-2,0-3c4.3,0,8.6,0,12.9,0c4.4,0,8.8,0,13.2,0c2.5,0,4.9,0,7.4,0
		c0,5.4,0,10.9,0,16.3c0,5.3,0,10.5,0,15.8c0,5.2,0,10.3,0,15.5s0,10.4,0,15.6c0,5.3-0.6,10.5-2,15.6s-3.5,10-6.7,14.2
		s-7.1,7.7-11.7,10.2s-9.8,4.1-14.9,5c-2.5,0.5-5.1,0.7-7.7,0.9c-1.3,0.1-2.6,0.1-3.9,0.2c-0.6,0-1.4,0.2-1.9-0.2
		c-0.6-0.4-1.1-1.1-1.6-1.6c-3.7-3.7-7.3-7.3-11-11c-0.9-0.9-1.9-1.9-2.8-2.8L274.1,316L256.1,298.1L256.1,298.1z M218.8,296.9
		l16.8-16.8l18,18l-18,18l-16.2-16.3c-3.7,3.7-7.4,7.4-11.1,11.1c-0.9,0.9-1.9,1.9-2.8,2.8c-0.2,0.2-0.3,0.4-0.5,0.4
		c-0.3,0.1-0.9,0-1.2,0c-0.6,0-1.2,0-1.7,0c-2.6-0.1-5.2-0.3-7.8-0.7c-5.3-0.8-10.5-2.1-15.3-4.4c-4.5-2.1-8.7-5.1-11.9-8.9
		c-3.5-4.1-5.9-8.6-7.7-13.7c-1.7-4.8-2.6-10.1-2.9-15.2c-0.1-2.7,0-5.4,0-8.1c0-2.6,0-5.2,0-7.8c0-5.1,0-10.3,0-15.4
		c0-5.1,0-10.2,0-15.3c0-5.3,0-10.6,0-15.8c0-1.4,0-2.7,0-4.1c4.3,0,8.6,0,12.9,0c4.4,0,8.8,0,13.2,0c2.5,0,4.9,0,7.4,0
		c0,7,0,14,0,21c0,7.3,0,14.6,0,21.9c0,3.4,0,6.8,0,10.2c0,1.9,0,3.8,0,5.8c0,1.6-0.2,3.3,0.1,4.8c1.1,6.8,3.8,13.2,8.7,18.3
		c4.7,4.9,11.1,7.9,17.6,9.6C217.1,296.5,217.9,296.7,218.8,296.9z M202,204.7h29.6v60.9H202V204.7L202,204.7z M241.2,204.7h29.6
		v60.9h-29.6L241.2,204.7L241.2,204.7z M280.9,204.7h29.6v60.9h-29.6V204.7L280.9,204.7z"/>
	<path class="st0" d="M339.5,360.6c0,2.2,0,4.3,0,6.5c0,0.9,0.3,2.3-0.2,3s-1.2,1.4-2,1.8c-0.9,0.5-1.9,0.8-2.9,0.9
		c0.3-1.7,0.1-3.4,0.1-5.1c0-2.4,0-4.7,0-7.1h-8.6c0,2.2,0,4.3,0,6.5c0,0.9,0.3,2.3-0.2,3.1c-0.5,0.8-1.3,1.4-2.1,1.9
		c-0.9,0.5-2,0.7-3,0.8c0.2-4.1,0-8.1,0-12.2H312c0,3.2,0,6.3,0,9.5c0,2.3-0.2,4.7-1.3,6.8c-0.6,1.1-1.4,2-2.7,2
		c-1.5,0-2.6,0.1-3.6-1.2c-1.4-2-1.8-4.7-1.8-7.1c0-3.3,0-6.6,0-10H294c0,2.3,0,4.5,0,6.8c0,1.9-0.2,3.9,0.1,5.8
		c-1.9,0-3.2-1.4-3.7-3.2c-0.2-0.7-0.1-1.5-0.1-2.2c0-1.5,0-2.9,0-4.4c0-1,0-1.9,0-2.9h-8.6c0,2.6,0,5.3,0,7.9
		c0,1.9-0.1,3.8,0.1,5.7c0.2,2,0.7,4.2,2.2,5.7c0.7,0.7,1.6,1.2,2.5,1.3c0.5,0.1,1,0.1,1.6,0c0.7-0.1,0.9-0.1,1.3-0.7
		c1.6-2,3.2-4,4.9-6c1.3,4.5,5,8,9.8,8.2c2.2,0.1,4.6,0.2,6.8,0c2.2-0.2,4.3-1.1,5.9-2.5c2-1.7,3.2-3.9,3.6-6.4
		c2.3,2.4,4.7,4.7,6.8,7.3c1.6-0.6,3.2-1.3,4.4-2.5c1.3-1.2,2-2.8,2.5-4.5c2.2,2.4,4.6,4.5,6.7,7c3-1,5.4-2.8,6.5-5.8
		c1-2.8,0.8-5.8,0.8-8.6c0-2,0-4,0-6.1L339.5,360.6L339.5,360.6z M266.1,360.6v20.5h8.6v-20.5H266.1L266.1,360.6z M162.4,360.6h8.6
		c0,2.8,0,5.5,0,8.3c0,2.6-0.3,5.4,1,7.7c1.3,2.3,4.2,3.1,5.9,0.8c1.7-2.2,1.5-5.1,1.5-7.6c0-3.1,0-6.1,0-9.2h8.6c0,2.4,0,4.8,0,7.2
		c0,0.8-0.1,1.6,0.1,2.4c0.2,0.9,0.3,1.8,0.3,2.6c1.8,0.1,3.4-0.8,4.5-2.2c0.4-0.5,0.5-0.8,0.5-1.5c0-0.5,0-1,0-1.6
		c0-1.1,0-2.2,0-3.3c0-1.2,0-2.4,0-3.6h8.6c0,2.4,0,4.8,0,7.3c0,1.6,0.1,3.3-0.1,4.9c1.9,0,3.4-1,4.5-2.5c0.5-0.8,0.3-2,0.3-2.9
		c0-1.1,0-2.2,0-3.3c0-1.2,0-2.3,0-3.5h8.6c0,4,0.3,8.2-0.1,12.2c1.7,0,3.6-1.2,4.3-2.8c0.3-0.8,0.1-2,0.1-2.9c0-1,0-2,0-3.1
		s0-2.3,0-3.4h8.6c0,3.3,0,6.6,0,9.9c0,3-0.7,6.1-3,8.2c-1.2,1.1-2.7,1.9-4.3,2.4c-2-2.4-4-4.8-5.9-7.3c-0.4,1.8-1.2,3.4-2.5,4.7
		c-1.3,1.3-2.8,2-4.5,2.6c-2.1-2.5-4.1-5.1-6.2-7.6c-0.7,3.9-3.4,6.4-7,7.6c-2.1-2.6-4.2-5.2-6.3-7.8c-0.5,3.2-2.1,5.8-4.9,7.5
		c-2.6,1.6-5.7,2.4-8.8,2.3s-6.3-1.1-8.6-3.3c-2.3-2.2-3.5-5.3-3.7-8.4C162.2,367.9,162.4,364.2,162.4,360.6L162.4,360.6z
		 M238.5,360.6h8.6c0,3.3,0,6.6,0,9.8c0,3-0.7,6.1-3,8.2c-1.2,1.2-2.7,1.9-4.3,2.4c-2.3-2.8-4.5-5.6-6.8-8.4c2.1,0.3,3.8-0.6,5-2.3
		c0.4-0.5,0.4-0.8,0.4-1.5c0-0.5,0-0.9,0-1.4c0-1.1,0-2.2,0-3.3C238.5,363,238.5,361.8,238.5,360.6L238.5,360.6z M338.2,390.3
		l4.6-4.6l4.6,4.6l-4.6,4.6L338.2,390.3L338.2,390.3z M175.2,390.1l4.4-4.4l4.6,4.6l-4.6,4.6l-4.4-4.4l-4.4,4.4l-4.6-4.6l4.6-4.6
		C172.3,387.1,173.7,388.6,175.2,390.1z M326.9,390.1l4.4-4.4l4.6,4.6l-4.6,4.6l-4.4-4.4l-4.4,4.4l-4.6-4.6l4.6-4.6
		C324,387.1,325.4,388.6,326.9,390.1z"/>
	<path class="st0" d="M348.1,347.9h-8.6c0,4.2,0,8.4,0,12.7h8.6V347.9L348.1,347.9z M334.6,360.6v-12.7H326c0,4.2,0,8.4,0,12.7
		C328.8,360.6,331.7,360.6,334.6,360.6z M320.6,360.6c0-3,0-5.8-1.6-8.4c-1.5-2.4-3.9-4.1-6.7-4.7c-1.4-0.3-2.7-0.3-4.1-0.3
		c-1.6,0-3.3-0.1-4.9,0.1c-2.8,0.4-5.3,1.8-7.1,4.1c-2.2,2.8-2.2,5.9-2.2,9.3h8.6c0-2.8,0-6.6,2.2-8.8c0.6-0.6,1.3-0.7,2.1-0.7
		c0.9,0,1.7-0.1,2.4,0.4c1.2,0.8,1.8,2.5,2.2,3.9c0.5,1.7,0.5,3.5,0.5,5.2C314.9,360.6,317.7,360.6,320.6,360.6z M290.3,360.6
		c0-1.4,0.2-2.9,0-4.3c-0.1-1.3-0.7-2.7-1.3-3.8c-1.4-2.4-3.6-4.2-6.3-5.1c-5-1.6-11.4-0.3-14.7,4.1c-0.9,1.2-1.5,2.7-1.8,4.2
		c-0.3,1.6-0.1,3.2-0.1,4.8h8.6c0-2.7-0.2-5.6,1.9-7.7c0.9-0.9,2.2-1.2,3.3-0.5c1.1,0.7,1.6,2.1,1.7,3.4c0.2,1.6,0,3.2,0,4.7
		C284.6,360.6,287.5,360.6,290.3,360.6z M247.1,360.6h-8.6c0-4.1,0-8.3,0-12.4c0-1.2,0-2.4,0-3.5h8.6V360.6L247.1,360.6z
		 M228.2,360.6h-8.6c0-4.2,0-8.4,0-12.7h8.6V360.6L228.2,360.6z M215.3,360.6h-8.6c0-4.2,0-8.4,0-12.7h8.6V360.6L215.3,360.6z
		 M202,360.6h-8.6c0-4.2,0-8.4,0-12.7h8.6V360.6L202,360.6z M188.1,360.6h-8.6c0-4.2,0-8.4,0-12.7h8.6V360.6L188.1,360.6z
		 M171.1,360.6h-8.6v-27.9h8.6c0,7.3,0,14.6,0,21.9C171.1,356.6,171.1,358.6,171.1,360.6L171.1,360.6z M251.6,326.3v8.6
		c-3.7,0-7.5,0-11.2,0c-1.8,0-3.6,0-5.4,0c-1.8,0-3.6-0.2-5.3,0.5c-2,0.8-2.5,2.6-2.2,4.5h-9.3c-1.1-5.3,2.2-10.5,7.1-12.6
		c2.1-0.9,4.4-1.1,6.7-1.1c3.4,0,6.8,0,10.2,0C245.3,326.3,248.5,326.3,251.6,326.3z"/>
</g>
</svg>
