<?xml version="1.0" encoding="utf-8"?>
<!-- Generator: Adobe Illustrator 21.0.2, SVG Export Plug-In . SVG Version: 6.00 Build 0)  -->
<svg version="1.1" id="Layer_2" xmlns="http://www.w3.org/2000/svg" xmlns:xlink="http://www.w3.org/1999/xlink" x="0px" y="0px"
	 viewBox="0 0 512 512" style="enable-background:new 0 0 512 512;" xml:space="preserve">
<style type="text/css">
	.st0{fill:#454545;}
</style>
<g>
	<path class="st0" d="M256,48c28.1,0,55.3,5.5,81,16.3c24.8,10.5,47,25.5,66.1,44.6s34.1,41.4,44.6,66.1
		c10.8,25.6,16.3,52.9,16.3,81s-5.5,55.3-16.3,81c-10.5,24.8-25.5,47-44.6,66.1s-41.4,34.1-66.1,44.6c-25.6,10.8-52.9,16.3-81,16.3
		s-55.3-5.5-81-16.3c-24.8-10.5-47-25.5-66.1-44.6S74.8,361.7,64.3,337C53.5,311.3,48,284.1,48,256s5.5-55.3,16.3-81
		c10.5-24.8,25.5-47,44.6-66.1s41.4-34.1,66.1-44.6C200.7,53.5,227.9,48,256,48 M256,32C132.3,32,32,132.3,32,256s100.3,224,224,224
		s224-100.3,224-224S379.7,32,256,32L256,32z"/>
</g>
<polygon class="st0" points="255.9,265.3 171.9,214.9 180.1,201.1 256.1,246.7 364,185.1 372,198.9 "/>
<path class="st0" d="M256,120c-13.2,0-24-10.8-24-24s10.8-24,24-24c13.2,0,24,10.8,24,24S269.2,120,256,120z M256,88
	c-4.4,0-8,3.6-8,8s3.6,8,8,8s8-3.6,8-8S260.4,88,256,88z"/>
<path class="st0" d="M256,440c-13.2,0-24-10.8-24-24s10.8-24,24-24c13.2,0,24,10.8,24,24S269.2,440,256,440z M256,408
	c-4.4,0-8,3.6-8,8s3.6,8,8,8s8-3.6,8-8S260.4,408,256,408z"/>
<path class="st0" d="M96,280c-13.2,0-24-10.8-24-24c0-13.2,10.8-24,24-24s24,10.8,24,24C120,269.2,109.2,280,96,280z M96,248
	c-4.4,0-8,3.6-8,8s3.6,8,8,8s8-3.6,8-8S100.4,248,96,248z"/>
<path class="st0" d="M416,280c-13.2,0-24-10.8-24-24c0-13.2,10.8-24,24-24s24,10.8,24,24C440,269.2,429.2,280,416,280z M416,248
	c-4.4,0-8,3.6-8,8s3.6,8,8,8s8-3.6,8-8S420.4,248,416,248z"/>
<ellipse transform="matrix(0.866 -0.5 0.5 0.866 -152.2743 103.7132)" class="st0" cx="117.4" cy="336" rx="16" ry="16"/>
<ellipse transform="matrix(0.866 -0.5 0.5 0.866 -35.1284 220.8836)" class="st0" cx="394.6" cy="176" rx="16" ry="16"/>
<ellipse transform="matrix(0.5 -0.866 0.866 0.5 -253.7362 349.7312)" class="st0" cx="176" cy="394.6" rx="16" ry="16"/>
<ellipse transform="matrix(0.5 -0.866 0.866 0.5 66.3122 349.6359)" class="st0" cx="336" cy="117.4" rx="16" ry="16"/>
<ellipse transform="matrix(0.866 -0.5 0.5 0.866 -152.2864 220.8715)" class="st0" cx="336" cy="394.6" rx="16" ry="16"/>
<ellipse transform="matrix(0.866 -0.5 0.5 0.866 -35.1161 103.7255)" class="st0" cx="176" cy="117.4" rx="16" ry="16"/>
<ellipse transform="matrix(0.5 -0.866 0.866 0.5 -93.6639 509.7076)" class="st0" cx="394.6" cy="336" rx="16" ry="16"/>
<ellipse transform="matrix(0.5 -0.866 0.866 0.5 -93.7595 189.6595)" class="st0" cx="117.4" cy="176" rx="16" ry="16"/>
</svg>
