<?xml version="1.0" encoding="utf-8"?>
<!-- Generator: Adobe Illustrator 21.0.2, SVG Export Plug-In . SVG Version: 6.00 Build 0)  -->
<svg version="1.1" id="Layer_2" xmlns="http://www.w3.org/2000/svg" xmlns:xlink="http://www.w3.org/1999/xlink" x="0px" y="0px"
	 viewBox="0 0 512 512" style="enable-background:new 0 0 512 512;" xml:space="preserve">
<style type="text/css">
	.st0{fill:#454545;}
</style>
<g>
	<path class="st0" d="M256,48c28.1,0,55.3,5.5,81,16.3c24.8,10.5,47,25.5,66.1,44.6s34.1,41.4,44.6,66.1
		c10.8,25.6,16.3,52.9,16.3,81s-5.5,55.3-16.3,81c-10.5,24.8-25.5,47-44.6,66.1s-41.4,34.1-66.1,44.6c-25.6,10.8-52.9,16.3-81,16.3
		s-55.3-5.5-81-16.3c-24.8-10.5-47-25.5-66.1-44.6S74.8,361.7,64.3,337C53.5,311.3,48,284.1,48,256s5.5-55.3,16.3-81
		c10.5-24.8,25.5-47,44.6-66.1s41.4-34.1,66.1-44.6C200.7,53.5,227.9,48,256,48 M256,32C132.3,32,32,132.3,32,256s100.3,224,224,224
		s224-100.3,224-224S379.7,32,256,32L256,32z"/>
</g>
<g>
	<path class="st0" d="M169.7,319.5h-64.4v-127h64.4v20.1h-41.8V245H161v20.5h-33.1v32.6h41.8V319.5z"/>
	<path class="st0" d="M249.9,319.5h-18.6v-77.9L213,297.2l-18.4-55.7v77.9h-18.9V192.5h22.9l14.4,48.8l15.6-48.8H250v127H249.9z"/>
	<path class="st0" d="M325,319.5h-16.6v-11.2c-0.9,3.3-3.2,6.2-6.7,8.9c-3.6,2.7-9.1,4-16.5,4c-3.9,0-7.5-0.8-11-2.4
		s-6.6-3.8-9.2-6.7c-2.6-2.9-4.7-6.4-6.2-10.5s-2.3-8.6-2.3-13.7v-60.2c0-12.5,3.1-21.8,9.3-27.8c6.2-6.1,14.9-9.1,26.1-9.1
		c9.9,0,18,2.7,24.2,8.1c6.2,5.4,9.7,13.9,10.4,25.5h-21.9c0-4.4-1.3-7.7-3.8-9.8s-5.5-3.2-9-3.2c-4.2,0-7.6,1.5-10.1,4.6
		s-3.8,7.3-3.8,12.5v56.2c0,5.6,1.3,9.6,3.8,12.1s5.9,3.7,10.1,3.7c4.1,0,7.3-1.2,9.6-3.7c2.3-2.5,3.5-6.5,3.5-12.1v-18.9h-10.3
		v-18.2H325V319.5z"/>
	<path class="st0" d="M406.7,192.5l-30.5,76.3v50.6h-22.8v-50.6l-30.3-76.3H350l15.4,46.4l15.2-46.4H406.7z"/>
</g>
</svg>
