<?xml version="1.0" encoding="utf-8"?>
<!-- Generator: Adobe Illustrator 21.0.2, SVG Export Plug-In . SVG Version: 6.00 Build 0)  -->
<svg version="1.1" id="Layer_2" xmlns="http://www.w3.org/2000/svg" xmlns:xlink="http://www.w3.org/1999/xlink" x="0px" y="0px"
	 viewBox="0 0 512 512" style="enable-background:new 0 0 512 512;" xml:space="preserve">
<style type="text/css">
	.st0{fill:#454545;}
</style>
<g>
	<path class="st0" d="M256,32C132.3,32,32,132.3,32,256s100.3,224,224,224s224-100.3,224-224S379.7,32,256,32z M403.1,403.1
		c-19.1,19.1-41.4,34.1-66.1,44.6c-25.6,10.8-52.9,16.3-81,16.3s-55.3-5.5-81-16.3c-24.8-10.5-47-25.5-66.1-44.6
		S74.8,361.7,64.3,337C53.5,311.3,48,284.1,48,256s5.5-55.3,16.3-81c10.5-24.8,25.5-47,44.6-66.1s41.4-34.1,66.1-44.6
		C200.7,53.5,227.9,48,256,48s55.3,5.5,81,16.3c24.8,10.5,47,25.5,66.1,44.6s34.1,41.4,44.6,66.1c10.8,25.6,16.3,52.9,16.3,81
		s-5.5,55.3-16.3,81C437.2,361.8,422.2,384,403.1,403.1z"/>
	<path class="st0" d="M154.3,93v326h203.3V93H154.3z M337.7,341.8c-7-5.1-15.7-8.1-25-8.1c-23.5,0-42.7,19.1-42.7,42.7
		c0,8.3,2.4,16.1,6.5,22.7h-43.4c4.1-6.6,6.5-14.3,6.5-22.7c0-23.5-19.1-42.7-42.7-42.7c-8.3,0-16.1,2.4-22.7,6.5V171.8
		c6.6,4.1,14.3,6.5,22.7,6.5c23.5,0,42.7-19.1,42.7-42.7c0-8.3-2.4-16.1-6.5-22.7h43.4c-4.1,6.6-6.5,14.3-6.5,22.7
		c0,23.5,19.1,42.7,42.7,42.7c9.3,0,18-3,25-8.1V341.8z M290,376.3c0-12.5,10.2-22.7,22.7-22.7s22.7,10.2,22.7,22.7
		S325.2,399,312.7,399S290,388.8,290,376.3z M174.3,376.3c0-12.5,10.2-22.7,22.7-22.7s22.7,10.2,22.7,22.7S209.5,399,197,399
		S174.3,388.8,174.3,376.3z M197,113c12.5,0,22.7,10.2,22.7,22.7s-10.2,22.7-22.7,22.7s-22.7-10.2-22.7-22.7S184.5,113,197,113z
		 M335.3,135.7c0,12.5-10.2,22.7-22.7,22.7s-22.7-10.2-22.7-22.7s10.2-22.7,22.7-22.7C325.2,113,335.3,123.2,335.3,135.7z"/>
	<path class="st0" d="M274.8,225.7c-17.3,0-24.8,12.9-29.4,24.2c-5.1,12.3-7.7,14.3-11.6,14.3c-1.7,0-7.4-0.7-7.4-10.1
		c0-8,2.9-13,4.1-15.2l2.6-4.6l-17.6-6.7l-1.9,3.3c-2.7,4.7-4.4,9.9-5.1,15.7h-13.7v17.6h14.8c3.5,12.8,13.3,20.8,25.9,20.8
		c15.9,0,23.1-13,28.1-25.6c4.6-11.2,8.6-12.8,12.3-12.8c5.4,0,9,4.8,9,11.9c0,6-1.9,12.5-5.2,17.4l-3.2,4.8l17.9,6.4l2-2.8
		c3.4-4.7,5.8-11.9,6.6-19.2h14.2v-17.7H302C298.3,234.3,287.8,225.7,274.8,225.7z"/>
</g>
</svg>
