<?xml version="1.0" encoding="utf-8"?>
<!-- Generator: Adobe Illustrator 21.0.2, SVG Export Plug-In . SVG Version: 6.00 Build 0)  -->
<svg version="1.1" id="Layer_2" xmlns="http://www.w3.org/2000/svg" xmlns:xlink="http://www.w3.org/1999/xlink" x="0px" y="0px"
	 viewBox="0 0 512 512" style="enable-background:new 0 0 512 512;" xml:space="preserve">
<style type="text/css">
	.st0{fill:#454545;}
</style>
<g>
	<path class="st0" d="M256,48c28.1,0,55.3,5.5,81,16.3c24.8,10.5,47,25.5,66.1,44.6s34.1,41.4,44.6,66.1
		c10.8,25.6,16.3,52.9,16.3,81s-5.5,55.3-16.3,81c-10.5,24.8-25.5,47-44.6,66.1s-41.4,34.1-66.1,44.6c-25.6,10.8-52.9,16.3-81,16.3
		s-55.3-5.5-81-16.3c-24.8-10.5-47-25.5-66.1-44.6S74.8,361.7,64.3,337C53.5,311.3,48,284.1,48,256s5.5-55.3,16.3-81
		c10.5-24.8,25.5-47,44.6-66.1s41.4-34.1,66.1-44.6C200.7,53.5,227.9,48,256,48 M256,32C132.3,32,32,132.3,32,256s100.3,224,224,224
		s224-100.3,224-224S379.7,32,256,32L256,32z"/>
</g>
<path class="st0" d="M256,168c-22.1,0-40-17.9-40-40s17.9-40,40-40s40,17.9,40,40S278.1,168,256,168z M256,104
	c-13.2,0-24,10.8-24,24s10.8,24,24,24c13.2,0,24-10.8,24-24S269.2,104,256,104z"/>
<g>
	<path class="st0" d="M152.8,341.3H133v-91.6l-19.6,11.5V239l39.4-22V341.3z"/>
	<path class="st0" d="M228.3,311.5c0,4.5-0.6,8.7-1.7,12.5c-1.1,3.8-3,7.2-5.5,10s-5.9,5-10,6.6s-9.2,2.4-15.3,2.4
		s-11.2-0.8-15.4-2.4s-7.5-3.7-10.1-6.5c-2.5-2.8-4.4-6.1-5.5-9.9s-1.7-8-1.7-12.5v-63.4c0-4.5,0.6-8.7,1.7-12.5
		c1.1-3.8,3-7.1,5.5-9.9c2.5-2.8,5.9-4.9,10.1-6.5c4.2-1.6,9.3-2.4,15.4-2.4c6.1,0,11.2,0.8,15.3,2.4c4.1,1.6,7.4,3.8,10,6.6
		c2.5,2.8,4.4,6.1,5.5,10c1.1,3.8,1.7,8,1.7,12.5V311.5z M183.7,311c0,4.7,1,8.1,3,10.2s5.1,3.1,9.1,3.1c3.9,0,6.9-1.1,8.9-3.2
		s3-5.7,3-10.8v-60.7c0-5.1-1-8.7-3-10.8s-4.9-3.2-8.9-3.2c-4.1,0-7.1,1-9.1,3.1s-3,5.5-3,10.2V311z"/>
	<path class="st0" d="M302.7,311.5c0,4.5-0.6,8.7-1.7,12.5s-3,7.2-5.5,10s-5.9,5-10,6.6s-9.2,2.4-15.3,2.4s-11.2-0.8-15.4-2.4
		c-4.2-1.6-7.5-3.7-10.1-6.5c-2.5-2.8-4.4-6.1-5.5-9.9s-1.7-8-1.7-12.5v-63.4c0-4.5,0.6-8.7,1.7-12.5c1.1-3.8,3-7.1,5.5-9.9
		c2.5-2.8,5.9-4.9,10.1-6.5s9.3-2.4,15.4-2.4s11.2,0.8,15.3,2.4c4.1,1.6,7.4,3.8,10,6.6c2.5,2.8,4.4,6.1,5.5,10
		c1.1,3.8,1.7,8,1.7,12.5V311.5z M258.1,311c0,4.7,1,8.1,3,10.2s5.1,3.1,9.1,3.1c3.9,0,6.9-1.1,8.9-3.2s3-5.7,3-10.8v-60.7
		c0-5.1-1-8.7-3-10.8s-4.9-3.2-8.9-3.2c-4.1,0-7.1,1-9.1,3.1s-3,5.5-3,10.2V311z"/>
	<path class="st0" d="M348.2,267.6c0,5.3-1.4,9.6-4.1,13s-7.6,5.1-14.5,5.1s-11.7-1.7-14.4-5.1s-4.1-7.7-4.1-12.9v-34
		c0-5.3,1.4-9.6,4.1-12.9c2.7-3.3,7.5-4.9,14.4-4.9c7,0,11.8,1.7,14.5,5.1c2.7,3.4,4.1,7.6,4.1,12.7V267.6z M396.9,218.7
		l-71.2,122.6h-13.4l71.4-122.6L396.9,218.7L396.9,218.7z M324.1,267.4c0,4.2,1.9,6.3,5.6,6.3c1.9,0,3.3-0.5,4.2-1.5
		c0.9-1,1.4-2.7,1.4-5.1v-32.6c0-4.4-1.9-6.6-5.6-6.6s-5.6,2.1-5.6,6.3V267.4z M398.6,325.9c0,5.3-1.4,9.6-4.1,13s-7.6,5.1-14.5,5.1
		s-11.7-1.7-14.4-5.1c-2.7-3.4-4.1-7.7-4.1-12.9v-34c0-5.3,1.4-9.6,4.1-12.9s7.5-4.9,14.4-4.9c7,0,11.8,1.7,14.5,5.1
		s4.1,7.6,4.1,12.7V325.9z M374.4,325.7c0,4.2,1.9,6.3,5.6,6.3c1.9,0,3.3-0.5,4.2-1.5c0.9-1,1.4-2.7,1.4-5.1v-32.6
		c0-4.4-1.9-6.6-5.6-6.6s-5.6,2.1-5.6,6.3V325.7z"/>
</g>
</svg>
