<?xml version="1.0" encoding="iso-8859-1"?>
<!-- Generator: Adobe Illustrator 19.0.0, SVG Export Plug-In . SVG Version: 6.00 Build 0)  -->
<svg version="1.1" id="Capa_1" xmlns="http://www.w3.org/2000/svg" xmlns:xlink="http://www.w3.org/1999/xlink" x="0px" y="0px"
	 viewBox="0 0 512 512" style="enable-background:new 0 0 512 512;" xml:space="preserve">
<path style="fill:#FD3238;" d="M80,88h128l31.152-62.312C244.576,14.848,255.656,8,267.776,8H400c35.344,0,64,28.656,64,64v368
	c0,35.344-28.656,64-64,64H64c-8.84,0-16-7.16-16-16V120C48,102.328,62.328,88,80,88z"/>
<path style="fill:#BE262A;" d="M64,488V120c0-17.672,14.328-32,32-32H80c-17.672,0-32,14.328-32,32v368c0,8.84,7.16,16,16,16h16
	C71.16,504,64,496.84,64,488z"/>
<circle style="fill:#FCB641;" cx="168" cy="216" r="80"/>
<path style="fill:#FFFFFF;" d="M408,432h-24c-8.84,0-16-7.16-16-16V212.432c0-2.904,0.792-5.744,2.28-8.232l17.056-28.432
	c2.896-4.816,8.104-7.768,13.72-7.768H408c8.84,0,16,7.16,16,16v232C424,424.84,416.84,432,408,432z"/>
<path d="M408,440h-24c-13.232,0-24-10.768-24-24V212.432c0-4.344,1.176-8.616,3.424-12.344l17.056-28.432
	C384.8,164.464,392.688,160,401.064,160H408c13.232,0,24,10.768,24,24v232C432,429.232,421.232,440,408,440z M401.064,176
	c-2.8,0-5.432,1.496-6.864,3.888l-17.056,28.424c-0.744,1.24-1.144,2.672-1.144,4.12V416c0,4.408,3.584,8,8,8h24
	c4.416,0,8-3.592,8-8V184c0-4.408-3.584-8-8-8H401.064z"/>
<polygon style="fill:#A0B2BA;" points="184,88 88,88 96,40 176,40 "/>
<g style="opacity:0.5;">
	<polygon style="fill:#78858B;" points="96,40 88,88 104,88 112,40 	"/>
</g>
<polygon style="fill:#FCB641;" points="168,40 104,40 112,8 160,8 "/>
<g style="opacity:0.5;">
	<polygon style="fill:#BD8931;" points="112,8 104,40 120,40 128,8 	"/>
</g>
<path style="fill:#2EA6DB;" d="M208,229.336c0,22.088-17.912,40-40,40s-40-17.912-40-40s40-66.664,40-66.664S208,207.24,208,229.336
	z"/>
<path d="M168,277.336c-26.472,0-48-21.528-48-48c0-24.448,37.744-67.208,42.048-72.008c3.032-3.384,8.872-3.384,11.904,0
	c4.304,4.8,42.048,47.56,42.048,72.008C216,255.8,194.472,277.336,168,277.336z M168,174.904c-14.264,17.104-32,42.344-32,54.424
	c0,17.648,14.352,32,32,32s32-14.352,32-32C200,217.232,182.272,192,168,174.904z"/>
<path d="M168,304c-48.52,0-88-39.48-88-88s39.48-88,88-88s88,39.48,88,88S216.52,304,168,304z M168,144c-39.696,0-72,32.304-72,72
	s32.304,72,72,72s72-32.304,72-72S207.696,144,168,144z"/>
<path style="fill:#FCB641;" d="M312,472H168V360c0-8.84,7.16-16,16-16h144v112C328,464.84,320.84,472,312,472z"/>
<path d="M312,480H168c-4.416,0-8-3.584-8-8V360c0-13.232,10.768-24,24-24h144c4.424,0,8,3.584,8,8v112
	C336,469.232,325.232,480,312,480z M176,464h136c4.416,0,8-3.592,8-8V352H184c-4.408,0-8,3.592-8,8V464z"/>
<rect x="192" y="368" width="72" height="16"/>
<rect x="280" y="368" width="24" height="16"/>
<rect x="192" y="432" width="72" height="16"/>
<rect x="280" y="432" width="24" height="16"/>
<rect x="192" y="400" width="32" height="16"/>
<rect x="240" y="400" width="64" height="16"/>
<path style="fill:#FFFFFF;" d="M401.992,92.8l-29.608,23.688c-2.84,2.272-6.36,3.512-9.992,3.512H280c-8.84,0-16-7.16-16-16V72
	c0-8.84,7.16-16,16-16h112c8.84,0,16,7.16,16,16v8.312C408,85.168,405.792,89.768,401.992,92.8z"/>
<path d="M362.392,128H280c-13.232,0-24-10.768-24-24V72c0-13.232,10.768-24,24-24h112c13.232,0,24,10.768,24,24v8.312
	c0,7.328-3.28,14.16-9.008,18.744l0,0l-29.608,23.688C373.144,126.136,367.824,128,362.392,128z M280,64c-4.416,0-8,3.592-8,8v32
	c0,4.408,3.584,8,8,8h82.392c1.808,0,3.576-0.624,4.992-1.752l29.608-23.688c1.912-1.528,3.008-3.808,3.008-6.248V72
	c0-4.408-3.584-8-8-8H280z"/>
<rect x="288" y="160" width="48" height="16"/>
<rect x="288" y="192" width="48" height="16"/>
<rect x="288" y="224" width="48" height="16"/>
<rect x="288" y="256" width="48" height="16"/>
<rect x="288" y="288" width="48" height="16"/>
<path style="fill:#A0B2BA;" d="M128,504H88V352c0-4.416,3.584-8,8-8h24c4.416,0,8,3.584,8,8V504z"/>
<path d="M400,0H267.776C252.52,0,238.816,8.472,232,22.112L203.056,80h-12.28l-6.888-41.32C183.248,34.832,179.912,32,176,32h-1.752
	L167.76,6.056C166.872,2.496,163.672,0,160,0h-48c-3.672,0-6.872,2.496-7.76,6.056L97.752,32H96c-3.912,0-7.248,2.832-7.888,6.68
	L81.224,80H80c-22.056,0-40,17.944-40,40v368c0,13.232,10.768,24,24,24h24h40h272c39.704,0,72-32.304,72-72V72
	C472,32.304,439.704,0,400,0z M118.248,16h35.504l4,16h-43.504L118.248,16z M102.776,48H104h64h1.224l5.336,32H144V64h-16v16H97.448
	L102.776,48z M96,496v-16h8v-16h-8v-16h8v-16h-8v-16h8v-16h-8v-16h8v-16h-8v-16h24v144H96z M456,440c0,30.88-25.128,56-56,56H136
	V352c0-8.824-7.176-16-16-16H96c-8.824,0-16,7.176-16,16v144H64c-4.408,0-8-3.592-8-8V120c0-13.232,10.768-24,24-24h8h96h24
	c3.032,0,5.8-1.712,7.16-4.424l31.16-62.312C250.4,21.08,258.624,16,267.776,16H400c30.872,0,56,25.12,56,56V440z"/>
<g>
</g>
<g>
</g>
<g>
</g>
<g>
</g>
<g>
</g>
<g>
</g>
<g>
</g>
<g>
</g>
<g>
</g>
<g>
</g>
<g>
</g>
<g>
</g>
<g>
</g>
<g>
</g>
<g>
</g>
</svg>
