<?xml version="1.0" encoding="utf-8"?>
<!-- Generator: Adobe Illustrator 21.0.2, SVG Export Plug-In . SVG Version: 6.00 Build 0)  -->
<svg version="1.1" id="Layer_1" xmlns="http://www.w3.org/2000/svg" xmlns:xlink="http://www.w3.org/1999/xlink" x="0px" y="0px"
	 viewBox="0 0 519.4 520" style="enable-background:new 0 0 519.4 520;" xml:space="preserve">
<style type="text/css">
	.st0{clip-path:url(#SVGID_2_);}
	.st1{clip-path:url(#SVGID_4_);fill:#FF6100;}
	.st2{opacity:0.8;clip-path:url(#SVGID_4_);}
	.st3{clip-path:url(#SVGID_6_);fill:#FFFF00;}
	.st4{opacity:0.2;clip-path:url(#SVGID_4_);}
	.st5{clip-path:url(#SVGID_8_);}
	.st6{clip-path:url(#SVGID_4_);fill:#FFFFFF;}
	.st7{clip-path:url(#SVGID_4_);}
	.st8{clip-path:url(#SVGID_4_);fill:#FF00FF;}
	.st9{clip-path:url(#SVGID_4_);fill:#F15A24;}
	.st10{clip-path:url(#SVGID_4_);fill:#ED1C24;}
	.st11{clip-path:url(#SVGID_4_);fill:#FFFF00;}
	.st12{clip-path:url(#SVGID_4_);fill:#FDD7AD;}
</style>
<g>
	<defs>
		<rect id="SVGID_1_" width="519.4" height="520"/>
	</defs>
	<clipPath id="SVGID_2_">
		<use xlink:href="#SVGID_1_"  style="overflow:visible;"/>
	</clipPath>
	<g class="st0">
		<defs>
			<rect id="SVGID_3_" width="519.4" height="520"/>
		</defs>
		<clipPath id="SVGID_4_">
			<use xlink:href="#SVGID_3_"  style="overflow:visible;"/>
		</clipPath>
		<path class="st1" d="M257.8,58L14.2,303.7c-8.3,8.3-8.3,21.8,0,30.1l172.1,172.1c8.3,8.3,21.8,8.3,30.1,0l237.2-243.6V58H257.8z
			 M369.5,175.7c-18.6,0-33.6-15.1-33.6-33.6c0-18.6,15.1-33.6,33.6-33.6c18.6,0,33.6,15.1,33.6,33.6
			C403.1,160.7,388.1,175.7,369.5,175.7"/>
		<g class="st2">
			<g>
				<defs>
					<rect id="SVGID_5_" x="8" y="58" width="445.5" height="344.4"/>
				</defs>
				<clipPath id="SVGID_6_">
					<use xlink:href="#SVGID_5_"  style="overflow:visible;"/>
				</clipPath>
				<path class="st3" d="M193.9,212.7c35.9-31.7,89.3-54.8,142-71.4c0.5-18.2,15.3-32.8,33.6-32.8c12,0,22.6,6.3,28.5,15.8
					c20.2-4.8,39.2-8.6,55.5-11.5V58H257.8L14.2,303.7c-8.3,8.3-8.3,21.8,0,30.1L83,402.5C95.6,356.6,126.7,271.9,193.9,212.7"/>
			</g>
		</g>
		<g class="st4">
			<g>
				<defs>
					<rect id="SVGID_7_" x="314.1" y="86.7" width="110.7" height="110.7"/>
				</defs>
				<clipPath id="SVGID_8_">
					<use xlink:href="#SVGID_7_"  style="overflow:visible;"/>
				</clipPath>
				<path class="st5" d="M369.5,86.7c-30.6,0-55.4,24.8-55.4,55.4c0,30.6,24.8,55.4,55.4,55.4s55.4-24.8,55.4-55.4
					C424.8,111.5,400.1,86.7,369.5,86.7 M369.5,169.8c-15.3,0-27.7-12.4-27.7-27.7s12.4-27.7,27.7-27.7c15.3,0,27.7,12.4,27.7,27.7
					S384.8,169.8,369.5,169.8"/>
			</g>
		</g>
		<path class="st6" d="M193.4,397.3c-18.9,0-36.6-7.4-49.9-20.7c-27.5-27.5-27.5-72.4,0-99.9c3.1-3.1,7.2-4.8,11.6-4.8
			c4.4,0,8.5,1.7,11.6,4.8c3.1,3.1,4.8,7.2,4.8,11.6c0,4.4-1.7,8.5-4.8,11.6c-14.7,14.7-14.7,38.8,0,53.5
			c7.1,7.1,16.6,11.1,26.7,11.1c1.1,0,2.1,0,3.2-0.1c4.6-0.4,8.8-2.6,11.8-6.4c3.3-4.1,4.8-9.4,4.2-14.5l-11.1-89.2
			c-1.7-14,2.3-28.3,11.2-39.3c8.7-10.7,21-17.3,34.6-18.4c2-0.2,3.9-0.2,5.9-0.2c18.9,0,36.6,7.3,50,20.7
			c13.3,13.3,20.7,31.1,20.7,50c0,18.9-7.3,36.6-20.7,50c-3.1,3.1-7.2,4.8-11.6,4.8c-4.4,0-8.5-1.7-11.6-4.8
			c-3.1-3.1-4.8-7.2-4.8-11.6c0-4.4,1.7-8.5,4.8-11.6c14.7-14.7,14.7-38.8,0-53.5c-7.2-7.1-16.6-11.1-26.7-11.1
			c-1.1,0-2.2,0-3.2,0.1c-4.6,0.4-8.8,2.6-11.8,6.4c-3.3,4.1-4.8,9.4-4.1,14.5l11.1,89.2c1.7,14-2.3,28.3-11.2,39.3
			c-8.7,10.7-21,17.3-34.6,18.4C197.4,397.2,195.5,397.3,193.4,397.3"/>
		<path class="st7" d="M253,204.3c16.6,0,32.5,6.5,44.3,18.3c24.4,24.4,24.4,64.2,0,88.6c-1.6,1.6-3.8,2.5-5.9,2.5
			c-2.1,0-4.3-0.8-5.9-2.5c-3.3-3.3-3.3-8.6,0-11.9c17.9-17.9,17.9-46.9,0-64.8c-8.6-8.6-20.2-13.4-32.4-13.4
			c-1.3,0-2.6,0.1-3.9,0.2c-6.8,0.6-12.9,3.9-17.3,9.3c-4.6,5.7-6.8,13.2-5.9,20.6l11.1,89.2c1.5,11.9-2,24-9.5,33.2
			c-7.3,9-17.6,14.5-29,15.5c-1.7,0.2-3.5,0.2-5.2,0.2c-16.6,0-32.5-6.5-44.3-18.4c-24.4-24.4-24.4-64.2,0-88.6
			c1.6-1.6,3.8-2.5,5.9-2.5c2.2,0,4.3,0.8,5.9,2.5c3.3,3.3,3.3,8.6,0,11.9c-17.9,17.9-17.9,46.9,0,64.8c8.6,8.6,20.3,13.4,32.4,13.4
			c1.3,0,2.6-0.1,3.9-0.2c6.8-0.6,12.9-3.9,17.3-9.3c4.6-5.7,6.8-13.2,5.9-20.6l-11.1-89.2c-1.5-11.9,2-24,9.5-33.3
			c7.3-9,17.6-14.5,29-15.5C249.5,204.4,251.3,204.3,253,204.3 M253,188.3c-2.2,0-4.4,0.1-6.5,0.3c-15.8,1.3-30,8.9-40.1,21.3
			c-10.3,12.6-15,29.1-13,45.3l11.1,89.2c0.4,3-0.5,6.1-2.4,8.5c-1.7,2-3.8,3.2-6.2,3.4c-0.9,0.1-1.7,0.1-2.5,0.1
			c-8,0-15.4-3.1-21.1-8.7c-11.6-11.6-11.6-30.6,0-42.2c4.6-4.6,7.1-10.7,7.1-17.3c0-6.5-2.5-12.6-7.2-17.3
			c-4.6-4.6-10.7-7.2-17.3-7.2c-6.5,0-12.6,2.5-17.3,7.2c-30.7,30.7-30.7,80.6,0,111.2c14.9,14.9,34.6,23,55.6,23
			c2.3,0,4.5-0.1,6.6-0.3c15.7-1.3,30-8.9,40-21.3c10.2-12.6,15-29.1,12.9-45.3l-11.1-89.2c-0.4-3,0.5-6.2,2.4-8.5
			c1.7-2,3.8-3.2,6.2-3.4c0.9-0.1,1.7-0.1,2.6-0.1c7.9,0,15.4,3.1,21,8.7c11.6,11.6,11.6,30.6,0,42.2c-9.5,9.5-9.5,25,0,34.5
			c4.6,4.6,10.7,7.2,17.3,7.2c6.5,0,12.6-2.5,17.3-7.2c30.7-30.7,30.7-80.6,0-111.2C293.8,196.5,274,188.3,253,188.3"/>
		<path class="st6" d="M142.8,393.6c-4.4,0-8.5-1.7-11.6-4.8c-6.4-6.4-6.4-16.8,0-23.2l158.2-158.2c3.1-3.1,7.2-4.8,11.6-4.8
			s8.5,1.7,11.6,4.8c6.4,6.4,6.4,16.8,0,23.2L154.4,388.8C151.3,391.9,147.1,393.6,142.8,393.6"/>
		<path class="st7" d="M301,210.6c2.1,0,4.3,0.8,5.9,2.5c3.3,3.3,3.3,8.6,0,11.9L148.7,383.2c-1.6,1.6-3.8,2.5-5.9,2.5
			c-2.2,0-4.3-0.8-5.9-2.5c-3.3-3.3-3.3-8.6,0-11.9L295,213.1C296.7,211.4,298.8,210.6,301,210.6 M301,194.6
			c-6.5,0-12.6,2.5-17.3,7.2L125.5,360c-9.5,9.5-9.5,25,0,34.5c4.6,4.6,10.7,7.1,17.3,7.1c6.5,0,12.6-2.5,17.2-7.1l158.2-158.2
			c4.6-4.6,7.2-10.7,7.2-17.3s-2.5-12.6-7.2-17.3C313.6,197.2,307.5,194.6,301,194.6"/>
		<path class="st7" d="M55.8,48h-32V16h32V48z M71.8,0h-64v64h64V0z"/>
		<path class="st8" d="M103.8,96h-16V80h16V96z M119.8,64h-48v48h48V64z"/>
		<path class="st9" d="M55.8,144h-16v-16h16V144z M71.8,112h-48v48h48V112z"/>
		<rect x="71.8" y="160" class="st8" width="32" height="32"/>
		<rect x="39.8" y="192" class="st10" width="32" height="32"/>
		<rect x="103.8" y="128" class="st11" width="32" height="32"/>
		<rect x="135.8" y="96" class="st11" width="32" height="32"/>
		<rect x="167.8" y="64" class="st8" width="32" height="32"/>
		<rect x="199.3" y="32.5" class="st10" width="32" height="32"/>
		<path class="st9" d="M151.8,48h-16V32h16V48z M167.8,16h-48v48h48V16z"/>
		<path class="st7" d="M503.4,496.1h-32v-32h32V496.1z M519.4,448.1h-64v64h64V448.1z"/>
		<path class="st8" d="M439.4,432.1h-16v-16h16V432.1z M455.4,400.1h-48v48h48V400.1z"/>
		<path class="st9" d="M487.4,384.1h-16v-16h16V384.1z M503.4,352.1h-48v48h48V352.1z"/>
		<rect x="423.4" y="320.1" class="st8" width="32" height="32"/>
		<rect x="455.4" y="288.1" class="st10" width="32" height="32"/>
		<rect x="391.4" y="352.1" class="st11" width="32" height="32"/>
		<rect x="359.4" y="384.1" class="st11" width="32" height="32"/>
		<rect x="327.4" y="416.1" class="st8" width="32" height="32"/>
		<rect x="295.9" y="447.7" class="st10" width="32" height="32"/>
		<path class="st9" d="M391.4,480.1h-16v-16h16V480.1z M407.4,448.1h-48v48h48V448.1z"/>
		<path class="st7" d="M437.5,74v181.6L205,494.5c-1.3,1.3-2.9,1.5-3.7,1.5c-0.8,0-2.4-0.2-3.7-1.5l-172-172c-2.1-2.1-2.1-5.4,0-7.4
			l0,0l0,0L264.5,74H437.5 M369.5,191.7c27.4,0,49.6-22.3,49.6-49.6c0-27.4-22.3-49.6-49.6-49.6c-27.4,0-49.6,22.3-49.6,49.6
			C319.9,169.5,342.1,191.7,369.5,191.7 M453.5,58H257.8L14.2,303.7c-8.3,8.3-8.3,21.8,0,30.1l172.1,172.1c4.1,4.1,9.6,6.2,15,6.2
			s10.9-2.1,15-6.2l237.2-243.6V58z M369.5,175.7c-18.6,0-33.6-15.1-33.6-33.6c0-18.6,15.1-33.6,33.6-33.6
			c18.6,0,33.6,15.1,33.6,33.6C403.1,160.7,388.1,175.7,369.5,175.7"/>
		<path class="st12" d="M369.5,158.5c-4.4,0-8.5-1.7-11.6-4.8c-3.1-3.1-4.8-7.2-4.8-11.6c0-4.4,1.7-8.5,4.8-11.6L475.6,12.8
			c3.1-3.1,7.2-4.8,11.6-4.8c4.4,0,8.5,1.7,11.6,4.8c6.4,6.4,6.4,16.8,0,23.2L381.1,153.7C378,156.8,373.9,158.5,369.5,158.5"/>
		<path class="st7" d="M487.2,16c2.1,0,4.3,0.8,5.9,2.5c3.3,3.3,3.3,8.6,0,11.9L375.4,148c-1.6,1.6-3.8,2.5-5.9,2.5
			c-2.2,0-4.3-0.8-5.9-2.5c-3.3-3.3-3.3-8.6,0-11.9L481.2,18.5C482.9,16.8,485,16,487.2,16 M487.2,0c-6.5,0-12.6,2.5-17.3,7.2
			L352.2,124.8c-4.6,4.6-7.2,10.7-7.2,17.3s2.5,12.6,7.2,17.3c4.6,4.6,10.7,7.1,17.3,7.1c6.5,0,12.6-2.5,17.3-7.1L504.4,41.7
			c4.6-4.6,7.2-10.7,7.2-17.3s-2.5-12.6-7.2-17.3C499.8,2.5,493.7,0,487.2,0"/>
	</g>
</g>
</svg>
