<?xml version="1.0" encoding="utf-8"?>
<!-- Generator: Adobe Illustrator 21.0.2, SVG Export Plug-In . SVG Version: 6.00 Build 0)  -->
<svg version="1.1" id="Layer_1" xmlns="http://www.w3.org/2000/svg" xmlns:xlink="http://www.w3.org/1999/xlink" x="0px" y="0px"
	 viewBox="0 0 512 512" style="enable-background:new 0 0 512 512;" xml:space="preserve">
<style type="text/css">
	.st0{clip-path:url(#SVGID_2_);}
	.st1{clip-path:url(#SVGID_4_);fill:#EDB60A;}
	.st2{opacity:0.5;clip-path:url(#SVGID_4_);}
	.st3{clip-path:url(#SVGID_6_);}
	.st4{clip-path:url(#SVGID_4_);fill:#FEE7BF;}
	.st5{clip-path:url(#SVGID_8_);fill:#BF7D63;}
	.st6{clip-path:url(#SVGID_10_);fill:#BF7D63;}
	.st7{clip-path:url(#SVGID_4_);}
	.st8{clip-path:url(#SVGID_4_);fill:#FEA684;}
	.st9{clip-path:url(#SVGID_12_);fill:#BF7D63;}
	.st10{clip-path:url(#SVGID_4_);fill:#BD8931;}
	.st11{opacity:0.7;clip-path:url(#SVGID_4_);}
	.st12{clip-path:url(#SVGID_14_);}
	.st13{clip-path:url(#SVGID_16_);}
	.st14{clip-path:url(#SVGID_4_);fill:#FD9338;}
	.st15{clip-path:url(#SVGID_4_);fill:#FD3238;}
	.st16{clip-path:url(#SVGID_4_);fill:#454545;}
	.st17{clip-path:url(#SVGID_18_);}
	.st18{clip-path:url(#SVGID_4_);fill:none;stroke:#000000;stroke-width:16;stroke-miterlimit:10;}
	.st19{clip-path:url(#SVGID_4_);fill:#9F4C00;}
	.st20{opacity:0.3;clip-path:url(#SVGID_4_);}
	.st21{clip-path:url(#SVGID_20_);fill:#FFFFFF;}
	.st22{clip-path:url(#SVGID_4_);fill:#94D6FF;}
	.st23{clip-path:url(#SVGID_22_);fill:none;stroke:#FFFFFF;stroke-width:16;stroke-miterlimit:10;}
	.st24{clip-path:url(#SVGID_4_);fill-rule:evenodd;clip-rule:evenodd;fill:#FEE7BF;}
	.st25{clip-path:url(#SVGID_4_);fill:#00A400;}
	.st26{clip-path:url(#SVGID_4_);fill:#FF0000;}
</style>
<g>
	<defs>
		<rect id="SVGID_1_" width="512" height="512"/>
	</defs>
	<clipPath id="SVGID_2_">
		<use xlink:href="#SVGID_1_"  style="overflow:visible;"/>
	</clipPath>
	<g class="st0">
		<defs>
			<rect id="SVGID_3_" width="512" height="512"/>
		</defs>
		<clipPath id="SVGID_4_">
			<use xlink:href="#SVGID_3_"  style="overflow:visible;"/>
		</clipPath>
		<path class="st1" d="M312,320l-24-40h-64l-24,40L79.8,357.6c-4.9,1.5-8.8,5.3-10.4,10.2L24,504h464l-45.4-136.2
			c-1.6-4.9-5.5-8.7-10.4-10.2L312,320z"/>
		<g class="st2">
			<g>
				<defs>
					<rect id="SVGID_5_" x="24" y="280" width="232" height="224"/>
				</defs>
				<clipPath id="SVGID_6_">
					<use xlink:href="#SVGID_5_"  style="overflow:visible;"/>
				</clipPath>
				<path class="st3" d="M111.8,357.6L232,320l24-40h-32l-24,40L79.8,357.6c-4.9,1.5-8.8,5.3-10.4,10.2L24,504h32l45.4-136.2
					C103,362.9,106.9,359.1,111.8,357.6"/>
			</g>
		</g>
		<path class="st4" d="M336,96v126.3c0,6.3-1.9,12.5-5.4,17.8l-21.9,32.8c-3,4.4-8,7.1-13.3,7.1h-78.9c-5.4,0-10.3-2.7-13.3-7.1
			l-21.9-32.8c-3.5-5.2-5.4-11.4-5.4-17.7V96H336z"/>
		<g class="st2">
			<g>
				<defs>
					<rect id="SVGID_7_" x="176" y="96" width="72.6" height="184"/>
				</defs>
				<clipPath id="SVGID_8_">
					<use xlink:href="#SVGID_7_"  style="overflow:visible;"/>
				</clipPath>
				<path class="st5" d="M235.2,272.9l-21.9-32.8c-3.5-5.2-5.4-11.4-5.4-17.7V96h-32v126.3c0,6.3,1.9,12.5,5.4,17.8l21.9,32.8
					c3,4.4,8,7.1,13.3,7.1h32C243.2,280,238.2,277.3,235.2,272.9"/>
			</g>
		</g>
		<polygon class="st4" points="313.7,320.5 312,320 288,280 224,280 200,320 198.3,320.5 256,368 		"/>
		<g class="st2">
			<g>
				<defs>
					<rect id="SVGID_9_" x="198.3" y="280" width="73.7" height="88"/>
				</defs>
				<clipPath id="SVGID_10_">
					<use xlink:href="#SVGID_9_"  style="overflow:visible;"/>
				</clipPath>
				<polygon class="st6" points="230.3,320.5 232,320 256,280 224,280 200,320 198.3,320.5 256,368 272,354.8 				"/>
			</g>
		</g>
		<path class="st7" d="M256,376c-1.8,0-3.6-0.6-5.1-1.8l-57.7-47.5c-2.3-1.9-3.3-4.8-2.8-7.7c0.5-2.4,2-4.5,4.2-5.6l22.5-37.6
			c1.4-2.4,4-3.9,6.9-3.9h64c2.8,0,5.4,1.5,6.9,3.9l22.5,37.6c2.1,1.1,3.7,3.2,4.2,5.6c0.6,2.9-0.5,5.8-2.8,7.7l-57.7,47.5
			C259.6,375.4,257.8,376,256,376 M209.6,319.5l46.4,38.1l46.4-38.1L283.5,288h-54.9L209.6,319.5z"/>
		<path class="st8" d="M176,208h-16c-8.8,0-16-7.2-16-16v-16c0-8.8,7.2-16,16-16h16V208z"/>
		<g class="st2">
			<g>
				<defs>
					<rect id="SVGID_11_" x="144" y="160" width="32" height="48"/>
				</defs>
				<clipPath id="SVGID_12_">
					<use xlink:href="#SVGID_11_"  style="overflow:visible;"/>
				</clipPath>
				<path class="st9" d="M176,208h-16c-8.8,0-16-7.2-16-16v-16c0-8.8,7.2-16,16-16h16V208z"/>
			</g>
		</g>
		<path class="st8" d="M352,208h-16v-48h16c8.8,0,16,7.2,16,16v16C368,200.8,360.8,208,352,208"/>
		<path class="st10" d="M185,224h-9V96h32l-7.1,113C200.4,217.4,193.4,224,185,224"/>
		<g class="st11">
			<g>
				<defs>
					<rect id="SVGID_13_" x="176" y="96" width="32" height="128"/>
				</defs>
				<clipPath id="SVGID_14_">
					<use xlink:href="#SVGID_13_"  style="overflow:visible;"/>
				</clipPath>
				<path class="st12" d="M185,224h-9V96h32l-7.1,113C200.4,217.4,193.4,224,185,224"/>
			</g>
		</g>
		<g class="st11">
			<g>
				<defs>
					<rect id="SVGID_15_" x="304" y="96" width="32" height="128"/>
				</defs>
				<clipPath id="SVGID_16_">
					<use xlink:href="#SVGID_15_"  style="overflow:visible;"/>
				</clipPath>
				<path class="st13" d="M327,224h9V96h-32l7.1,113C311.6,217.4,318.6,224,327,224"/>
			</g>
		</g>
		<polygon class="st14" points="200,320 184,376 216,376 256,416 256,368 		"/>
		<polygon class="st14" points="312,320 328,376 296,376 256,416 256,368 		"/>
		<path class="st15" d="M408,472h-56c-4.4,0-8-3.6-8-8v-16c0-4.4,3.6-8,8-8h56c4.4,0,8,3.6,8,8v16C416,468.4,412.4,472,408,472"/>
		<path class="st7" d="M408,480h-56c-8.8,0-16-7.2-16-16v-16c0-8.8,7.2-16,16-16h56c8.8,0,16,7.2,16,16v16
			C424,472.8,416.8,480,408,480 M352,448v16h56l0-16H352z"/>
		<path class="st16" d="M336,96H176l6.7-73.4c0.7-8.2,7.7-14.6,15.9-14.6h114.8c8.3,0,15.2,6.3,15.9,14.6L336,96z"/>
		<g class="st2">
			<g>
				<defs>
					<rect id="SVGID_17_" x="176" y="8" width="54.6" height="88"/>
				</defs>
				<clipPath id="SVGID_18_">
					<use xlink:href="#SVGID_17_"  style="overflow:visible;"/>
				</clipPath>
				<path class="st17" d="M230.6,8h-32c-8.3,0-15.2,6.3-15.9,14.6L176,96h32l6.7-73.4C215.4,14.3,222.3,8,230.6,8"/>
			</g>
		</g>
		<path class="st7" d="M450.2,365.2c-2.4-7.3-8.3-13-15.6-15.3l-117.3-36.6l-15.7-26.1c5.6-1.5,10.5-4.9,13.8-9.8l21.9-32.8
			c3.9-5.9,6.1-12.6,6.5-19.5c0.1-0.3,0.2-0.6,0.2-1v-1.7V216h8c13.2,0,24-10.8,24-24v-16c0-13.2-10.8-24-24-24h-8V96
			c0-0.1-0.1-0.2-0.1-0.4c0-0.1,0.1-0.2,0-0.4l-6.7-73.5C336.2,9.4,325.9,0,313.4,0H198.6c-12.5,0-22.8,9.4-23.9,21.8L168,95.3
			c0,0.1,0,0.2,0,0.4c0,0.1-0.1,0.2-0.1,0.4v56h-8c-13.2,0-24,10.8-24,24v16c0,13.2,10.8,24,24,24h8v6.3v1.7c0,0.3,0.2,0.6,0.2,1
			c0.5,7,2.6,13.7,6.5,19.5l21.9,32.8c3.3,4.9,8.2,8.4,13.8,9.8l-15.7,26.1L77.4,349.9c-7.3,2.3-13.2,8-15.6,15.3L18.2,496H0v16h24
			h464h24v-16h-18.2L450.2,365.2z M256,357.5l-45.7-39.1l18.2-30.3h54.9l18.2,30.3L256,357.5z M204.3,334.2l43.7,37.5v25l-26.3-26.3
			c-1.5-1.5-3.5-2.3-5.7-2.3h-21.4L204.3,334.2z M264,371.7l43.7-37.5l9.7,33.8H296c-2.1,0-4.2,0.8-5.7,2.3L264,396.7V371.7z
			 M328,160v48v8h-1c-4.2,0-7.7-3.3-8-7.5L312.5,104H328V160z M352,168c4.4,0,8,3.6,8,8v16c0,4.4-3.6,8-8,8h-8v-32H352z M190.6,23.3
			c0.4-4.2,3.8-7.3,8-7.3h114.8c4.2,0,7.6,3.1,8,7.3l5.9,64.7H304h-12.4c2.8-4.7,4.4-10.1,4.4-16V40h-16v32c0,8.8-7.2,16-16,16
			h-20.4c2.8-4.7,4.4-10.1,4.4-16V40h-16v32c0,8.8-7.2,16-16,16h-8h-23.2L190.6,23.3z M184,216v-8v-48v-56h15.5L193,208.5
			c-0.3,4.2-3.8,7.5-8,7.5H184z M160,200c-4.4,0-8-3.6-8-8v-16c0-4.4,3.6-8,8-8h8v32H160z M188,235.6c-0.8-1.2-1.4-2.4-2-3.7
			c12.2-0.6,22.1-10.1,22.9-22.4l6.6-105.5h81l6.6,105.5c0.8,12.2,10.7,21.8,22.9,22.4c-0.6,1.3-1.2,2.5-2,3.7l-21.9,32.8
			c-1.5,2.2-4,3.6-6.6,3.6H288h-64h-7.4c-2.7,0-5.2-1.3-6.7-3.6L188,235.6z M77,370.3c0.8-2.4,2.8-4.3,5.2-5.1l106-33.1l-11.9,41.7
			c-0.7,2.4-0.2,5,1.3,7c1.5,2,3.9,3.2,6.4,3.2h28.7l35.3,35.3V496H35.1L77,370.3z M264,496v-76.7l35.3-35.3H328
			c2.5,0,4.9-1.2,6.4-3.2c1.5-2,2-4.6,1.3-7l-11.9-41.7l106,33.1c2.4,0.8,4.4,2.7,5.2,5.1L476.9,496H264z"/>
		<polygon class="st7" points="160,448 144,448 144,464 128,464 128,432 112,432 112,464 96,464 96,480 176,480 176,464 160,464 		
			"/>
		<polyline class="st18" points="256,212.7 222.7,226 216,212.7 		"/>
		<polyline class="st18" points="256.3,212.7 289.6,226 296.3,212.7 		"/>
		<path class="st19" d="M410,387.8v97.5c13.3,13.3,34.7,13.3,48,0v-97.5H410z"/>
		<g class="st20">
			<g>
				<defs>
					<rect id="SVGID_19_" x="410" y="387.8" width="48" height="107.4"/>
				</defs>
				<clipPath id="SVGID_20_">
					<use xlink:href="#SVGID_19_"  style="overflow:visible;"/>
				</clipPath>
				<path class="st21" d="M410,387.8v97.5c13.3,13.3,34.7,13.3,48,0"/>
			</g>
		</g>
		<path class="st18" d="M410,387.8v97.5c13.3,13.3,34.7,13.3,48,0v-97.5H410z"/>
		<path class="st22" d="M506,315.8c0-39.8-32.2-72-72-72s-72,32.2-72,72c0,39.8,32.2,72,72,72S506,355.6,506,315.8"/>
		<path class="st7" d="M434,259.8c30.9,0,56,25.1,56,56c0,30.9-25.1,56-56,56s-56-25.1-56-56C378,284.9,403.1,259.8,434,259.8
			 M434,243.8c-39.8,0-72,32.2-72,72c0,39.8,32.2,72,72,72s72-32.2,72-72C506,276,473.8,243.8,434,243.8"/>
		<g class="st2">
			<g>
				<defs>
					<rect id="SVGID_21_" x="390" y="271.8" width="44" height="44"/>
				</defs>
				<clipPath id="SVGID_22_">
					<use xlink:href="#SVGID_21_"  style="overflow:visible;"/>
				</clipPath>
				<path class="st23" d="M434,279.8c-19.9,0-36,16.1-36,36"/>
			</g>
		</g>
		<path class="st24" d="M428,483.3c-9.1,0-16.5-7.4-16.5-16.5c0-3.4,1-6.5,2.7-9.1c-1.7-2.6-2.7-5.7-2.7-9.1c0-3.4,1-6.5,2.7-9.1
			c-1.7-2.6-2.7-5.7-2.7-9.1c0-3.4,1-6.5,2.7-9.1c-1.7-2.6-2.7-5.7-2.7-9.1c0-9.1,7.4-16.5,16.5-16.5h48c9.1,0,16.5,7.4,16.5,16.5
			c0,3.4-1,6.5-2.7,9.1c1.7,2.6,2.7,5.7,2.7,9.1c0,3.4-1,6.5-2.7,9.1c1.7,2.6,2.7,5.7,2.7,9.1c0,3.4-1,6.5-2.7,9.1
			c1.7,2.6,2.7,5.7,2.7,9.1c0,9.1-7.4,16.5-16.5,16.5H428z"/>
		<path class="st7" d="M476,403.8c4.7,0,8.5,3.8,8.5,8.5c0,4.7-3.8,8.5-8.5,8.5h-48c-4.7,0-8.5-3.8-8.5-8.5c0-4.7,3.8-8.5,8.5-8.5
			H476 M476,421.9c4.7,0,8.5,3.8,8.5,8.5c0,4.7-3.8,8.5-8.5,8.5h-48c-4.7,0-8.5-3.8-8.5-8.5c0-4.7,3.8-8.5,8.5-8.5H476 M476,440.1
			c4.7,0,8.5,3.8,8.5,8.5s-3.8,8.5-8.5,8.5h-48c-4.7,0-8.5-3.8-8.5-8.5s3.8-8.5,8.5-8.5H476 M476,458.3c4.7,0,8.5,3.8,8.5,8.5
			c0,4.7-3.8,8.5-8.5,8.5h-48c-4.7,0-8.5-3.8-8.5-8.5c0-4.7,3.8-8.5,8.5-8.5H476 M476,387.8h-48c-13.5,0-24.5,11-24.5,24.5
			c0,3.2,0.6,6.3,1.7,9.1c-1.1,2.8-1.7,5.9-1.7,9.1c0,3.2,0.6,6.3,1.7,9.1c-1.1,2.8-1.7,5.9-1.7,9.1s0.6,6.3,1.7,9.1
			c-1.1,2.8-1.7,5.9-1.7,9.1c0,13.5,11,24.5,24.5,24.5h48c13.5,0,24.5-11,24.5-24.5c0-3.2-0.6-6.3-1.7-9.1c1.1-2.8,1.7-5.9,1.7-9.1
			s-0.6-6.3-1.7-9.1c1.1-2.8,1.7-5.9,1.7-9.1c0-3.2-0.6-6.3-1.7-9.1c1.1-2.8,1.7-5.9,1.7-9.1C500.5,398.8,489.5,387.8,476,387.8"/>
		<polygon class="st25" points="11.5,149.7 34.1,127 60.5,153.4 118.8,95 141.5,117.7 60.5,198.6 		"/>
		<path class="st7" d="M118.8,106.3l11.3,11.3l-69.7,69.7l-37.7-37.7l11.3-11.3l26.3,26.3L118.8,106.3z M118.8,83.7L107.5,95l-47,47
			l-15-15l-11.3-11.3L22.8,127l-11.3,11.3L0.2,149.7L11.5,161l37.7,37.7l11.3,11.3l11.3-11.3l69.7-69.7l11.3-11.3l-11.3-11.3
			L130.1,95L118.8,83.7z"/>
		<polygon class="st26" points="451.6,166.6 425.3,193 402.7,170.3 429,144 402.7,117.7 425.3,95 451.6,121.4 478,95 500.6,117.7 
			474.3,144 500.6,170.3 478,193 		"/>
		<path class="st7" d="M478,106.3l11.3,11.3L462.9,144l26.3,26.3L478,181.7l-26.3-26.3l-26.3,26.3L414,170.3l26.3-26.3L414,117.7
			l11.3-11.3l26.3,26.3L478,106.3z M478,83.7L466.7,95l-15,15l-15-15l-11.3-11.3L414,95l-11.3,11.3l-11.3,11.3l11.3,11.3l15,15
			l-15,15l-11.3,11.3l11.3,11.3L414,193l11.3,11.3l11.3-11.3l15-15l15,15l11.3,11.3l11.3-11.3l11.3-11.3l11.3-11.3L500.6,159l-15-15
			l15-15l11.3-11.3l-11.3-11.3L489.3,95L478,83.7z"/>
	</g>
</g>
</svg>
