<?xml version="1.0" encoding="utf-8"?>
<!-- Generator: Adobe Illustrator 22.0.1, SVG Export Plug-In . SVG Version: 6.00 Build 0)  -->
<svg version="1.1" id="Layer_1" xmlns="http://www.w3.org/2000/svg" xmlns:xlink="http://www.w3.org/1999/xlink" x="0px" y="0px"
	 viewBox="0 0 512 512" style="enable-background:new 0 0 512 512;" xml:space="preserve">
<style type="text/css">
	.st0{fill:#444444;}
	.st1{fill:#333333;}
	.st2{fill:#121212;}
	.st3{fill:#555555;}
	.st4{fill:#78798B;}
	.st5{fill:#765ACE;}
	.st6{fill:#7678CE;}
	.st7{fill:#BF6235;}
	.st8{fill:#FF6F35;}
	.st9{fill:#AFD5AD;}
	.st10{fill:#202020;}
</style>
<g>
	<path class="st0" d="M498.9,122.8c0,0,1.4,245.7-3.9,255.6c-5.3,9.9-248.7,137.6-258.5,127.7s-25-265.3-25-265.3L498.9,122.8z"/>
	<path class="st1" d="M10.6,161.1c0,0,0.7,223,3.7,229.8s215.3,115.2,222.1,116.8c6.8,1.5,7.6-294.2,7.6-294.2L23.2,152.2
		L10.6,161.1z"/>
	<path class="st2" d="M1.5,155.4c0,5.7-1.1,9.1,2.3,12.5c3.4,3.4,225.2,105.8,241.1,105.8s263.8-144.4,265-146.7
		c1.1-2.3,1.1-10.2,0-12.5c-1.1-2.3-172.9-2.3-172.9-2.3L40.2,149.7L1.5,155.4z"/>
	<path class="st1" d="M509.3,115c-2.6,8.3-249,144.4-263.8,145.6C230.6,261.7,0.9,162.8,2.1,154.8S256.8,9.2,276.1,9.2
		C295.5,9.2,514.9,96.8,509.3,115z"/>
	<g>
		<g>
			<path class="st0" d="M349.2,33.7v12.7c0,0-68.8,42.7-74.7,42.7c-6,0-67.7-28.4-68.1-29.3c-0.4-0.9-1.8-13.4,0.4-15.2
				c2.2-1.8,74.2-3.4,74.2-3.4l33-10.9L349.2,33.7z"/>
			<path class="st3" d="M349.2,33.7c-0.7,2.3-70.1,40.7-74.3,41c-4.2,0.3-68.9-27.5-68.5-29.8c0.3-2.2,71.7-41,77.2-41
				C289,3.9,350.8,28.5,349.2,33.7z"/>
		</g>
		<g>
			<path class="st0" d="M264.6,79.3V92c0,0-68.8,42.7-74.7,42.7c-6,0-67.7-28.4-68.1-29.3S120,92,122.2,90.2
				c2.2-1.8,74.2-3.4,74.2-3.4l33-10.9L264.6,79.3z"/>
			<path class="st3" d="M264.6,79.3c-0.7,2.3-70.1,40.7-74.3,41c-4.2,0.3-68.9-27.5-68.5-29.8c0.3-2.2,71.7-41,77.2-41
				C204.4,49.5,266.2,74.1,264.6,79.3z"/>
		</g>
		<g>
			<path class="st0" d="M181.7,126.1v12.7c0,0-68.8,42.7-74.7,42.7c-6,0-67.7-28.4-68.1-29.3c-0.4-0.9-1.8-13.4,0.4-15.2
				c2.2-1.8,74.2-3.4,74.2-3.4l33-10.9L181.7,126.1z"/>
			<path class="st3" d="M181.7,126.1c-0.7,2.3-70.1,40.7-74.3,41s-68.9-27.5-68.5-29.8c0.3-2.2,71.7-41,77.2-41
				C121.5,96.3,183.3,121,181.7,126.1z"/>
		</g>
		<g>
			<path class="st0" d="M338.4,113.4v12.7c0,0-68.8,42.7-74.7,42.7c-6,0-67.7-28.4-68.1-29.3c-0.4-0.9-1.8-13.4,0.4-15.2
				s74.2-3.4,74.2-3.4l33-10.9L338.4,113.4z"/>
		</g>
		<g>
			<path class="st0" d="M287.3,78.2c0,0-2.3,13.1,0,14.6c2.3,1.5,69.2,31.1,69.2,31.1l8.9-16.3l-27.9-17.2L287.3,78.2z"/>
			<path class="st0" d="M160,148.7c0,0-0.4,13.3,1.1,15c1.5,1.7,91.5,46.6,94.9,46.6s136.7-81.9,137.2-83.8s2.4-18.5-0.8-20.6
				s-37.1,21.8-37.1,21.8l-93,52.7l-28.1-15.5L173,140.4L160,148.7z"/>
			<path class="st4" d="M287.3,78.2c-0.2,3,67.4,29.2,68,31.9s-94.7,56.6-99.7,55.4c-4.9-1.1-65.8-34.1-68.8-33.8
				c-3,0.3-27.2,13.8-26.9,17c0.3,3.2,89.6,47,95.8,47s136.8-80.4,137.5-87.6c0.7-7.2-83.5-44-83.5-44S287.7,73.1,287.3,78.2z"/>
		</g>
		<path class="st3" d="M338.4,113.4c-0.7,2.3-70.1,40.7-74.3,41s-68.9-27.5-68.5-29.8c0.3-2.2,71.7-41,77.2-41
			C278.1,83.6,340,108.3,338.4,113.4z"/>
	</g>
	<path class="st5" d="M218.7,158.1l-27.3,2.7L173,171.4v48.5l0.1,0c0.8,6.1,9.7,9.3,28.6,1.1c12.3-5.3,17.1-10.7,16.9-14.7l0.2-0.1
		C218.7,198.3,218.7,158.1,218.7,158.1z"/>
	<path class="st6" d="M185.7,156.2c-19.7,9.4-18.2,31.8,15.9,17.1C235.8,158.5,211.9,143.7,185.7,156.2z"/>
	<path class="st7" d="M442.2,47.2l-27.3,2.7l-18.5,10.6V109l0.1,0c0.8,6.1,9.7,9.3,28.6,1.1c12.3-5.3,17.1-10.7,16.9-14.7l0.2-0.1
		C442.2,87.4,442.2,47.2,442.2,47.2z"/>
	<path class="st8" d="M409.2,45.3c-19.7,9.4-18.2,31.8,15.9,17.1S435.3,32.8,409.2,45.3z"/>
	<path class="st9" d="M439.5,202l-144.8,80c-6.5,3.6-10.6,10.2-10.9,17.6l-5,122.3c-0.7,16,16.1,26.9,30.5,19.8l149.7-74.5
		c7.2-3.6,11.7-10.9,11.7-18.9V220.5C470.8,204.4,453.5,194.3,439.5,202z"/>
	<g>
		<path d="M321.8,331.3c-3.1,1.5-12.7,45.7-12.7,45.7s3.4-1.6,4-3.6c0.6-2,3.6-12.2,3.6-12.2l9.2-4.7c0,0,2.7,6.1,4.1,8
			s5.7-1.4,5.7-1.4S325,329.8,321.8,331.3z M325.8,352.1c-0.7,0.4-8.1,5.2-8.2,4.3c-0.1-0.9,4.2-18.6,4.2-18.6
			C322.8,337.3,326.5,351.7,325.8,352.1z"/>
		<path d="M298.6,362c0,0,12.2-10.1,9.5-17.8c-2.7-7.6-15.9,1.2-17.7,2.1l-4,42.2c0,0,22.3-8.7,22.8-19.6
			C309.6,358.2,298.6,362,298.6,362z M294.2,349.7c0,0,11.5-8.2,9.9-0.7c-1.6,7.5-10.5,11.4-10.5,11.4L294.2,349.7z M304.2,370.3
			c-1.1,7.4-13.5,12.7-13.5,12.7l1.9-14.2C292.6,368.8,305.3,362.9,304.2,370.3z"/>
		<path d="M352.3,315.3c-0.8,0.3-19.3,10.3-20.6,11.9c-2,2.4-1.6,7.3,0,6.4c1.6-1,8.2-3.6,8.2-3.6s-1.3,30.4,0,30.4
			c1.3,0,5.2-0.9,5.9-3.1c0.7-2.2-2.4-29.4-1.4-29.9c1-0.5,8.6-4.1,8.9-5.3C353.7,320.9,353.2,315,352.3,315.3z"/>
		<path d="M379.2,301.1c-0.5,0.1-22.2,11.7-22.2,11.7c-0.6,0.5-1.2,8.1-0.7,8.1c0.5,0,8.2-4.3,8.6-3.9c0.4,0.4-0.8,29.7,0,30.2
			c0.8,0.6,6-1.4,6.4-3.4c0.4-1.9-1.8-28.2-1.2-28.9c0.6-0.7,9.4-3.8,9.9-5.2C380.5,308.4,379.7,301,379.2,301.1z"/>
		<path d="M401.3,298.6c0.8-0.4,2.4-8.9,1.3-9c0,0-15.8,7.6-17.5,9.2c-1.7,1.6-3.1,38.8-3.1,40.5c0,1.8,16.9-7.2,17.5-7.6
			c0.6-0.5,1.1-6.8,1.1-6.8s-10.5,4.9-11.5,6c-1,1.1-0.7-6.4-0.1-7.4c0.6-1,10.5-4.5,11.6-5.1c1.1-0.6,1.7-9.6,1.4-10.4
			c-0.2-0.8-11.8,7.2-13.1,7.8c-1.3,0.6,0.1-8.7,0.5-9.9C389.7,304.6,400.5,299,401.3,298.6z"/>
		<path d="M425.8,299.3c0.6-0.9,10-9.7,9.2-19.6c-0.8-9.9-24.1,5.8-24.1,5.8c-1.4,1.3-2.2,41.3-1.2,40.8c1-0.4,8-3,8.6-4.5
			c0.6-1.5-0.8-16.5,0-16.3c0.8,0.3,12.9,9.5,14.1,8.9c1.2-0.7,7.7-4.9,7.2-5.4C439.1,308.6,425.2,300.2,425.8,299.3z M416.2,298.5
			v-10.2c0,0,15-10.1,13-1.8C427.3,295,416.2,298.5,416.2,298.5z"/>
		<path d="M456.4,262.5c-0.8,0.7-5.5,11.8-7.7,12.4c-2.2,0.6-5.4-5.8-6.6-4.8c-1.2,0.9-5.4,3.3-6.2,5c-0.6,1.5,8.2,8,8.2,8.6
			c0,0.6-1.1,24.4,0.6,23.6c1.7-0.7,8.7-3.3,8.1-4.2s-0.3-24.1,0-25s13.1-17.3,13.1-17.3S457.3,261.7,456.4,262.5z"/>
	</g>
	<g>
		<path d="M291.5,403.7c-4.8,5.6-4.7-7,0-6.2C287.3,402.7,290.6,401.3,291.5,403.7z"/>
		<path d="M295.3,402.1c-1.2-2.8-0.1-2.5-2.8-4.8C297.2,390.9,295.4,402.5,295.3,402.1z M295.2,398.8
			C293.2,399.7,293.2,403.5,295.2,398.8z"/>
		<path d="M297.5,396.5c0-1.2,0.9-3.1,2.5-3.4C297.8,403.1,298.9,396.3,297.5,396.5z"/>
		<path d="M303.1,398.3c0.1-3.3,0.1-6.5,0-9.7c-0.3-0.2,4.7,6.3,4.7,4C307.8,397,303.9,396.1,303.1,398.3z M304,395.2
			C304,396.6,309.1,389,304,395.2z"/>
		<path d="M311.7,394c-1.2-2.8-0.1-2.5-2.8-4.8C313.6,382.9,311.8,394.4,311.7,394z M311.6,390.7
			C309.6,391.6,309.6,395.4,311.6,390.7z"/>
		<path d="M315,383.9c0.2,2.9,0.4,4.1,1.2,7.9C311.7,396.4,315,382.8,315,383.9z"/>
		<path d="M318.4,382.2c0.2,2.9,0.4,4.1,1.2,7.9C315.1,394.8,318.4,381.1,318.4,382.2z"/>
		<path d="M321.2,386.3c0,1.7,6.1,0.2,1.6,2.4c-3.2-0.6-3.3-2.9-0.1-6.8C325.9,380.3,324.9,385.4,321.2,386.3z M323.8,384.1
			C323.8,382.6,319,384.7,323.8,384.1z"/>
		<path d="M325.8,382.5c0-1.2,0.9-3.1,2.5-3.4C326.1,389.1,327.1,382.4,325.8,382.5z"/>
		<path d="M329.8,378.5c2.4,0,1,8.7,3.7-1.8c-0.8,3.2-1.7,9.8-4.2,11.7C330.5,384.4,329.8,380.9,329.8,378.5z"/>
		<path d="M337.5,372.9C337.6,375.2,337.5,370.4,337.5,372.9z M336.5,381.8c0.3-3.5-0.6-4.8,0.9-7
			C337.9,377.4,336.6,381,336.5,381.8z"/>
		<path d="M338.8,379.5c4.3,1.6-2.7-8.2,2.9-6.5C341.3,374.6,338.3,380.9,338.8,379.5z"/>
		<path d="M345.5,370.8c2.5,1.6,1.3,7.4,3.8-1.8c-1,3.5-1.2,5.7-2.8,8C346.6,377.2,343.9,369.3,345.5,370.8z"/>
		<path d="M350.5,371.8c0,1.7,6.1,0.2,1.6,2.4c-3.2-0.6-3.3-2.9-0.1-6.8C355.3,365.8,354.3,371,350.5,371.8z M353.2,369.6
			C353.2,368.1,348.4,370.2,353.2,369.6z"/>
		<path d="M355.2,368.1c0-1.2,0.9-3.1,2.5-3.4C355.5,374.7,356.5,367.9,355.2,368.1z"/>
		<path d="M359.1,364c2.4,0,1,8.7,3.7-1.8c-0.8,3.2-1.7,9.8-4.2,11.7C359.9,369.9,359.1,366.4,359.1,364z"/>
		<path d="M366.9,358.4C366.9,360.8,366.9,355.9,366.9,358.4z M365.9,367.3c0.3-3.5-0.6-4.8,0.9-7
			C367.2,362.9,365.9,366.5,365.9,367.3z"/>
		<path d="M368.3,361.3c0-4.8,6-2.2,7.1,1.3c0,0-1.4-5.1-2-4.8c-1.6,0.8-1.1,5.6-2,6.8c-0.6-0.5,1-6.3-1-5.3
			C366.2,361.4,371.9,370.6,368.3,361.3z"/>
		<path d="M376.9,357.5c0-3.2,4.7-4.1,4.7-1.3c0-0.8-4.7,8.3-4.7,8.4C376.9,362.2,376.9,359.8,376.9,357.5z M377.8,358.8
			C377.8,360.3,382.9,352.8,377.8,358.8z"/>
		<path d="M387.2,353.4c-1.6,5.4-3.3,6.3-4.9,2.5C384,350.5,385.6,349.7,387.2,353.4z M383.3,355.5c1,2.9,2,2.4,3-1.5
			C385.3,351,384.3,351.5,383.3,355.5z"/>
		<path d="M388.4,351.7c0-1.2,0.9-3.1,2.5-3.4C388.7,358.3,389.7,351.6,388.4,351.7z"/>
		<path d="M393.1,345.4c0.2,2.9,0.4,4.1,1.2,7.9C389.8,357.9,393.1,344.3,393.1,345.4z"/>
		<path d="M398.2,351.4c-1.2-2.8-0.1-2.5-2.8-4.8C400.1,340.3,398.3,351.8,398.2,351.4z M398,348.1C396,349,396.1,352.8,398,348.1z"
			/>
		<path d="M400.4,345.5c0-4.1,3.5-1.2,4.2,2.7c-0.9-0.2-0.7-5.4-2.1-4.7C397.1,346.2,405.6,353.1,400.4,345.5z"/>
		<path d="M407.2,338.5c0.2,2.9,0.4,4.1,1.2,7.9C403.9,351,407.2,337.3,407.2,338.5z"/>
		<path d="M411.7,340.3c0-3.2,4.7-4.1,4.7-1.3c0-0.8-4.7,8.3-4.7,8.4C411.7,345.1,411.7,342.7,411.7,340.3z M412.6,341.6
			C412.6,343.1,417.7,335.7,412.6,341.6z"/>
		<path d="M420.3,340.5c-1.2-2.8-0.1-2.5-2.8-4.8C422.2,329.4,420.4,340.9,420.3,340.5z M420.2,337.2
			C418.2,338.1,418.2,341.9,420.2,337.2z"/>
		<path d="M422.5,334.9c0-1.2,0.9-3.1,2.5-3.4C422.8,341.5,423.8,334.8,422.5,334.9z"/>
		<path d="M427.2,328.6c0.2,2.9,0.4,4.1,1.2,7.9C424,341.1,427.2,327.5,427.2,328.6z"/>
		<path d="M436.2,329.3c-1.6,5.4-3.3,6.3-4.9,2.5C433,326.4,434.6,325.5,436.2,329.3z M432.3,331.3c1,2.9,2,2.4,3-1.5
			C434.3,326.9,433.3,327.4,432.3,331.3z"/>
		<path d="M437.5,332c0.2-1.6-1.5-11.1,2.6-10.9C438.7,325.5,438.5,326.4,437.5,332z"/>
		<path d="M446.1,327.5c-4.8,5.6-4.7-7,0-6.2C442,326.5,445.2,325.1,446.1,327.5z"/>
		<path d="M450,325.9c-1.2-2.8-0.1-2.5-2.8-4.8C451.9,314.7,450,326.3,450,325.9z M449.8,322.6C447.8,323.5,447.8,327.3,449.8,322.6
			z"/>
		<path d="M452.2,320.3c0-1.2,0.9-3.1,2.5-3.4C452.4,326.9,453.5,320.1,452.2,320.3z"/>
	</g>
	<path class="st10" d="M38.8,214.1c-6.5,3.1-3,150-0.8,156.6c2.2,6.6,171.6,98.7,176.7,94.2c5.1-4.5,4.5-161.4,1.7-168.8
		S48.3,209.6,38.8,214.1z"/>
</g>
</svg>
