<?xml version="1.0" encoding="utf-8"?>
<!-- Generator: Adobe Illustrator 22.0.1, SVG Export Plug-In . SVG Version: 6.00 Build 0)  -->
<svg version="1.1" id="Layer_1" xmlns="http://www.w3.org/2000/svg" xmlns:xlink="http://www.w3.org/1999/xlink" x="0px" y="0px"
	 viewBox="0 0 512 512" style="enable-background:new 0 0 512 512;" xml:space="preserve">
<style type="text/css">
	.st0{fill:#F0DFB0;}
	.st1{fill:#FFFCBF;}
	.st2{fill:#8F6F7B;}
	.st3{fill:#606060;}
	.st4{fill:none;stroke:#BEE6AA;stroke-miterlimit:10;}
	.st5{fill:#FFEC4E;}
	.st6{fill:#FFDC46;}
	.st7{fill:#FFE01A;}
	.st8{fill:#FFD81A;}
	.st9{fill:#FFFA5A;}
</style>
<g>
	<path class="st0" d="M44.8,110.6c-14.6,8.1-37.5,179.1-37.5,222s5.4,54.1,9.7,55.2s71.8,3.2,76.7-4.3c4.8-7.5-4.8-253.1-10.7-261.6
		S59.3,102.6,44.8,110.6z"/>
	<path class="st1" d="M83.4,411.9c-23.6,0-49.3-77.2-49.3-138.3s9.7-157.6,10.7-163c1.1-5.4,97.6-9.7,97.6-9.7l-19.3,280.9
		C123.1,381.9,118.8,411.9,83.4,411.9z"/>
	<path class="st0" d="M110.2,61.3c-15.9,15.9-45,189.8-45,261.1s12.3,87.9,18.2,89.5s67.6-4.3,72.9-10.7
		c5.4-6.4-9.7-317.4-9.7-317.4S122,49.5,110.2,61.3z"/>
	<path class="st1" d="M140.9,440.2c-22.7-2.8-33.6-75.1-38.6-164.4c-5-89.4-0.7-205.2,7.9-214.5s111.5-10,117.9-5.7
		c6.4,4.3-34,378.2-34,378.2S163.8,443,140.9,440.2z"/>
	<g>
		<path class="st2" d="M135,123.4c0.1-1-0.5-1.9-1.6-2.6c5.2-2.4-3.1-4.7-3.6-5c-4.9-2.5-0.2,6.2,0,3.1c0.1-1.8,1.8-1.6,2.5-0.3
			c0.7,1.1-1.9,1.4-1.9,2.3c0,1.5,2.9,0.6,2.2,2.5c-0.4,1.1-2.7,2.6-2.9,0.2c-0.1-0.8-2.6-0.8-2.3,0.4C128.2,128,135,128,135,123.4z
			"/>
		<path class="st2" d="M139.8,115.4c-5.5,0-5.5,11.5,0,11.5C145.3,126.9,145.1,115.4,139.8,115.4z M141.2,123.2
			c-0.5,0.5-0.9,1-1.4,1.6c-2.1,0-2.1-7.2,0-7.2C141.7,117.5,141.3,122.3,141.2,123.2z"/>
		<path class="st2" d="M139.8,120.4c-1,0-1,1.6,0,1.6C140.8,122,140.8,120.4,139.8,120.4z"/>
		<path class="st2" d="M148.7,115.4c-5.5,0-5.5,11.5,0,11.5C154.2,126.9,154,115.4,148.7,115.4z M150,123.2c-0.5,0.5-0.9,1-1.4,1.6
			c-2.1,0-2.1-7.2,0-7.2C150.6,117.5,150.2,122.3,150,123.2z"/>
		<path class="st2" d="M148.7,120.4c-1,0-1,1.6,0,1.6C149.6,122,149.7,120.4,148.7,120.4z"/>
		<path class="st2" d="M154.7,124.5c-2.8,0,0,2.4,0,2.4C154.7,126.9,157.4,124.5,154.7,124.5z"/>
		<path class="st2" d="M163.5,124.7c0.2-2,0.4-4.1,0.7-6.2c-3-6.2-8.7-1.4-7.3,4.7C156.8,127.9,161.2,127.4,163.5,124.7z
			 M160.6,124.8c-1.9,0-1.5-4.8-1.3-5.7c0.4-0.5,0.9-1,1.3-1.6C162.8,117.5,162.8,124.8,160.6,124.8z"/>
		<path class="st2" d="M160.6,122c1,0,1-1.6,0-1.6C159.6,120.4,159.6,122,160.6,122z"/>
		<path class="st2" d="M132,110.1c13.5,0-1.2-7.4,1.6-3.4c1.2,1.8-8.8-8.6-1.5-8.6c-0.2,0,3.9,4.2,4.5,2.4c1.4-4-3.2-5.9-6.4-4.6
			C125.8,97.9,125.5,110.1,132,110.1z"/>
		<path class="st2" d="M139,109.8c6,3.8,12.3-4.3,2.7-2.5C141.8,81.4,135.2,107.4,139,109.8z"/>
		<path class="st2" d="M153.9,107.2c-2,1.1-3-1.4-4.4-1.1c-2.8,0.6-1.1,3.8,1.4,3.8c15.5-0.4,0.8-7.9,0.6-11c0.1,3,10.8-4.8,2.8-3.4
			C140.5,97.7,155.8,106.1,153.9,107.2z"/>
		<path class="st2" d="M166.3,109.3c0.3-0.8,0.6-1.6,0.9-2.3c-0.4,0.1-0.9,0.2-1.4,0.3c0.5-0.6,1.3-1.2,2-1.9c1-2.6,2.2-5.1,3.3-7.7
			c-1.8-2.9-9.5-3.1-8.3,1.5c0.3,1.2,3,2.6,3,0.4c0-2.4,2.2-1.2,0.8,2.8c-0.4,1.2-7.1,5.1-3.6,7.3c1,0.6,2,1,2.9,1.1
			C166,110.3,166.1,109.8,166.3,109.3z"/>
		<path class="st2" d="M128.9,137.7c1,0.7,1.2-0.8,1.1-1.4c1.8-0.4,1.8-0.8,0-1.2c-0.4-1.8-0.8-1.9-1.3,0c-1.8,0.4-1.8,0.8,0,1.2
			C128.6,136.8,128.6,137.3,128.9,137.7z"/>
		<path class="st2" d="M134.7,137.9c1.2,0.7,1.5-0.6,1.3-1.5c1.1-0.4,1.1-0.9,0-1.4c-0.5-1.6-1-1.6-1.6,0h-0.9
			c0.3-0.7,1.8-2.8,1.8-3.8c0-0.3-7.7,5.6-1,5.1C134.5,136.7,134.4,137.7,134.7,137.9z"/>
		<path class="st2" d="M139.6,136.8c-0.4,0-2.4-2.5-2.4-0.5c0,3.4,9.8-0.4,1.8-2.8l0.1-1.3c5.9-1.5-1.3-2.2-1.4,0.4
			C137.6,133.8,141.4,136.8,139.6,136.8z"/>
		<path class="st2" d="M143.3,136.6c-1,0-1,1.5,0,1.5C144.3,138.1,144.3,136.6,143.3,136.6z"/>
		<path class="st2" d="M144.7,135.8c0,4.8,5,1.1,4.9-2.7C149.4,128.7,144,131.5,144.7,135.8z M146.2,133.1c0-3.3,4,3.7,0.9,3.7
			C145.7,136.8,146.3,133.7,146.2,133.1z"/>
		<path class="st2" d="M151,131.3c-2.3,1.9-0.2,9.1,3.6,6.2C156.9,135.8,154.8,128.1,151,131.3z M153.7,133.1
			c-0.1,0.6,0.5,3.7-0.9,3.7C149.5,136.8,153.7,129.9,153.7,133.1z"/>
		<path class="st2" d="M163.1,130.8c-0.9,0.4-1.6,1.7-1.8,2.5c-5.4-8.7-2.4,13.1-1.5,0.4c0.9,2.3,1.9,2.4,2.9,0.1
			c0.2,1.6,0.4,2.7,0.6,3.4C163.1,135.1,163,133,163.1,130.8z"/>
		<path class="st2" d="M134.9,205.1c0-2.7-2.6-3.6-4.8-3.4l0.2-2.1c8.9-1.4,0.2-2.7-0.3-2.1c-3,3.7-0.3,4.2-0.1,6.1
			c0,0,2.4,0.2,2.6,1.8c0.2,2.8-2.7,1.1-3-0.2c-0.7-3.1-4.5,4.5-1.2,2.9C131.4,206.6,133.7,211.3,134.9,205.1z"/>
		<path class="st2" d="M139.2,206.8c-1.5,0-1.2-1.5-2.6-1.9c-2-0.5-0.9,3.5-0.2,3.1c1.8-0.8,7.1,2.9,6.6-2.7c-0.3-3.4-2-3.5-4.8-3.7
			l0.2-2.1c8.9-1.4-0.6-3.6-2.1-0.4C134.8,202.3,142.2,206.8,139.2,206.8z"/>
		<path class="st2" d="M145.7,208.6c1.1-1.1-0.6-2.8-1.7-1.7C142.9,208,144.6,209.7,145.7,208.6z"/>
		<path class="st2" d="M148.4,207.9c0.3-1.6,0.6-3.2,0.9-4.8c0-0.9,0.1-1.7,0.1-2c0.1-0.2,0.3-0.3,0.4-0.5c0.2-1.1,0.5-2.1,0.7-3.2
			C146.3,197.7,145.7,205.2,148.4,207.9z"/>
		<path class="st2" d="M127.2,191.8c7.3,4.6,12.8-5.3,2.7-2.4c2.3-2.5,7.5-5.4,5.5-9.3c-1.6-3.2-9.7-3.4-8.5,1.3
			c0.3,1.2,3,2.6,3,0.4c0-2.4,2.2-1.2,0.8,2.8C130.4,185.7,123.7,189.6,127.2,191.8z"/>
		<path class="st2" d="M141.3,184.8c0,0.8,1,1.4,1.7,0.7c0.3-0.5,0.3-1,0-1.5C142.4,183.4,141.3,184,141.3,184.8z"/>
		<path class="st2" d="M138.8,178.6c-4.4,3.8-0.1,19,7.1,12.5C150.2,187.1,146.1,172.3,138.8,178.6z M144.1,182.2
			c0.3,1.2,0.7,7.3-1.8,7.3c-2.6,0-2.6-9.3,0-9.3C142.9,180.8,143.5,181.5,144.1,182.2z"/>
		<path class="st2" d="M151.4,180.2h3.6v1.4c-6,10.4-4.9,11.2-2.5,8.7c1.3-4.4,2.7-8.8,4.2-13.2
			C146.9,171.6,148.3,186.8,151.4,180.2z"/>
		<path class="st2" d="M128.9,219.7c1,0.7,1.2-0.8,1.1-1.4c1.8-0.4,1.8-0.8,0-1.2c-0.4-1.8-0.8-1.9-1.3,0c-1.8,0.4-1.8,0.8,0,1.2
			C128.6,218.9,128.6,219.3,128.9,219.7z"/>
		<path class="st2" d="M132.6,220c2.7,1.5,0.1-11.9-0.2-5.5C132.3,215.5,131.7,219.6,132.6,220z"/>
		<path class="st2" d="M135.2,219.6c2.2,1.8,7.2-2.3,1.1-4.1l0.1-1.3c1.8-0.4,2.4-1.4,2.2-1.4c-5.3,2.2-0.4,0.3-3.7,3.5
			c0,0,3.3,0.3,3,1.5c-0.9,3-1.9-1-3.2,0C134.4,218.4,134.5,219.1,135.2,219.6z"/>
		<path class="st2" d="M140.1,218.9c-0.7,0.7,0.4,1.8,1.1,1.1C141.9,219.2,140.8,218.2,140.1,218.9z"/>
		<path class="st2" d="M146.7,218.7c0.1-0.7,0.2-1.3,0.3-2c-0.2-3.7-5-5.5-5-1.5C141.6,218.6,145.4,222.3,146.7,218.7z M143.6,215.2
			c0-3.3,4,3.7,0.9,3.7C143.1,218.8,143.7,215.7,143.6,215.2z"/>
		<path class="st2" d="M134.9,289.5c-0.3-2.9-2-4.1-4.8-3.7l0.2-2.1c8.9-1.4,0.2-2.7-0.3-2.1c-2.2,2.8-0.6,4.4-0.6,6.1
			c0,0.2,3.7-0.6,3.2,1.5c-0.3,1.1-2.4,2.9-2.8,0.8c-0.3-1.4-2.8-1.1-2.4,0.2C128.4,294.1,134.9,294.2,134.9,289.5z"/>
		<path class="st2" d="M136.8,292.2c0.2-3.2,0.4-6.4,0.8-9.6c-1.5,1.3-2.5,3.9-1.8,6.8C135.8,290.7,136.2,291.7,136.8,292.2z"/>
		<path class="st2" d="M128.1,275.6c5.5,3.1,8.6-1.8,7.3-6.4c-0.5-1.6-5.1-2-5-3.4c0,2,9.5-5.5,3.5-4.2c-14.7,3.4,0.3,6.1-0.5,10.7
			C133.2,273.2,122.2,272.3,128.1,275.6z"/>
		<path class="st2" d="M139.1,274.2c0.6-2.4,1.2-4.7,2-7v-2.9c0.4-0.1,0.7-0.1,1.1-0.1c0.3-0.8,0.6-1.6,0.9-2.4c0-0.2,0-0.4,0-0.6
			c-1.4-0.4-2.8-0.4-3.9,0.4c-2.1,1.4-1.1,4.8-1.2,7.3C138,271.2,138.5,273.1,139.1,274.2z"/>
		<path class="st2" d="M128.9,303.8c1,0.8,1.2-0.8,1.1-1.4c1.8-0.4,1.8-0.8,0-1.2c-0.4-1.9-0.8-1.9-1.3,0c-1.8,0.4-1.8,0.8,0,1.2
			C128.6,303,128.6,303.4,128.9,303.8z"/>
		<path class="st2" d="M132.2,302.6h2.3c0.5,2,1.1,2,1.6,0c1.1-0.4,1.1-0.9,0-1.4c-0.5-1.6-1-1.6-1.6,0h-0.9
			c0.3-0.6,1.8-2.9,1.8-3.7C135.5,295,130.1,302.6,132.2,302.6z"/>
		<path class="st2" d="M134.8,364.6c-0.4-0.2-0.8-0.4-1.4-0.7c0.8-0.4,1.3-0.7,1.5-1.1c0-0.4,0-0.7,0.1-1.1
			c-0.8-1.5-4.9-2.6-5.2-2.8c-4.8-2.5-0.2,6.2,0,3.1c0.1-1.7,1.7-1.6,2.5-0.3c0.7,1.1-1.9,1.4-1.9,2.3c0,1.1,3.7,1.7,1.9,3.6
			c-1.5,1.5-2.9-2.3-4.9-0.5c-3.1,2.8,4.4,2.1,7.5,0.3C134.8,366.5,134.8,365.5,134.8,364.6z"/>
		<path class="st2" d="M128.3,342c0,2.7-1.3,9.3,1,11c3,2.3,2.1-8.3,2.1-8.5c-0.7-3.9,1-4.1-2-5.8
			C129.3,338.5,123.7,341.2,128.3,342z"/>
		<path class="st2" d="M136.2,353.2c0.5-2.4,1.1-4.8,1.9-7.2c0-3.3-0.2-6.7-0.9-7.2c-1.5-1.1-7.3,2.5-2.7,3.2
			C134.5,343.6,133.1,353.4,136.2,353.2z"/>
		<path class="st2" d="M131,378.2h-1c-0.4-1.8-0.8-1.9-1.3,0c-1.8,0.4-1.8,0.8,0,1.2c0.4,1.9,0.8,1.9,1.3,0
			C131,379.5,132,378.2,131,378.2z"/>
		<path class="st2" d="M135.5,376c-0.4-0.1-1,0.2-1.9,1.1c-0.2-0.8,0.1-1.5,0.9-1.9c0.3,0,0.6,0.3,0.9,0.6c0-0.2-0.1-0.4-0.1-0.6
			c-1.9-0.5-4.8-0.2-3,4.6c1.6,4.4,3.2,2.3,3.7-0.2C135.9,378.4,135.6,377.2,135.5,376z M134.5,380.1c-1.2,0-1.3-2.2,0-2.2
			C135.7,377.9,135.7,380.1,134.5,380.1z"/>
	</g>
	<path class="st0" d="M185.2,38.7c-15.6,19.6-52.1,178.4-52.1,272.8s-2.1,125.8,7.9,128.7c10,2.9,103.7,0,110.8-6.4
		c7.1-6.4,2.1-335.9,0-347.4s-18.6-40-18.6-40S200.8,19,185.2,38.7z"/>
	<path class="st1" d="M214.6,471.6c-22.9-4.3-37.9-83.6-37.9-131.5s17.2-243,7.9-274.5c-9.3-31.5,2.9-40.7,70.1-37.2
		s59.3,152.3,59.3,152.3l-27.9,248.1L214.6,471.6z"/>
	<g>
		<path class="st2" d="M212.1,91.8c0.1-1.3-0.6-2.3-2-3.2c6.4-3-3.9-5.8-4.5-6.1c-6-3.1-0.2,7.6-0.1,3.8c0.1-2.2,2.2-2,3.1-0.4
			c0.8,1.3-2.3,1.8-2.3,2.8c0,1.9,3.5,0.7,2.7,3.1c-0.5,1.3-3.3,3.2-3.6,0.2c-0.1-1-3.1-0.9-2.8,0.5
			C203.8,97.4,212.1,97.5,212.1,91.8z"/>
		<path class="st2" d="M218,82c-6.7,0-6.7,14.1,0,14.1C224.8,96.2,224.6,82,218,82z M219.7,91.6c-0.6,0.6-1.1,1.3-1.7,1.9
			c-2.6,0-2.6-8.9,0-8.9C220.4,84.6,219.9,90.5,219.7,91.6z"/>
		<path class="st2" d="M218.1,88.1c-1.2,0-1.2,1.9,0,1.9C219.3,90,219.3,88.1,218.1,88.1z"/>
		<path class="st2" d="M229,82c-6.7,0-6.7,14.1,0,14.1C235.7,96.2,235.5,82,229,82z M230.7,91.6c-0.6,0.6-1.1,1.3-1.7,1.9
			c-2.6,0-2.6-8.9,0-8.9C231.3,84.6,230.8,90.5,230.7,91.6z"/>
		<path class="st2" d="M229,88.1c-1.2,0-1.2,1.9,0,1.9C230.2,90,230.2,88.1,229,88.1z"/>
		<path class="st2" d="M236.4,93.2c-3.4,0,0,3,0,3C236.4,96.1,239.8,93.2,236.4,93.2z"/>
		<path class="st2" d="M239,91.6c0,8.8,12.5,2.7,9.3-5.1C244.8,77.9,237.3,83.9,239,91.6z M242,86.5c0.6-0.6,1.1-1.3,1.7-1.9
			c2.7,0,2.7,8.9,0,8.9C241.4,93.5,241.9,87.6,242,86.5z"/>
		<path class="st2" d="M243.7,90c1.2,0,1.2-1.9,0-1.9C242.5,88.1,242.5,90,243.7,90z"/>
		<path class="st2" d="M252.3,84.6c0.3-0.9,0.6-1.8,1-2.7c-0.6,0.2-1.3,0.6-2,1.2c-2,1.7-2.2,5.8-1.1,9
			C250.7,89.5,251.4,87,252.3,84.6z"/>
		<path class="st2" d="M208.5,75.5c16.7,0-1.5-9.2,2-4.2c1.5,2.2-10.9-10.5-1.8-10.5c-0.3,0,4.8,5.2,5.6,3c1.7-4.9-3.9-7.3-7.9-5.6
			C200.8,60.4,200.4,75.5,208.5,75.5z"/>
		<path class="st2" d="M217.1,75c7.4,4.6,15.1-5.3,3.3-3C220.5,40.1,212.4,72.1,217.1,75z"/>
		<path class="st2" d="M235.4,71.8c-2.5,1.4-3.7-1.7-5.4-1.4c-3.5,0.7-1.4,4.7,1.8,4.6c19.1-0.5,0.9-9.7,0.7-13.6
			c0.2,3.7,13.3-5.9,3.5-4.2C218.9,60.2,237.8,70.5,235.4,71.8z"/>
		<path class="st2" d="M254.1,76c0.1-1.5,0.3-3,0.6-4.6c-1.1-0.2-2.7,0-4.8,0.6c1.7-1.9,4.8-3.9,6.3-6.3c0.3-0.9,0.6-1.8,1-2.7
			c0-0.8-0.1-1.6-0.5-2.4c-1.9-3.9-11.9-4.2-10.4,1.6c0.4,1.5,3.7,3.2,3.7,0.5c0-3,2.7-1.5,1,3.4c-0.5,1.5-8.8,6.2-4.4,9
			C249.5,76.8,252.3,76.8,254.1,76z"/>
		<path class="st2" d="M204.6,109.4c1.2,0.9,1.5-1,1.3-1.7c2.2-0.4,2.2-0.9,0-1.5c-0.5-2.3-1-2.3-1.6,0c-2.2,0.5-2.2,1,0,1.5
			C204.2,108.3,204.3,108.9,204.6,109.4z"/>
		<path class="st2" d="M211.8,109.7c1.4,0.8,1.8-0.8,1.6-1.8c1.4-0.5,1.4-1.1,0-1.7c-0.6-1.9-1.3-1.9-1.9,0h-1.1
			c0.4-0.9,2.2-3.5,2.2-4.6c0-0.4-9.5,6.9-1.2,6.3C211.5,108.2,211.4,109.5,211.8,109.7z"/>
		<path class="st2" d="M217.8,108.3c-0.4,0-3-3-3-0.6c0,4.2,12.1-0.5,2.2-3.5l0.1-1.7c7.3-1.8-1.6-2.7-1.7,0.5
			C215.3,104.7,220,108.3,217.8,108.3z"/>
		<path class="st2" d="M222.4,108.1c-1.3,0-1.2,1.9,0,1.9C223.6,110,223.6,108.1,222.4,108.1z"/>
		<path class="st2" d="M224,107c0,5.9,6.2,1.3,6-3.3C229.9,98.3,223.2,101.8,224,107z M226,103.8c0-4.1,4.9,4.5,1.1,4.5
			C225.4,108.3,226.1,104.5,226,103.8z"/>
		<path class="st2" d="M227,106C229.1,106,225,106,227,106z"/>
		<path class="st2" d="M231.9,101.6c-2.8,2.4-0.3,11.3,4.4,7.7C239.1,107.1,236.5,97.6,231.9,101.6z M235.2,103.8
			c-0.1,0.7,0.6,4.5-1.1,4.5C230,108.3,235.2,99.8,235.2,103.8z"/>
		<path class="st2" d="M233.5,105.4C233.5,107.6,233.5,103.3,233.5,105.4z"/>
		<path class="st2" d="M247.2,100.9c-1.3,0-2.4,2.1-2.8,3.2c-6.6-10.7-3,16.1-1.8,0.5c1.1,2.8,2.3,3,3.6,0.1
			C248,118.2,248.7,100.9,247.2,100.9z"/>
		<path class="st2" d="M212,192.4c0-3.3-3.2-4.5-5.9-4.2l0.2-2.6c10.9-1.7,0.2-3.3-0.3-2.6c-3.7,4.6-0.3,5.2-0.1,7.5
			c0-0.1,3,0.2,3.2,2.2c0.3,3.4-3.3,1.4-3.7-0.2c-0.9-3.8-5.5,5.5-1.4,3.5C207.8,194.2,210.6,200.1,212,192.4z"/>
		<path class="st2" d="M217.3,194.5c-1.9,0-1.4-1.8-3.2-2.3c-2.5-0.6-1.1,4.3-0.2,3.8c2.2-1,8.7,3.6,8.1-3.4
			c-0.3-4.2-2.5-4.3-5.9-4.5l0.2-2.6c10.9-1.7-0.7-4.4-2.6-0.5C211.9,189,221,194.5,217.3,194.5z"/>
		<path class="st2" d="M225.4,196.7c1.4-1.4-0.8-3.4-2.1-2.1C221.9,196,224,198.1,225.4,196.7z"/>
		<path class="st2" d="M228.8,187.3c0.4-1.3,0.8-2.7,1.2-4c-3.5,1.4-4.3,7.2-2.6,10.9C227.9,191.6,228.3,189.2,228.8,187.3z"/>
		<path class="st2" d="M202.6,176c9,5.6,15.8-6.5,3.4-3c2.8-3,9.2-6.6,6.8-11.5c-1.9-3.9-11.9-4.2-10.4,1.6c0.4,1.5,3.7,3.2,3.7,0.5
			c0-3,2.7-1.5,1,3.4C206.5,168.5,198.2,173.3,202.6,176z"/>
		<path class="st2" d="M219.9,167.4c0,1,1.3,1.8,2,0.9c0.4-0.6,0.4-1.2,0-1.8C221.2,165.7,219.9,166.5,219.9,167.4z"/>
		<path class="st2" d="M216.8,159.8c-5.5,4.7-0.2,23.4,8.7,15.3C230.8,170.3,225.9,152,216.8,159.8z M223.3,164.2
			c0.4,1.5,0.8,9-2.2,9c-3.2,0-3.2-11.4,0-11.4C221.8,162.5,222.6,163.4,223.3,164.2z"/>
		<path class="st2" d="M230.3,163.7c0.3-2.1,0.7-4.3,1.2-6.5C229.1,159.1,229.2,163.2,230.3,163.7z"/>
		<path class="st2" d="M204.6,210.4c1.2,0.9,1.5-1,1.3-1.7c2.2-0.4,2.2-0.9,0-1.5c-0.5-2.3-1-2.3-1.6,0c-2.2,0.5-2.2,1,0,1.5
			C204.2,209.4,204.3,209.9,204.6,210.4z"/>
		<path class="st2" d="M209.2,210.8c3.3,1.8,0.1-14.6-0.3-6.7C208.8,205.2,208.1,210.2,209.2,210.8z"/>
		<path class="st2" d="M212.4,210.3c2.7,2.3,8.9-2.8,1.4-5.1l0.1-1.7c2.2-0.6,3-1.8,2.7-1.7c-6.5,2.7-0.5,0.4-4.6,4.3
			c0,0,4.1,0.3,3.6,1.8c-1.1,3.7-2.3-1.2-3.9,0C211.4,208.8,211.6,209.6,212.4,210.3z"/>
		<path class="st2" d="M218.4,209.4c-0.9,0.9,0.5,2.2,1.4,1.3C220.7,209.8,219.3,208.5,218.4,209.4z"/>
		<path class="st2" d="M226.5,207.5c0-0.9-0.1-1.8,0-2.7c-1.4-3.1-5.6-4.1-5.6,0.1c-0.6,4.3,4.2,8.8,5.7,4.3
			C226.5,208.5,226.5,208,226.5,207.5z M223.8,209.3c-1.7,0-1-3.8-1.1-4.5C222.7,200.7,227.6,209.3,223.8,209.3z"/>
		<path class="st2" d="M210.9,293.1c-1-1.2-2.7-1.7-4.8-1.4l0.2-2.6c10.9-1.7,0.2-3.3-0.3-2.6c-2.7,3.4-0.7,5.5-0.8,7.5
			c0,0.2,4.6-0.8,3.9,1.9c-0.4,1.4-2.9,3.6-3.4,1c-0.3-1.7-3.4-1.4-3,0.2c0.9,3.2,4.8,4.3,7.3,3
			C210.2,297.6,210.5,295.3,210.9,293.1z"/>
		<path class="st2" d="M203.7,279.1c6.8,3.8,10.6-2.2,9-7.8c-0.6-2-6.2-2.4-6.2-4.2c0,2.4,11.7-6.8,4.3-5.1
			c-18,4.1,0.4,7.6-0.6,13.2C210,276.3,196.4,275.1,203.7,279.1z"/>
		<path class="st2" d="M216,272.6c0.5-3.8,1.3-7.5,2.4-11.2c-0.4,0.1-0.7,0.3-1,0.5c-2.6,1.7-1.4,5.9-1.4,9
			C215.9,271.5,215.9,272.1,216,272.6z"/>
		<path class="st2" d="M204.6,313.9c1.2,0.9,1.5-1,1.3-1.7c2.2-0.4,2.2-0.9,0-1.5c-0.5-2.3-1-2.3-1.6,0c-2.2,0.5-2.2,1,0,1.5
			C204.2,312.9,204.3,313.4,204.6,313.9z"/>
		<path class="st2" d="M209.2,309c-1,1.7-1.6,3.4-0.5,3.4h0.4C209.1,311.3,209.1,310.2,209.2,309z"/>
		<path class="st2" d="M208.7,392.4c-1.8,1.9-3.6-2.9-6-0.6c-5.8,5.3,19.2,0.5,7.5-3.9c6.4-3-3.9-5.8-4.5-6.1
			c-5.9-3.1-0.3,7.6-0.1,3.8c0.1-2.1,2.1-2,3.1-0.4c0.8,1.3-2.3,1.8-2.3,2.8C206.4,389.4,211,390.2,208.7,392.4z"/>
		<path class="st2" d="M214,390.2c-0.8,0.8-1.2,1.6-1,2.8c0.1,0.4,0.2,0.7,0.4,1c0.2-1.1,0.4-2.2,0.6-3.3
			C214.1,390.6,214.1,390.4,214,390.2z"/>
		<path class="st2" d="M204,360.9c0,3.4-1.5,11.4,1.2,13.6c3.6,2.8,2.6-10.3,2.6-10.5c-0.9-4.8,1.2-5-2.4-7.2
			C205.2,356.7,198.2,360,204,360.9z"/>
		<path class="st2" d="M212.6,374.4c0-2.3,0.1-4.5,0.3-6.7c-0.5-3.2-0.8-6.4-0.8-9.7c0-0.3,0.1-0.7,0.1-1c-2.4,0.9-4.7,3.3-0.7,3.9
			C211.5,362.7,210.1,372.5,212.6,374.4z"/>
		<path class="st2" d="M207.2,405.5H206c-0.5-2.3-1-2.3-1.6,0c-2.2,0.5-2.2,1,0,1.5c0.5,2.3,1,2.3,1.6,0
			C207.2,407.1,208.5,405.5,207.2,405.5z"/>
		<path class="st2" d="M211.9,407.7c-0.1,0-0.2,0.1-0.4,0.1c-1.4,0-1.5-2.7,0-2.7c0.2,0,0.3,0,0.5,0.1c0-0.8,0.1-1.6,0.2-2.4
			c-0.5,0.1-1,0.6-1.8,1.4c-0.3-1,0.1-1.8,1.2-2.3c0.2,0,0.5,0.1,0.7,0.3c0-0.1,0-0.3,0-0.4c-2.3-0.6-5.5,0-3.4,5.7
			c1.1,3,2.2,3.5,3.1,2.9C211.9,409.5,211.9,408.6,211.9,407.7z"/>
	</g>
	<path class="st0" d="M276.1,17.7c-31.4,29.4-67.9,223-67.9,329.5s-2.1,123.7,6.4,124.4c8.6,0.7,180.9-4.3,185.9-10
		s74.3-370.3,74.3-370.3S309.7-13.7,276.1,17.7z"/>
	<path class="st1" d="M270.3,478.1c6.4,17.9,12.9,28.9,121.5,28.6c112.9-0.3,107.2-17.9,107.9-23.6s10.7-461.8,0-468.9
		C489.1,7,295.4-3,276.1,17.7C246.1,49.8,261.7,454,270.3,478.1z"/>
	<path class="st3" d="M443.3,131.2c-52.8,0-52.8-81.9,0-81.9C496,49.3,496.1,131.2,443.3,131.2z M409.8,71
		c-6.8,11.7-6.9,26.5-0.2,38.3c7.8-6.3,23.1-14.1,28-22.6c4.7-8.3,3.9-25.5,5.3-35.1C429.4,51.8,416.5,59.3,409.8,71z M410.1,110.2
		c14.8,24.8,52,24.7,66.6-0.2c-9.2-3.7-23.7-13.6-33.4-13.6C433.9,96.5,418.9,106.5,410.1,110.2z M443.9,51.6
		c1.4,9.8,0.2,27.2,5,35.5c4.7,8.2,20.7,16,28.3,21.9C491,84,472.6,52.1,443.9,51.6z"/>
	<g>
		<path class="st3" d="M458.6,233.8c-6.6,0.2-6.7,10.2,0.1,10.1C465.3,243.8,465.4,233.5,458.6,233.8z M458.7,242.7
			c-2,0-2.7-2.3-2.7-3.8c0,0.1,0,0.2,0,0.2C455.7,228,466.5,242.7,458.7,242.7z M456,238.2C456,237.7,456,237.9,456,238.2L456,238.2
			z M456,238.2c0,0.1,0,0.3,0,0.4C456.1,238.5,456,238.4,456,238.2z"/>
		<path class="st3" d="M440.6,242.4c-7.9-2-2.6-7.9,2.3-8.1c-18.7-8.5,1,21.6,0.2,4.6c-0.8,0-1.7,0-2.5,0
			C440.6,240.1,440.6,241.2,440.6,242.4z M442.4,235.4C442.3,235.4,442.3,235.4,442.4,235.4L442.4,235.4z"/>
		<path class="st3" d="M464,234.1c2.6,1.1,4.6,4.3,3,9.3c0.8,0,1.7,0,2.5,0c-1.4-4.4-1.1-8.1,3.1-8
			C471.1,233.6,467.6,233.8,464,234.1z"/>
		<path class="st3" d="M411.7,234.4c-7.7-3.2-9.9,2-8,9c0.9,0,1.8,0,2.7,0C406.9,241.2,415.1,235.9,411.7,234.4z M408.3,238.9
			c-0.1-0.6-2.9-0.3-1.9-3.7c1.2,0,4.1-0.4,4.1,1.8C409.7,237.7,409,238.3,408.3,238.9z"/>
		<path class="st3" d="M429.7,240.5c0,1.3-0.8,2.1-2,2.1c-0.8-3.2-3-4.3-2-8.5c-0.8,0-1.6,0-2.5,0c-0.9,3.7-0.5,9.8,4.5,9.8
			c5,0,5.4-6.2,4.5-9.8c-0.8,0-1.6,0-2.5,0C429.7,236.2,429.6,238.3,429.7,240.5z"/>
		<path class="st3" d="M414.3,243.4c2.4,0,4.8,0,7.2,0c-4.8-1.5-5.9-3.5-0.9-5.7c-1.3,0-2.5,0-3.8,0c0-0.8,0-1.6,0-2.3
			c3.1-0.2,3.4-0.9,4.7-1.3C413.8,231.8,412.5,236.7,414.3,243.4z"/>
		<path class="st3" d="M445.3,243.4c2.4,0,4.8,0,7.2,0c-4.8-1.5-5.9-3.4-0.9-5.6c-1.3,0-2.5,0-3.8,0c0-0.8,0-1.6,0-2.4
			c3.1-0.2,3.4-0.9,4.7-1.4C444.8,231.8,443.5,236.7,445.3,243.4z"/>
		<path class="st3" d="M404.2,165.1c3.2-0.7,5.6,0.8,3.3,3.3c3,2.2,5.9-1.2,8.1,1.5c1.7,2,3.2,5.7,5.6,6.9
			c-5.7-3.3-17.6,1.8-15.5,7.3c1.3,3.5,5.5,2.1,7,3.1c7.3,0,19.5-9.2,17.5,6c-0.3,1.9-9,17.9-9.7,18.5c-4.9,4.2-6.9-1.1-12.6,6.4
			c3.2,0.8,6.3,2.8,8.8,3.6c2.8,0.9,7.3-0.2,10.7,0.9c-3.4-1.1,7-13,8.1-13.9c8.4-6.9,6-6.7,15.4-0.5c9.6,6.3,3.5,4.7-3.1,13.3
			c6.1,0,13.8,0.8,20,1.9c-1.1-0.2-0.4-14.5-0.6-15.2c-1.4-4.3-5.6-6-8.4-12.1c20.6-1,1.6-22.9,3-32.1c2.6-16.7,6.4,13.9,11.2,10.3
			c-0.1-1.8-0.6-3.6-1.4-5.2c0,0,0,0,0,0.1c0-4,3.3-6.4,0.1-10.7c-4.4-5.9-13.9-1.9-13.5,5.1c-4.9-11.8-12.7-19.1-25.4-11.2
			c-15.2,9.5,3.1,1.6,5,7c0.1-0.1-9.2,0.9-9.1,1.5c0.1,1.2,10.4,0.6,8.8,0.8c-1.7,2.4-5.9,1.6-8.3,1.7c0.6,2.5,3.9,2.5,3.9,3
			c-0.5,2.1-1.5,4-3,5.6c-3.4-2.9-21.1-20.8-26-11.5C405.5,162.2,403.5,162.2,404.2,165.1z M471.1,169.2
			C471.1,169.5,471.1,169.8,471.1,169.2L471.1,169.2z M452.5,176c3.6-0.7,4.3-4.7,5.3-9.7c1.8,5.2,10.1,18,6.1,23.3
			C455.1,201.1,451.4,181.2,452.5,176z M461.5,175.8C461.5,175.8,461.5,175.8,461.5,175.8L461.5,175.8z M461.8,176.5
			c0,0.1,0.1,0.3,0.2,0.5C461.9,176.9,461.9,176.7,461.8,176.5z M434.9,154.7c-2-4.7,4.3-1.6,3.9-1.4
			C440.6,152.4,435.6,154.7,434.9,154.7z M439,153.2C439.1,153.1,439.1,153.1,439,153.2L439,153.2z"/>
	</g>
	<path class="st4" d="M481.7,135c-17.7,4-51.5,7.4-74,7.1c-22.4-0.4-42.4-7.3-75.1-3.5s-39.3,3.5-39.3,3.5"/>
	<path class="st4" d="M481.7,357.5c-17.7,4-51.5,7.4-74,7.1c-22.4-0.4-42.4-7.3-75.1-3.5s-39.3,3.5-39.3,3.5"/>
	<path class="st4" d="M481.7,460.4c-17.7,4-51.5,7.4-74,7.1c-22.4-0.4-42.4-7.3-75.1-3.5c-32.7,3.8-39.3,3.5-39.3,3.5"/>
	<path class="st4" d="M481.7,252c-17.7,4-51.5,0.4-74,0.1c-22.4-0.4-42.4-1.3-75.1,2.5c-32.7,3.8-39.3-2.5-39.3-2.5"/>
	<g>
		<path class="st2" d="M305.6,94.7c0.1-1.4-0.6-2.5-2.1-3.4c7-3.2-4.2-6.3-4.8-6.6c-6.5-3.4-0.2,8.2-0.1,4.2
			c0.1-2.3,2.4-2.1,3.4-0.4c0.9,1.4-2.5,1.9-2.5,3c0,2.1,3.8,0.8,2.9,3.3c-0.5,1.5-3.6,3.4-3.9,0.2c-0.1-1.1-3.4-1-3,0.5
			C296.6,100.8,305.6,100.8,305.6,94.7z"/>
		<path class="st2" d="M312,84c-7.3,0-7.3,15.3,0,15.3C319.3,99.4,319.1,84,312,84z M313.8,94.5c-0.6,0.7-1.2,1.4-1.8,2.1
			c-2.8,0-2.8-9.7,0-9.7C314.5,86.9,314,93.3,313.8,94.5z"/>
		<path class="st2" d="M312,90.7c-1.3,0-1.3,2.1,0,2.1C313.3,92.8,313.3,90.7,312,90.7z"/>
		<path class="st2" d="M323.8,84c-7.3,0-7.3,15.3,0,15.3C331.1,99.4,330.9,84,323.8,84z M325.6,94.5c-0.6,0.7-1.2,1.4-1.8,2.1
			c-2.8,0-2.8-9.7,0-9.7C326.4,86.9,325.8,93.3,325.6,94.5z"/>
		<path class="st2" d="M323.8,90.7c-1.3,0-1.3,2.1,0,2.1C325.1,92.8,325.1,90.7,323.8,90.7z"/>
		<path class="st2" d="M331.9,96.2c-3.7,0,0,3.2,0,3.2C331.9,99.4,335.5,96.2,331.9,96.2z"/>
		<path class="st2" d="M334.7,94.5c0,9.5,13.6,2.9,10.1-5.5C341,79.6,332.8,86.2,334.7,94.5z M337.9,88.9c0.6-0.7,1.2-1.4,1.8-2.1
			c2.9,0,2.9,9.7,0,9.7C337.2,96.5,337.8,90.1,337.9,88.9z"/>
		<path class="st2" d="M339.8,92.8c1.3,0,1.3-2.1,0-2.1C338.4,90.7,338.4,92.8,339.8,92.8z"/>
		<path class="st2" d="M350.6,91.7c0,1.4,2,1.4,2,0C352.6,90.4,350.6,90.4,350.6,91.7z"/>
		<path class="st2" d="M347.9,85.2c-4.7,4-0.3,19.2,7.4,12.9C360,94.3,355.6,78.6,347.9,85.2z M353.4,88.9c0.2,1.2,0.7,7.6-1.8,7.6
			c-2.8,0-2.8-9.7,0-9.7C352.2,87.6,352.8,88.3,353.4,88.9z"/>
		<path class="st2" d="M365.9,84.3c-4.6-2.6-3.9,11.8-3,13.3c3.3,5.5,4-4.8,3.2-7.3c1.8,4.7,3.9,5.1,6.1,0.2
			c-1.6,6,1.8,13.4,3.2,3.4c1-7.1-2.3-14.3-6.3-4.4C368.5,88.3,367.1,85,365.9,84.3z"/>
		<path class="st2" d="M301.6,77c18.1,0-1.6-9.9,2.1-4.6c1.7,2.3-11.8-11.4-2-11.4c-0.3,0,5.2,5.7,6,3.2c1.8-5.3-4.3-7.9-8.5-6.1
			C293.3,60.6,292.9,77,301.6,77z"/>
		<path class="st2" d="M311,76.5c8,5,16.3-5.7,3.6-3.3C314.6,38.7,305.9,73.3,311,76.5z"/>
		<path class="st2" d="M330.8,73c-2.7,1.5-4.1-1.9-5.9-1.5c-3.8,0.8-1.5,5.1,1.9,5c20.6-0.6,1-10.5,0.8-14.7c0.2,4,14.4-6.4,3.8-4.6
			C312.9,60.4,333.3,71.6,330.8,73z"/>
		<path class="st2" d="M342.8,76.5c9.8,6.1,17.1-7,3.7-3.2c3-3.3,10-7.2,7.3-12.4c-2.1-4.2-12.9-4.6-11.3,1.7c0.4,1.6,4,3.4,4,0.6
			c0-3.2,2.9-1.6,1.1,3.7C347,68.4,338.1,73.5,342.8,76.5z"/>
		<path class="st2" d="M357.5,75.5c9.9,8.3,17.5-13,3-11l0.3-3.6c18.7,3.6-10.4-13.4-4.2,4.8c1.4,4,8.3-0.3,8,5.1
			C364.5,73.4,349.5,68.8,357.5,75.5z"/>
		<path class="st2" d="M376.8,77c9.3,0,9.2-19.5,0-19.6C367.5,57.2,367.6,77,376.8,77z M374.5,63.7c0.8-0.9,1.5-1.8,2.3-2.7
			c3.5,0,3.6,12.4,0,12.4C373.6,73.4,374.1,65.2,374.5,63.7z"/>
		<path class="st2" d="M376.8,68.6c1.1,0,1.7-1.5,0.9-2.3c-0.6-0.5-1.2-0.5-1.9,0C375.1,67,375.7,68.6,376.8,68.6z"/>
		<path class="st2" d="M297.5,113.7c1.3,1,1.6-1.1,1.5-1.8c2.3-0.5,2.4-1,0-1.6c-0.5-2.5-1.1-2.5-1.7,0c-2.4,0.5-2.4,1,0,1.6
			C297,112.6,297.1,113.2,297.5,113.7z"/>
		<path class="st2" d="M305.2,114.1c1.5,0.9,2-0.9,1.8-2c1.5-0.6,1.5-1.2,0-1.8c-0.6-2.1-1.4-2.1-2.1,0h-1.1c0.4-0.9,2.4-3.8,2.4-5
			c0-0.4-10.3,7.4-1.3,6.8C304.9,112.5,304.8,113.8,305.2,114.1z"/>
		<path class="st2" d="M311.7,112.5c-0.5,0-3.2-3.3-3.2-0.7c0,4.5,13.1-0.5,2.4-3.8l0.1-1.8c7.9-2-1.7-2.9-1.9,0.5
			C309,108.6,314.1,112.5,311.7,112.5z"/>
		<path class="st2" d="M316.6,112.3c-1.4,0-1.3,2.1,0,2.1C318,114.3,318,112.3,316.6,112.3z"/>
		<path class="st2" d="M318.5,111.2c0,6.4,6.7,1.4,6.5-3.5C324.8,101.7,317.6,105.5,318.5,111.2z M320.5,107.6
			c0-4.4,5.3,4.9,1.2,4.9C319.9,112.5,320.7,108.4,320.5,107.6z"/>
		<path class="st2" d="M321.7,110.1C323.9,110.1,319.5,110.1,321.7,110.1z"/>
		<path class="st2" d="M327,105.2c-3,2.6-0.3,12.2,4.7,8.3C334.8,111.2,331.9,101,327,105.2z M330.5,107.6c-0.1,0.8,0.7,4.9-1.2,4.9
			C324.9,112.5,330.5,103.3,330.5,107.6z"/>
		<path class="st2" d="M328.7,109.4C328.7,111.7,328.7,107.1,328.7,109.4z"/>
		<path class="st2" d="M343.6,104.5c-1.4,0-2.6,2.3-3,3.4c-7.2-11.6-3.3,17.4-2,0.5c1.2,3,2.5,3.3,3.9,0.1
			C344.4,123.2,345.2,104.5,343.6,104.5z"/>
		<path class="st2" d="M305.5,203.6c0-3.6-3.5-4.8-6.4-4.5l0.2-2.8c11.8-1.8,0.3-3.6-0.4-2.8c-4,4.9-0.4,5.7-0.1,8.1
			c0-0.1,3.2,0.2,3.4,2.4c0.3,3.7-3.6,1.5-4-0.2c-1-4.2-6,6-1.5,3.8C300.8,205.6,303.9,211.9,305.5,203.6z"/>
		<path class="st2" d="M311.2,205.9c-2,0-1.5-2-3.4-2.5c-2.7-0.7-1.2,4.6-0.2,4.2c2.4-1.1,9.4,3.9,8.8-3.6c-0.4-4.5-2.7-4.7-6.4-4.9
			l0.2-2.8c11.8-1.8-0.8-4.8-2.8-0.5C305.3,199.9,315.2,205.9,311.2,205.9z"/>
		<path class="st2" d="M319.9,208.3c1.5-1.5-0.8-3.7-2.3-2.3C316.2,207.5,318.4,209.7,319.9,208.3z"/>
		<path class="st2" d="M326.7,202.1c1.3,0,1.3-2.1,0-2.1C325.3,200,325.3,202.1,326.7,202.1z"/>
		<path class="st2" d="M326.7,208.7c7.3,0,7.3-15.3,0-15.3C319.3,193.5,319.6,208.7,326.7,208.7z M324.9,198.3
			c0.6-0.7,1.2-1.4,1.8-2.1c2.9,0,2.9,9.7,0,9.7C324.1,205.9,324.7,199.5,324.9,198.3z"/>
		<path class="st2" d="M338.5,202.1c1.3,0,1.3-2.1,0-2.1C337.2,200,337.2,202.1,338.5,202.1z"/>
		<path class="st2" d="M333.4,198.3c-1.7,7.9,6.4,15.2,10.1,5.5C347,194.7,333.4,189.2,333.4,198.3z M336.7,198.3
			c0.6-0.7,1.2-1.4,1.8-2.1c2.9,0,2.9,9.7,0,9.7C335.9,205.9,336.5,199.5,336.7,198.3z"/>
		<path class="st2" d="M359.5,208.3c4.8,2.6,4.3-26.7-3.5-9.6c-4.1-10-7.3-2.8-6.3,4.4c1.4,9.8,4.9,2.6,3.2-3.6
			c1.8,4.7,3.9,5.1,6.1,0.2C358.9,201.3,358,207.6,359.5,208.3z"/>
		<path class="st2" d="M295.2,185.8c9.8,6.1,17.1-7,3.7-3.2c3-3.3,10-7.2,7.3-12.4c-2.1-4.2-12.9-4.6-11.3,1.7c0.4,1.6,4,3.4,4,0.6
			c0-3.2,2.9-1.6,1.1,3.7C299.4,177.7,290.5,182.9,295.2,185.8z"/>
		<path class="st2" d="M314,176.6c0,1,1.4,1.9,2.2,1c0.5-0.7,0.5-1.3,0-2C315.4,174.7,314,175.5,314,176.6z"/>
		<path class="st2" d="M310.6,168.3c-5.9,5.1-0.2,25.3,9.4,16.6C325.8,179.6,320.4,159.8,310.6,168.3z M317.7,173
			c0.4,1.6,0.9,9.7-2.4,9.7c-3.4,0-3.5-12.4,0-12.4C316.1,171.2,316.9,172.1,317.7,173z"/>
		<path class="st2" d="M335.8,167.1c-14.4-9.6-12.5,12.3-8.3,3.2h4.8v1.9C314.7,202.6,342.4,171.6,335.8,167.1z"/>
		<path class="st2" d="M347.7,173.4c-9.7,0,0.2,4.9,1.9,5.5c-11.5-1.2-5.7,12.6,0.3,5.3C355.5,189.8,355.9,173.4,347.7,173.4z
			 M349.6,181c-0.1,1.3-0.8,2-2,2.3C343.9,183.3,349.7,180.8,349.6,181L349.6,181z"/>
		<path class="st2" d="M368,174.8c0-7.3-7.4,7.3-4.1,6.1c-8.9,3.3,1.3-4.6-3.9-6.1c-4-1.1-5.7,0.2-4.1,6.1
			C358.8,192.2,369.5,183.7,368,174.8z"/>
		<path class="st2" d="M377.4,176.7c2.2,0,0.2-3.6-3-3.2c-0.5-12.9-8.2,4-3.5,9.9c9.5,12.1,3.2-5.4,3.5-6.7H377.4z"/>
		<path class="st2" d="M389.7,175c-6.3-5.8-13.6,4.1-8.5,9.8C386.6,190.8,395.5,180.4,389.7,175z M387.4,180.8
			C387.4,188.4,381.4,168.9,387.4,180.8z"/>
		<path class="st2" d="M297.5,223.1c1.3,1,1.6-1.1,1.5-1.8c2.3-0.5,2.4-1,0-1.6c-0.5-2.5-1.1-2.5-1.7,0c-2.4,0.5-2.4,1,0,1.6
			C297,221.9,297.1,222.5,297.5,223.1z"/>
		<path class="st2" d="M302.4,223.5c3.6,2,0.1-15.8-0.3-7.3C302,217.4,301.3,222.8,302.4,223.5z"/>
		<path class="st2" d="M305.9,223c2.9,2.5,9.6-3,1.5-5.5l0.1-1.8c2.4-0.6,3.2-1.9,2.9-1.8c-7,2.9-0.6,0.4-4.9,4.7
			c-0.1,0.1,4.4,0.3,3.9,1.9c-1.2,4-2.5-1.3-4.2,0C304.8,221.4,305,222.2,305.9,223z"/>
		<path class="st2" d="M312.4,221.9c-0.9,0.9,0.5,2.4,1.5,1.5C314.8,222.4,313.3,221,312.4,221.9z"/>
		<path class="st2" d="M315,217c-0.7,4.9,5.2,10.2,6.5,3.5C322.7,214.7,315,211.1,315,217z M317.1,217c0-4.4,5.3,4.9,1.2,4.9
			C316.4,221.9,317.2,217.8,317.1,217z"/>
		<path class="st2" d="M318.2,219.5C320.4,219.5,316,219.5,318.2,219.5z"/>
		<path class="st2" d="M325.8,223.7c4.7,0,4.7-9.9,0-9.9C321.1,213.9,321.3,223.7,325.8,223.7z M324.7,217c0-4.4,5.3,4.9,1.2,4.9
			C324,221.9,324.8,217.8,324.7,217z"/>
		<path class="st2" d="M325.8,219.5C328.1,219.5,323.6,219.5,325.8,219.5z"/>
		<path class="st2" d="M339.4,223.5c1.9,1,3.9-16.1-2.3-6.2c-7.2-11.6-3.3,17.4-2,0.5c1.2,3,2.5,3.3,3.9,0.1
			C339,218.3,338.6,223.1,339.4,223.5z"/>
		<path class="st2" d="M305.5,316c-0.3-3.9-2.7-5.4-6.4-4.9l0.2-2.8c11.8-1.8,0.3-3.6-0.4-2.8c-3,3.7-0.8,5.9-0.9,8.1
			c0,0.2,5-0.8,4.2,2c-0.4,1.5-3.2,3.8-3.7,1.1c-0.3-1.8-3.7-1.5-3.2,0.2C296.8,322.2,305.5,322.3,305.5,316z"/>
		<path class="st2" d="M311.7,314.2c1.3,0,1.3-2.1,0-2.1C310.4,312.1,310.4,314.2,311.7,314.2z"/>
		<path class="st2" d="M306.7,315.9c0,9.5,13.6,2.9,10.1-5.5C312.9,301,304.8,307.6,306.7,315.9z M309.9,310.4
			c0.6-0.7,1.2-1.4,1.8-2.1c2.9,0,2.9,9.7,0,9.7C309.2,318,309.7,311.5,309.9,310.4z"/>
		<path class="st2" d="M318.5,310.4c-1.7,7.9,6.4,15.2,10.1,5.5C332.1,306.8,318.5,301.3,318.5,310.4z M321.7,310.4
			c0.6-0.7,1.2-1.4,1.8-2.1c2.9,0,2.9,9.7,0,9.7C321,318,321.6,311.5,321.7,310.4z"/>
		<path class="st2" d="M323.5,314.2c1.3,0,1.3-2.1,0-2.1C322.2,312.1,322.2,314.2,323.5,314.2z"/>
		<path class="st2" d="M333.2,319.2c0-1.3-1.8-2.1-2.8-1.1C328.3,320.2,333.2,322.2,333.2,319.2z"/>
		<path class="st2" d="M339.5,314.2c1.3,0,1.3-2.1,0-2.1C338.1,312.1,338.2,314.2,339.5,314.2z"/>
		<path class="st2" d="M339.5,320.8c7.3,0,7.3-15.3,0-15.3C332.2,305.5,332.4,320.8,339.5,320.8z M337.7,310.4
			c0.6-0.7,1.2-1.4,1.8-2.1c2.9,0,2.9,9.7,0,9.7C336.9,318,337.5,311.5,337.7,310.4z"/>
		<path class="st2" d="M351.3,312.1c-1.3,0-1.3,2.1,0,2.1C352.6,314.2,352.6,312.1,351.3,312.1z"/>
		<path class="st2" d="M356.4,315.9c1.7-7.9-6.4-15.1-10.1-5.5C342.8,319.5,356.4,325,356.4,315.9z M353.1,315.9
			c-0.6,0.7-1.2,1.4-1.8,2.1c-2.8,0-2.8-9.7,0-9.7C353.9,308.3,353.3,314.7,353.1,315.9z"/>
		<path class="st2" d="M373.5,305.5c-2.2,0-4.1,3.5-4.7,5.4c-4.1-10-7.3-2.8-6.3,4.4c1.4,9.8,4.9,2.6,3.2-3.6
			c1.8,4.7,3.9,5.1,6.1,0.2C365.1,334.6,385.2,305.5,373.5,305.5z"/>
		<path class="st2" d="M296.4,297.5c7.3,4.1,11.5-2.4,9.8-8.5c-0.6-2.2-6.7-2.6-6.7-4.6c0,2.6,12.7-7.4,4.7-5.5
			c-19.5,4.5,0.4,8.2-0.7,14.3C303.2,294.4,288.6,293.1,296.4,297.5z"/>
		<path class="st2" d="M323,285.1c-0.5-4.4-7.6-9.1-11.8-6.3c-2.8,1.9-1.5,6.4-1.5,9.7c0,9.6,6,12.7,4.2,2.7
			C318.1,291.9,323,290.4,323,285.1z M318.9,285.4c0,2.6-3.3,3-5,2.7v-5.6C316.2,281.9,317.9,282.9,318.9,285.4z"/>
		<path class="st2" d="M335.7,298.5c5.1,0,0.5-7.3-0.8-8.5c7-2.7-5.3-20.1-10.1-4.8c-3.9,12.3,7.3,16.8,4.2,5.5h1.8
			C331.3,292.2,333.6,298.5,335.7,298.5z M333.4,286.8c-0.8,0.8-3.4,0.7-4.4,0.6v-5C331,282.1,336.8,283.7,333.4,286.8z"/>
		<path class="st2" d="M347.4,298c2-1.1,0.6-13.6,0.6-15.5c18.3-4-22.4-2.8-4.2,0C343.9,285,341.6,301.1,347.4,298z"/>
		<path class="st2" d="M360.7,282.4c4,0,2.1,3,6.5,1.7c-3.3,1-8.1-12.2-13.1,1c-0.7,1.9-0.5,7.6,0.9,9.4c7.9,10.4,10.8-1,10.9-6.5
			c0,1.2-10.3-0.5-2.9,3.2c0.2,1.6-0.6,2.8-2.4,3.6C357.1,294.8,357,282.4,360.7,282.4z"/>
		<path class="st2" d="M380.9,282.4c3.1,0-4.3-7-9.5-3.6c-3,2-3.2,11.5-1.8,14.8c5.3,12.6,19.2-3.3,4.2,1v-4.5
			c6.4-0.4,6.4-2.8,0-3.2v-4.5H380.9z"/>
		<path class="st2" d="M297.5,335.2c1.3,1,1.6-1.1,1.5-1.8c2.3-0.5,2.4-1,0-1.6c-0.5-2.5-1.1-2.5-1.7,0c-2.4,0.5-2.4,1,0,1.6
			C297,334,297.1,334.6,297.5,335.2z"/>
		<path class="st2" d="M301.8,333.5h3.1c0.7,2.7,1.4,2.7,2.1,0c1.5-0.6,1.5-1.2,0-1.8c-0.6-2.1-1.4-2.1-2.1,0h-1.1
			c0.4-0.8,2.4-3.8,2.4-5C306.2,323.4,299,333.5,301.8,333.5z"/>
		<path class="st2" d="M311.7,334c-0.5,0-3.2-3.3-3.2-0.7c0,4.5,13.1-0.5,2.4-3.8l0.1-1.8c7.9-2-1.7-2.9-1.9,0.5
			C309,330.1,314.1,334,311.7,334z"/>
		<path class="st2" d="M317.7,334.8c0-1.3-2.1-1.3-2.1,0C315.6,336.1,317.7,336.1,317.7,334.8z"/>
		<path class="st2" d="M321.7,335.8c4.7,0,4.7-9.9,0-9.9C317,326,317.2,335.8,321.7,335.8z M320.5,329.1c0-4.4,5.3,4.9,1.2,4.9
			C319.9,334,320.7,329.8,320.5,329.1z"/>
		<path class="st2" d="M321.7,331.5C323.9,331.5,319.5,331.5,321.7,331.5z"/>
		<path class="st2" d="M329.3,335.8c4.7,0,4.7-9.9,0-9.9C324.6,326,324.8,335.8,329.3,335.8z M328.2,329.1c0-4.4,5.3,4.9,1.2,4.9
			C327.5,334,328.3,329.8,328.2,329.1z"/>
		<path class="st2" d="M329.3,331.5C331.5,331.5,327.1,331.5,329.3,331.5z"/>
		<path class="st2" d="M338.3,335.5c0.7-0.4,0.3-5.3,0.3-5.6c1.2,3,2.5,3.3,3.9,0.1c1.4,16.6,5.2-12.2-2-0.7
			C333.9,319.9,336.9,336.3,338.3,335.5z"/>
		<path class="st2" d="M301.9,420.2c-2,2-3.9-3.1-6.5-0.7c-6.3,5.8,20.8,0.6,8.1-4.2c7-3.2-4.2-6.3-4.8-6.6
			c-6.4-3.3-0.3,8.2-0.1,4.2c0.1-2.3,2.3-2.2,3.4-0.4c0.9,1.4-2.5,1.9-2.5,3C299.4,416.9,304.4,417.7,301.9,420.2z"/>
		<path class="st2" d="M310.6,419.2c2.6-2.4,7.1-4.1,5.1-8.4c-3.8-8.1-10.2,3-7.4,3c0.2,0,5.4-5.4,4.9-1.4c-0.5,3.4-7.5,4.5-6.5,8.3
			c1.8,7.4,18-1.5,3.3-0.3C309.9,420,310.1,419.5,310.6,419.2z"/>
		<path class="st2" d="M320.6,421.8c0-1.3-1.8-2.1-2.8-1.1C315.7,422.8,320.6,424.8,320.6,421.8z"/>
		<path class="st2" d="M326.9,414.7c-1.3,0-1.3,2.1,0,2.1C328.2,416.8,328.2,414.7,326.9,414.7z"/>
		<path class="st2" d="M331.9,418.5c1.7-7.9-6.4-15.1-10.1-5.5C318.3,422.1,331.9,427.6,331.9,418.5z M328.7,418.5
			c-0.6,0.7-1.2,1.4-1.8,2.1c-2.8,0-2.8-9.7,0-9.7C329.4,410.9,328.8,417.3,328.7,418.5z"/>
		<path class="st2" d="M338.7,408.1c-7.3,0-7.3,15.3,0,15.3C346,423.4,345.8,408.1,338.7,408.1z M340.5,418.5
			c-0.6,0.7-1.2,1.4-1.8,2.1c-2.8,0-2.8-9.7,0-9.7C341.2,410.9,340.7,417.3,340.5,418.5z"/>
		<path class="st2" d="M338.7,414.7c-1.3,0-1.3,2.1,0,2.1C340,416.8,340,414.7,338.7,414.7z"/>
		<path class="st2" d="M360.8,408.1c-2.2,0-4.1,3.5-4.7,5.4c-4.1-10-7.3-2.8-6.3,4.4c1.4,9.8,4.9,2.6,3.2-3.6
			c1.8,4.7,3.9,5.1,6.1,0.2C352.5,437.2,372.6,408.1,360.8,408.1z"/>
		<path class="st2" d="M296.7,386.1c0,3.7-1.7,12.4,1.3,14.7c3.9,3,2.9-11.1,2.8-11.4c-1-5.2,1.3-5.4-2.6-7.8
			C298,381.4,290.5,385,296.7,386.1z"/>
		<path class="st2" d="M308.5,400.6c1.5-0.8,1.7-17.5,0-18.8c-2-1.5-9.8,3.3-3.6,4.3C304.9,388.4,302.7,403.7,308.5,400.6z"/>
		<path class="st2" d="M317.3,399.6c0-4.5,2-15.1-1.2-18.1c-0.8-0.8-9.6,3.6-3,4.5c0,2.3-1.3,11.6,0,12.9
			C313.3,399.1,317.3,403.3,317.3,399.6z"/>
		<path class="st2" d="M332.6,397.1c-2.7,1.5-4.1-1.9-5.9-1.5c-3.8,0.8-1.5,5.1,1.9,5c20.6-0.6,1-10.5,0.8-14.7
			c0.2,4,14.4-6.4,3.8-4.6C314.8,384.5,335.2,395.6,332.6,397.1z"/>
		<path class="st2" d="M350.9,385c3.1,0-4.3-7-9.5-3.6c-3,2-3.2,11.5-1.8,14.8c5.3,12.6,19.2-3.3,4.2,1v-4.5c6.4-0.4,6.4-2.8,0-3.2
			V385H350.9z"/>
		<path class="st2" d="M300.2,434.3h-1.3c-0.5-2.5-1.1-2.5-1.7,0c-2.4,0.5-2.4,1,0,1.6c0.5,2.5,1.1,2.5,1.7,0
			C300.2,436,301.6,434.3,300.2,434.3z"/>
		<path class="st2" d="M305,430.4c1.1,0,1.8,2.3,3,1.3c1.2-0.9-9.5-5-5.9,4.7c4.3,11.6,8.4-11,1.6-3.5
			C303.4,431.8,303.9,430.9,305,430.4z M304.9,433.9c1.6,0,1.6,2.9,0,2.9C303.4,436.8,303.2,433.9,304.9,433.9z"/>
		<path class="st2" d="M310,436.3c-1.4,0-1.3,2.1,0,2.1C311.3,438.4,311.3,436.3,310,436.3z"/>
		<path class="st2" d="M315,432.8C312.8,432.8,317.3,432.8,315,432.8z"/>
		<path class="st2" d="M315,428.5c-4.7,0-4.7,9.8,0,9.8C319.8,438.4,319.6,428.5,315,428.5z M316.2,435.2c0,4.4-5.3-4.9-1.2-4.9
			C316.9,430.4,316.1,434.4,316.2,435.2z"/>
		<path class="st2" d="M322.7,432.8C320.4,432.8,324.9,432.8,322.7,432.8z"/>
		<path class="st2" d="M322.6,428.5c-4.7,0-4.7,9.8,0,9.8C327.4,438.4,327.2,428.5,322.6,428.5z M323.8,435.2c0,4.4-5.3-4.9-1.2-4.9
			C324.5,430.4,323.7,434.4,323.8,435.2z"/>
		<path class="st2" d="M336.9,428.5c-1.4,0-2.6,2.3-3,3.4c-7.2-11.6-3.3,17.4-2,0.5c1.2,3,2.5,3.3,3.9,0.1
			C337.7,447.3,338.5,428.5,336.9,428.5z"/>
	</g>
	<g>
		<path class="st3" d="M420,323.6c-1.9,2-3,5.7-4.2,9c2.7-2,6-2,8.8,0C423.3,329.1,422.8,325,420,323.6z M420,329.5
			c0-0.3-1.4-0.8,0-3.1C421.4,328.7,420,329.2,420,329.5z"/>
		<path class="st3" d="M436.4,323.6c-0.4,1.7-1.3,3.5-1.8,5.2c-2-10.2-5.5-2.5-5.6,3.8c0.7,0,1.3,0,2,0c0.1-1.8,0.5-3.8,0.7-5.6
			c1.6,7,3.9,6.9,5.6,0c0.1,1.9,0.7,3.7,0.7,5.6c0.8,0,1.5,0,2.3,0C440.4,328.5,440.3,324,436.4,323.6z"/>
		<path class="st3" d="M412.5,323.6C420.7,324.5,409.3,342.1,412.5,323.6z"/>
		<path class="st3" d="M410.5,331.1c-2.9-2.7-2.6-5.2,0.6-7.6c-2.3,1.4-3,0.8-5.3,3.5c-3.1-13.5-1.2,16.4,0,1.3
			C407,329.9,413.7,335.1,410.5,331.1z"/>
		<path class="st3" d="M475.1,331.3c0-0.1-3.1-13.9-7.4-7.7c-4.6,6.7,5.6,14.5,2.5,1.3c0.5-0.1,1.1,0,1.6,0.2c2.1,1-0.5,2.9-1.4,2.9
			c1.2,3.3,3.1,4.2,6.1,4.5C475.8,332.3,475.4,331.9,475.1,331.3z"/>
		<path class="st3" d="M480.9,327.5c-1.3-0.2-2.1-0.8-2.4-1.9c0-2,3.1-0.6,3.5-0.5c0-0.5,0-0.9,0-1.4c-11.6-1.1-1.3,4.3-1.5,6.8
			c-0.1,2.4-4,0.3-4.4,0.2C478.9,334.6,485.3,332,480.9,327.5z"/>
		<path class="st3" d="M462,323.2c-5,0-6.6,6-2.9,8.9C465.4,337,471.2,323.2,462,323.2z M462,331.6c-6.2,0,0-6.9,0-7
			C462,324.7,468.2,331.6,462,331.6z"/>
		<path class="st3" d="M457.6,324.9c-1.3-1.7-4.2-2.2-7.6-1.3c0,0.4,0,0.9,0,1.3c4.5,0.9,0.9,7.7,3.8,7.7
			C457.6,332.5,451.9,324.9,457.6,324.9z"/>
		<path class="st3" d="M445.4,323.2c-8,0-4.8,13.2,3,8.8C452.8,329.6,449.6,323.2,445.4,323.2z M445.4,331.6c-6.2,0,0-6.9,0-7
			C445.4,324.7,451.6,331.6,445.4,331.6z"/>
		<path class="st3" d="M443.1,317c11.8,0,39.8-3.7,39.8-20.4c0-16.7-27.9-20.4-39.8-20.4c-11.9,0-37.4,3.3-39.5,18.8
			C401.2,312.8,431.4,317,443.1,317z M443.3,281c8.7,0,36.4,1.9,36.4,15.7c0,13.7-27.5,15.7-36.4,15.7c-9.2,0-34.3-1.6-36.1-14.2
			C405.2,283.2,434.1,281,443.3,281z"/>
		<path class="st3" d="M450.7,306.4c9.9,2.5,4.8-12.8,9.4-12.8c4.1,0,0,14.5,9.4,12.8c5.5,0-13.1-29.9-13.5-18.5
			C456.1,287.9,450.7,306.4,450.7,306.4z"/>
		<path class="st3" d="M439.7,287.9c1.6,2-0.9,25.8,6.6,17.7c1-1,0.8-17.7-0.2-18.6C443.8,285,439.9,287.9,439.7,287.9z"/>
		<path class="st3" d="M418.2,287.9c2.2,3.6-1.7,15,1,18.1c5.6,6.3,6.6-7.7,5.6-7.7c-2.7,0,12.3,13.5,12.3,7.7c0-3.4-6.8-6.5-7-9.9
			c-0.2-3,5.9-6,5.9-9c0-5.7-12.8,6.5-11.1,6.5c-0.6,0,0.1-6.6-0.6-6.9C421.9,285.8,418.2,287.9,418.2,287.9z"/>
	</g>
	<g>
		<path class="st3" d="M468.5,438.2c-1.8,3.1-3.6,6.3-5.4,9.4c-4.8-2.8-14.6-11.5-19.9-11.5c-5.1,0-15.3,8.9-19.9,11.5
			c-3.5-6-6.5-7-2.2-11.2c3.7-3.7,14.5-10.1,19.6-11.3C448.8,423,460.8,433.7,468.5,438.2z"/>
		<path class="st3" d="M434.1,379.4H423c0,5.6,2.7,18.6,0,23.2c-2.6,4.5-15.5,8.9-20.1,11.6c1,1.7,3.2,7.7,4.8,8.4
			c2.4,1,0.5,0.3,3.9-0.7c5.1-1.4,16.2-7.7,19.8-11.4C437.4,404.3,434.1,388.4,434.1,379.4z"/>
		<path class="st3" d="M451.8,378.6c3,0,9.5-1,11.1,0.8c2.5,2.9-0.8,14.8,0,18.7c1.1,4.9,0.7,4,5.9,7.1c4.7,2.7,9.5,5.5,14.2,8.2
			c-1,1.7-3.2,7.6-4.8,8.4c-2.4,1.1-0.6,0.3-3.9-0.7c-5-1.4-17-7.9-20.5-11.8C448.5,403.5,451.7,386.8,451.8,378.6z"/>
		<path class="st3" d="M443.2,377.5c8.1,3.9,5.5,9.2,5.5,18.1c0,7.3-1.7,12.6,3,17.2c5.6,5.3,19,6.9,23.1,13.3c4.3,6.7-3.2,9.4-8,8
			c-7.6-2.2-15-12.5-22.8-13.2c-5.1-0.4-13.6,6.9-18.3,9.6c-4.6,2.6-14.6,9.6-14.7-1c0-6.4,12.4-10.3,17.5-13.3
			c9.5-5.5,9.2-4.9,9.2-15.9c0-5-1.4-11.9,0-16.7C438.9,379.3,438.1,379.9,443.2,377.5z"/>
	</g>
	<g>
		<path class="st5" d="M133.5,445.6l-47.1,5.8c-11.5,0.8-22.4,2.1-32,4l-41.5,5.2v20.7c0,27.7,241.3,30.8,241.3-1.1v-20.7
			L133.5,445.6z"/>
		<path class="st6" d="M12.9,460.5c0,27.7,241.3,30.8,241.3-1.1S12.9,412.1,12.9,460.5z"/>
		<g>
			<path class="st7" d="M12.9,460.5c0,27.7,241.3,30.8,241.3-1.1S12.9,412.1,12.9,460.5z"/>
		</g>
		<path class="st8" d="M254.2,459.4l-2.1-0.2c-0.6,5.6-3.4,20.9-9.8,24c-3.8,1.9-5.4,1-8.2-0.6c-2.6-1.5-5.8-3.3-11.5-3.3
			c-7,0-9.1,3.2-10.9,6.1c-1.6,2.4-2.9,4.5-7.4,5.5c-5,1.1-6.4-0.3-8.4-2.2c-1.8-1.8-4-4-8.8-3.9c-4.1,0.1-6.2,1.9-8.4,3.8
			c-3.2,2.7-7.2,6.1-20.1,6.7c-11.8,0.5-14.5-1.2-17.7-3.1c-2.8-1.7-5.9-3.7-14.2-4.6c-9.2-1-14,0.8-18.7,2.6
			c-4.7,1.8-9.5,3.7-19.8,2.9c-10.8-0.8-13.8-2.8-17.6-5.4c-3.5-2.3-7.4-5-17.3-7.3c-12.1-2.8-17.1-1.3-21.1-0.1
			c-2.9,0.9-4.8,1.5-9,0.1c-9.3-3-8.5-11.8-8.5-12.2l-1.8-0.2v9.1c1.7,2.9,4.5,5.6,9.1,7.1c5.4,1.8,8.4,0.9,11.4-0.1
			c3.7-1.1,7.9-2.4,19,0.1c9.2,2.1,12.8,4.6,16,6.7c4.1,2.8,7.7,5.2,19.5,6c11.1,0.8,16.6-1.3,21.5-3.2c4.6-1.8,8.5-3.3,16.8-2.3
			c7.4,0.8,10,2.5,12.5,4c3.1,2,6.1,3.8,15.8,3.8c1.3,0,2.7,0,4.2-0.1c14.3-0.6,19-4.7,22.5-7.6c2-1.7,3.3-2.8,6-2.9
			c3.1-0.1,4.2,1.1,5.9,2.7c2.2,2.2,4.9,4.9,12.1,3.3c6.1-1.4,8.2-4.6,9.9-7.2c1.7-2.6,2.8-4.3,7.6-4.3c4.6,0,7.1,1.4,9.5,2.8
			c3,1.7,6.2,3.5,11.9,0.8c5.4-2.6,8.5-10.4,10.2-17V459.4z"/>
		<path class="st9" d="M153,430.8L153,430.8c40.2,7.7,14,50.9-45.5,50.9c67.6,2.7,146.7-4.1,146.7-22.3
			C254.2,445.2,206.2,434.3,153,430.8z"/>
		<path class="st7" d="M117.6,432.6c32.4,0,66,3,92,8.3c30.5,6.2,41.4,13.6,41.4,18.4c0,2-2.5,8.9-34.1,14.3
			c-20.8,3.6-49.4,5.5-80.6,5.5c-31.2,0-62-2-84.3-5.6c-35.3-5.6-36.3-12.4-36.3-13.2C15.7,443.6,55.7,432.6,117.6,432.6
			 M117.6,429.6c-54.6,0-104.9,8.8-104.9,30.9c0,14.1,62.3,21.8,123.6,21.8c59.3,0,117.6-7.2,117.6-22.9
			C254,442.1,182.7,429.6,117.6,429.6L117.6,429.6z"/>
	</g>
	<g>
		<path class="st5" d="M143.5,419l-47.1,5.8c-11.5,0.8-22.4,2.1-32,4L22.9,434v20.7c0,27.7,241.3,30.8,241.3-1.1v-20.7L143.5,419z"
			/>
		<path class="st6" d="M22.9,434c0,27.7,241.3,30.8,241.3-1.1S22.9,385.6,22.9,434z"/>
		<g>
			<path class="st7" d="M22.9,434c0,27.7,241.3,30.8,241.3-1.1S22.9,385.6,22.9,434z"/>
		</g>
		<path class="st8" d="M264.2,432.9l-2.1-0.2c-0.6,5.6-3.4,20.9-9.8,24c-3.8,1.9-5.4,1-8.2-0.6c-2.6-1.5-5.8-3.3-11.5-3.3
			c-7,0-9.1,3.2-10.9,6.1c-1.6,2.4-2.9,4.5-7.4,5.5c-5,1.1-6.4-0.3-8.4-2.2c-1.8-1.8-4-4-8.8-3.9c-4.1,0.1-6.2,1.9-8.4,3.8
			c-3.2,2.7-7.2,6.1-20.1,6.7c-11.8,0.5-14.5-1.2-17.7-3.1c-2.8-1.7-5.9-3.7-14.2-4.6c-9.2-1-14,0.8-18.7,2.6
			c-4.7,1.8-9.5,3.7-19.8,2.9c-10.8-0.8-13.8-2.8-17.6-5.4c-3.5-2.3-7.4-5-17.3-7.3c-12.1-2.8-17.1-1.3-21.1-0.1
			c-2.9,0.9-4.8,1.5-9,0.1c-9.3-3-8.5-11.8-8.5-12.2l-1.8-0.2v9.1c1.7,2.9,4.5,5.6,9.1,7.1c5.4,1.8,8.4,0.9,11.4-0.1
			c3.7-1.1,7.9-2.4,19,0.1c9.2,2.1,12.8,4.6,16,6.7c4.1,2.8,7.7,5.2,19.5,6c11.1,0.8,16.6-1.3,21.5-3.2c4.6-1.8,8.5-3.3,16.8-2.3
			c7.4,0.8,10,2.5,12.5,4c3.1,2,6.1,3.8,15.8,3.8c1.3,0,2.7,0,4.2-0.1c14.3-0.6,19-4.7,22.5-7.6c2-1.7,3.3-2.8,6-2.9
			c3.1-0.1,4.2,1.1,5.9,2.7c2.2,2.2,4.9,4.9,12.1,3.3c6.1-1.4,8.2-4.6,9.9-7.2c1.7-2.6,2.8-4.3,7.6-4.3c4.6,0,7.1,1.4,9.5,2.8
			c3,1.7,6.2,3.5,11.9,0.8c5.4-2.6,8.5-10.4,10.2-17V432.9z"/>
		<path class="st9" d="M163,404.3L163,404.3c40.2,7.7,14,50.9-45.5,50.9c67.6,2.7,146.7-4.1,146.7-22.3
			C264.2,418.7,216.2,407.8,163,404.3z"/>
		<path class="st7" d="M127.6,406.1c32.4,0,66,3,92,8.3c30.5,6.2,41.4,13.6,41.4,18.4c0,2-2.5,8.9-34.1,14.3
			c-20.8,3.6-49.4,5.5-80.6,5.5c-31.2,0-62-2-84.3-5.6c-35.3-5.6-36.3-12.4-36.3-13.2C25.7,417.1,65.7,406.1,127.6,406.1
			 M127.6,403.1c-54.6,0-104.9,8.8-104.9,30.9c0,14.1,62.3,21.8,123.6,21.8c59.3,0,117.6-7.2,117.6-22.9
			C264,415.6,192.7,403.1,127.6,403.1L127.6,403.1z"/>
	</g>
	<g>
		<path class="st5" d="M153.5,391.2l-47.1,5.8c-11.5,0.8-22.4,2.1-32,4l-41.5,5.2v20.7c0,27.7,241.3,30.8,241.3-1.1v-20.7
			L153.5,391.2z"/>
		<path class="st6" d="M32.9,406.1c0,27.7,241.3,30.8,241.3-1.1S32.9,357.8,32.9,406.1z"/>
		<g>
			<path class="st7" d="M32.9,406.1c0,27.7,241.3,30.8,241.3-1.1S32.9,357.8,32.9,406.1z"/>
		</g>
		<path class="st8" d="M274.2,405.1l-2.1-0.2c-0.6,5.6-3.4,20.9-9.8,24c-3.8,1.9-5.4,1-8.2-0.6c-2.6-1.5-5.8-3.3-11.5-3.3
			c-7,0-9.1,3.2-10.9,6.1c-1.6,2.4-2.9,4.5-7.4,5.5c-5,1.1-6.4-0.3-8.4-2.2c-1.8-1.8-4-4-8.8-3.9c-4.1,0.1-6.2,1.9-8.4,3.8
			c-3.2,2.7-7.2,6.1-20.1,6.7c-11.8,0.5-14.5-1.2-17.7-3.1c-2.8-1.7-5.9-3.7-14.2-4.6c-9.2-1-14,0.8-18.7,2.6
			c-4.7,1.8-9.5,3.7-19.8,2.9c-10.8-0.8-13.8-2.8-17.6-5.4c-3.5-2.3-7.4-5-17.3-7.3c-12.1-2.8-17.1-1.3-21.1-0.1
			c-2.9,0.9-4.8,1.5-9,0.1c-9.3-3-8.5-11.8-8.5-12.2l-1.8-0.2v9.1c1.7,2.9,4.5,5.6,9.1,7.1c5.4,1.8,8.4,0.9,11.4-0.1
			c3.7-1.1,7.9-2.4,19,0.1c9.2,2.1,12.8,4.6,16,6.7c4.1,2.8,7.7,5.2,19.5,6c11.1,0.8,16.6-1.3,21.5-3.2c4.6-1.8,8.5-3.3,16.8-2.3
			c7.4,0.8,10,2.5,12.5,4c3.1,2,6.1,3.8,15.8,3.8c1.3,0,2.7,0,4.2-0.1c14.3-0.6,19-4.7,22.5-7.6c2-1.7,3.3-2.8,6-2.9
			c3.1-0.1,4.2,1.1,5.9,2.7c2.2,2.2,4.9,4.9,12.1,3.3c6.1-1.4,8.2-4.6,9.9-7.2c1.7-2.6,2.8-4.3,7.6-4.3c4.6,0,7.1,1.4,9.5,2.8
			c3,1.7,6.2,3.5,11.9,0.8c5.4-2.6,8.5-10.4,10.2-17V405.1z"/>
		<path class="st9" d="M173,376.4L173,376.4c40.2,7.7,14,50.9-45.5,50.9c67.6,2.7,146.7-4.1,146.7-22.3
			C274.2,390.9,226.2,379.9,173,376.4z"/>
		<path class="st7" d="M137.6,378.3c32.4,0,66,3,92,8.3c30.5,6.2,41.4,13.6,41.4,18.4c0,2-2.5,8.9-34.1,14.3
			c-20.8,3.6-49.4,5.5-80.6,5.5c-31.2,0-62-2-84.3-5.6c-35.3-5.6-36.3-12.4-36.3-13.2C35.7,389.2,75.7,378.3,137.6,378.3
			 M137.6,375.3c-54.6,0-104.9,8.8-104.9,30.9c0,14.1,62.3,21.8,123.6,21.8c59.3,0,117.6-7.2,117.6-22.9
			C274,387.7,202.7,375.3,137.6,375.3L137.6,375.3z"/>
	</g>
	<g>
		<path class="st5" d="M133.5,367l-47.1,5.8c-11.5,0.8-22.4,2.1-32,4l-41.5,5.2v20.7c0,27.7,241.3,30.8,241.3-1.1v-20.7L133.5,367z"
			/>
		<path class="st6" d="M12.9,381.9c0,27.7,241.3,30.8,241.3-1.1S12.9,333.5,12.9,381.9z"/>
		<g>
			<path class="st7" d="M12.9,381.9c0,27.7,241.3,30.8,241.3-1.1S12.9,333.5,12.9,381.9z"/>
		</g>
		<path class="st8" d="M254.2,380.8l-2.1-0.2c-0.6,5.6-3.4,20.9-9.8,24c-3.8,1.9-5.4,1-8.2-0.6c-2.6-1.5-5.8-3.3-11.5-3.3
			c-7,0-9.1,3.2-10.9,6.1c-1.6,2.4-2.9,4.5-7.4,5.5c-5,1.1-6.4-0.3-8.4-2.2c-1.8-1.8-4-4-8.8-3.9c-4.1,0.1-6.2,1.9-8.4,3.8
			c-3.2,2.7-7.2,6.1-20.1,6.7c-11.8,0.5-14.5-1.2-17.7-3.1c-2.8-1.7-5.9-3.7-14.2-4.6c-9.2-1-14,0.8-18.7,2.6
			c-4.7,1.8-9.5,3.7-19.8,2.9c-10.8-0.8-13.8-2.8-17.6-5.4c-3.5-2.3-7.4-5-17.3-7.3c-12.1-2.8-17.1-1.3-21.1-0.1
			c-2.9,0.9-4.8,1.5-9,0.1c-9.3-3-8.5-11.8-8.5-12.2l-1.8-0.2v9.1c1.7,2.9,4.5,5.6,9.1,7.1c5.4,1.8,8.4,0.9,11.4-0.1
			c3.7-1.1,7.9-2.4,19,0.1c9.2,2.1,12.8,4.6,16,6.7c4.1,2.8,7.7,5.2,19.5,6c11.1,0.8,16.6-1.3,21.5-3.2c4.6-1.8,8.5-3.3,16.8-2.3
			c7.4,0.8,10,2.5,12.5,4c3.1,2,6.1,3.8,15.8,3.8c1.3,0,2.7,0,4.2-0.1c14.3-0.6,19-4.7,22.5-7.6c2-1.7,3.3-2.8,6-2.9
			c3.1-0.1,4.2,1.1,5.9,2.7c2.2,2.2,4.9,4.9,12.1,3.3c6.1-1.4,8.2-4.6,9.9-7.2c1.7-2.6,2.8-4.3,7.6-4.3c4.6,0,7.1,1.4,9.5,2.8
			c3,1.7,6.2,3.5,11.9,0.8c5.4-2.6,8.5-10.4,10.2-17V380.8z"/>
		<path class="st9" d="M153,352.2L153,352.2c40.2,7.7,14,50.9-45.5,50.9c67.6,2.7,146.7-4.1,146.7-22.3
			C254.2,366.6,206.2,355.7,153,352.2z"/>
		<path class="st7" d="M117.6,354.1c32.4,0,66,3,92,8.3c30.5,6.2,41.4,13.6,41.4,18.4c0,2-2.5,8.9-34.1,14.3
			c-20.8,3.6-49.4,5.5-80.6,5.5c-31.2,0-62-2-84.3-5.6c-35.3-5.6-36.3-12.4-36.3-13.2C15.7,365,55.7,354.1,117.6,354.1 M117.6,351.1
			c-54.6,0-104.9,8.8-104.9,30.9c0,14.1,62.3,21.8,123.6,21.8c59.3,0,117.6-7.2,117.6-22.9C254,363.5,182.7,351.1,117.6,351.1
			L117.6,351.1z"/>
	</g>
	<g>
		<path class="st5" d="M153.5,341.3l-47.1,5.8c-11.5,0.8-22.4,2.1-32,4l-41.5,5.2v20.7c0,27.7,241.3,30.8,241.3-1.1v-20.7
			L153.5,341.3z"/>
		<path class="st6" d="M32.9,356.3c0,27.7,241.3,30.8,241.3-1.1S32.9,307.9,32.9,356.3z"/>
		<g>
			<path class="st7" d="M32.9,356.3c0,27.7,241.3,30.8,241.3-1.1S32.9,307.9,32.9,356.3z"/>
		</g>
		<path class="st8" d="M274.2,355.2L272,355c-0.6,5.6-3.4,20.9-9.8,24c-3.8,1.9-5.4,1-8.2-0.6c-2.6-1.5-5.8-3.3-11.5-3.3
			c-7,0-9.1,3.2-10.9,6.1c-1.6,2.4-2.9,4.5-7.4,5.5c-5,1.1-6.4-0.3-8.4-2.2c-1.8-1.8-4-4-8.8-3.9c-4.1,0.1-6.2,1.9-8.4,3.8
			c-3.2,2.7-7.2,6.1-20.1,6.7c-11.8,0.5-14.5-1.2-17.7-3.1c-2.8-1.7-5.9-3.7-14.2-4.6c-9.2-1-14,0.8-18.7,2.6
			c-4.7,1.8-9.5,3.7-19.8,2.9c-10.8-0.8-13.8-2.8-17.6-5.4c-3.5-2.3-7.4-5-17.3-7.3c-12.1-2.8-17.1-1.3-21.1-0.1
			c-2.9,0.9-4.8,1.5-9,0.1c-9.3-3-8.5-11.8-8.5-12.2l-1.8-0.2v9.1c1.7,2.9,4.5,5.6,9.1,7.1c5.4,1.8,8.4,0.9,11.4-0.1
			c3.7-1.1,7.9-2.4,19,0.1c9.2,2.1,12.8,4.6,16,6.7c4.1,2.8,7.7,5.2,19.5,6c11.1,0.8,16.6-1.3,21.5-3.2c4.6-1.8,8.5-3.3,16.8-2.3
			c7.4,0.8,10,2.5,12.5,4c3.1,2,6.1,3.8,15.8,3.8c1.3,0,2.7,0,4.2-0.1c14.3-0.6,19-4.7,22.5-7.6c2-1.7,3.3-2.8,6-2.9
			c3.1-0.1,4.2,1.1,5.9,2.7c2.2,2.2,4.9,4.9,12.1,3.3c6.1-1.4,8.2-4.6,9.9-7.2c1.7-2.6,2.8-4.3,7.6-4.3c4.6,0,7.1,1.4,9.5,2.8
			c3,1.7,6.2,3.5,11.9,0.8c5.4-2.6,8.5-10.4,10.2-17V355.2z"/>
		<path class="st9" d="M173,326.6L173,326.6c40.2,7.7,14,50.9-45.5,50.9c67.6,2.7,146.7-4.1,146.7-22.3
			C274.2,341,226.2,330,173,326.6z"/>
		<path class="st7" d="M137.6,328.4c32.4,0,66,3,92,8.3c30.5,6.2,41.4,13.6,41.4,18.4c0,2-2.5,8.9-34.1,14.3
			c-20.8,3.6-49.4,5.5-80.6,5.5c-31.2,0-62-2-84.3-5.6c-35.3-5.6-36.3-12.4-36.3-13.2C35.7,339.3,75.7,328.4,137.6,328.4
			 M137.6,325.4c-54.6,0-104.9,8.8-104.9,30.9c0,14.1,62.3,21.8,123.6,21.8c59.3,0,117.6-7.2,117.6-22.9
			C274,337.9,202.7,325.4,137.6,325.4L137.6,325.4z"/>
	</g>
</g>
</svg>
