<?xml version="1.0" encoding="utf-8"?>
<!-- Generator: Adobe Illustrator 22.0.1, SVG Export Plug-In . SVG Version: 6.00 Build 0)  -->
<svg version="1.1" id="Layer_4" xmlns="http://www.w3.org/2000/svg" xmlns:xlink="http://www.w3.org/1999/xlink" x="0px" y="0px"
	 viewBox="0 0 512 512" style="enable-background:new 0 0 512 512;" xml:space="preserve">
<style type="text/css">
	.st0{opacity:0.3;fill:#0077FF;}
	.st1{opacity:0.6;fill:#0077FF;}
	.st2{opacity:0.4;fill:#0077FF;enable-background:new    ;}
	.st3{fill:#0050B9;}
	.st4{fill:#D3E1FF;}
	.st5{fill:#222222;}
	.st6{fill:#222222;stroke:#000000;stroke-width:6;stroke-miterlimit:10;}
	.st7{fill:#B8D8FF;}
	.st8{fill:#FFFFFF;}
	.st9{fill:#002D00;}
	.st10{opacity:0.1;fill:#69BE8A;enable-background:new    ;}
	.st11{fill:#CB7E2B;}
	.st12{fill:#FFFFFF;stroke:#545F00;stroke-width:3;stroke-linecap:round;stroke-miterlimit:10;}
	.st13{opacity:0.2;fill:#0077FF;enable-background:new    ;}
	.st14{fill:#B41A22;}
	.st15{fill:#FF1A22;}
	.st16{fill:#00598A;}
	.st17{fill:#FFFC35;}
	.st18{opacity:0.8;fill:#FFFFFF;enable-background:new    ;}
	.st19{fill:#FFC935;}
	.st20{opacity:0.1;fill:#FFFC35;enable-background:new    ;}
	.st21{fill:#FF8422;}
	.st22{fill:#DC0022;}
	.st23{fill:#E0E0E0;}
	.st24{opacity:0.8;fill:#F0F0F0;enable-background:new    ;}
	.st25{fill:#FFAA38;}
	.st26{opacity:0.3;fill:#FFFFFF;enable-background:new    ;}
</style>
<path class="st0" d="M468.9,380c0,0,43.4-187.9,20.1-302.9c-23.3-115-218.2-58.4-260.4-61.7S26.9-18.5,15.6,121.9
	s32.7,274.8,32.7,274.8L468.9,380z"/>
<path class="st1" d="M57.6,394.2c0,0-47.3-200.4-14.7-279.1S174.6,87,237.1,67.7s195.1-34.8,220.8,32.1s-1.6,302-1.6,302L57.6,394.2
	z"/>
<path class="st0" d="M59.3,367.9c0,0-15.6-128.5,18.4-202.9s327.2-101.1,357,6.1c29.7,107.2,2.8,225.6,2.8,225.6L59.3,367.9z"/>
<path class="st2" d="M72.5,371.2c0,0,3.5-139.1,44.4-194.2s246.6-45.8,286.4-8.6S433.7,406,433.7,406L72.5,371.2z"/>
<g>
	<path class="st3" d="M332.8,179.2c0.7-0.9,1-1.9,1-3.1s-0.4-2.2-1.1-3.1c0.6-0.9,0.9-2,0.9-3.2c-0.1-1.2-0.5-2.2-1.3-3
		c0.6-0.9,0.8-2,0.7-3.2c-0.2-1.2-0.7-2.2-1.5-3c0.5-1,0.7-2.1,0.5-3.3c-0.2-1.2-0.8-2.2-1.7-2.9c0.4-1,0.6-2.2,0.2-3.3
		c-0.3-1.2-1-2.1-2-2.8c0.4-1.1,0.4-2.3-0.1-3.4c-0.4-1.1-1.3-2-2.3-2.6c0.2-1.1,0.1-2.3-0.5-3.4c-0.6-1.1-1.6-1.9-2.7-2.3
		c0.1-1.2-0.3-2.4-1-3.4c-0.8-1-1.9-1.6-3-1.9c-0.1-1.2-0.7-2.3-1.7-3.2s-2.2-1.3-3.4-1.3c-0.4-1.1-1.2-2.2-2.3-2.8
		c-1.1-0.6-2.4-0.8-3.6-0.5c-0.6-1-1.5-1.9-2.8-2.3c-1.2-0.4-2.4-0.3-3.5,0.1c-0.7-0.9-1.8-1.6-3-1.8c-1.3-0.2-2.5,0.1-3.5,0.7
		c-0.9-0.8-2.1-1.3-3.4-1.3s-2.4,0.5-3.3,1.3c-1-0.6-2.3-0.9-3.5-0.6c-1.3,0.3-2.3,1-3,1.9c-1.1-0.4-2.4-0.4-3.6,0.1l0,0
		c-1.2,0.5-2.1,1.4-2.6,2.5c-1.2-0.2-2.4,0-3.5,0.8c-1.1,0.7-1.8,1.8-2.1,2.9c-1.2,0-2.4,0.5-3.3,1.4c-0.9,0.9-1.4,2-1.5,3.2
		c-1.2,0.2-2.2,0.9-3,1.9s-1.1,2.3-0.9,3.4c-1.1,0.5-2,1.3-2.6,2.4l0,0c-0.6,1.1-0.6,2.4-0.3,3.5c-1,0.6-1.8,1.6-2.1,2.8
		c-0.3,1.2-0.2,2.5,0.3,3.6c-0.9,0.8-1.5,1.9-1.6,3.2c-0.1,1.3,0.2,2.5,0.9,3.4c-0.7,0.9-1.1,2.1-1,3.4s0.7,2.4,1.5,3.2
		c-0.6,1.1-0.7,2.3-0.4,3.5c0.3,1.2,1,2.1,1.9,2.8c-0.3,0.9-0.4,2-0.1,3s0.8,1.8,1.5,2.4c-0.4,0.9-0.6,1.8-0.4,2.8s0.6,1.9,1.2,2.6
		c-0.5,0.8-0.8,1.8-0.7,2.8c0,1,0.4,1.9,0.9,2.7c-0.6,0.7-1,1.6-1.1,2.6s0.1,2,0.5,2.8c-0.7,0.6-1.2,1.5-1.4,2.4l0,0
		c-0.2,1-0.2,1.9,0.1,2.8c-0.8,0.5-1.4,1.3-1.7,2.2c-0.4,0.9-0.4,1.9-0.3,2.8c-0.8,0.4-1.5,1-2,1.9c-0.5,0.8-0.7,1.7-0.7,2.6
		c-0.9,0.3-1.7,0.8-2.3,1.5s-1,1.6-1.2,2.4c-0.9,0.1-1.8,0.4-2.5,1c-0.8,0.6-1.3,1.4-1.6,2.2c-0.9-0.1-1.8,0.1-2.7,0.6
		s-1.5,1.1-2,1.9c-0.9-0.2-1.8-0.2-2.8,0.1c-0.9,0.3-1.7,0.9-2.3,1.6c-0.9-0.4-1.8-0.5-2.8-0.3s-1.9,0.6-2.5,1.3
		c-0.8-0.5-1.8-0.7-2.8-0.7s-2,0.4-2.7,1c-0.8-0.6-1.7-0.9-2.7-1c-0.9-0.1-1.7,0.1-2.4,0.5c-0.5-0.6-1.1-1-1.8-1.3
		c-0.4-0.2-0.8-0.3-1.3-0.3c-0.1-0.3-0.2-0.6-0.3-0.9c-0.2-0.5-0.5-0.9-0.8-1.3c0.4-0.6,0.6-1.2,0.7-1.9c0.1-0.9,0-1.8-0.3-2.6
		c0.7-0.6,1.3-1.3,1.6-2.3s0.4-2,0.1-2.9c0.8-0.5,1.6-1.3,2-2.3s0.5-2.1,0.3-3.1c0.9-0.5,1.7-1.3,2.1-2.2c0.5-1,0.6-2.1,0.4-3.1
		c0.9-0.5,1.7-1.3,2.2-2.3s0.6-2.1,0.4-3.2c0.9-0.5,1.7-1.3,2.2-2.3s0.6-2.2,0.4-3.2c0.9-0.5,1.7-1.3,2.2-2.4
		c0.5-1.1,0.5-2.2,0.2-3.3c0.9-0.6,1.7-1.4,2.1-2.6c0.4-1.1,0.4-2.3,0-3.3c0.9-0.6,1.6-1.6,1.9-2.8c0.3-1.2,0.2-2.4-0.3-3.4
		c0.9-0.8,1.5-1.8,1.6-3.1c0.2-1.3-0.2-2.5-0.8-3.5c0.8-0.9,1.2-2.2,1.1-3.5c-0.1-1.4-0.7-2.6-1.7-3.4c0.5-1.2,0.6-2.6,0.1-3.9
		s-1.5-2.3-2.7-2.8c0.1-1.3-0.2-2.7-1.1-3.7c-0.8-1-2-1.6-3.2-1.8c-0.2-1.2-0.8-2.3-1.8-3.1l0,0c-1-0.8-2.2-1.2-3.4-1.1
		c-0.4-1.1-1.2-2.1-2.4-2.7c-1.1-0.6-2.4-0.7-3.6-0.4c-0.6-1-1.6-1.8-2.8-2.2c-1.2-0.4-2.5-0.3-3.6,0.2c-0.8-0.9-1.9-1.5-3.1-1.7
		c-1.3-0.2-2.5,0.1-3.4,0.8c-0.9-0.8-2.1-1.2-3.3-1.2c-1.3,0-2.4,0.5-3.3,1.3c-1-0.6-2.2-0.9-3.4-0.6c-1.2,0.2-2.3,0.9-3,1.8
		c-1.1-0.5-2.3-0.5-3.5-0.1c-1.2,0.4-2.1,1.2-2.7,2.2c-1.1-0.3-2.4-0.2-3.5,0.4c-1.1,0.5-1.9,1.5-2.4,2.5c-1.2-0.1-2.4,0.1-3.4,0.9
		c-1,0.7-1.7,1.8-2,2.9c-1.2,0.1-2.3,0.5-3.3,1.4c-0.9,0.9-1.4,2-1.5,3.2c-1.2,0.3-2.2,0.9-3,2c-0.8,1.1-1,2.3-0.9,3.5
		c-1.1,0.5-2,1.4-2.6,2.6c-0.5,1.2-0.6,2.5-0.2,3.6c-1,0.7-1.7,1.8-2,3c-0.3,1.3,0,2.5,0.6,3.6c-0.8,0.9-1.3,2.1-1.3,3.4
		s0.5,2.5,1.3,3.4c-0.6,1-0.8,2.2-0.6,3.4c0.2,1.2,0.8,2.1,1.6,2.9c-0.5,1-0.6,2.1-0.4,3.2c0.2,1.1,0.8,2.1,1.6,2.8
		c-0.4,1-0.6,2.1-0.3,3.2c0.3,1.1,0.9,2,1.7,2.7c-0.4,1-0.5,2.1-0.2,3.2c0.3,1.1,0.9,2,1.7,2.7c-0.4,1-0.5,2.1-0.2,3.2
		c0.3,1.1,0.9,2,1.8,2.7c-0.4,1-0.5,2.1-0.2,3.2c0.3,1.1,0.9,2,1.8,2.6c-0.4,1-0.5,2.1-0.1,3.2c0.3,1.1,0.9,2,1.8,2.6
		c-0.4,1-0.4,2.1-0.1,3.2c0.3,1.1,1,2,1.8,2.6c-0.4,1-0.4,2.1-0.1,3.2c0.3,1.1,1,2,1.8,2.6c-0.4,1-0.4,2.1-0.1,3.2
		c0.3,1.1,1,2,1.8,2.6c-0.4,1-0.4,2.1-0.1,3.2c0.3,1.1,1,2,1.8,2.6c-0.4,1-0.4,2.1-0.1,3.2c0.3,1.1,1,2,1.8,2.6
		c-0.4,1-0.4,2.1-0.1,3.2c0.3,1.1,1,2,1.9,2.6c-0.4,1-0.4,2.1-0.1,3.2c0.3,1.1,1,2,1.9,2.6c-0.4,1-0.4,2.1,0,3.2
		c0.3,1.1,1,1.9,1.9,2.6c-0.3,1-0.4,2.1,0,3.2c0.3,1.1,1,2,1.9,2.5c-0.4,1-0.4,2.1,0,3.2c0.4,1.1,1,2,1.9,2.5c-0.3,1-0.4,2.1,0,3.2
		s1,2,1.9,2.6c-0.3,1-0.4,2.1,0,3.2c0.4,1.1,1,1.9,1.9,2.5c-0.3,1-0.4,2.1,0,3.2s1,1.9,1.9,2.5c-0.3,1-0.4,2.1,0,3.2
		c0.4,1.1,1,1.9,1.9,2.5c-0.3,1-0.4,2.1,0,3.2s1,1.9,1.9,2.5c-0.2,0.5-0.3,1-0.3,1.5c0,0.3,0,0.7,0.1,1c0.1,0.3,0.2,0.6,0.3,0.9
		s0.3,0.6,0.5,0.9s0.4,0.5,0.6,0.8c0.9,0.9,2.2,1.5,3.5,1.5c0.3,0,0.6,0,1-0.1c0.3-0.1,0.6-0.2,0.9-0.3c0.3-0.1,0.6-0.3,0.9-0.5
		c0.3-0.2,0.5-0.4,0.8-0.6c0.2-0.2,0.4-0.5,0.6-0.8c0.2-0.3,0.3-0.6,0.5-0.9c0.1-0.3,0.2-0.6,0.3-0.9s0.1-0.7,0.1-1
		c0-1.3-0.5-2.6-1.5-3.5c-0.2-0.2-0.4-0.4-0.6-0.5c0.3-1,0.3-2,0-3.1c-0.4-1.1-1-1.9-1.9-2.5c0.3-1,0.4-2.1,0-3.2
		c-0.4-1.1-1-1.9-1.9-2.5c0.3-1,0.4-2.1,0-3.1c-0.4-1.1-1-1.9-1.9-2.5c0.3-1,0.4-2.1,0-3.2s-1-1.9-1.9-2.5c0.3-1,0.4-2.1,0-3.2
		c-0.3-1.1-1-1.9-1.9-2.5c0.3-1,0.4-2.1,0-3.1l0,0c-0.3-1.1-1-1.9-1.9-2.5c0.3-1,0.4-2.1,0-3.2s-1-1.9-1.9-2.5c0.3-1,0.4-2.1,0-3.2
		c-0.3-1.1-1-1.9-1.9-2.5c0.4-1,0.4-2.1,0.1-3.2c-0.3-1.1-1-1.9-1.8-2.6c0.3-1,0.4-2.1,0.1-3.2c-0.3-1.1-1-1.9-1.8-2.6
		c0.4-1,0.4-2.1,0.1-3.1c-0.3-1.1-1-2-1.8-2.6c0.4-1,0.4-2.1,0.1-3.1c-0.3-1.1-1-2-1.8-2.6c0.4-1,0.4-2.1,0.1-3.1
		c-0.3-1.1-1-2-1.8-2.6c0.4-1,0.4-2.1,0.1-3.1l0,0c-0.3-1.1-1-2-1.8-2.6c0.4-1,0.4-2.1,0.1-3.1c-0.3-1.1-0.9-2-1.8-2.6
		c0.4-1,0.4-2.1,0.1-3.1c-0.3-1.1-0.9-2-1.8-2.6c0.4-1,0.5-2.1,0.2-3.1c-0.3-1.1-0.9-2-1.7-2.6c0.4-1,0.5-2.1,0.2-3.1
		c-0.3-1.1-0.9-2-1.7-2.6c0.4-1,0.5-2,0.2-3.1s-0.9-2-1.7-2.6c0.4-1,0.5-2,0.3-3.1l0,0c-0.3-1.1-0.8-2-1.6-2.6
		c0.4-0.9,0.6-2,0.3-3.1c-0.2-1.1-0.8-2-1.5-2.7c0.4-0.9,0.6-2,0.4-3c-0.2-1-0.6-1.8-1.2-2.5c0.4-0.8,0.7-1.6,0.7-2.6
		c0-0.9-0.3-1.8-0.7-2.6c0.6-0.6,1-1.4,1.2-2.4c0.2-0.9,0.1-1.8-0.2-2.6c0.7-0.5,1.3-1.2,1.7-2c0.4-0.9,0.5-1.8,0.4-2.6
		c0.8-0.3,1.5-0.9,2.1-1.7c0.6-0.8,0.9-1.7,0.9-2.5c0.9-0.2,1.7-0.6,2.4-1.3s1.1-1.5,1.4-2.4c0.9,0,1.8-0.3,2.6-0.9
		c0.8-0.6,1.4-1.3,1.8-2.2c0.9,0.1,1.9,0,2.8-0.5c0.9-0.4,1.6-1.1,2.1-1.9c0.9,0.2,1.9,0.2,2.8-0.1c1-0.3,1.7-0.9,2.3-1.6
		c0.9,0.4,1.8,0.5,2.8,0.3s1.8-0.6,2.5-1.2c0.8,0.5,1.7,0.7,2.7,0.7s1.9-0.3,2.6-0.8c0.7,0.6,1.6,1,2.5,1.1c1,0.1,1.9,0,2.7-0.4
		c0.6,0.7,1.4,1.2,2.3,1.5c0.9,0.3,1.9,0.3,2.7,0.1c0.5,0.8,1.1,1.4,2,1.9c0.8,0.4,1.7,0.6,2.6,0.6c0.3,0.8,0.8,1.6,1.6,2.2
		c0.7,0.6,1.6,0.9,2.5,1.1c0.1,0.9,0.5,1.7,1.1,2.4c0.5,0.6,1.2,1.1,1.9,1.4c-0.1,0.8,0,1.6,0.3,2.3c0.3,0.8,0.8,1.5,1.4,2
		c-0.3,0.7-0.5,1.6-0.4,2.4c0.1,0.9,0.4,1.8,0.9,2.5c-0.6,0.7-0.9,1.5-1.1,2.5l0,0c-0.1,1,0,1.9,0.4,2.8c-0.7,0.6-1.2,1.5-1.5,2.4
		c-0.3,1-0.2,2,0.1,2.9c-0.8,0.6-1.4,1.4-1.8,2.4c-0.4,1-0.4,2-0.1,3c-0.9,0.5-1.6,1.3-2,2.3s-0.5,2.1-0.3,3.1
		c-0.9,0.5-1.6,1.3-2.1,2.3s-0.6,2.1-0.4,3.1c-0.9,0.5-1.7,1.2-2.2,2.2s-0.6,2.1-0.4,3.1c-0.9,0.5-1.7,1.3-2.2,2.3s-0.6,2.2-0.4,3.2
		c-0.9,0.5-1.7,1.3-2.2,2.4c-0.5,1.1-0.5,2.3-0.3,3.3c-1,0.6-1.7,1.5-2.1,2.6c-0.4,1.2-0.4,2.4,0.1,3.5c-1,0.8-1.6,1.9-1.8,3.2
		c-0.2,1.5,0.2,2.9,1.1,4c-0.8,1.3-1,3-0.4,4.6c0.7,1.7,2.3,2.8,4,3c0.3,1.6,1.4,3,3,3.6c1.3,0.6,2.8,0.5,4-0.1
		c0.8,0.9,2,1.6,3.4,1.7c1.2,0.1,2.4-0.3,3.3-1c0.9,0.7,2,1.1,3.3,1c1.2-0.1,2.3-0.5,3.2-1.3c1,0.6,2.2,0.8,3.4,0.6s2.3-0.9,3-1.8
		c1.1,0.5,2.3,0.5,3.5,0.1s2.1-1.2,2.8-2.2c1.1,0.3,2.4,0.2,3.5-0.4c1.1-0.6,1.9-1.6,2.4-2.7c1.2,0.1,2.4-0.3,3.4-1
		c1-0.8,1.6-1.9,1.8-3.1c1.2-0.1,2.3-0.7,3.2-1.6l0,0c0.8-1,1.3-2.1,1.3-3.3c1.1-0.3,2.2-1.1,2.8-2.2c0.7-1.1,0.9-2.3,0.7-3.5
		c1-0.5,1.9-1.4,2.4-2.6c0.5-1.2,0.5-2.4,0.1-3.5c1-0.7,1.7-1.7,2-2.9s0.1-2.4-0.4-3.5c0.8-0.8,1.4-1.9,1.5-3.1
		c0.1-1.2-0.2-2.4-0.9-3.3c0.7-0.9,1.1-2,1.1-3.3c0-1.2-0.5-2.3-1.3-3.2c0.6-1,0.9-2.2,0.7-3.4c-0.2-1.2-0.8-2.3-1.6-3
		c0.5-1,0.6-2.2,0.3-3.4c-0.3-1.1-1-2.1-1.9-2.7c0.3-0.9,0.4-1.9,0.1-2.9c-0.2-0.9-0.7-1.7-1.4-2.4c0.4-0.8,0.6-1.7,0.5-2.7
		s-0.4-1.8-0.9-2.6c0.6-0.7,0.9-1.6,1-2.5c0.1-1-0.1-1.9-0.5-2.7c0.7-0.6,1.2-1.4,1.4-2.3c0.3-0.9,0.3-1.9,0-2.7
		c0.8-0.5,1.4-1.2,1.8-2c0.4-0.9,0.6-1.8,0.5-2.7c0.8-0.3,1.6-0.9,2.2-1.7c0.6-0.8,0.9-1.7,1-2.5c0.9-0.2,1.7-0.6,2.4-1.3
		c0.7-0.7,1.2-1.5,1.4-2.3c0.9,0,1.8-0.3,2.6-0.8c0.8-0.5,1.4-1.2,1.8-2c0.9,0.1,1.8,0,2.7-0.3c0.9-0.4,1.6-0.9,2.1-1.6
		c0.8,0.3,1.8,0.4,2.7,0.2c0.9-0.2,1.8-0.6,2.4-1.2c0.8,0.5,1.7,0.7,2.6,0.7c1,0,1.8-0.3,2.6-0.8c0.7,0.6,1.5,1,2.5,1.2
		s1.9,0,2.8-0.3c0.6,0.7,1.3,1.3,2.3,1.6c0.9,0.3,1.9,0.3,2.7,0.1c0.4,0.8,1.1,1.4,1.9,1.9s1.7,0.7,2.6,0.6c0.3,0.8,0.7,1.6,1.4,2.2
		c0.7,0.6,1.5,1,2.4,1.2c0.1,0.9,0.4,1.8,1,2.5c0.6,0.8,1.4,1.3,2.2,1.6c-0.1,0.9,0.1,1.9,0.6,2.7c0.5,0.9,1.2,1.6,2,2
		c-0.2,0.9-0.1,1.9,0.2,2.9c0.4,1,1,1.7,1.8,2.3c-0.3,0.9-0.4,1.9-0.1,2.9s0.9,1.9,1.6,2.5c-0.4,0.9-0.5,1.9-0.3,2.9
		s0.7,1.9,1.4,2.6c-0.5,0.9-0.7,1.9-0.5,2.9c0.1,1.1,0.6,2,1.3,2.7c-0.5,0.9-0.8,1.9-0.7,2.9c0.1,1.1,0.5,2.1,1.1,2.8
		c-0.6,0.8-0.9,1.8-0.9,2.9c0,1.1,0.4,2.1,1,2.9c-0.6,0.8-1,1.8-1,2.8c0,1.1,0.3,2.1,0.8,2.9c-0.1,0.2-0.3,0.3-0.4,0.5
		c-0.2,0.3-0.3,0.6-0.5,0.9c-0.1,0.3-0.2,0.6-0.3,0.9c-0.1,0.3-0.1,0.6-0.1,1c0,1.3,0.5,2.6,1.5,3.5c0.9,0.9,2.2,1.5,3.5,1.5
		c0.3,0,0.7,0,1-0.1s0.6-0.2,0.9-0.3s0.6-0.3,0.9-0.5s0.5-0.4,0.8-0.6c0.9-0.9,1.5-2.2,1.5-3.5c0-0.3,0-0.7-0.1-1s-0.2-0.6-0.3-0.9
		c-0.1-0.3-0.3-0.6-0.4-0.8c0.7-0.8,1.2-1.9,1.2-3.1C333.8,181.2,333.4,180.1,332.8,179.2z"/>
	<g>
		<path class="st4" d="M103.8,355.5c0,0,30.4-108.9,55.4-108.9s218.1-3,230.8,8.9s18.3,100,18.3,100s-99.2,6-152.8,6
			S103.8,355.5,103.8,355.5z"/>
		<g>
			<path class="st5" d="M91.5,437.5c0,0-2.5,53.4,3.4,63s77.4,11.8,84.4,5.9c6.9-5.9,9.4-72.6,9.4-72.6L91.5,437.5z"/>
			<polyline class="st6" points="113.8,499.7 117.2,491.7 112.2,480.5 117.2,469.5 111.1,457.2 117.2,447.4 			"/>
			<polyline class="st6" points="137.8,499.7 141.2,491.7 136.2,480.5 141.2,469.5 135.1,457.2 141.2,447.4 			"/>
			<polyline class="st6" points="161.7,499.7 165.2,491.7 160.1,480.5 165.2,469.5 159.1,457.2 165.2,447.4 			"/>
		</g>
		<g>
			<path class="st5" d="M422.8,437.5c0,0,2.5,53.4-3.4,63s-77.4,11.8-84.4,5.9c-6.9-5.9-9.4-72.6-9.4-72.6L422.8,437.5z"/>
			<polyline class="st6" points="400.5,499.7 397.1,491.7 402.1,480.5 397.1,469.5 403.2,457.2 397.1,447.4 			"/>
			<polyline class="st6" points="376.5,499.7 373.1,491.7 378.1,480.5 373.1,469.5 379.2,457.2 373.1,447.4 			"/>
			<polyline class="st6" points="352.6,499.7 349.1,491.7 354.2,480.5 349.1,469.5 355.2,457.2 349.1,447.4 			"/>
		</g>
		<path class="st7" d="M109.2,349.4c0,0,29.4-98.2,53.4-98.2s210.4-2.7,222.7,8c12.3,10.7,17.6,90.2,17.6,90.2s-95.7,5.5-147.5,5.5
			S109.2,349.4,109.2,349.4z"/>
		<path class="st8" d="M133.9,354.8c0,0,7-59.3,23.6-72c16.6-12.7,86.5-4.5,91.5,0s10.2,5.1,15.4,0c5.2-5.1,97.5-5.7,107-1.7
			c9.4,4,16.8,28,19.2,62.1c2.4,34.1-27.2,13.9-27.2,13.9l-213.3,2.7L133.9,354.8z"/>
		<path class="st9" d="M135.7,358.7c0,0,14.8-64.4,24.4-71.6c9.6-7.2,81.2-4,85.1,0s11.9,11.6,11.9,11.6s8.7-11.6,11.5-12
			s96.6-6.4,104.6,2.4c8,8.8,14.4,65.7,14.4,65.7L135.7,358.7z"/>
		<g>
			<path class="st10" d="M175.4,295.4c-8,0-22.4,61.7-14,61.7S184.2,295.4,175.4,295.4z"/>
			<path class="st10" d="M205,295.4c6.4,0,10,62.2,0,62.2S198.6,295.4,205,295.4z"/>
			<path class="st10" d="M230.6,297.9c7.7,0,22,56.9,14.6,56.9S223,297.9,230.6,297.9z"/>
			<path class="st10" d="M288.9,295.4c-8,0-22.4,61.7-14,61.7S297.7,295.4,288.9,295.4z"/>
			<path class="st10" d="M318.6,295.4c6.4,0,10,62.2,0,62.2C308.5,357.6,312.2,295.4,318.6,295.4z"/>
			<path class="st10" d="M344.2,297.9c7.7,0,22,56.9,14.6,56.9C351.4,354.8,336.5,297.9,344.2,297.9z"/>
		</g>
		<g>
			<path class="st8" d="M344.3,295.4c-44.3,0-51.7,61.7,0,61.7S387,295.4,344.3,295.4z M332.7,308.6c2.9-1.9,5.8-3.1,8.7-3.7
				c0.4,3.1,0.9,8.1,0.9,12.4c-4.3,1.3-7.4,5.3-7.4,10c0,0.4,0,0.9,0.1,1.3c-4.5,1.9-10.4,3.3-13.7,4.1
				C319.8,324.4,323,314.9,332.7,308.6z M355.7,343.7c-11.3,7.4-21,6.4-27.2,1.5c2.2-3,5.9-7.5,9.8-10.2c1.9,1.7,4.3,2.7,7,2.7
				c2.4,0,4.6-0.8,6.4-2.2c2.8,2,5.2,4.6,6.7,6.4C357.5,342.5,356.7,343.1,355.7,343.7z M366.1,333c-3-0.6-7.2-1.7-10.6-3.6
				c0.1-0.7,0.2-1.4,0.2-2.2c0-4.5-2.8-8.3-6.7-9.8c-0.1-4.4,0.8-9.4,1.5-12.9C363.6,306.9,372.8,320.3,366.1,333z"/>
			<circle class="st11" cx="345.3" cy="327.7" r="6.3"/>
			<path class="st12" d="M345.3,327.7c0,0,3.4,5.2,3.7,14.3c0.3,9.1-3.7,16.7-3.7,16.7"/>
		</g>
		<path class="st13" d="M109.2,349.4c0,0,29.4-98.2,53.4-98.2s210.4-2.7,222.7,8c12.3,10.7,17.6,90.2,17.6,90.2s-95.7,5.5-147.5,5.5
			S109.2,349.4,109.2,349.4z"/>
		<path class="st14" d="M257.1,345.9c-165.9,0-197.8-11.2-197.8,47.9s5.5,65.6,197.8,65.6c209.4,0,197.8-8.2,197.8-64.8
			S465.8,345.9,257.1,345.9z"/>
		<path class="st15" d="M257.1,350.8c-159.2,0-189.8-11.6-189.8,43.1s5.3,60.6,189.8,60.6c201,0,189.8-7.6,189.8-59.8
			S457.4,350.8,257.1,350.8z"/>
		<g>
			<path class="st16" d="M430.2,345.6c-67.8,10.9-72.1,100.1,8,97.7C518.4,441,515.1,332,430.2,345.6z"/>
			<path class="st17" d="M441,356.4c-44.9,0-66.9,70.5-6,70.5S497.5,356.4,441,356.4z"/>
			<path class="st18" d="M416.4,356.4c-14,0-20.9,22-1.9,22C433.6,378.5,434.1,356.4,416.4,356.4z"/>
			<path class="st19" d="M440.4,376c-20,0-29.8,31.4-2.7,31.4C464.8,407.4,465.5,376,440.4,376z"/>
			<path class="st17" d="M430.9,397.9c8.3,11.2,30,3.6,18.7-11.5C438.3,371.2,420.4,383.8,430.9,397.9z"/>
			<path class="st20" d="M441.8,331.5c-76.7,0-114.3,120.5-10.3,120.5S538.4,331.5,441.8,331.5z"/>
		</g>
		<g>
			<path class="st16" d="M62.4,345.6c-67.8,10.9-72.1,100.1,8,97.7C150.6,441,147.4,332,62.4,345.6z"/>
			<path class="st17" d="M73.2,356.4c-44.9,0-66.9,70.5-6,70.5S129.7,356.4,73.2,356.4z"/>
			<path class="st18" d="M48.7,356.4c-14,0-20.9,22-1.9,22S66.3,356.4,48.7,356.4z"/>
			<path class="st19" d="M72.6,376c-20,0-29.8,31.4-2.7,31.4S97.7,376,72.6,376z"/>
			<path class="st17" d="M63.1,397.9c8.3,11.2,30,3.6,18.7-11.5C70.5,371.2,52.6,383.8,63.1,397.9z"/>
			<path class="st20" d="M74.1,331.5C-2.6,331.5-40.2,452,63.8,452S170.6,331.5,74.1,331.5z"/>
		</g>
		<path class="st21" d="M257.1,350.9v69.5c0,0,23.7-4.2,23.7-47.5s0-22,0-22H257.1z"/>
		<path class="st22" d="M257.1,350.9v69.5c0,0-23.7-4.2-23.7-47.5s0-22,0-22H257.1z"/>
		<g>
			<path class="st23" d="M183.4,400.3c0,17.4,0.1,22.7,74.1,22.7s72.3-2.4,72.3-22.7c0-20.3-17.3-17.9-72.3-14.7
				S183.4,386.3,183.4,400.3z"/>
			<path d="M196.6,400.9c0,14.2,0.1,18.6,60.7,18.6s59.2-2,59.2-18.6s-14.2-14.7-59.2-12C212.3,391.5,196.6,389.4,196.6,400.9z"/>
			<polygon class="st23" points="211.5,389.7 211.5,418.8 220.6,420.4 220.6,388.9 			"/>
			<polygon class="st23" points="230.6,388 230.6,420.4 239.8,422.2 239.8,387.1 			"/>
			<polygon class="st23" points="250.2,388 250.2,420.4 259.3,422.2 259.3,387.1 			"/>
			<polygon class="st23" points="268.7,387.1 268.7,420.4 277.8,422.2 277.8,386.2 			"/>
			<polygon class="st23" points="290.6,385.5 290.6,422 299.8,422.2 299.8,386.2 			"/>
		</g>
	</g>
	<g>
		<path class="st24" d="M160.5,275.7c0,0-9,5-3.5,14.8c5.5,9.8,16,0,16,0s2.5,8.4,14,4.3c11.5-4.1,1.5-15.8,1.5-15.8s8-1.5,5.3-9.8
			c-2.7-8.3-12.2-2.4-12.2-2.4s-6.3-10.2-16.5-5.2C158.6,264.8,160.5,275.7,160.5,275.7z"/>
		<path class="st24" d="M148.5,268.2c-8.2,3.1-7.5,12.5,1.3,10.8C158.5,277.2,157.7,264.7,148.5,268.2z"/>
		<path class="st24" d="M185.2,251.7c-6.9,0-6.5,9,0,10S193.5,251.7,185.2,251.7z"/>
		<path class="st24" d="M153.2,251.7c-7.8,3.8-5,13.9,3.8,10.1C165.7,258,161,248,153.2,251.7z"/>
		<path class="st24" d="M172.2,242c-9.2-0.7-8.3,11.4,0,12C180.5,254.6,182,242.7,172.2,242z"/>
		<path class="st8" d="M172.2,243.4c-7-0.5-6.3,8.7,0,9.1C178.5,253,179.6,244,172.2,243.4z"/>
		<path class="st8" d="M152.3,253.2c-5.9,3.9,0.4,10.7,5.6,7.2S158.5,249.1,152.3,253.2z"/>
		<path class="st8" d="M146.5,269.9c-5.9,3.9,0.4,10.7,5.6,7.2C157.4,273.6,152.7,265.8,146.5,269.9z"/>
		<path class="st8" d="M182.8,252.7c-4.2,2.7,1.7,9.4,5.5,7S187.2,249.9,182.8,252.7z"/>
		<path class="st8" d="M166.5,262.4c-7.7,4.9,2.1,15.9,9,11.5C182.4,269.4,174.6,257.2,166.5,262.4z"/>
		<path class="st8" d="M158.7,280.9c-7.7,4.9,2.1,15.9,9,11.5S166.8,275.7,158.7,280.9z"/>
		<path class="st8" d="M179.7,280.9c-7.7,4.9,2.1,15.9,9,11.5S187.8,275.7,179.7,280.9z"/>
		<path class="st8" d="M185,266.6c-5.6,3.6,1.6,11.7,6.6,8.4S191,262.8,185,266.6z"/>
	</g>
	<g>
		<path class="st24" d="M183.2,319.6c0,0-9.2,5.1-3.6,15.1c5.6,10,16.4,0,16.4,0s2.6,8.6,14.3,4.4c11.8-4.2,1.5-16.2,1.5-16.2
			s8.2-1.6,5.4-10s-12.5-2.5-12.5-2.5s-6.4-10.4-16.9-5.3C181.3,308.3,183.2,319.6,183.2,319.6z"/>
		<path class="st24" d="M170.9,311.9c-8.4,3.2-7.7,12.8,1.3,11S180.3,308.3,170.9,311.9z"/>
		<path class="st24" d="M208.5,295c-7,0-6.7,9.2,0,10.2C215.2,306.3,217,295,208.5,295z"/>
		<path class="st24" d="M175.7,295c-7.9,3.8-5.1,14.2,3.8,10.3C188.5,301.4,183.7,291.1,175.7,295z"/>
		<path class="st24" d="M165.8,317.1c-12-0.9-10.7,14.7,0,15.5S178.4,318,165.8,317.1z"/>
		<path class="st8" d="M166.2,318.9c-8.5-0.7-7.6,10.5,0,11S175.2,319.6,166.2,318.9z"/>
		<path class="st24" d="M154.9,351c-12-0.9-10.7,14.7,0,15.5C165.6,367.2,167.5,351.9,154.9,351z"/>
		<path class="st8" d="M155.3,352.8c-8.5-0.7-7.6,10.5,0,11S164.3,353.5,155.3,352.8z"/>
		<path class="st24" d="M165.8,354.9c-12-0.9-10.7,14.7,0,15.5S178.4,355.9,165.8,354.9z"/>
		<path class="st8" d="M166.2,356.8c-8.5-0.7-7.6,10.5,0,11S175.2,357.4,166.2,356.8z"/>
		<path class="st24" d="M153.9,358.2c-18.8-1.4-16.9,23.2,0,24.4S173.8,359.7,153.9,358.2z"/>
		<path class="st8" d="M154.6,361.2c-13.4-1-12,16.5,0,17.4C166.6,379.4,168.8,362.2,154.6,361.2z"/>
		<path class="st8" d="M174.8,296.5c-6,4,0.4,11,5.8,7.3C185.9,300.2,181.1,292.3,174.8,296.5z"/>
		<path class="st8" d="M168.9,313.6c-6,4,0.4,11,5.8,7.3S175.2,309.4,168.9,313.6z"/>
		<path class="st8" d="M206,296c-4.3,2.7,1.7,9.6,5.6,7.1C215.5,300.6,210.6,293.1,206,296z"/>
		<path class="st8" d="M189.4,305.9c-7.9,5.1,2.2,16.3,9.2,11.7C205.6,313,197.7,300.6,189.4,305.9z"/>
		<path class="st8" d="M181.3,324.8c-7.9,5.1,2.2,16.3,9.2,11.7C197.6,332,189.6,319.5,181.3,324.8z"/>
		<path class="st8" d="M202.8,324.8c-7.9,5.1,2.2,16.3,9.2,11.7C219.1,332,211.1,319.5,202.8,324.8z"/>
		<path class="st8" d="M208.3,310.2c-5.8,3.7,1.6,12,6.7,8.6S214.4,306.3,208.3,310.2z"/>
	</g>
	<g>
		<path class="st24" d="M223.3,258.8c0,0-7.4-13.3-21.8-5.2c-14.4,8.1,0,23.7,0,23.7s-12.4,3.7-6.4,20.7c6,17,23.4,2.2,23.4,2.2
			s2.3,11.8,14.4,7.8s3.5-18.1,3.5-18.1s15-9.2,7.6-24.4C239.6,256.2,223.3,258.8,223.3,258.8z"/>
		<path class="st24" d="M253.8,331.8c-4.6-12.1-18.5-11.1-15.9,1.8C240.5,346.6,259,345.5,253.8,331.8z"/>
		<path class="st24" d="M252.7,310.5c0-10.2-13.3-9.6-14.8,0S252.7,322.7,252.7,310.5z"/>
		<path class="st24" d="M202.7,241.5c-5.5-11.5-20.5-7.4-14.9,5.5S208.3,252.9,202.7,241.5z"/>
		<path class="st24" d="M237.4,320.6c1.1-13.7-16.9-12.3-17.7,0S236.3,335,237.4,320.6z"/>
		<path class="st8" d="M235.2,320.7c0.8-10.4-12.8-9.3-13.5,0S234.4,331.6,235.2,320.7z"/>
		<path class="st8" d="M200.5,240.1c-5.8-8.7-15.8,0.6-10.6,8.3C195.2,256.2,206.6,249.2,200.5,240.1z"/>
		<path class="st8" d="M251.3,328.9c-5.8-8.7-15.8,0.6-10.6,8.3C246,345,257.4,338.1,251.3,328.9z"/>
		<path class="st8" d="M251.3,306.9c-3.9-6.3-13.9,2.5-10.3,8.1C244.5,320.6,255.4,313.5,251.3,306.9z"/>
		<path class="st8" d="M243.1,267.8c-7.3-11.4-23.6,3.2-16.9,13.3C232.8,291.2,250.8,279.8,243.1,267.8z"/>
		<path class="st8" d="M215.7,256.2c-7.3-11.4-23.6,3.2-16.9,13.3C205.4,279.6,223.5,268.2,215.7,256.2z"/>
		<path class="st8" d="M215.7,287.2c-7.3-11.4-23.6,3.2-16.9,13.3C205.4,310.7,223.5,299.2,215.7,287.2z"/>
		<path class="st8" d="M236.9,295.2c-5.4-8.3-17.3,2.3-12.4,9.7S242.5,303.9,236.9,295.2z"/>
	</g>
	<g>
		<path class="st24" d="M129.1,299.4c0,0-8-8.3-16.9,0.4c-8.9,8.7,4.6,17.3,4.6,17.3s-8.4,5.1-0.7,16.4s17.5-2.9,17.5-2.9
			s3.9,8.2,12.1,2.9c8.1-5.3-0.9-13.9-0.9-13.9s9.2-9.7,0.9-19.3C140.4,294.3,129.1,299.4,129.1,299.4z"/>
		<path class="st24" d="M133.7,284.3c-5.7-8-15.7-4.6-11.3,4.4C126.9,297.7,140.2,293.3,133.7,284.3z"/>
		<path class="st24" d="M162.1,319.4c-2-7.4-11.6-4.5-10.8,2.8S164.4,328.3,162.1,319.4z"/>
		<path class="st24" d="M152.9,284.7c-6.3-7.3-16.4-1.5-9.8,6.9S159.2,292.1,152.9,284.7z"/>
		<path class="st24" d="M168.9,302.5c-1.9-10.2-14.7-5.7-13,3.4C157.6,315.1,170.9,313.3,168.9,302.5z"/>
		<path class="st8" d="M167.3,303c-1.4-7.7-11.2-4.3-9.8,2.6C158.8,312.5,168.8,311.1,167.3,303z"/>
		<path class="st8" d="M151.1,284.2c-5.9-5.2-11.5,3.5-6.1,8.1S157.3,289.7,151.1,284.2z"/>
		<path class="st8" d="M131.4,282.7c-5.9-5.2-11.5,3.5-6.1,8.1S137.6,288.2,131.4,282.7z"/>
		<path class="st8" d="M160.3,317c-4.1-3.8-9.7,4.5-6,7.9S164.6,321,160.3,317z"/>
		<path class="st8" d="M145.2,302.2c-7.5-6.9-16.6,6.8-9.8,13C142.2,321.3,153.2,309.4,145.2,302.2z"/>
		<path class="st8" d="M123,299c-7.5-6.9-16.6,6.8-9.8,13C120,318.1,130.9,306.2,123,299z"/>
		<path class="st8" d="M129,321.7c-7.5-6.9-16.6,6.8-9.8,13C126,340.8,136.9,328.9,129,321.7z"/>
		<path class="st8" d="M145.9,323.4c-5.5-5.1-12.2,5-7.2,9.5S151.8,328.7,145.9,323.4z"/>
	</g>
	<path class="st25" d="M323.5,180.2c-3.7,0-6.6,3.2-6.3,6.9c0.6,6.5,1.1,15.5-0.8,17.4c-3.1,3.1-37.8,1.2-37.8,8.8s0,7.6,0,7.6h92.3
		c0,0,0-4.4,0-7.6s-29.6-5-31.4-7.9c-1.2-2-1-13-0.8-19.8c0.1-3-2.3-5.4-5.3-5.4C333.4,180.2,323.5,180.2,323.5,180.2z"/>
	<path class="st26" d="M283.2,217.1c3.5-5.7,40.9-2.3,44.2-7.9c2.9-4.8,0.7-24.1,0-29h-3.9c-3.7,0-6.6,3.2-6.3,6.9
		c0.6,6.5,1.1,15.5-0.8,17.4c-3.1,3.1-37.8,1.2-37.8,8.8s0,7.6,0,7.6h3.8C282.2,219.6,282.4,218.3,283.2,217.1z"/>
	<g>
		<path class="st3" d="M285.5,234.7c6.7,0,0-9.3,0-9.3S278.8,234.7,285.5,234.7z"/>
		<path class="st3" d="M301.5,234.7c6.7,0,0-9.3,0-9.3S294.8,234.7,301.5,234.7z"/>
		<path class="st3" d="M317.5,234.7c6.7,0,0-9.3,0-9.3S310.8,234.7,317.5,234.7z"/>
		<path class="st3" d="M333.5,225.5c0,0-6.7,9.3,0,9.3C340.2,234.7,333.5,225.5,333.5,225.5z"/>
		<path class="st3" d="M349.5,225.5c0,0-6.7,9.3,0,9.3S349.5,225.5,349.5,225.5z"/>
		<path class="st3" d="M365.5,234.7c6.7,0,0-9.3,0-9.3S358.8,234.7,365.5,234.7z"/>
		<path class="st3" d="M281.5,241.6c0,0-6.7,9.3,0,9.3S281.5,241.6,281.5,241.6z"/>
		<path class="st3" d="M299.1,250.9c6.7,0,0-9.3,0-9.3S292.4,250.9,299.1,250.9z"/>
		<path class="st3" d="M316.7,250.9c6.7,0,0-9.3,0-9.3S310,250.9,316.7,250.9z"/>
		<path class="st3" d="M334.3,241.6c0,0-6.7,9.3,0,9.3S334.3,241.6,334.3,241.6z"/>
		<path class="st3" d="M351.9,241.6c0,0-6.7,9.3,0,9.3C358.5,250.9,351.9,241.6,351.9,241.6z"/>
		<path class="st3" d="M369.5,241.6c0,0-6.7,9.3,0,9.3C376.1,250.9,369.5,241.6,369.5,241.6z"/>
		<path class="st3" d="M277.5,267.1c6.7,0,0-9.3,0-9.3S270.8,267.1,277.5,267.1z"/>
		<path class="st3" d="M296.7,267.1c6.7,0,0-9.3,0-9.3S290,267.1,296.7,267.1z"/>
		<path class="st3" d="M315.9,267.1c6.7,0,0-9.3,0-9.3S309.2,267.1,315.9,267.1z"/>
		<path class="st3" d="M335.1,257.8c0,0-6.7,9.3,0,9.3S335.1,257.8,335.1,257.8z"/>
		<path class="st3" d="M354.3,257.8c0,0-6.7,9.3,0,9.3S354.3,257.8,354.3,257.8z"/>
		<path class="st3" d="M373.5,257.8c0,0-6.7,9.3,0,9.3C380.1,267.1,373.5,257.8,373.5,257.8z"/>
		<path class="st3" d="M273.5,282.7c6.7,0,0-9.3,0-9.3S266.8,282.7,273.5,282.7z"/>
		<path class="st3" d="M294.3,282.7c6.7,0,0-9.3,0-9.3S287.6,282.7,294.3,282.7z"/>
		<path class="st3" d="M315.1,282.7c6.7,0,0-9.3,0-9.3S308.4,282.7,315.1,282.7z"/>
		<path class="st3" d="M335.9,273.5c0,0-6.7,9.3,0,9.3S335.9,273.5,335.9,273.5z"/>
		<path class="st3" d="M356.7,273.5c0,0-6.7,9.3,0,9.3C363.3,282.7,356.7,273.5,356.7,273.5z"/>
		<path class="st3" d="M377.5,273.5c0,0-6.7,9.3,0,9.3C384.1,282.7,377.5,273.5,377.5,273.5z"/>
		<path class="st3" d="M269.5,298.8c6.7,0,0-9.3,0-9.3S262.8,298.8,269.5,298.8z"/>
		<path class="st3" d="M291.9,298.8c6.7,0,0-9.3,0-9.3S285.2,298.8,291.9,298.8z"/>
		<path class="st3" d="M314.3,298.8c6.7,0,0-9.3,0-9.3S307.6,298.8,314.3,298.8z"/>
		<path class="st3" d="M336.7,289.5c0,0-6.7,9.3,0,9.3C343.4,298.8,336.7,289.5,336.7,289.5z"/>
		<path class="st3" d="M359.1,289.5c0,0-6.7,9.3,0,9.3C365.7,298.8,359.1,289.5,359.1,289.5z"/>
		<path class="st3" d="M381.5,289.5c0,0-6.7,9.3,0,9.3C388.1,298.8,381.5,289.5,381.5,289.5z"/>
		<path class="st3" d="M265.5,313.9c6.7,0,0-9.3,0-9.3S258.8,313.9,265.5,313.9z"/>
		<path class="st3" d="M289.5,313.9c6.7,0,0-9.3,0-9.3S282.8,313.9,289.5,313.9z"/>
		<path class="st3" d="M313.5,313.9c6.7,0,0-9.3,0-9.3S306.8,313.9,313.5,313.9z"/>
		<path class="st3" d="M337.5,304.6c0,0-6.7,9.3,0,9.3S337.5,304.6,337.5,304.6z"/>
		<path class="st3" d="M361.5,304.6c0,0-6.7,9.3,0,9.3S361.5,304.6,361.5,304.6z"/>
		<path class="st3" d="M385.5,304.6c0,0-6.7,9.3,0,9.3C392.1,313.9,385.5,304.6,385.5,304.6z"/>
		<path class="st3" d="M261.5,331.2c6.7,0,0-9.3,0-9.3S254.8,331.2,261.5,331.2z"/>
		<path class="st3" d="M287.1,331.2c6.7,0,0-9.3,0-9.3S280.4,331.2,287.1,331.2z"/>
		<path class="st3" d="M312.7,331.2c6.7,0,0-9.3,0-9.3S306,331.2,312.7,331.2z"/>
		<path class="st3" d="M338.3,331.2c6.7,0,0-9.3,0-9.3S331.6,331.2,338.3,331.2z"/>
		<path class="st3" d="M363.9,331.2c6.7,0,0-9.3,0-9.3S357.2,331.2,363.9,331.2z"/>
		<path class="st3" d="M389.5,321.9c0,0-6.7,9.3,0,9.3C396.1,331.2,389.5,321.9,389.5,321.9z"/>
	</g>
</g>
</svg>
