<?xml version="1.0" encoding="utf-8"?>
<!-- Generator: Adobe Illustrator 22.0.1, SVG Export Plug-In . SVG Version: 6.00 Build 0)  -->
<svg version="1.1" id="Layer_1" xmlns="http://www.w3.org/2000/svg" xmlns:xlink="http://www.w3.org/1999/xlink" x="0px" y="0px"
	 viewBox="0 0 512 512" style="enable-background:new 0 0 512 512;" xml:space="preserve">
<style type="text/css">
	.st0{fill:#8F2BA2;}
	.st1{fill:#FF4B47;}
	.st2{fill:#D71F47;}
	.st3{fill:#FF8F47;}
	.st4{fill:#FFDCD4;}
	.st5{fill:#C42FD4;}
	.st6{fill:#FFB3D4;}
	.st7{fill:#DABCD4;}
	.st8{fill:#B69AC1;}
	.st9{fill:#FFFFFF;}
	.st10{fill:#C8E4CE;}
	.st11{fill:#F0F0F0;}
	.st12{fill:#E18500;}
	.st13{fill:#D06700;}
	.st14{fill:#793500;}
	.st15{fill:#E1C500;}
	.st16{fill:#DA6C47;}
</style>
<g>
	<path d="M448.6,400.8c0,13,0.5,31.4-1.9,34.9c-2.4,3.4-255.3,82.7-282.3,71.4S69,448.3,67,440.5c-2.1-7.9-5.5-32.7-2.5-37.9
		c3-5.3,104,17.8,105.7,18.1c1.7,0.3,194.5-42,194.5-42L448.6,400.8z"/>
	<path class="st0" d="M64.5,402.5c0.6,15,78.7,69,101.6,74.5s274.4-64.3,281.9-74.5s-66.6-49.2-83.9-54.7s-136.4-9.4-136.4-9.4
		S63.8,383.4,64.5,402.5z"/>
	<path class="st1" d="M397.5,37.5C379,19,335.3-2.2,278.2,5.4S122,15.6,110.4,30.6s-11.6,348.6-8.2,363s54.2,49.9,65.7,50.9
		c11.4,1,153.1-165.1,153.1-165.1L397.5,37.5z"/>
	<path class="st2" d="M102.2,393.6c3.4,14.4,54.2,49.9,65.7,50.9c2.3,0.2,10-6.5,20.8-17.3l3.1-50.6L167.9,62.1
		c0,0-55.7-25.9-57.5-31.4C98.8,45.7,98.8,379.3,102.2,393.6z"/>
	<path class="st3" d="M397.5,37.5c10.6,9.5,4.1,338.4-5.1,349.7s-212.3,67.7-224.6,57.4s-4.1-370.2,0-382.5
		C172,49.8,379.1,21.1,397.5,37.5z"/>
	<path d="M359,161.4c-8.6-4.4-28.2-5.8-64.7,0s-59.6,8.5-65.6,26.4s-5.4,55.2-1.4,61.7s9.4,7.1,12,7.5s75.7-43.9,75.7-43.9
		L359,161.4z"/>
	<path class="st4" d="M239.6,178.3c-13.8,10.8-15.6,67.6-5.2,76.8s107.3-7.7,117.7-18.4c10.4-10.8,17.3-70.7,6.9-75.3
		S253.5,167.5,239.6,178.3z"/>
	<g>
		<path class="st5" d="M297.6,213.5c-4.1-2.1-14.5-1-16.6,1c-2.1,2.1-3.1,12.4-2.1,13.5c1,1,2.1,2.1,3.1,2.1s13.5-8.3,13.5-8.3
			L297.6,213.5z"/>
		<path class="st6" d="M297.7,213.5c-1.3-0.5-13.2,2.1-14.5,2.8s-2.8,13.9-1.4,13.9s15.9-0.7,16.6-2.1
			C299.1,226.6,301.1,214.9,297.7,213.5z"/>
	</g>
	<g>
		<path class="st5" d="M278.2,232.5c-4.1-2.1-14.5-1-16.6,1s-3.1,12.4-2.1,13.5c1,1,2.1,2.1,3.1,2.1s13.5-8.3,13.5-8.3L278.2,232.5z
			"/>
		<path class="st6" d="M278.3,232.5c-1.3-0.5-13.2,2.1-14.5,2.8c-1.4,0.7-2.8,13.9-1.4,13.9s15.9-0.7,16.6-2.1
			C279.7,245.7,281.8,233.9,278.3,232.5z"/>
	</g>
	<g>
		<path class="st5" d="M278.2,216.5c-4.1-2.1-14.5-1-16.6,1c-2.1,2.1-3.1,12.4-2.1,13.5c1,1,2.1,2.1,3.1,2.1s13.5-8.3,13.5-8.3
			L278.2,216.5z"/>
		<path class="st6" d="M278.3,216.4c-1.3-0.5-13.2,2.1-14.5,2.8c-1.4,0.7-2.8,13.9-1.4,13.9s15.9-0.7,16.6-2.1
			C279.7,229.6,281.8,217.8,278.3,216.4z"/>
	</g>
	<g>
		<path class="st5" d="M258.4,219.1c-4.1-2.1-14.5-1-16.6,1c-2.1,2.1-3.1,12.4-2.1,13.5c1,1,2.1,2.1,3.1,2.1s13.5-8.3,13.5-8.3
			L258.4,219.1z"/>
		<path class="st6" d="M258.5,219c-1.3-0.5-13.2,2.1-14.5,2.8c-1.4,0.7-2.8,13.9-1.4,13.9c1.4,0,15.9-0.7,16.6-2.1
			C259.9,232.2,261.9,220.4,258.5,219z"/>
	</g>
	<g>
		<path class="st5" d="M298.2,196.5c-4.1-2.1-14.5-1-16.6,1c-2.1,2.1-3.1,12.4-2.1,13.5c1,1,2.1,2.1,3.1,2.1s13.5-8.3,13.5-8.3
			L298.2,196.5z"/>
		<path class="st6" d="M298.3,196.5c-1.3-0.5-13.2,2.1-14.5,2.8c-1.4,0.7-2.8,13.9-1.4,13.9s15.9-0.7,16.6-2.1
			C299.7,209.7,301.8,197.9,298.3,196.5z"/>
	</g>
	<g>
		<path class="st5" d="M278.8,199.5c-4.1-2.1-14.5-1-16.6,1c-2.1,2.1-3.1,12.4-2.1,13.5c1,1,2.1,2.1,3.1,2.1s13.5-8.3,13.5-8.3
			L278.8,199.5z"/>
		<path class="st6" d="M278.9,199.5c-1.3-0.5-13.2,2.1-14.5,2.8c-1.4,0.7-2.8,13.9-1.4,13.9s15.9-0.7,16.6-2.1
			C280.3,212.6,282.4,200.8,278.9,199.5z"/>
	</g>
	<g>
		<path class="st5" d="M259,202.1c-4.1-2.1-14.5-1-16.6,1c-2.1,2.1-3.1,12.4-2.1,13.5c1,1,2.1,2.1,3.1,2.1s13.5-8.3,13.5-8.3
			L259,202.1z"/>
		<path class="st6" d="M259.1,202.1c-1.3-0.5-13.2,2.1-14.5,2.8c-1.4,0.7-2.8,13.9-1.4,13.9c1.4,0,15.9-0.7,16.6-2.1
			C260.5,215.2,262.6,203.4,259.1,202.1z"/>
	</g>
	<g>
		<path class="st5" d="M298.6,179.5c-4.1-2.1-14.5-1-16.6,1c-2.1,2.1-3.1,12.4-2.1,13.5c1,1,2.1,2.1,3.1,2.1s13.5-8.3,13.5-8.3
			L298.6,179.5z"/>
		<path class="st6" d="M298.7,179.5c-1.3-0.5-13.2,2.1-14.5,2.8c-1.4,0.7-2.8,13.9-1.4,13.9s15.9-0.7,16.6-2.1
			C300.1,192.6,302.2,180.9,298.7,179.5z"/>
	</g>
	<g>
		<path class="st5" d="M279.2,182.5c-4.1-2.1-14.5-1-16.6,1c-2.1,2.1-3.1,12.4-2.1,13.5c1,1,2.1,2.1,3.1,2.1s13.5-8.3,13.5-8.3
			L279.2,182.5z"/>
		<path class="st6" d="M279.3,182.4c-1.3-0.5-13.2,2.1-14.5,2.8c-1.4,0.7-2.8,13.9-1.4,13.9s15.9-0.7,16.6-2.1
			C280.7,195.6,282.8,183.8,279.3,182.4z"/>
	</g>
	<g>
		<path class="st5" d="M259.4,185.1c-4.1-2.1-14.5-1-16.6,1c-2.1,2.1-3.1,12.4-2.1,13.5c1,1,2.1,2.1,3.1,2.1s13.5-8.3,13.5-8.3
			L259.4,185.1z"/>
		<path class="st6" d="M259.5,185c-1.3-0.5-13.2,2.1-14.5,2.8c-1.4,0.7-2.8,13.9-1.4,13.9c1.4,0,15.9-0.7,16.6-2.1
			C260.9,198.2,263,186.4,259.5,185z"/>
	</g>
	<path class="st7" d="M309.3,179.4c-2.2,1.6-4.1,26.8-1.7,27.8s47.7-8.1,49.9-9.8c2.2-1.7,2.8-22,1.7-24S312.3,177.2,309.3,179.4z"
		/>
	<path class="st8" d="M311.4,192.8c-0.6,5.5,44.3-1.3,45.2-6.7S312.3,185,311.4,192.8z"/>
	<polygon points="354.7,185.8 313.4,191.8 313.4,192.6 354.7,186.6 	"/>
	<path class="st9" d="M315,192.4c0,0,13.1,6.6,14.4,18.9S338,233,338,233l1.3-3l3.2,1.3l0.9-2.8l2.5,1l1.1-2.8l3.1,1.3l1.4-3.3
		l2.8,2.1l1.4-4l2.9,1.4l1.1-3.6l2.4,1.1l1.4-3.1c0,0-4.3-8.7-3.8-16.2s-7.8-15.4-7.8-15.4L315,192.4z"/>
	<g>
		<path class="st10" d="M239.3,97.8c-3.1,3.7-6.2,58.8-3.8,59.8s110.1-14,111.8-17.5c1.7-3.4,5.9-54.7,3.1-56.1
			C347.6,82.6,244.1,92.1,239.3,97.8z"/>
		<path d="M235.9,159.5c-0.6,0-1,0-1.2-0.1c-1.2-0.5-1.5-1.7-1.6-2.2c-1.5-5.9,0.9-56.4,4.6-60.8c0.9-1.1,3.7-4.4,57.7-10.3
			c0.5-0.1,52.7-5.6,55.9-4.1c1.4,0.7,3.2,1.5,1.3,29.2c-0.5,7.3-2.1,26.8-3.4,29.6c-0.6,1.3-1.6,3.3-57.2,11.5
			C289.9,152.8,244.1,159.5,235.9,159.5z M235.9,155.5L235.9,155.5z M240.9,99.1c-2.2,4.2-5.2,48.2-3.9,56.4
			c11.8-0.7,100.5-13.3,108.7-16.8c1.6-5.9,4.7-46,3.4-52.8c-4.9-0.1-27.3,1.6-53.6,4.4C258.5,94.3,243,97.5,240.9,99.1z
			 M345.9,138.5L345.9,138.5L345.9,138.5z M349.8,85.9L349.8,85.9L349.8,85.9z"/>
	</g>
	<g>
		<path d="M330.9,205.5c0.9,0.2,1.3,3.4,1.3-0.4c0,1.1,0.3,3.6-0.5,4.1C331.7,207.8,331.1,206.4,330.9,205.5z"/>
		<path d="M334.2,205.7c-0.1,1.9-0.6,2.1-1.6,0.6C332.7,204.4,333.2,204.2,334.2,205.7z M332.9,206.2c0.7,1.2,1,1,1-0.4
			C333.2,204.7,332.9,204.8,332.9,206.2z"/>
		<path d="M336.2,205.7c0.4,1.5-1.2,0.2-1.9-1.3c0.3,0.1,0.9,2.1,1.3,1.9C337.4,205.7,333.4,202.5,336.2,205.7z"/>
		<path d="M336.4,204.5c-0.1-0.4,0-1.1,0.6-1.1C337.2,207,336.9,204.5,336.4,204.5z"/>
		<path d="M338.8,205.5c-0.1-0.6-1.7-4.3-0.1-3.9C338.7,203.2,338.7,203.5,338.8,205.5z"/>
		<path d="M341.1,204c0.4,1.5-1.2,0.2-1.9-1.3c0.3,0.1,0.9,2.1,1.3,1.9C342.2,204,338.3,200.8,341.1,204z"/>
		<path d="M342.9,204c-1.3,1.8-2.6-3-0.6-2.3C341.2,203.3,342.3,203,342.9,204z"/>
		<path d="M343.3,202.6c0-0.7,0.2-1.3,0.7-1.5c0.1,1.2-0.7,1.6,0.8,2.5c-1.6-1.3-0.8,0.2-1.4,0.5c-0.3-1.2-0.7-2.4-1-3.7
			C343.2,200.8,342.5,201.5,343.3,202.6z"/>
		<path d="M344.5,200.1C344.8,201,344.3,199.2,344.5,200.1z M345,203.4c-0.2-1.3-0.7-1.9-0.4-2.6C345.1,201.9,345,203.1,345,203.4z"
			/>
		<path d="M345.4,201.3c-0.4-1.5,1.2-0.2,1.9,1.3c-0.4-0.1-0.8-2.1-1.3-1.9C344.2,201.3,348.2,204.5,345.4,201.3z"/>
		<path d="M348.1,200.5c-0.3-1.2,1.4-1.2,1.7-0.2c-0.1-0.3-1,2.8-1,2.8C348.6,202.3,348.3,201.4,348.1,200.5z M348.6,201.1
			C348.7,201.7,350,199.2,348.6,201.1z"/>
		<path d="M350.1,199.8c-0.1-0.4,0-1.1,0.6-1.1C350.9,202.4,350.6,199.9,350.1,199.8z"/>
		<path d="M351.2,197.8C351.5,198.7,350.9,196.9,351.2,197.8z M351.7,201.2c-0.2-1.3-0.7-1.9-0.4-2.6
			C351.8,199.6,351.6,200.8,351.7,201.2z"/>
		<path d="M353.7,200.4c-1.3,1.8-2.6-3-0.6-2.3C352,199.7,353.1,199.4,353.7,200.4z"/>
		<path d="M353.9,199.1c0.2,0.6,2.4,0.5,0.9,1c-1.3-0.4-1.6-1.3-0.7-2.6C355.2,197.2,355.3,199.1,353.9,199.1z M354.8,198.5
			C354.6,197.9,353,198.4,354.8,198.5z"/>
		<path d="M335.2,209.4c-1.1,0.3-1.7,1.5-1.6,3.6c4.1-1.8,2.4,0.6,2.3,4C335.9,216.9,330.4,208.8,335.2,209.4z M336.2,213.9
			c-0.5-0.5-1.1-0.9-1.6-1.4c-1.5,0.5-0.5,4.2,1,3.6C335.8,215.4,336,214.7,336.2,213.9z"/>
		<path d="M340.7,210.8c2.5,9.3-3.7,1.4-3.6,1.3C337,212.2,338.3,201.8,340.7,210.8z M337.9,211.9c0.2,1.6,0.9,2.6,1.9,2.8
			c1.6-0.5-0.1-7-1.7-6.4C337.3,209.2,337.3,210.4,337.9,211.9z"/>
		<path d="M344.9,209.4c2.5,9.3-3.7,1.4-3.6,1.3C341.2,210.8,342.5,200.3,344.9,209.4z M342.1,210.5c0.2,1.6,0.9,2.6,1.9,2.8
			c1.6-0.5-0.1-7-1.7-6.4C341.5,207.8,341.5,209,342.1,210.5z"/>
		<path d="M349.1,208c2.5,9.3-3.7,1.4-3.6,1.3C345.4,209.4,346.7,198.9,349.1,208z M346.3,209.1c0.2,1.6,0.9,2.6,1.9,2.8
			c1.6-0.5-0.1-7-1.7-6.4C345.7,206.3,345.7,207.5,346.3,209.1z"/>
		<path d="M353.3,206.6c2.5,9.3-3.7,1.4-3.6,1.3C349.6,207.9,350.9,197.5,353.3,206.6z M350.5,207.7c0.2,1.6,0.9,2.6,1.9,2.8
			c1.6-0.5-0.1-7-1.7-6.4C349.9,204.9,349.9,206.1,350.5,207.7z"/>
		<path d="M357.5,205.1c2.5,9.3-3.7,1.4-3.6,1.3C353.8,206.5,355.1,196,357.5,205.1z M354.7,206.2c0.2,1.6,0.9,2.6,1.9,2.8
			c1.6-0.5-0.1-7-1.7-6.4C354.1,203.5,354.1,204.7,354.7,206.2z"/>
	</g>
	<g>
		<path d="M253.2,122c8.3-1.2,7.6-17.8-3.9-10.1c0.5-4.1,6.5-8.5,8.2-10.1C247.3,103.2,241.6,123.7,253.2,122z M249.5,114
			c5.1-11.3,7.8,5.1,6.3,4.5C255.1,118.1,245.5,121.6,249.5,114z"/>
		<path d="M267.2,120.1c8.7-1.2,8.9-20.7,0.3-19.7C258.9,101.3,258.7,121.3,267.2,120.1z M267.3,102.4c5.4-0.8,5.4,14.9,0,15.7
			C262,118.9,262,103.1,267.3,102.4z"/>
		<path d="M277.6,118.6c2.2-1.5,2.2-2.8,0-3.7C275.4,116.5,275.4,117.7,277.6,118.6z"/>
		<path d="M293.6,106.3c0-12.3-12.3-10.2-12.3,2C281.3,120.8,293.6,118.7,293.6,106.3z M283.7,108c0-17.8,7.9-1.3,7.4-1.2
			C291.7,106.7,283.7,125.6,283.7,108z"/>
		<path d="M307.9,104.3c0-12.3-12.3-10.2-12.3,2C295.6,118.8,307.9,116.7,307.9,104.3z M298.1,106c0-17.8,7.9-1.3,7.4-1.2
			C306,104.7,298.1,123.6,298.1,106z"/>
		<path d="M319.3,91.6c-4.4,3.9-2.5,13.8-2.5,21.2c0.8-0.1,1.6-0.2,2.5-0.3C319.3,105.5,319.3,98.6,319.3,91.6z"/>
		<path d="M324.7,91.9c-2,1.3-2,2.4-0.1,3.2C326.7,93.8,326.7,92.7,324.7,91.9z"/>
		<path d="M323.5,111.9c4-2.5,2.9-8.7,2.5-14.5c-0.8,0.1-1.6,0.2-2.5,0.3C323.5,102.3,322.9,107.4,323.5,111.9z"/>
		<path d="M336.5,97.8c-1.9-3-3.3-0.2-3.5-5.5c-1.7,1.3-3.9,3.6-4.5,4.7c1.4,2.2,1.2,16.9,7.9,13C333,107.3,330.2,100.4,336.5,97.8z
			"/>
		<path d="M250.2,135.5c-4.6,0.6-0.2-1.5,2-4c-7.6,1.1-3.2,8.2-4.9,10.3C244.2,145.7,263.3,133.7,250.2,135.5z M249.9,141.6
			c-0.7-0.9-1.5-1.8-2.2-2.7c0.1-1.1,0.8-1.8,2.1-2.2C252.5,137.8,252.6,139.5,249.9,141.6z"/>
		<path d="M257.8,130.7c-8.2,1.1-0.2,10.6-0.2,10.9C257.6,141.5,266,129.5,257.8,130.7z M257.7,140.5c-2.7-2.5-2.7-5.4,0-8.7
			C260.4,134.3,260.4,137.2,257.7,140.5z"/>
		<path d="M263.4,138.7C260.1,139.2,266.6,138.3,263.4,138.7z"/>
		<path d="M268.9,129.1c-8.2,1.1-0.2,10.6-0.2,10.9C268.7,140,277.1,128,268.9,129.1z M268.8,138.9c-2.7-2.5-2.7-5.4,0-8.7
			C271.5,132.8,271.5,135.6,268.8,138.9z"/>
		<path d="M276.8,128c-8.2,1.1-0.2,10.6-0.2,10.9C276.6,138.9,285,126.9,276.8,128z M276.7,137.8c-2.7-2.5-2.7-5.4,0-8.7
			C279.4,131.6,279.4,134.5,276.7,137.8z"/>
		<path d="M286.7,127.3c-1.6,1.5-2.9,12.5,1.9,9.8c-0.6-3.1-0.1-5,0.1-6.7C287.3,130,287.1,129.2,286.7,127.3z"/>
		<path d="M293.2,128.4c-8.4,1.2-0.1,8.2-0.1,8.2C293.1,136.7,301.6,127.3,293.2,128.4z M293.2,135.6c-3-1.6-3-3.6,0-6.1
			C296.2,131.1,296.2,133.1,293.2,135.6z"/>
		<path d="M306.7,126.5c-3.5,0.5-5.6,2.8-8.3,1.3c0.3,3.5,0.3,6,1.4,7.6c0.2-1.4-1.1-6.7,1.8-7.1c2.4-0.3,1.4,5.6,1.6,6.6
			c-0.2,0.6,1.4-7,3-7.3c2.5-0.3,1.4,5.5,1.6,6.6C308.4,133.8,311.2,125.9,306.7,126.5z"/>
		<path d="M316.6,128.4c0-2.9-3.1-3.6-5.3-1.8c8.4,1.8-0.5,0.6-0.5,5.3c0,1.6,5.1,1.3,6,1.2C316.6,132.5,316.3,129.1,316.6,128.4z
			 M315.3,130.7c0,1-3.2,3.5-3.2,0.8C312.1,127.7,316.3,130.6,315.3,130.7z"/>
		<path d="M322.5,124.3c-2.7,0.4-2.2,2.9-3.8,0.7c0.3,3.6,0.3,6,1.4,7.6c0.2-1.5-1.2-6.7,1.9-7.1c2.6-0.4,1.5,5.4,1.7,6.6
			C324.4,131.4,327.1,123.7,322.5,124.3z"/>
	</g>
	<path d="M120.1,182.8c-1.6,3-4.1,50.1-2.7,55.9c1.4,5.8,19.7,14.6,22.6,14.6c2.8,0,2.6-10,2.6-10l0.9-55.9l-9.4-6.2l-10.2-0.8
		L120.1,182.8z"/>
	<path class="st11" d="M144.5,184.8c-0.6-4.1-22.9-8.5-26.3-4.4c-1.9,2.2-2.5,59.7-1.6,60.5s22.2,17.5,25.1,16.6
		C144.5,256.6,145.2,188.9,144.5,184.8z M140,251.5c-2.4,0.8-20.5-13.4-21.3-14.1c-0.8-0.7-0.3-49.4,1.3-51.3
		c2.9-3.5,21.8,0.3,22.3,3.7C142.9,193.4,142.4,250.7,140,251.5z"/>
	<path class="st12" d="M142.5,196.9l-0.1-6c0,0-26.3,10.6-38.2,26.1S89.5,242.4,89,250.3s4.6,18.3,4.6,18.3l5.8,3.7
		c0,0,1.7-19.3,3.8-25.9c2.2-6.7,17.3-24.8,17.3-24.8l11-12.8L142.5,196.9z"/>
	<path class="st12" d="M125.2,242.6h-2.9c0,0-2.5,4.1-5.1,3c-2.7-1-2.5,1.3-2.5,1.3l6.2,1.7L125.2,242.6z"/>
	<path class="st13" d="M121.7,226c3.5,1.3,4.1,20.3-1.5,26.4c-5.6,6-10.9,9.4-10.9,9.4l0.8,4.4l4.2-1.2l14-19.5l1.4-12.1l-4.6-9.6
		l-5.7-1L121.7,226z"/>
	<path class="st12" d="M129.8,357.4c-11.5-7.5-13.7,13.6-2.7,21.3C138.1,386.4,143.6,366.4,129.8,357.4z"/>
	<path class="st14" d="M129.5,360.6c-8-5.2-9.6,9.5-1.9,14.9S139.2,366.9,129.5,360.6z"/>
	<path class="st14" d="M125.2,359.7c-14.1,8.4-15.9,44.3-38.2,38.7c-22.3-5.6,2.3-20.8,20.3-57.4s3.5-65.1,3.5-65.1l-9.2-7.4
		l-3.4,0.9c0,0,12.3,18.8,8.2,38.3c-4.1,19.5-7.2,38.1-25.9,60.6s-10.3,39.9,5.9,40.2c16.1,0.3,26.2-2.6,31.8-12
		c5.6-9.5,10.3-18,15.5-21.2C139.1,372,125.2,359.7,125.2,359.7z"/>
	<path class="st15" d="M114.9,214.1c-6.3,6.4-22.3,26.5-21.3,35.9c1,9.3,5.8,22.3,5.8,22.3l11.5,3.6c0,0,5.8-11.7,9.6-13.9
		c0,0,9.8-10,11-21.2s-3.1-18.8-1.4-24.3c1.7-5.5,12.5-10.5,12.5-10.5v-9C142.5,196.9,121.3,207.7,114.9,214.1z M125.6,246.9
		c-3.9,10.8-13.2,16.5-13.2,16.5s-3.3-4.1-3.7-10.8c-0.4-6.7,1.4-7.9,1.4-7.9s4.6,5.8,9.3,5.8c4.7-0.1,5.9-7.9,5.9-7.9
		s-3.9,4.5-6.4,4s-6.6-7.3-6.6-7.3s3.9-11.8,9.5-13.2C124.9,225.2,129.5,236.1,125.6,246.9z"/>
	<g>
		<path class="st16" d="M237.6,318.9c8.4-1.7,16.9-3.5,25.3-5.2c4.5,16-14.8,7-10.4,22.8c2.8-1.3,6.5-0.6,9.2-1.9
			c3.5,11.7-6.7,9.6-9.2,17.8c-4.3,13.8,5.2,18.8-14.9,19.6C237.6,354.3,237.6,336.6,237.6,318.9z"/>
		<path class="st16" d="M309.3,304.1c8.3-1.7,16.6-3.4,24.9-5.1c4.3,15.8-14.4,7.2-10,22.7c2.8-1.3,6.5-0.6,9.3-1.9
			c4.1,15-14.2,7.2-9.3,23.7c3.3-1.6,7.7-0.7,11-2.3c5.1,15.6-15.5,13.8-25.9,15.9C309.3,339.5,309.3,321.8,309.3,304.1z"/>
		<path class="st16" d="M303.6,304.8c0,11.2,1.2,23.1,0,34.2c-1.3,12.1-16.3,37.5-31.5,20.7c-5.1-5.6-3.2-24.7-2.7-32.3
			c1.1-14.5-2.4-17.7,14.9-18.8c0,4-0.7,45.3,2.1,44.8C301.8,350.4,271.9,306.9,303.6,304.8z"/>
		<path class="st16" d="M355.7,295.1c0,14.1,0,28.3,0,42.4c2.7-1.3,6.3-0.6,9.1-1.9c4.3,15-13.4,13.4-24,15.6
			c0-12.7-0.5-25.6,0-38.3C341.3,298.3,339.2,296.8,355.7,295.1z"/>
	</g>
</g>
</svg>
