<?xml version="1.0" encoding="utf-8"?>
<!-- Generator: Adobe Illustrator 22.0.1, SVG Export Plug-In . SVG Version: 6.00 Build 0)  -->
<svg version="1.1" id="Layer_4" xmlns="http://www.w3.org/2000/svg" xmlns:xlink="http://www.w3.org/1999/xlink" x="0px" y="0px"
	 viewBox="0 0 512 512" style="enable-background:new 0 0 512 512;" xml:space="preserve">
<style type="text/css">
	.st0{fill:#D3E1FF;}
	.st1{fill:#222222;}
	.st2{fill:#222222;stroke:#000000;stroke-width:6;stroke-miterlimit:10;}
	.st3{fill:#B8D8FF;}
	.st4{fill:#FFFFFF;}
	.st5{fill:#002D00;}
	.st6{opacity:0.1;fill:#69BE8A;enable-background:new    ;}
	.st7{fill:#CB7E2B;}
	.st8{fill:#FFFFFF;stroke:#545F00;stroke-width:3;stroke-linecap:round;stroke-miterlimit:10;}
	.st9{opacity:0.2;fill:#0077FF;enable-background:new    ;}
	.st10{fill:#B41A22;}
	.st11{fill:#FF1A22;}
	.st12{fill:#00598A;}
	.st13{fill:#FFFC35;}
	.st14{opacity:0.8;fill:#FFFFFF;enable-background:new    ;}
	.st15{fill:#FFC935;}
	.st16{opacity:0.1;fill:#FFFC35;enable-background:new    ;}
	.st17{fill:#FF8422;}
	.st18{fill:#DC0022;}
	.st19{fill:#E0E0E0;}
	.st20{fill:#222222;stroke:#000000;stroke-width:14.8823;stroke-miterlimit:10;}
	.st21{fill:#8A5800;}
	.st22{opacity:0.2;fill:#FFFFFF;}
	.st23{fill:#FF76FF;}
	.st24{opacity:0.3;fill:#FFFFFF;}
	.st25{opacity:0.5;fill:#FFFFFF;}
	.st26{opacity:0.3;}
</style>
<g>
	<g>
		<path class="st0" d="M103.8,207.3c0,0,30.4-108.9,55.4-108.9s218.1-3,230.8,8.9s18.3,100,18.3,100s-99.2,6-152.8,6
			S103.8,207.3,103.8,207.3z"/>
		<g>
			<path class="st1" d="M91.5,289.3c0,0-2.5,53.4,3.4,63s77.4,11.8,84.4,5.9c6.9-5.9,9.4-72.6,9.4-72.6L91.5,289.3z"/>
			<polyline class="st2" points="113.8,351.5 117.2,343.5 112.2,332.3 117.2,321.3 111.1,309 117.2,299.2 			"/>
			<polyline class="st2" points="137.8,351.5 141.2,343.5 136.2,332.3 141.2,321.3 135.1,309 141.2,299.2 			"/>
			<polyline class="st2" points="161.7,351.5 165.2,343.5 160.1,332.3 165.2,321.3 159.1,309 165.2,299.2 			"/>
		</g>
		<g>
			<path class="st1" d="M422.8,289.3c0,0,2.5,53.4-3.4,63s-77.4,11.8-84.4,5.9c-6.9-5.9-9.4-72.6-9.4-72.6L422.8,289.3z"/>
			<polyline class="st2" points="400.5,351.5 397.1,343.5 402.1,332.3 397.1,321.3 403.2,309 397.1,299.2 			"/>
			<polyline class="st2" points="376.5,351.5 373.1,343.5 378.1,332.3 373.1,321.3 379.2,309 373.1,299.2 			"/>
			<polyline class="st2" points="352.6,351.5 349.1,343.5 354.2,332.3 349.1,321.3 355.2,309 349.1,299.2 			"/>
		</g>
		<path class="st3" d="M109.2,201.2c0,0,29.4-98.2,53.4-98.2s210.4-2.7,222.7,8s17.6,90.2,17.6,90.2s-95.7,5.5-147.5,5.5
			S109.2,201.2,109.2,201.2z"/>
		<path class="st4" d="M133.9,206.6c0,0,7-59.3,23.6-72s86.5-4.5,91.5,0s10.2,5.1,15.4,0c5.2-5.1,97.5-5.7,107-1.7
			c9.4,4,16.8,28,19.2,62.1c2.4,34.1-27.2,13.9-27.2,13.9l-213.3,2.7L133.9,206.6z"/>
		<path class="st5" d="M135.7,210.5c0,0,14.8-64.4,24.4-71.6c9.6-7.2,81.2-4,85.1,0s11.9,11.6,11.9,11.6s8.7-11.6,11.5-12
			s96.6-6.4,104.6,2.4s14.4,65.7,14.4,65.7L135.7,210.5z"/>
		<g>
			<path class="st6" d="M175.4,147.2c-8,0-22.4,61.7-14,61.7S184.2,147.2,175.4,147.2z"/>
			<path class="st6" d="M205,147.2c6.4,0,10,62.2,0,62.2S198.6,147.2,205,147.2z"/>
			<path class="st6" d="M230.6,149.7c7.7,0,22,56.9,14.6,56.9S223,149.7,230.6,149.7z"/>
			<path class="st6" d="M288.9,147.2c-8,0-22.4,61.7-14,61.7S297.7,147.2,288.9,147.2z"/>
			<path class="st6" d="M318.6,147.2c6.4,0,10,62.2,0,62.2C308.5,209.4,312.2,147.2,318.6,147.2z"/>
			<path class="st6" d="M344.2,149.7c7.7,0,22,56.9,14.6,56.9C351.4,206.6,336.5,149.7,344.2,149.7z"/>
		</g>
		<g>
			<path class="st4" d="M344.3,147.2c-44.3,0-51.7,61.7,0,61.7S387,147.2,344.3,147.2z M332.7,160.4c2.9-1.9,5.8-3.1,8.7-3.7
				c0.4,3.1,0.9,8.1,0.9,12.4c-4.3,1.3-7.4,5.3-7.4,10c0,0.4,0,0.9,0.1,1.3c-4.5,1.9-10.4,3.3-13.7,4.1
				C319.8,176.2,323,166.7,332.7,160.4z M355.7,195.5c-11.3,7.4-21,6.4-27.2,1.5c2.2-3,5.9-7.5,9.8-10.2c1.9,1.7,4.3,2.7,7,2.7
				c2.4,0,4.6-0.8,6.4-2.2c2.8,2,5.2,4.6,6.7,6.4C357.5,194.3,356.7,194.9,355.7,195.5z M366.1,184.8c-3-0.6-7.2-1.7-10.6-3.6
				c0.1-0.7,0.2-1.4,0.2-2.2c0-4.5-2.8-8.3-6.7-9.8c-0.1-4.4,0.8-9.4,1.5-12.9C363.6,158.7,372.8,172.1,366.1,184.8z"/>
			<circle class="st7" cx="345.3" cy="179.5" r="6.3"/>
			<path class="st8" d="M345.3,179.5c0,0,3.4,5.2,3.7,14.3c0.3,9.1-3.7,16.7-3.7,16.7"/>
		</g>
		<path class="st9" d="M109.2,201.2c0,0,29.4-98.2,53.4-98.2s210.4-2.7,222.7,8s17.6,90.2,17.6,90.2s-95.7,5.5-147.5,5.5
			S109.2,201.2,109.2,201.2z"/>
		<path class="st10" d="M257.1,197.7c-165.9,0-197.8-11.2-197.8,47.9s5.5,65.6,197.8,65.6c209.4,0,197.8-8.2,197.8-64.8
			S465.8,197.7,257.1,197.7z"/>
		<path class="st11" d="M257.1,202.6c-159.2,0-189.8-11.6-189.8,43.1s5.3,60.6,189.8,60.6c201,0,189.8-7.6,189.8-59.8
			S457.4,202.6,257.1,202.6z"/>
		<g>
			<path class="st12" d="M430.2,197.4c-67.8,10.9-72.1,100.1,8,97.7C518.4,292.8,515.1,183.8,430.2,197.4z"/>
			<path class="st13" d="M441,208.2c-44.9,0-66.9,70.5-6,70.5S497.5,208.2,441,208.2z"/>
			<path class="st14" d="M416.4,208.2c-14,0-20.9,22-1.9,22C433.6,230.3,434.1,208.2,416.4,208.2z"/>
			<path class="st15" d="M440.4,227.8c-20,0-29.8,31.4-2.7,31.4C464.8,259.2,465.5,227.8,440.4,227.8z"/>
			<path class="st13" d="M430.9,249.7c8.3,11.2,30,3.6,18.7-11.5C438.3,223,420.4,235.6,430.9,249.7z"/>
			<path class="st16" d="M441.8,183.3c-76.7,0-114.3,120.5-10.3,120.5S538.4,183.3,441.8,183.3z"/>
		</g>
		<g>
			<path class="st12" d="M62.4,197.4c-67.8,10.9-72.1,100.1,8,97.7C150.6,292.8,147.4,183.8,62.4,197.4z"/>
			<path class="st13" d="M73.2,208.2c-44.9,0-66.9,70.5-6,70.5S129.7,208.2,73.2,208.2z"/>
			<path class="st14" d="M48.7,208.2c-14,0-20.9,22-1.9,22S66.3,208.2,48.7,208.2z"/>
			<path class="st15" d="M72.6,227.8c-20,0-29.8,31.4-2.7,31.4S97.7,227.8,72.6,227.8z"/>
			<path class="st13" d="M63.1,249.7c8.3,11.2,30,3.6,18.7-11.5C70.5,223,52.6,235.6,63.1,249.7z"/>
			<path class="st16" d="M74.1,183.3c-76.7,0-114.3,120.5-10.3,120.5S170.6,183.3,74.1,183.3z"/>
		</g>
		<path class="st17" d="M257.1,202.7v69.5c0,0,23.7-4.2,23.7-47.5s0-22,0-22H257.1z"/>
		<path class="st18" d="M257.1,202.7v69.5c0,0-23.7-4.2-23.7-47.5s0-22,0-22H257.1z"/>
		<g>
			<path class="st19" d="M183.4,252.1c0,17.4,0.1,22.7,74.1,22.7s72.3-2.4,72.3-22.7c0-20.3-17.3-17.9-72.3-14.7
				S183.4,238.1,183.4,252.1z"/>
			<path d="M196.6,252.7c0,14.2,0.1,18.6,60.7,18.6s59.2-2,59.2-18.6s-14.2-14.7-59.2-12C212.3,243.3,196.6,241.2,196.6,252.7z"/>
			<polygon class="st19" points="211.5,241.5 211.5,270.6 220.6,272.2 220.6,240.7 			"/>
			<polygon class="st19" points="230.6,239.8 230.6,272.2 239.8,274 239.8,238.9 			"/>
			<polygon class="st19" points="250.2,239.8 250.2,272.2 259.3,274 259.3,238.9 			"/>
			<polygon class="st19" points="268.7,238.9 268.7,272.2 277.8,274 277.8,238 			"/>
			<polygon class="st19" points="290.6,237.3 290.6,273.8 299.8,274 299.8,238 			"/>
		</g>
	</g>
	<g>
		<path class="st0" d="M286.3,107.8c-2.2-3.1-4-6.3-5.5-9.7c-0.2-0.5-0.4-1-0.7-1.5c-14.5-5.8-30.7-11.8-44.2-20
			c-0.8-0.5-1.6-0.9-2.3-1.4c-10.1-2.8-20.4-4.7-30.7-6.3c-13.3,39.7-21.6,69.4-21.6,69.4s59.5,3.6,135.7,7.3
			C305.3,134.1,296.3,121.6,286.3,107.8z"/>
		<g>
			<path class="st1" d="M198.1,396.6c-1.9,0.3-3.7,0.5-5.6,0.8c11.8-1.5,23.5-2.7,35.4-3.6c6.6-4,13.1-8.1,20-11.5
				c2.2-1.1,4.4-2.1,6.6-3.1c10.3-4.6,21-9.7,31.8-13.7c6.9-11.2,15-21.2,24.3-29.9l-160,6.1c0,0-1.3,28.2-1.3,60.9
				C165.6,400.8,181.8,398.4,198.1,396.6z"/>
			<path class="st20" d="M212.5,395.1l1.9-29l-15.1,24.3l2.9,5.8C205.6,395.8,209,395.4,212.5,395.1z"/>
			<path class="st20" d="M273.6,370.5l0.3-4.4l-3.7,5.9C271.4,371.5,272.5,371,273.6,370.5z"/>
		</g>
		<path class="st3" d="M286.3,107.8c-2.2-3.1-4-6.3-5.5-9.7c-0.2-0.5-0.4-1-0.7-1.5c-14.5-5.8-30.7-11.8-44.2-20
			c-0.8-0.5-1.6-0.9-2.3-1.4c-7.1-2-14.3-3.5-21.6-4.8c-10.8,30.7-17.4,52.7-17.4,52.7s45.5,2.6,107.3,5.6
			C296.6,122,291.6,115.1,286.3,107.8z"/>
		<path class="st4" d="M286.3,107.8c-2.2-3.1-4-6.3-5.5-9.7c-0.2-0.5-0.4-1-0.7-1.5c-5.5-2.2-11.2-4.4-16.9-6.8
			c-5,26.7-7.4,46.7-7.4,46.7l40.2,12.4l24-0.3C307,136.3,297.2,122.9,286.3,107.8z"/>
		<path class="st5" d="M286.3,107.8c-2.2-3.1-4-6.3-5.5-9.7c-0.2-0.5-0.4-1-0.7-1.5c-2.2-0.9-4.5-1.8-6.7-2.7
			c-7.8,29.4-13.1,52.2-13.1,52.2l56.3-0.9C305.2,133.9,296.2,121.5,286.3,107.8z"/>
		<path class="st9" d="M286.3,107.8c-2.2-3.1-4-6.3-5.5-9.7c-0.2-0.5-0.4-1-0.7-1.5c-14.5-5.8-30.7-11.8-44.2-20
			c-0.8-0.5-1.6-0.9-2.3-1.4c-7.1-2-14.3-3.5-21.6-4.8c-10.8,30.7-17.4,52.7-17.4,52.7s45.5,2.6,107.3,5.6
			C296.6,122,291.6,115.1,286.3,107.8z"/>
		<path class="st10" d="M348,225.4c-1.7-12.5-3.3-24.9-5-37.4c0-0.5,0-0.9,0-1.4c-3.4-5.5-6.5-11.1-9.4-16.8
			c-2.8-5.6-5.6-11.2-8.6-16.7c-1.1-1.1-2.3-2.2-3.5-3.2c-12.4-11.4-21.9-23.8-31.9-37.6C112,112.4,70.8,127.4,70.8,233.2
			c0,101.1,6.5,140.1,166.9,154.6c3.3-2,6.7-3.9,10.2-5.6c2.2-1.1,4.4-2.1,6.6-3.1c10.3-4.6,21-9.7,31.8-13.7
			c12.3-20.2,28.6-36.3,49-48.4c0.4-3.2,1-6.4,1.7-9.7c0.8-18,6-34.9,15.6-50.5c-1.3-9.7-2.6-19.3-3.9-29
			C348.5,227,348.2,226.2,348,225.4z"/>
		<path class="st11" d="M348,225.4c-1.7-12.5-3.3-24.9-5-37.4c0-0.5,0-0.9,0-1.4c-3.4-5.5-6.5-11.1-9.4-16.8
			c-2.8-5.6-5.6-11.2-8.6-16.7c-1.1-1.1-2.3-2.2-3.5-3.2c-8.8-8.1-16.1-16.6-23.2-25.9c-168.4-0.6-207.6,12-207.6,109.4
			c0,95.2,6.5,130.8,168.6,143.6c8.9-4,18-8.2,27.2-11.6c12.3-20.2,28.6-36.3,49-48.4c0.4-3.2,1-6.4,1.7-9.7
			c0.8-18,6-34.9,15.6-50.5c-1.3-9.7-2.6-19.3-3.9-29C348.5,227,348.2,226.2,348,225.4z"/>
		<g>
			<path class="st12" d="M78.5,113.6c-2.3,0.4-4.6,0.8-6.9,1.2c-8.6,14.8-20.1,26.9-34.3,36.1c-0.9,0.8-1.8,1.7-2.8,2.5
				c-1,3.2-2,6.3-2.9,9.5c-6,21.1-13.6,36.7-24,52c0.6,9.4,1.6,18.7,2.6,28c1,9.4,1.9,18.9,2.2,28.4c0.4,3.2,0.8,6.3,1.3,9.5
				c12.8,15.4,22,32.8,27.5,52.4l0.6,4.8l6.7,5.2c3.4,3.4,6.5,6.9,9.5,10.5c12.3,1.8,25.8,2.6,40.4,2.2
				C297.2,350.2,289.3,79.9,78.5,113.6z"/>
			<path class="st13" d="M105.2,140.4c-31.3,0-58.2,13.8-77.2,33.7c-5.4,15.7-12,28.4-20.5,40.8c0.6,9.4,1.6,18.7,2.6,28
				c1,9.4,1.9,18.9,2.2,28.4c0.4,3.2,0.8,6.3,1.3,9.5c5,6,9.4,12.3,13.3,18.9c14.8,9.7,35.6,15.6,63.4,15.6
				C241.4,315.3,245.4,140.4,105.2,140.4z"/>
			<path class="st14" d="M34.5,153.4c-1,3.2-2,6.3-2.9,9.5c-3,10.4-6.4,19.6-10.3,28c4.5,2.5,10.6,4.1,18.5,4.1
				c44.8,0,48.1-49.4,10.8-54.2c-4.1,3.7-8.6,7.1-13.3,10.2C36.3,151.8,35.4,152.6,34.5,153.4z"/>
			<path class="st15" d="M103.8,189c-49.6,0-73.9,77.9-6.7,77.9S166,189,103.8,189z"/>
			<path class="st13" d="M80.2,243.3c20.6,27.8,74.4,8.9,46.4-28.5C98.6,177.1,54.2,208.4,80.2,243.3z"/>
			<path class="st16" d="M107.5,78.6c-6.9,0-13.7,0.4-20.3,1.2c-2.7,11.1-7.3,21.6-13.7,31.7c-8.8,16.4-20.9,29.5-36.2,39.4
				c-0.9,0.8-1.8,1.7-2.8,2.5c-1,3.2-2,6.3-2.9,9.5c-6,21.1-13.6,36.7-24,52c0.6,9.4,1.6,18.7,2.6,28c1,9.4,1.9,18.9,2.2,28.4
				c0.4,3.2,0.8,6.3,1.3,9.5c12.8,15.4,22,32.8,27.5,52.4l0.6,4.8l6.7,5.2c10.2,10.3,18.6,21.7,25.1,34.2c2.7,0.1,5.5,0.1,8.3,0.1
				C339.9,377.5,346.8,78.6,107.5,78.6z"/>
		</g>
	</g>
	<g>
		<path class="st21" d="M281,361.9c0,0,7.1,1.6,17.5-8.9s12-17.5,12-17.5s117.8,84.8,117.8,99.2s-43.8,58-53.3,48.6
			S281,361.9,281,361.9z"/>
		<path class="st22" d="M299.4,370.2c0,0,96.5,80.4,93.7,89.5c-2.8,9-6.7,20.8-13.8,13.8S299.4,370.2,299.4,370.2z"/>
		<path class="st23" d="M61.1,115.5C-113.2,289.9,150.5,516,306.1,360.5S235.4-58.8,61.1,115.5z M291.1,345.5
			C154.6,482.1-77,283.5,76.1,130.5S427.7,209,291.1,345.5z"/>
		<path class="st24" d="M295.8,350.2C153.3,492.8-88.4,285.5,71.3,125.8S438.4,207.7,295.8,350.2z"/>
		<path class="st25" d="M70.7,178.8c29-6.6-7.8,90.3,29.2,136.8s90.5,53.3,90.5,53.3s-69.5,9.9-120.3-52.8S40.9,185.6,70.7,178.8z"
			/>
	</g>
</g>
<polygon class="st26" points="223.2,292.2 205.2,242.3 187.2,240.3 193.5,223.5 184.5,215.4 183.6,190.8 183.6,215.7 192,223.8 
	185.2,240.1 173.8,238.8 152.8,175.3 170.7,243 203.1,245.5 209.6,264.5 192,269.2 185.8,261.4 177.1,262.5 167.7,249.2 
	175.6,264.1 185.1,263.5 189.8,271.5 211.2,269.3 220.3,296 "/>
</svg>
