<?xml version="1.0" encoding="utf-8"?>
<!-- Generator: Adobe Illustrator 22.0.1, SVG Export Plug-In . SVG Version: 6.00 Build 0)  -->
<svg version="1.1" id="Layer_1" xmlns="http://www.w3.org/2000/svg" xmlns:xlink="http://www.w3.org/1999/xlink" x="0px" y="0px"
	 viewBox="0 0 512 512" style="enable-background:new 0 0 512 512;" xml:space="preserve">
<style type="text/css">
	.st0{fill:#D3E1FF;}
	.st1{fill:#222222;}
	.st2{fill:#222222;stroke:#000000;stroke-width:6;stroke-miterlimit:10;}
	.st3{fill:#B8D8FF;}
	.st4{fill:#FFFFFF;}
	.st5{fill:#002D00;}
	.st6{opacity:0.1;fill:#69BE8A;enable-background:new    ;}
	.st7{fill:#CB7E2B;}
	.st8{fill:#FFFFFF;stroke:#545F00;stroke-width:3;stroke-linecap:round;stroke-miterlimit:10;}
	.st9{opacity:0.2;fill:#0077FF;enable-background:new    ;}
	.st10{fill:#FF8122;}
	.st11{fill:#FFB722;}
	.st12{fill:#00598A;}
	.st13{fill:#FFFC35;}
	.st14{opacity:0.8;fill:#FFFFFF;enable-background:new    ;}
	.st15{fill:#FFC935;}
	.st16{opacity:0.1;fill:#FFFC35;enable-background:new    ;}
	.st17{fill:#FF8422;}
	.st18{fill:#DC0022;}
	.st19{fill:#E0E0E0;}
	.st20{fill:#128ACE;}
	.st21{fill:#12C8CE;}
	.st22{fill:#78B200;}
	.st23{fill:#A8C800;}
	.st24{fill:#50A980;}
	.st25{fill:#69BE8A;}
	.st26{fill:#4C2673;}
	.st27{fill:#76498A;}
</style>
<g>
	<g>
		<g>
			<path class="st0" d="M103.8,350.9c0,0,30.4-108.9,55.4-108.9s218.1-3,230.8,8.9c12.7,11.9,18.3,100,18.3,100s-99.2,6-152.8,6
				S103.8,350.9,103.8,350.9z"/>
			<g>
				<path class="st1" d="M91.5,432.9c0,0-2.5,53.4,3.4,63s77.4,11.8,84.4,5.9c6.9-5.9,9.4-72.6,9.4-72.6L91.5,432.9z"/>
				<polyline class="st2" points="113.8,495.1 117.2,487.1 112.2,475.9 117.2,464.9 111.1,452.6 117.2,442.8 				"/>
				<polyline class="st2" points="137.8,495.1 141.2,487.1 136.2,475.9 141.2,464.9 135.1,452.6 141.2,442.8 				"/>
				<polyline class="st2" points="161.7,495.1 165.2,487.1 160.1,475.9 165.2,464.9 159.1,452.6 165.2,442.8 				"/>
			</g>
			<g>
				<path class="st1" d="M422.8,432.9c0,0,2.5,53.4-3.4,63s-77.4,11.8-84.4,5.9c-6.9-5.9-9.4-72.6-9.4-72.6L422.8,432.9z"/>
				<polyline class="st2" points="400.5,495.1 397.1,487.1 402.1,475.9 397.1,464.9 403.2,452.6 397.1,442.8 				"/>
				<polyline class="st2" points="376.5,495.1 373.1,487.1 378.1,475.9 373.1,464.9 379.2,452.6 373.1,442.8 				"/>
				<polyline class="st2" points="352.6,495.1 349.1,487.1 354.2,475.9 349.1,464.9 355.2,452.6 349.1,442.8 				"/>
			</g>
			<path class="st3" d="M109.2,344.8c0,0,29.4-98.2,53.4-98.2s210.4-2.7,222.7,8c12.3,10.7,17.6,90.2,17.6,90.2s-95.7,5.5-147.5,5.5
				S109.2,344.8,109.2,344.8z"/>
			<path class="st4" d="M133.9,350.2c0,0,7-59.3,23.6-72s86.5-4.5,91.5,0s10.2,5.1,15.4,0c5.2-5.1,97.5-5.7,107-1.7
				c9.4,4,16.8,28,19.2,62.1c2.4,34.1-27.2,13.9-27.2,13.9l-213.3,2.7L133.9,350.2z"/>
			<path class="st5" d="M135.7,354.1c0,0,14.8-64.4,24.4-71.6c9.6-7.2,81.2-4,85.1,0s11.9,11.6,11.9,11.6s8.7-11.6,11.5-12
				s96.6-6.4,104.6,2.4s14.4,65.7,14.4,65.7L135.7,354.1z"/>
			<g>
				<path class="st6" d="M175.4,290.8c-8,0-22.4,61.7-14,61.7S184.2,290.8,175.4,290.8z"/>
				<path class="st6" d="M205,290.8c6.4,0,10,62.2,0,62.2S198.6,290.8,205,290.8z"/>
				<path class="st6" d="M230.6,293.3c7.7,0,22,56.9,14.6,56.9S223,293.3,230.6,293.3z"/>
				<path class="st6" d="M288.9,290.8c-8,0-22.4,61.7-14,61.7S297.7,290.8,288.9,290.8z"/>
				<path class="st6" d="M318.6,290.8c6.4,0,10,62.2,0,62.2C308.5,353,312.2,290.8,318.6,290.8z"/>
				<path class="st6" d="M344.2,293.3c7.7,0,22,56.9,14.6,56.9C351.4,350.2,336.5,293.3,344.2,293.3z"/>
			</g>
			<g>
				<path class="st4" d="M344.3,290.8c-44.3,0-51.7,61.7,0,61.7S387,290.8,344.3,290.8z M332.7,304c2.9-1.9,5.8-3.1,8.7-3.7
					c0.4,3.1,0.9,8.1,0.9,12.4c-4.3,1.3-7.4,5.3-7.4,10c0,0.4,0,0.9,0.1,1.3c-4.5,1.9-10.4,3.3-13.7,4.1
					C319.8,319.8,323,310.3,332.7,304z M355.7,339.1c-11.3,7.4-21,6.4-27.2,1.5c2.2-3,5.9-7.5,9.8-10.2c1.9,1.7,4.3,2.7,7,2.7
					c2.4,0,4.6-0.8,6.4-2.2c2.8,2,5.2,4.6,6.7,6.4C357.5,337.9,356.7,338.5,355.7,339.1z M366.1,328.4c-3-0.6-7.2-1.7-10.6-3.6
					c0.1-0.7,0.2-1.4,0.2-2.2c0-4.5-2.8-8.3-6.7-9.8c-0.1-4.4,0.8-9.4,1.5-12.9C363.6,302.3,372.8,315.7,366.1,328.4z"/>
				<circle class="st7" cx="345.3" cy="323.1" r="6.3"/>
				<path class="st8" d="M345.3,323.1c0,0,3.4,5.2,3.7,14.3c0.3,9.1-3.7,16.7-3.7,16.7"/>
			</g>
			<path class="st9" d="M109.2,344.8c0,0,29.4-98.2,53.4-98.2s210.4-2.7,222.7,8c12.3,10.7,17.6,90.2,17.6,90.2s-95.7,5.5-147.5,5.5
				S109.2,344.8,109.2,344.8z"/>
			<path class="st10" d="M257.1,341.3c-165.9,0-197.8-11.2-197.8,47.9s5.5,65.6,197.8,65.6c209.4,0,197.8-8.2,197.8-64.8
				S465.8,341.3,257.1,341.3z"/>
			<path class="st11" d="M257.1,346.2c-159.2,0-189.8-11.6-189.8,43.1s5.3,60.6,189.8,60.6c201,0,189.8-7.6,189.8-59.8
				S457.4,346.2,257.1,346.2z"/>
			<g>
				<path class="st12" d="M430.2,341c-67.8,10.9-72.1,100.1,8,97.7C518.4,436.4,515.1,327.4,430.2,341z"/>
				<path class="st13" d="M441,351.8c-44.9,0-66.9,70.5-6,70.5S497.5,351.8,441,351.8z"/>
				<path class="st14" d="M416.4,351.8c-14,0-20.9,22-1.9,22C433.6,373.9,434.1,351.8,416.4,351.8z"/>
				<path class="st15" d="M440.4,371.4c-20,0-29.8,31.4-2.7,31.4C464.8,402.8,465.5,371.4,440.4,371.4z"/>
				<path class="st13" d="M430.9,393.3c8.3,11.2,30,3.6,18.7-11.5C438.3,366.6,420.4,379.2,430.9,393.3z"/>
				<path class="st16" d="M441.8,326.9c-76.7,0-114.3,120.5-10.3,120.5S538.4,326.9,441.8,326.9z"/>
			</g>
			<g>
				<path class="st12" d="M62.4,341c-67.8,10.9-72.1,100.1,8,97.7C150.6,436.4,147.4,327.4,62.4,341z"/>
				<path class="st13" d="M73.2,351.8c-44.9,0-66.9,70.5-6,70.5S129.7,351.8,73.2,351.8z"/>
				<path class="st14" d="M48.7,351.8c-14,0-20.9,22-1.9,22S66.3,351.8,48.7,351.8z"/>
				<path class="st15" d="M72.6,371.4c-20,0-29.8,31.4-2.7,31.4S97.7,371.4,72.6,371.4z"/>
				<path class="st13" d="M63.1,393.3c8.3,11.2,30,3.6,18.7-11.5C70.5,366.6,52.6,379.2,63.1,393.3z"/>
				<path class="st16" d="M74.1,326.9c-76.7,0-114.3,120.5-10.3,120.5S170.6,326.9,74.1,326.9z"/>
			</g>
			<path class="st17" d="M257.1,346.3v69.5c0,0,23.7-4.2,23.7-47.5s0-22,0-22H257.1z"/>
			<path class="st18" d="M257.1,346.3v69.5c0,0-23.7-4.2-23.7-47.5s0-22,0-22H257.1z"/>
			<g>
				<path class="st19" d="M183.4,395.7c0,17.4,0.1,22.7,74.1,22.7s72.3-2.4,72.3-22.7c0-20.3-17.3-17.9-72.3-14.7
					S183.4,381.7,183.4,395.7z"/>
				<path d="M196.6,396.3c0,14.2,0.1,18.6,60.7,18.6s59.2-2,59.2-18.6s-14.2-14.7-59.2-12C212.3,386.9,196.6,384.8,196.6,396.3z"/>
				<polygon class="st19" points="211.5,385.1 211.5,414.2 220.6,415.8 220.6,384.3 				"/>
				<polygon class="st19" points="230.6,383.4 230.6,415.8 239.8,417.6 239.8,382.5 				"/>
				<polygon class="st19" points="250.2,383.4 250.2,415.8 259.3,417.6 259.3,382.5 				"/>
				<polygon class="st19" points="268.7,382.5 268.7,415.8 277.8,417.6 277.8,381.6 				"/>
				<polygon class="st19" points="290.6,380.9 290.6,417.4 299.8,417.6 299.8,381.6 				"/>
			</g>
		</g>
	</g>
	<g>
		<g>
			<path class="st20" d="M290.5,38.3c-10,2.5-33.3,10-33.3,10l6.1,31.7L311,63l15.9-18.6C314.6,37.2,300.5,35.8,290.5,38.3z"/>
			<path class="st20" d="M228.2,68.9l-0.7-1.5l11.6-4.6l16.7-32l14.9-18.5c-13.7-5.9-21.2-7-37.6-2.9s-36.7,11.7-36.7,16.1
				s3.6,36.4,4.7,37.8c-4.7,0.3-36.7,11.9-40.3,19.4c-3.6,7.5-0.6,48.9,1.4,52.5c1.9,3.6,12,10.1,17.2,9.8
				c5.2-0.4,33.9-54.2,33.9-54.2L228.2,68.9z"/>
			<path class="st20" d="M229.4,112.8l-26.1,6.7l5.9,18.6c0,0,3.8,22.8,5.7,24.5c1.9,1.7,10.1,10.3,20.4,10
				c10.3-0.3,24-19.2,22.9-30.3C257.1,131.1,229.4,112.8,229.4,112.8z"/>
		</g>
		<path class="st21" d="M326.9,44.5c-1.3-1.6-21.4,2.6-46.6,9.1c-2.9-23-6.3-40.7-9.7-41.3c-9.6-1.8-49.6,8.6-56.7,16.8
			c-1.6,1.9-0.1,20,2.7,42.7c-23.4,7.5-41.6,14.5-42.8,18c-3.7,10.3-1.3,49.5,5.6,55.2c1.6,1.3,21.6-4.2,46.3-12.2
			c3.8,22,7.6,38.9,9.7,39.7c5.9,2.1,45.3-6.5,50.4-11.1c1.9-1.7,1.6-23.1,0-49.1c23.1-8.4,41.2-15.8,42.3-18.1
			C331.3,87.7,330.5,48.8,326.9,44.5z"/>
	</g>
	<g>
		<path class="st22" d="M426.2,187.6c-11.3,6.9-30.7,6.3-34,4.1c-3.3-2.2-29.5-18.3-29.5-18.3l10.6-25l32.8,2.8L426.2,187.6z"/>
		<path class="st22" d="M315.7,151.2c0,0-21.9,31.1-19.1,37.8c2.8,6.7,28.3,29.5,32.8,29.5c4.4,0,26.2-2.1,29.8-5.4
			c3.6-3.4,3.6-59.6,3.6-59.6l-15.4-22.7l-27.7-2.3L315.7,151.2z"/>
		<path class="st22" d="M342.1,71.2c-14.4,1.1-28.4,5-36.1,18.3s-20.5,40-15.5,45c5,5,25.2,16.7,25.2,16.7l22.9-6.9l11.3-35.4
			L342.1,71.2z"/>
		<path class="st22" d="M412.7,48.3c-15.6-2.7-30,1.2-36.7,10.1s-20,41.1-20,41.1l24.4,12.2l36.7-36.7L412.7,48.3z"/>
		<path class="st23" d="M412.7,48.3c-2.2,0.1-16.3,17.1-33.1,39.2c-18.8-10.9-34.3-18.4-37.6-16.3c-9.4,6.1-36,41.1-36.1,50.9
			c0,2.2,14.1,11.4,32.7,22.2c-14.5,21.3-24.9,38.6-23.5,41.5c4.2,8.5,34.2,29,44,27.2c2.3-0.4,15.3-18.1,30.6-40.7
			c18.9,9.6,34.2,16.5,36.4,15.4c6.5-3.2,33.8-36.8,34.8-43.1c0.4-2.4-15.1-14.2-35-27.8c13.6-21.7,23.7-39,23-41.2
			C447.2,69.6,418.8,48.1,412.7,48.3z"/>
	</g>
	<g>
		<path class="st24" d="M358.7,165.1c-15.2-6.3-35.2-6.8-55.8-1.8s-110,22.8-117.2,35.6c-7.2,12.8,0,40.6,4.4,45.6
			c4.4,5,11.3,7,19.8,7.2c8.5,0.2,82.4-36.7,82.4-36.7L358.7,165.1z"/>
		<path class="st25" d="M205.3,206.3c-8.1,6-1.7,39.4,4.6,45.3c6.3,5.9,142-32.2,153-45.3c11-13.2,7.4-40.4-4.2-41.2
			C347.1,164.3,217.9,196.9,205.3,206.3z"/>
	</g>
	<g>
		<g>
			<path class="st26" d="M217,149.6c-17.3-5-22.9-5-58.8,3c-36,7.9-100.8,21.7-108.2,33.3c-7.4,11.7-0.7,43.3,3.5,46.3
				s11.6,3.4,14.8,4c3.1,0.6,68.6-30.2,68.6-30.2L217,149.6z"/>
			<path class="st26" d="M139.3,153.3c21.6-5.8,0-30,0-30l-4.9-9.5c-17.6,4.1-25.1,11.2-26.4,22.4
				C106.8,147.5,117.7,159.1,139.3,153.3z"/>
			<path class="st26" d="M147.9,228.2c-14.5,1.5-28.2,5.4-32.4,17.2c-4.2,11.8,9.5,21.5,28.3,17.7c18.8-3.8,14.4-20.1,14.4-20.1
				L147.9,228.2z"/>
		</g>
		<g>
			<path class="st27" d="M217,149.6c-11.5-0.8-140.7,31.8-153.4,41.2c-8.1,6-1.7,39.4,4.6,45.3c6.3,5.9,142-32.2,153-45.3
				C232.2,177.6,228.5,150.4,217,149.6z"/>
			<path class="st27" d="M140.3,152.9c29.1-8.6,19.3-46.5-5.9-39.1C105.9,122.3,111.2,161.6,140.3,152.9z"/>
			<path class="st27" d="M147.9,228.2c-42.8,12.7-27.8,42.6,3.4,33.3C182.5,252.2,166.8,222.6,147.9,228.2z"/>
		</g>
	</g>
</g>
</svg>
