<?xml version="1.0" encoding="utf-8"?>
<!-- Generator: Adobe Illustrator 22.0.1, SVG Export Plug-In . SVG Version: 6.00 Build 0)  -->
<svg version="1.1" id="Layer_1" xmlns="http://www.w3.org/2000/svg" xmlns:xlink="http://www.w3.org/1999/xlink" x="0px" y="0px"
	 viewBox="0 0 512 512" style="enable-background:new 0 0 512 512;" xml:space="preserve">
<style type="text/css">
	.st0{fill:#333333;}
	.st1{fill:#666666;}
	.st2{fill:#9E8482;}
	.st3{fill:#CDFCD5;}
	.st4{fill:#222222;}
	.st5{fill:#888888;}
	.st6{fill:#FFDCC3;}
	.st7{fill:#FFC8B4;}
	.st8{fill:#738299;}
	.st9{fill:#A0A0A0;}
	.st10{fill:#FFFCE5;}
	.st11{fill:#E6AA8C;}
	.st12{fill:#FFFFFF;}
	.st13{fill:#2662C8;}
	.st14{fill:#2646C8;}
	.st15{fill:#4E85FF;}
	.st16{fill:#FAFAFA;}
	.st17{fill:#FFFF76;}
	.st18{fill:#FFFB0F;}
	.st19{fill:#2649C8;}
	.st20{fill:#009FFF;}
	.st21{fill:#FFFB61;}
	.st22{fill:#FFCB3F;}
	.st23{fill:#D0D0D0;}
	.st24{fill:#00698A;}
	.st25{fill:#97BCFF;}
	.st26{fill:#97FFFF;}
</style>
<g>
	<g>
		<path class="st0" d="M263.7,435.8c-16.3-1.5-32.1-5.8-35.5-10.2c-3.4-4.3-8-34.8-4.3-52.5c3.7-17.7,24.7-27.2,32.8-28.5
			c8-1.2,22.7-0.9,32.5,2.5s-5.6,49-5.6,49L263.7,435.8z"/>
		<path class="st1" d="M265.6,353.9c-15.2,9.6-30,28.7-22.9,59.6s36.2,25.3,53.2,10.5c17-14.8,8.7-57.5,2.2-70.1
			C291.6,341.2,274.4,348.4,265.6,353.9z"/>
		<path d="M238.1,431.1l-0.6-0.7c0.2-0.1,3.6-3.1-0.1-7.9l-0.4-0.5c-4.3-5.6-9.6-12.5-8-16.3c0.3-0.7,0.7-1.5,1.2-2.4
			c1.9-3.7,4.8-9.4,3.8-16.8c-1.1-7.9-1.1-22.1,5.5-25.5c1.8-1,4.3-1.8,6.9-2.6c5.5-1.8,11.8-3.8,12.3-7.9c1-6.6,8.7-6.9,8.8-6.9
			l0,0.9c-0.3,0-7,0.3-7.9,6.1c-0.7,4.6-7.2,6.7-13,8.6c-2.6,0.8-5,1.6-6.8,2.5c-5.4,2.8-6.4,14.4-5,24.6c1,7.7-1.9,13.5-3.8,17.3
			c-0.5,0.9-0.9,1.7-1.1,2.4c-1.4,3.3,4.2,10.6,7.9,15.4l0.4,0.5C242.5,427.5,238.2,431,238.1,431.1z"/>
		<path class="st0" d="M270.7,370.3c-17.4,10.7-16.5,55.9,8.5,41.8C304.3,398.1,297.8,353.7,270.7,370.3z"/>
		<path d="M267.5,372.9c-11.3,11.3-11.9,39,0.9,41.7c11.2-2.9,12.4-15.5,14.8-22.9C285.6,384.1,278.9,369.4,267.5,372.9z"/>
		<path class="st2" d="M272.1,369.5c-0.5,0.2-0.9,0.5-1.4,0.8c-16.2,10-16.6,50,3.8,43.9c7-3.2,12.5-18.5,12.5-34.4
			C287.1,364.1,272.2,369.5,272.1,369.5z"/>
		<path class="st3" d="M276.9,372.6c-2.6,0-1.8,5.1,0,5.1C278.7,377.7,279.4,372.6,276.9,372.6z"/>
		<path class="st3" d="M276.9,407.5c-1.7,0-2.5,3.2-0.6,3.2C278.1,410.7,278.6,407.5,276.9,407.5z"/>
		<path class="st3" d="M268.2,378.7c-2.1,1.4,0.8,4.4,2.3,3.4C272,381.1,270.3,377.3,268.2,378.7z"/>
		<path class="st3" d="M280.9,400.5c-1.4,1-0.6,3.6,0.9,2.5S282.4,399.5,280.9,400.5z"/>
		<path class="st3" d="M263.1,388.6c-0.4,2.5,4.7,2.6,5,0.8C268.4,387.6,263.5,386.1,263.1,388.6z"/>
		<path class="st3" d="M283.6,392.5c-0.2,1,1.6,1.7,1.8,0.7C285.5,392.1,283.7,391.5,283.6,392.5z"/>
		<path class="st3" d="M263.1,399.9c1.7,1.9,5-2,3.8-3.3C265.7,395.2,261.4,397.9,263.1,399.9z"/>
		<path class="st3" d="M283.6,385.5c0.7,0.8,2.4-0.1,1.7-1C284.6,383.7,283,384.8,283.6,385.5z"/>
		<path class="st3" d="M268.4,408.1c2.3,1.1,3.8-3.8,2.2-4.6C269,402.8,266.1,407,268.4,408.1z"/>
		<path class="st3" d="M282.1,379.1c0.9,0.4,2.1-1.1,1.1-1.5S281.1,378.7,282.1,379.1z"/>
		<g>
			<path class="st3" d="M278.7,384.5c-4.1-0.2-7.5,12.2-2.2,12.9s11.6-3.6,11.8-5.4C288.5,390.1,283.7,384.7,278.7,384.5z"/>
			<path d="M289.3,392.5C289.3,392.4,289.3,392.4,289.3,392.5c0-0.1,0-0.1,0-0.1c0,0,0,0,0-0.1c0,0,0-0.1,0-0.1c0,0,0,0,0-0.1
				c0,0,0,0,0,0c0,0,0,0,0,0c0,0,0,0,0,0l-5.7-14.1c-0.2-0.5-0.8-0.8-1.3-0.6c-0.5,0.2-0.8,0.8-0.6,1.3l2,4.8l-5.9-9
				c-0.3-0.5-0.9-0.6-1.4-0.3s-0.6,0.9-0.3,1.4l8.8,13.4l-15-9.5c-0.5-0.3-1.1-0.2-1.4,0.3c-0.3,0.5-0.2,1.1,0.3,1.4l13.5,8.6
				c-0.3,0.1-0.5,0.3-0.6,0.6l-16-2.4c-0.6-0.1-1.1,0.3-1.1,0.8c-0.1,0.5,0.3,1.1,0.8,1.1l17.9,2.7l-18.7,4.8
				c-0.5,0.1-0.9,0.7-0.7,1.2c0.1,0.5,0.7,0.9,1.2,0.7l18.2-4.6L268.8,405c-0.5,0.3-0.6,0.9-0.2,1.4c0.2,0.3,0.5,0.4,0.8,0.4
				c0.2,0,0.4-0.1,0.6-0.2l13.9-9.8l-3.2,4.4c-0.2,0.2-0.2,0.5-0.2,0.8l-4.7,6.7c-0.3,0.5-0.2,1.1,0.2,1.4c0.2,0.1,0.4,0.2,0.6,0.2
				c0.3,0,0.6-0.1,0.8-0.4l11.8-16.8l0,0c0,0,0,0,0,0l0,0c0,0,0,0,0,0c0,0,0,0,0,0c0,0,0,0,0,0c0,0,0,0,0,0c0,0,0,0,0,0c0,0,0,0,0,0
				c0,0,0-0.1,0.1-0.1c0,0,0,0,0,0c0,0,0,0,0,0c0,0,0,0,0-0.1C289.3,392.6,289.3,392.6,289.3,392.5
				C289.3,392.5,289.3,392.5,289.3,392.5z"/>
		</g>
	</g>
	<g>
		<path class="st0" d="M392,352.2c-14.7-1.4-28.9-5.3-31.9-9.1c-3.1-3.9-7.2-31.3-3.9-47.2c3.3-15.9,22.2-24.5,29.4-25.6
			c7.2-1.1,20.4-0.8,29.2,2.2c8.8,3-5,44-5,44L392,352.2z"/>
		<path class="st1" d="M393.7,278.6c-13.6,8.7-26.9,25.8-20.6,53.6c6.4,27.8,32.5,22.8,47.8,9.4s7.8-51.7,1.9-63
			C417.1,267.2,401.6,273.6,393.7,278.6z"/>
		<path d="M369,348l-0.5-0.6c0.1-0.1,3.3-2.8-0.1-7.1l-0.4-0.5c-3.9-5-8.7-11.2-7.2-14.7c0.3-0.6,0.6-1.4,1.1-2.2
			c1.7-3.4,4.3-8.5,3.4-15.1c-1-7.1-1-19.8,4.9-22.9c1.7-0.9,3.9-1.6,6.2-2.3c5-1.6,10.6-3.4,11.1-7.1c0.9-5.9,7.8-6.2,7.9-6.2
			l0,0.8c-0.3,0-6.3,0.3-7.1,5.5c-0.6,4.2-6.5,6.1-11.7,7.7c-2.3,0.7-4.5,1.5-6.1,2.3c-4.8,2.5-5.7,12.9-4.5,22.1
			c0.9,6.9-1.7,12.1-3.5,15.6c-0.4,0.8-0.8,1.5-1,2.1c-1.3,3,3.8,9.5,7.1,13.8l0.4,0.5C372.9,344.7,369.1,347.9,369,348z"/>
		<path class="st0" d="M398.3,293.3c-15.6,9.6-14.9,50.2,7.6,37.6C428.4,318.3,422.6,278.4,398.3,293.3z"/>
		<path d="M395.4,295.7c-10.2,10.2-10.7,35,0.8,37.5c10.1-2.6,11.2-13.9,13.3-20.6C411.7,305.7,405.7,292.5,395.4,295.7z"/>
		<path class="st2" d="M399.5,292.6c-0.4,0.2-0.8,0.5-1.2,0.7c-14.6,9-14.9,44.9,3.4,39.4c6.3-2.8,11.3-16.7,11.3-30.9
			C413,287.7,399.6,292.6,399.5,292.6z"/>
		<path class="st3" d="M403.8,295.4c-2.3,0-1.6,4.5,0,4.5C405.4,299.9,406.1,295.4,403.8,295.4z"/>
		<path class="st3" d="M403.8,326.8c-1.5,0-2.2,2.9-0.6,2.9C405,329.6,405.4,326.8,403.8,326.8z"/>
		<path class="st3" d="M396,300.9c-1.9,1.3,0.7,4,2.1,3.1C399.4,303.1,397.9,299.6,396,300.9z"/>
		<path class="st3" d="M407.5,320.5c-1.3,0.9-0.5,3.2,0.8,2.3C409.7,321.8,408.8,319.6,407.5,320.5z"/>
		<path class="st3" d="M391.4,309.8c-0.4,2.3,4.2,2.3,4.5,0.7C396.2,308.9,391.8,307.5,391.4,309.8z"/>
		<path class="st3" d="M409.8,313.3c-0.1,0.9,1.5,1.6,1.6,0.6C411.6,312.9,410,312.4,409.8,313.3z"/>
		<path class="st3" d="M391.4,319.9c1.5,1.7,4.5-1.8,3.4-3C393.8,315.7,389.9,318.2,391.4,319.9z"/>
		<path class="st3" d="M409.9,307c0.6,0.7,2.1-0.1,1.5-0.9C410.8,305.4,409.3,306.3,409.9,307z"/>
		<path class="st3" d="M396.2,327.3c2.1,1,3.4-3.4,2-4.1C396.7,322.5,394.1,326.3,396.2,327.3z"/>
		<path class="st3" d="M408.5,301.3c0.8,0.4,1.9-1,1-1.4C408.6,299.5,407.7,300.9,408.5,301.3z"/>
		<g>
			<path class="st3" d="M405.5,306.1c-3.7-0.2-6.7,11-2,11.6c4.8,0.6,10.4-3.2,10.6-4.9C414.3,311.2,410,306.3,405.5,306.1z"/>
			<path d="M415,313.2C415,313.2,415,313.2,415,313.2C415,313.2,415,313.1,415,313.2c0-0.1,0-0.1,0-0.1c0,0,0-0.1,0-0.1
				c0,0,0,0,0-0.1c0,0,0,0,0,0c0,0,0,0,0,0c0,0,0,0,0,0l-5.1-12.6c-0.2-0.5-0.7-0.7-1.2-0.5c-0.5,0.2-0.7,0.7-0.5,1.2l1.8,4.3
				l-5.3-8.1c-0.3-0.4-0.8-0.5-1.2-0.3c-0.4,0.3-0.5,0.8-0.3,1.2l8,12l-13.5-8.6c-0.4-0.3-1-0.1-1.2,0.3c-0.3,0.4-0.1,1,0.3,1.2
				l12.1,7.7c-0.3,0.1-0.5,0.3-0.6,0.5l-14.4-2.2c-0.5-0.1-0.9,0.3-1,0.8c-0.1,0.5,0.3,0.9,0.8,1l16.1,2.5l-16.8,4.3
				c-0.5,0.1-0.8,0.6-0.6,1.1c0.1,0.5,0.6,0.8,1.1,0.6l16.4-4.2l-13.1,9.3c-0.4,0.3-0.5,0.8-0.2,1.3c0.2,0.2,0.5,0.4,0.7,0.4
				c0.2,0,0.4-0.1,0.5-0.2l12.5-8.8l-2.9,3.9c-0.1,0.2-0.2,0.4-0.2,0.7l-4.2,6c-0.3,0.4-0.2,1,0.2,1.3c0.2,0.1,0.3,0.2,0.5,0.2
				c0.3,0,0.6-0.1,0.7-0.4l10.6-15.1l0,0c0,0,0,0,0,0l0,0c0,0,0,0,0,0c0,0,0,0,0,0c0,0,0,0,0,0c0,0,0,0,0,0c0,0,0,0,0,0c0,0,0,0,0,0
				c0,0,0-0.1,0.1-0.1c0,0,0,0,0,0c0,0,0,0,0,0c0,0,0,0,0-0.1C415,313.3,415,313.3,415,313.2C415,313.3,415,313.3,415,313.2z"/>
		</g>
	</g>
	<path class="st4" d="M474,137.1c-9,0-9,12.6-8.2,14.1c0.8,1.5,8.2,4.8,8.2,7.7c0,2.9,10,2.5,7.3,14.5c-2.7,12-16.3,5.4-13.2-1.3
		c3.1-6.7,2.3-10,1-9.2c-1.3,0.8-8.4,4.5-7.7,15.7c0.8,11.2,17.6,15.4,24.3,6.2c6.7-9.2,1-23.2-2.4-26.3c-3.4-3.1-4.4-3.4-3.6-4
		c0.8-0.6,5.7-3.6,6.1-4.6C486.2,148.9,484.7,137.1,474,137.1z"/>
	<path class="st5" d="M503.5,197.1c-23-9.2-150.8-12.3-155.4-9.2c-4.6,3.1-120.6,31.7-123.7,40.4c-3.1,8.7,71,76.7,85.9,77.7
		c14.8,1,146.7-48.5,146.7-48.5L503.5,197.1z"/>
	<path class="st6" d="M150.9,441.2c-15.2,4.6-134.1-33.6-138.9-40.4c-18.9-27.1-8.2-75.1,2-80.7c10.2-5.6,55.7-31.2,62.3-32.2
		s18.9-64.4,29.6-72.1c10.7-7.7,103.2-26.1,108.8-26.1s92,13.8,99.1,18.9s-72.6,122.1-72.6,122.1L150.9,441.2z"/>
	<path class="st7" d="M147.4,423.1c0,0-43.1-18.6-83.1-29.4c-40-10.7-60.4-12-60.4-12c1.6,6.9,4.3,13.5,8.2,19.1
		c4.8,6.8,123.6,45,138.9,40.4l5.5-6.7C151.9,428.2,147.4,423.1,147.4,423.1z"/>
	<path class="st8" d="M461.1,237.5c0,0-97.1-8.2-108.8-5.6c-11.8,2.6-109.4,54.2-109.4,54.2l91.5,35.3L461.1,237.5z"/>
	<g>
		<path class="st9" d="M467.8,77.8c0,1.8,0.6,3.4,1.7,4.6c-1.1,1.3-1.7,2.9-1.7,4.6v9.3c0,1.8,0.6,3.4,1.7,4.6
			c-1.1,1.3-1.7,2.9-1.7,4.6v9.3c0,1.8,0.6,3.4,1.7,4.6c-1.1,1.3-1.7,2.9-1.7,4.6v9.3c0,1.8,0.6,3.4,1.7,4.6
			c-1.1,1.3-1.7,2.9-1.7,4.6v4.6c0,4,3.3,7.3,7.3,7.3s7.3-3.3,7.3-7.3v-4.6c0-1.8-0.6-3.4-1.7-4.6c1.1-1.3,1.7-2.9,1.7-4.6v-9.3
			c0-1.8-0.6-3.4-1.7-4.6c1.1-1.3,1.7-2.9,1.7-4.6v-9.3c0-1.8-0.6-3.4-1.7-4.6c1.1-1.3,1.7-2.9,1.7-4.6v-9.3c0-1.8-0.6-3.4-1.7-4.6
			c1.1-1.3,1.7-2.9,1.7-4.6 M477,133.6c0,1.1-0.9,1.9-1.9,1.9c-1.1,0-1.9-0.9-1.9-1.9v-9.3c0-1.1,0.9-1.9,1.9-1.9
			c1.1,0,1.9,0.9,1.9,1.9V133.6z M477,115c0,1.1-0.9,1.9-1.9,1.9c-1.1,0-1.9-0.9-1.9-1.9v-9.3c0-1.1,0.9-1.9,1.9-1.9
			c1.1,0,1.9,0.9,1.9,1.9V115z M477,96.4c0,1.1-0.9,1.9-1.9,1.9c-1.1,0-1.9-0.9-1.9-1.9v-9.3c0-1.1,0.9-1.9,1.9-1.9
			c1.1,0,1.9,0.9,1.9,1.9V96.4z M477,77.8c0,1.1-0.9,1.9-1.9,1.9c-1.1,0-1.9-0.9-1.9-1.9 M477,147.5c0,1.1-0.9,1.9-1.9,1.9
			c-1.1,0-1.9-0.9-1.9-1.9v-4.6c0-1.1,0.9-1.9,1.9-1.9c1.1,0,1.9,0.9,1.9,1.9V147.5z"/>
		<polygon class="st9" points="396.5,113.7 342.2,175.4 349.5,180.6 397.3,126.9 		"/>
		<polygon class="st9" points="407.1,189.8 411,183.7 336.1,108.2 334.4,116.4 		"/>
		<path class="st9" d="M396.5,126.8c0,0,85-38.5,87.9-42.7c2.9-4.2-0.1-13.4-0.1-13.4l-98.4,37.6l4.4,12.6L396.5,126.8z"/>
		<path class="st9" d="M330.5,103.2c-5.1,0.5-17.9,157.3-17.9,157.3c-0.5,6.2,5.1-3,5.1-3l6.6-70.8l17.9-4.9l10.7,60.8
			c0,0,6.1-2.6,6.6-5.1C360.2,235,335.7,102.7,330.5,103.2z M341.1,176.4c-0.4,1.1-16.3,4.2-16.9,4.2c-0.6,0,6.1-64.9,7.1-64.2
			C332.9,117.6,341.5,175.2,341.1,176.4z"/>
		<path class="st9" d="M330.5,103.2c0,0,149.5-36,153.7-32.6c4.2,3.4-87.8,43-87.8,43v13.1l-6.3-5.9l-58.8-4.4L330.5,103.2z"/>
		<polygon class="st9" points="330.5,103.2 396.5,113.7 397.3,126.9 331.4,116.4 		"/>
		<polygon class="st9" points="324.3,180.6 390.2,191.1 390.3,197.2 324.2,186.8 		"/>
		<polygon class="st9" points="342.2,175.4 408.1,185.9 408.2,192 342.1,181.6 		"/>
		<polygon class="st9" points="330.5,103.2 385.8,190.4 384.5,196.3 377.2,195.1 331.4,116.4 		"/>
		<polygon class="st9" points="396.5,113.7 324.3,180.6 324.2,186.8 396.5,126.8 		"/>
		<path class="st9" d="M396.5,113.7c-5.1,0.5-17.9,157.3-17.9,157.3c-0.5,6.2,5.1-3,5.1-3l6.6-70.8l17.9-4.9l10.7,60.8
			c0,0,6.1-2.6,6.6-5.1C426.1,245.5,401.6,113.2,396.5,113.7z M407.1,186.9c-0.4,1.1-16.3,4.2-16.9,4.2c-0.6,0,6.1-64.9,7.1-64.2
			C398.8,128,407.5,185.7,407.1,186.9z"/>
	</g>
	<path class="st10" d="M419,295.2c6.6,6.5,16.8,7.6,25,3.3c36-19.1,61.5-33.3,63.1-35.9c5.6-9.2,3.6-68-3.6-65.4
		c-7.2,2.6-170.6,78.7-176.8,76.1c-6.2-2.6-9.2-64.4-14.3-66.4c-5.1-2-84.3,8.2-96.1,21c-10.7,11.7-10.7,77.7-16.9,85.3
		c-6.1,7.7-45.5,23.5-51.6,39.9c-6.1,16.4-0.5,86.2,3.1,88.2c3.6,2,23.5-8,36.3-12.6c3.5-1.3,22.2-8.4,56.4-25.2
		c4.4-2.2,7.5-6.4,8.4-11.3c1.2-7.1,4.2-17.6,11.4-23.4c14.4-11.7,22.8-8.6,27.5-3.5c4.6,5,12,6.1,18,3c22.4-11.4,45.8-23.3,68.4-35
		c6-3.1,10.1-9,11.2-15.7c1.1-7.2,4.7-16.6,15.1-22.5C411,290.7,415.8,292,419,295.2z"/>
	<path d="M34,357.4c-2.8,9.8-5.4,13.4,28,19.8s43.6,5,42.7,1.3c-0.9-3.8,26.5-11.8-35.8-22.3C14.9,347.2,34,357.4,34,357.4z"/>
	<path class="st7" d="M38.1,353.2c0,0,16.2,3.9,31.4,6.8s45.9,6.2,45.9,6.2l-4.6,2.6c0,0-19.2-0.7-42.8-5.7
		c-23.6-5-45.9-9.4-45.9-9.4L38.1,353.2z"/>
	<path class="st7" d="M35,358.4c0,0,16.2,3.9,31.4,6.8s45.9,6.2,45.9,6.2l-4.6,2.6c0,0-19.2-0.7-42.8-5.7c-23.6-5-45.9-9.4-45.9-9.4
		L35,358.4z"/>
	<path class="st7" d="M30.9,364.3c0,0,16.2,3.9,31.4,6.8s45.9,6.2,45.9,6.2l-4.6,2.6c0,0-19.2-0.7-42.8-5.7
		c-23.6-5-45.9-9.4-45.9-9.4L30.9,364.3z"/>
	<path class="st11" d="M5.8,348.4c-5.7,17.7,13.8,23,35.3,26.1s4.1-28.1-10.2-32.2C16.5,338.2,11.4,331,5.8,348.4z"/>
	<path class="st11" d="M136.6,378.5c-7.6,14.8-49.6,7.7-54-1.2c-4.4-8.9,15.5-18.4,20.6-17.7S147.4,357.5,136.6,378.5z"/>
	<path class="st12" d="M37.1,352.6c-15.6-2-22.4,12.6-4.4,17.4S47.7,354,37.1,352.6z"/>
	<path class="st12" d="M95.3,365.8c-9.9,0.8-13.5,13-3.1,15.3C111.2,385.4,114.7,364.3,95.3,365.8z"/>
	<path class="st12" d="M118.4,368.7c-7.7,0-8,10.8,0,10.8S125.7,368.7,118.4,368.7z"/>
	<path class="st12" d="M131.4,369.9c-4.2,0.2-3.3,5.6,0,4.8S135.1,369.7,131.4,369.9z"/>
	<path class="st12" d="M19.4,350.5c-4-2.3-7.3,7-3.6,8.2C19.4,359.9,23.4,352.8,19.4,350.5z"/>
	<path class="st12" d="M11.2,348c-4.1,0.1-2.5,4.6,0,4.4C13.6,352.2,14.1,347.9,11.2,348z"/>
	<path class="st13" d="M326.7,273.3c-6.2-2.6-9.2-64.4-14.3-66.4c-5.1-2-84.3,8.2-96.1,21c-10.7,11.7-10.7,77.6-16.9,85.3
		C203,320.4,210,335,210,335l4,5l27.4,65.1c0,0-0.1-0.6,0-0.6l2.5-1.1c4.6-2,7.9-6.1,8.9-11c1.3-6.5,4.5-15.7,12.5-22.3
		c12.7-10.5,20.6-8,25.2-3.6c4.7,4.6,11.8,5.7,17.7,2.7l26.4-13.4C334.4,355.8,328.8,277.5,326.7,273.3z"/>
	<path class="st14" d="M327.9,279.4c-0.4-3.3-0.8-5.5-1.1-6.1c-6.2-2.6-9.2-64.4-14.3-66.4c-5.1-2-84.3,8.2-96.1,21
		c-10.7,11.7-10.7,77.6-16.9,85.3C203,320.4,210,335,210,335l4,5l4.9,11.6c6.7-8.5,20.7-23.8,45.4-40.5
		C292.8,291.7,317.7,282.6,327.9,279.4z"/>
	<path class="st15" d="M224.4,232.9c-15.9,15.1-15.7,73.6-13.2,75.6c2.6,2,106.8-27.6,107.3-34.2c0.5-6.6-6.6-55.7-12.3-57.7
		C300.6,214.5,239.2,218.9,224.4,232.9z"/>
	<path class="st15" d="M204.1,231.4c3.1,4-5.6,77.4-10.7,77.2s-113.5-16-112.9-19.5c0.7-4,23-68.7,30.3-70.3
		C123.8,215.8,197.1,222.4,204.1,231.4z"/>
	<path class="st13" d="M145.1,377.6c0,0,53.3-28.1,59.6-27.5c6.2,0.7,17.2,34.2,14.9,36.9c-2.3,2.6-72.3,36.1-72.3,36.1
		S143.8,396.7,145.1,377.6z"/>
	<path class="st16" d="M93.6,292.9c6.1,1.3,13.9,2.7,22.4,4.1l77.3-70.6c-8.2-2.3-20-4.2-32.2-5.7L93.6,292.9z"/>
	<path class="st16" d="M136.7,218.6l-52.5,72.2c0.5,0.1,1,0.3,1.5,0.4l4,0.8l58.8-72.5C144.4,219.1,140.4,218.8,136.7,218.6z"/>
	<path class="st16" d="M120.2,297.8c4.2,0.7,8.6,1.4,13,2.1l71.2-54.7c0.5-7.5,0.4-12.8-0.4-13.8c-0.7-0.9-2-1.7-3.8-2.5
		L120.2,297.8z"/>
	<path class="st17" d="M172.3,211.1c2.8-0.1,72.6-13,75.1-15.3c2.5-2.3-15.1-8-22.5-7.6C217.5,188.6,171.3,211.1,172.3,211.1z"/>
	<path class="st10" d="M149.3,350.1c0,0-53.9-0.4-79.5-5.6s-57.6-22.9-57.6-22.9c-1.8-9,59.8-35,68.5-34.3s120.8,18.5,118.5,25.7
		S172.4,327.5,149.3,350.1z"/>
	<g>
		<path class="st12" d="M37.9,393.5c-3.4,0.2-2.2,9.6,0,12c2.2,2.4,55,18.1,56.3,17.7c1.3-0.4,2.2-12.4,0-13.8
			C92,408.2,47.5,393.1,37.9,393.5z"/>
		<path d="M38.3,393.5c10.4,0,53.7,14.7,55.9,15.9c2.2,1.3,1.3,13.3,0,13.8c0,0,0,0-0.1,0c-2.7,0-54.1-15.3-56.3-17.7
			c-2.2-2.4-3.4-11.9,0-12C38,393.5,38.2,393.5,38.3,393.5 M38.3,390.5c-0.2,0-0.4,0-0.6,0c-1.9,0.1-3.5,1.3-4.3,3.2
			c-1.5,3.7-0.3,11,2.2,13.8c0.7,0.8,2,2.2,29.3,10.6c1.1,0.3,26.4,8.1,29.2,8.1c0.4,0,0.7-0.1,1-0.2c2.1-0.7,2.8-3,3.2-6.5
			c0.4-3.9,0.7-10.7-2.6-12.7C93.1,405.3,49.5,390.5,38.3,390.5L38.3,390.5z"/>
	</g>
	<path class="st18" d="M172.3,377.9c-3.2,3.2-2.3,13.4,0,13.4c2.3,0,25.7-11.9,27.2-13.4C201,376.4,183.4,366.8,172.3,377.9z"/>
	<path class="st16" d="M310.8,226c-1.5-5.3-3.1-8.9-4.5-9.5c-2.3-0.8-13.9-0.6-27.8,0.9L210,288.7l0,0c-0.4,10.9,0.2,19.1,1.2,19.8
		c0.9,0.7,13.6-2.3,30-6.8C259.3,282.9,299.3,240.9,310.8,226z"/>
	<path class="st19" d="M294,304.6c3.2-0.7,17.8-11.5,19.2-12.4s4.8-1.4,4.6,1.5c-0.2,2.9-4.1,7-9.2,10.4c-5.1,3.4-13.6,7.8-16.2,6.8
		c-2.5-1-3.3-2.7-2.1-3.4C291.4,306.7,291,305.2,294,304.6z"/>
	<path class="st20" d="M206.4,295.5c0,0,28.4-1.5,31.8,2.3s4.6,22.5,0,23.9s-23,4.4-26.8-0.4s-5-12.7-5-12.7"/>
	<path class="st21" d="M214.9,305.3c-1.7,1.1-0.8,6.6,0,6.9s17,1,18.5,0c1.5-1,0.3-4-1.3-5C230.6,306.2,218.2,303.2,214.9,305.3z"/>
	<path class="st12" d="M313.2,292.2c4.3-1.3,4.3,2.8,0,6.1s-20.2,12.2-21.7,10.3c-1.5-1.9,2.6-4.1,2.6-4.1s-6.1,1.4-4.3,5
		s6.4,4.2,13.5,0.3c7.2-3.9,17.1-10,16.6-16.4C319.3,287.1,313.2,292.2,313.2,292.2z"/>
	<path class="st12" d="M317.1,297.7c0,0,2.8,1.6,2.7,2c-0.1,0.4-3,3.8-3.6,3.8c-0.6,0-2.4-2.2-2.4-2.2"/>
	<path class="st22" d="M509.5,216.1c0,0-173.8,71.1-175,74.2c-1.2,3.1,1.1,32.8,5.7,33.6s88.2-55.9,128.4-72s41.8-15.7,41.8-15.7
		L509.5,216.1z"/>
	<path d="M495.8,215.9c-0.3,0.9-1.3,31.4,0,33.2s6.6-0.5,7.2-3.2s1.4-33.6,0.6-34.2S496.9,212.3,495.8,215.9z"/>
	<path d="M440.7,246.1c-0.3,0.9-1.3,31.4,0,33.2s6.6-0.5,7.2-3.2c0.6-2.7,1.4-33.6,0.6-34.2C447.6,241.2,441.8,242.5,440.7,246.1z"
		/>
	<path d="M477.2,244.3c0.1-1.1-0.9,12.5,7.8,7.7c8.7-4.8,10.2-31.8,3.7-28.3s-13.7,8.3-15.8,13.8s-4.1,13.4-5.5,13.3
		s-9.4-13.4-10-13.1c-0.7,0.3-7.3,11.9-7.2,13.3s8.7,6.2,8.2,7.3c-0.5,1.1-8.1,11.1-7.8,12.5s4.4,4.5,5.9,3.7s10.4-15.7,11.4-15.6
		C468.8,259.2,476.1,253,477.2,244.3z"/>
	<path d="M437.6,275.6c-0.8,1.7-10,14.8-11.4,15.6c-1.4,0.8-5.6-2.4-5.9-3.7c-0.3-1.4,7.3-11.3,7.8-12.5c0.5-1.1-8.1-5.9-8.2-7.3
		c-0.1-1.5,6.5-13,7.2-13.3c0.7-0.3,9.4,11.4,10,13.1C437.8,269.5,438.7,273.2,437.6,275.6z"/>
	<path class="st16" d="M211.7,268.6c-0.4,3.1-0.8,6.3-1,9.3l0,0l55.7-58.8l0,0c-3.1,0.5-6.1,1-9.2,1.6L211.7,268.6z"/>
	<path class="st16" d="M268.1,293.9l46.4-51.6c-0.6-3.1-1.2-6.1-1.8-8.9l-59.4,64.9C258.1,296.9,263.1,295.4,268.1,293.9z"/>
	<g>
		<path class="st12" d="M270.1,349.1c0-0.3,6-1.5,7.9-8.5c-10.1,20.8-9.2-26.5,2.1-12.9C288.7,338,270.1,363.5,270.1,349.1z
			 M273.8,336.6c0,8.2,3.8-0.8,4.2-2.4C278,324.5,274,336.5,273.8,336.6z"/>
		<path class="st12" d="M283.4,342.6c0-0.3,6-1.5,7.9-8.5c-10.1,20.8-9.2-26.5,2.1-12.9C302,331.6,283.4,357.1,283.4,342.6z
			 M287.1,330.2c0,8.2,3.8-0.8,4.2-2.4C291.3,318.1,287.3,330.1,287.1,330.2z"/>
		<path class="st12" d="M296.3,336.4c0-5.3,5.9-0.9,6.6-1.7c4.2-5.5-2-4.5-2-7.1c0-0.2,6.6-10.5,1.1-7.8c-1.8,0.9-2.5,7.4-5,5.6
			c-9.1-6.7,22.7-16.5,8.5-0.2C315.3,325.6,296.3,353.4,296.3,336.4z"/>
		<path class="st12" d="M308.9,330.3c0-5.3,5.9-0.9,6.6-1.7c4.2-5.5-2-4.5-2-7.1c0-0.2,6.6-10.5,1.1-7.8c-1.8,0.9-2.5,7.4-5,5.6
			c-9.1-6.7,22.7-16.5,8.5-0.2C327.9,319.5,308.9,347.3,308.9,330.3z"/>
	</g>
	<g>
		<path class="st23" d="M39.2,403.3c0-2.1,5.5,4.9,4.6-0.7c-2.5,2.2-5.6-3-4.4-5.3c1.3-2.3,4.9-1,6.3,1.8
			C49.6,406.8,39.2,409,39.2,403.3z M41.4,399.3c0,2.4,2,1.9,2.5,0.6C44.4,398.2,41.8,397.7,41.4,399.3z"/>
		<path class="st23" d="M46.9,405.2c0-1.2,0.5-2.3,1.7-2.4c-3-1.9-0.7-5,1.7-4.3c2.4,0.7,4.6,5,1.7,5.3
			C58.4,407.8,46.9,412.8,46.9,405.2z M49,405.5c0,2.1,2.5,2.4,2.5,0.4C51.4,403.6,49.4,404,49,405.5z M49.3,401
			c0.3,0.5,0.7,0.9,1,1.4c1.3-0.4,1.3-1.1,0-2.2C49.9,400.5,49.6,400.8,49.3,401z"/>
		<path class="st23" d="M54.5,406.9c0-3.1,1.2-10.4,5.9-4.7c3.6,4.3-1.9,1.4-1.5,1.2c-1,0.3-2.8-1.8-2.3,1.6c2.6-2.3,5.9,3.6,4,5.7
			C58.9,412.7,54.5,410.2,54.5,406.9z M56.7,407.7c0,2.3,2.1,1.9,2.5,0.6C59.7,406.5,57.1,406.1,56.7,407.7z"/>
		<path class="st23" d="M62,409.6c0-1.9,3.5,2.9,4.6,0.5c-0.3,0.6-1.5-3.9-1.3-3.2c0.1,0.3,1.4-0.1,1-0.6c-0.4-0.6-2.5-1.8-2-1.2
			c0.2,0.2-2,1.3-2.1-0.7c-0.4-6.4,10.5,2.7,5.2,3.8C73.2,412.1,62,416.8,62,409.6z"/>
		<path class="st23" d="M69.6,411.7c0-2.1,5.5,4.9,4.6-0.7c-2.5,2.2-5.6-3-4.4-5.3c1.3-2.3,4.9-1,6.3,1.8
			C79.9,415.2,69.6,417.4,69.6,411.7z M71.7,407.8c0,2.4,2,1.9,2.5,0.6C74.7,406.7,72.2,406.2,71.7,407.8z"/>
		<path class="st23" d="M77.2,413.6c0-1.2,0.5-2.3,1.7-2.4c-3-1.9-0.7-5,1.7-4.3c2.4,0.7,4.6,5,1.7,5.3
			C88.8,416.3,77.2,421.3,77.2,413.6z M79.4,414c0,2.1,2.5,2.4,2.5,0.4C81.8,412.1,79.7,412.5,79.4,414z M79.6,409.5
			c0.3,0.5,0.7,0.9,1,1.4c1.3-0.4,1.3-1.1,0-2.2C80.3,408.9,80,409.2,79.6,409.5z"/>
		<path class="st23" d="M84.7,417.9c-0.5-3.8,2.9-2.5,3.9-4.7c1.6-3.6-2.4-1-2.4-0.9c-4-3.3,3.1-5.1,4.7-0.8c1.4,3.7-2.9,3.9-4,5.7
			C97.7,420.2,84.7,420.4,84.7,417.9z"/>
	</g>
	<path class="st24" d="M182,305c-1-0.6-19.3-9.3-32.3-11.5c-13-2.2-15,0.3-13.8,1.3c1.3,1,47.1,12,47.1,12S186.9,307.8,182,305z"/>
	<path class="st25" d="M73.2,322.7c2.4,0,3.9,0.2,4.2,1.8c0.3,1.6,0.7,4.6-0.5,7.1s-2.7,3.9-3.3,3.6s0-7,0-7L73.2,322.7z"/>
	<path class="st24" d="M129.7,294.4c-1-0.6-19.3-9.3-32.3-11.5c-13-2.2-15,0.3-13.8,1.3s47.1,12,47.1,12S134.6,297.2,129.7,294.4z"
		/>
	<path class="st26" d="M73.2,322.7c-7-0.2-0.9,12.6,0.4,12.5C74.8,335,80.2,322.9,73.2,322.7z"/>
</g>
</svg>
