<?xml version="1.0" encoding="utf-8"?>
<!-- Generator: Adobe Illustrator 21.0.2, SVG Export Plug-In . SVG Version: 6.00 Build 0)  -->
<svg version="1.1" id="Layer_1" xmlns="http://www.w3.org/2000/svg" xmlns:xlink="http://www.w3.org/1999/xlink" x="0px" y="0px"
	 viewBox="0 0 512 512" style="enable-background:new 0 0 512 512;" xml:space="preserve">
<style type="text/css">
	.st0{clip-path:url(#SVGID_2_);}
	.st1{clip-path:url(#SVGID_4_);fill:#4593A6;}
	.st2{clip-path:url(#SVGID_4_);}
	.st3{opacity:0.3;clip-path:url(#SVGID_4_);}
	.st4{clip-path:url(#SVGID_6_);}
	.st5{clip-path:url(#SVGID_4_);fill:#FFFFFF;}
</style>
<g>
	<defs>
		<rect id="SVGID_1_" width="512" height="512"/>
	</defs>
	<clipPath id="SVGID_2_">
		<use xlink:href="#SVGID_1_"  style="overflow:visible;"/>
	</clipPath>
	<g class="st0">
		<defs>
			<rect id="SVGID_3_" width="512" height="512"/>
		</defs>
		<clipPath id="SVGID_4_">
			<use xlink:href="#SVGID_3_"  style="overflow:visible;"/>
		</clipPath>
		<path class="st1" d="M32,256C32,132.3,132.3,32,256,32s224,100.3,224,224S379.7,480,256,480S32,379.7,32,256"/>
		<path class="st2" d="M256,64c51.3,0,99.5,20,135.8,56.2C428,156.5,448,204.7,448,256s-20,99.5-56.2,135.8
			C355.5,428,307.3,448,256,448s-99.5-20-135.8-56.2C84,355.5,64,307.3,64,256s20-99.5,56.2-135.8C156.5,84,204.7,64,256,64 M256,0
			C114.6,0,0,114.6,0,256s114.6,256,256,256s256-114.6,256-256S397.4,0,256,0"/>
		<g class="st3">
			<g>
				<defs>
					<rect id="SVGID_5_" x="192" y="104" width="128" height="320"/>
				</defs>
				<clipPath id="SVGID_6_">
					<use xlink:href="#SVGID_5_"  style="overflow:visible;"/>
				</clipPath>
				<rect x="224" y="232" class="st4" width="64" height="160"/>
				<rect x="224" y="136" class="st4" width="64" height="64"/>
			</g>
		</g>
		<rect x="224" y="224" class="st5" width="64" height="160"/>
		<rect x="224" y="128" class="st5" width="64" height="64"/>
	</g>
</g>
</svg>
