<?xml version="1.0" encoding="utf-8"?>
<!-- Generator: Adobe Illustrator 22.0.1, SVG Export Plug-In . SVG Version: 6.00 Build 0)  -->
<svg version="1.1" id="Layer_1" xmlns="http://www.w3.org/2000/svg" xmlns:xlink="http://www.w3.org/1999/xlink" x="0px" y="0px"
	 viewBox="0 0 512 512" style="enable-background:new 0 0 512 512;" xml:space="preserve">
<style type="text/css">
	.st0{fill:#D7AB6E;}
	.st1{fill:#FFBC6E;}
	.st2{fill:#FFBE6E;}
	.st3{fill:#81446E;}
	.st4{fill:#FFAD6E;}
	.st5{fill:#FFCD6E;}
	.st6{fill:#FFF3AD;}
	.st7{fill:#816E6E;}
	.st8{fill:#E9AA6E;}
	.st9{fill:#BA676E;}
</style>
<g>
	<path class="st0" d="M87.4,508.7c-26.8-2.1-53.7-20.4-53.7-24.7c0-4.3,0-49.4,0-49.4l56.9,16.1l9.7,23.6L87.4,508.7z"/>
	<path class="st1" d="M85.2,459.3c0,0-5.4,44,2.1,49.4c7.5,5.4,361.8-54.7,368.2-65.5c6.4-10.7,5.4-76.2,5.4-76.2L85.2,459.3z"/>
	<path class="st2" d="M437.8,56.3c0,0,10.2,34.8,8.1,69.1s-5.4,82.7-15,88c-9.7,5.4-95.5,14-95.5,14l117,38.6l23.6-27.9l4.3-187.9
		l-27.9-8.6L437.8,56.3z"/>
	<path class="st2" d="M486.7,25.6C470.6,15.9,403,2,389,3.1S63.8,58.9,38,85.7S18.7,437.8,25.1,448.5s42.9,31.1,49.4,31.1
		c6.4,0,68.7-124.5,77.3-158.9c8.6-34.4,38.6-206.1,38.6-206.1l89.1-36.5l177.1-35.4L486.7,25.6z"/>
	<path class="st3" d="M61.6,67.5c0,0,1,28.4,5.4,32.2c8.6,7.5,41.9,5.4,76.2-7.5s34.4-16.1,34.4-21.5c0-5.4,1.4-29.4-0.4-35.1
		S125,38.5,125,38.5L61.6,67.5z"/>
	<path class="st4" d="M25.1,448.5c6.4,10.7,42.9,31.1,49.4,31.1c1.9,0,8.9-11.2,17.9-27.7l-6.1-102.2L74.5,135.1
		c0,0-42.9-34.4-36.5-49.4C12.2,112.6,18.7,437.8,25.1,448.5z"/>
	<path class="st5" d="M487.2,26.1C474.4,17.6,112.6,97,75,135.6c-11.2,11.5-9.7,333.8,0,343.5c9.7,9.7,390.7-60.1,401.5-75.1
		C487.2,389,500.1,34.7,487.2,26.1z M462,233.9c-5.4,6.4-190-50.5-195.4-64.4s-9.7-63.3-4.3-67.6c5.4-4.3,181.4-56.9,202.9-45.1
		C476.7,63,467.4,227.4,462,233.9z"/>
	<path class="st6" d="M100.3,329.4c0.8,12.2-3.2,114.9,0,121.3c3.2,6.4,354.2-54.7,360.7-61.2c6.5-6.5,4.3-106.3,0-110.6
		c-4.3-4.3-197.6-48.1-204-84.2c-6.4-36.1-152.4,21.6-156.7,50.2C96,273.6,98.1,295,100.3,329.4z"/>
	<path class="st7" d="M106.7,25.6c-35.5,9.3-52.8,37.9-42,49s100-12.5,109.7-27.5S172.2,8.4,106.7,25.6z"/>
	<g>
		<g>
			
				<ellipse transform="matrix(0.4701 -0.8826 0.8826 0.4701 -94.662 270.6781)" class="st8" cx="178.1" cy="214.2" rx="98.1" ry="72.5"/>
			<path class="st3" d="M175.3,152.7c0,0-64.8,130.5,3.8,110.6S175.3,152.7,175.3,152.7z"/>
		</g>
		<path class="st9" d="M174.8,176.8c0,0-11.7,23.4-15.5,47.1s3.8,26.8,7.5,25.7c3.8-1.1-3.1-15.9,1.8-35.8S174.8,176.8,174.8,176.8z
			"/>
	</g>
	<g>
		<path d="M127.8,352.4c-9.3,6.6-9.2-14.4,0-10.5C118.4,348.8,126.5,347.8,127.8,352.4z"/>
		<path d="M129.4,340.7c0.8,1.2,2.1,1.1,1.3,4.8c2.8,1.8,2.5-0.1,4.8,6c-0.7-0.5-1.5-6.8-3-6.5c-1.7,0.3-2.9,7.1-3.2,7.5
			C129.4,348.5,129.4,344.6,129.4,340.7z"/>
		<path d="M141.7,350.5c-1-1.3-4.6,2.8-4.6-1.4c0-7.9,5.6,0.3,0.5-5.5C144.4,337.7,141.7,350.6,141.7,350.5z M141.5,346.4
			C138.6,346.8,138.7,351.5,141.5,346.4z"/>
		<path d="M144.9,344.1c0-4.9,5-0.2,6.2,4.9c-0.8-0.5-1.4-6.8-3-6.5c-1.7,0.3-2.9,7.1-3.2,7.5C144.9,348.1,144.9,346.1,144.9,344.1z
			"/>
		<path d="M159.5,339.7c-0.2,3.6,0.5,15.7-6.1,11.8c1.4-2.1,3.3-0.5,4.8-5c-1.7-0.5-5.4,8.5-5.4-1.7
			C152.7,340.9,158.1,340.6,159.5,339.7z M158.1,343c0-1.9-4.1-3.7-4.1,1.5C154.1,353.7,158.9,342.6,158.1,343z"/>
		<path d="M163,336.8C163.1,339.7,163,333.8,163,336.8z M161.5,347.4c0.5-4.1-0.9-6.1,1.3-8.3C163.5,342.5,161.6,346.4,161.5,347.4z
			"/>
		<path d="M165,341c0-4.9,5-0.2,6.2,4.9c-0.8-0.5-1.4-6.8-3-6.5c-1.7,0.3-2.9,7.1-3.2,7.5C165,344.9,165,342.9,165,341z"/>
		<path d="M179.6,336.5c-0.2,3.6,0.5,15.7-6.1,11.8c1.4-2.1,3.3-0.5,4.8-5c-1.7-0.5-5.4,8.5-5.4-1.7
			C172.8,337.7,178.2,337.4,179.6,336.5z M178.2,339.9c0-1.9-4.1-3.7-4.1,1.5C174.1,350.6,179,339.4,178.2,339.9z"/>
		<path d="M184.8,337.8c0-5.8,8.7-0.5,10.3,4.2c-0.3-0.3-1.8-6.7-2.9-6.6c-3.4,0.5-0.5,6.1-1.7,7.3c-0.7-0.4-1.4-6.8-2.8-6.6
			c-1.5,0.2-2.8,7.2-3,7.5C184.8,341.7,184.8,339.8,184.8,337.8z"/>
		<path d="M203.9,336.6c-1.2,1.6-2.4,3.2-3.6,4.8C190.4,343,203.9,324.8,203.9,336.6z M198.1,337.6c1.5,3.9,2.9,3.7,4.4-0.7
			C201.1,332.9,199.6,333.2,198.1,337.6z"/>
		<path d="M207.1,329.8c0.8,3.7,0.5,4.9,1.8,10C202.4,343.9,207.2,328.6,207.1,329.8z"/>
		<path d="M216.9,334.5c-1.2,1.6-2.4,3.2-3.6,4.8C203.5,340.9,216.9,322.7,216.9,334.5z M211.2,335.5c1.5,3.9,2.9,3.7,4.4-0.7
			C214.1,330.8,212.7,331.1,211.2,335.5z"/>
		<path d="M218.6,332.8c0-1.4,1.3-3.5,3.6-3.2c-0.9,2.9-1.4,4.8-2.3,8.5C218.6,337.8,218.3,332.8,218.6,332.8z"/>
		<path d="M233.2,331.9c-1.2,1.6-2.4,3.2-3.6,4.8C219.7,338.3,233.2,320.1,233.2,331.9z M227.5,332.9c1.5,3.9,2.9,3.7,4.4-0.7
			C230.4,328.3,229,328.5,227.5,332.9z"/>
		<path d="M236.3,325.2C236.4,328.1,236.3,322.2,236.3,325.2z M234.9,335.7c0.5-4.1-0.9-6.1,1.3-8.3
			C236.9,330.9,235,334.7,234.9,335.7z"/>
		<path d="M238.4,323.4c0.2,2.2,1.9,8.4,0,11.8C238.4,331.2,238.4,327.3,238.4,323.4z"/>
		<path d="M245.6,326c0.7,1.3,1.3,4.9,1.5,6.4c0.2-0.3,3.1-7.5,3-7.1c1.3,0.6,0.7,5.7,1.8,6.4c0.4-3,0.7-5.9,2.9-7.1
			c-0.8,2.8-1.6,5.6-2.3,8.4c-1.9-0.9-2.4-3.1-2.9-6c-1.2,3.5-1,5-3.1,7C245.6,332.2,245.3,324.9,245.6,326z"/>
		<path d="M257.6,321.8C257.6,324.7,257.6,318.8,257.6,321.8z M256.1,332.4c0.5-4.1-0.9-6.1,1.3-8.3
			C258.1,327.5,256.2,331.4,256.1,332.4z"/>
		<path d="M259.6,320c0.2,2.2,1.9,8.4,0,11.8C259.6,327.9,259.6,323.9,259.6,320z"/>
		<path d="M263.1,319.4c0.2,2.2,1.9,8.4,0,11.8C263.1,327.3,263.1,323.4,263.1,319.4z"/>
		<path d="M269.8,318.4c0.8,1.2,2.1,1.1,1.3,4.8c2.8,1.8,2.5-0.1,4.8,6c-0.7-0.5-1.5-6.8-3-6.5c-1.7,0.3-2.9,7.1-3.2,7.5
			C269.8,326.3,269.8,322.3,269.8,318.4z"/>
		<path d="M278.9,325c0,1.8,4.2,2.5,4.7,2.7c-4.8,3.2-8.6-6.5-2.6-7.5C293.4,318.2,276.9,328.7,278.9,325z M282.7,323.3
			C282.7,321.5,275.8,322.3,282.7,323.3z"/>
		<path d="M285.6,315.9c0.2,2.2,1.9,8.4,0,11.8C285.6,323.7,285.6,319.8,285.6,315.9z"/>
		<path d="M289.1,321.7c0-3.9,6.8-3.2,6.8,0.2c0-1.7-7.3,9.1-6.8,8.5C289.1,327.5,289.1,324.6,289.1,321.7z M290.4,323.6
			c0,1.9,4.2,4,4.2-1.5C294.7,313,289.8,324,290.4,323.6z"/>
		<path d="M121.2,365.7c0.6,0.1,1.8,5.3,2.1,6.1c0.6-2.4,3.1-6.2,3.3-6.9c-1,3.5-2.6,11.4-6.1,12.7C122.4,373,121,368.7,121.2,365.7
			z"/>
		<path d="M134.2,367.6c-1.2,1.6-2.4,3.2-3.6,4.8C120.7,374,134.2,355.8,134.2,367.6z M128.5,368.6c1.5,3.9,2.9,3.7,4.4-0.7
			C131.4,364,129.9,364.2,128.5,368.6z"/>
		<path d="M141.9,368.3c0,5-5,0.2-6.1-4.9c0.7,0.4,1.6,6.8,2.9,6.6c1.8-0.3,2.9-7.1,3.2-7.5C141.9,364.4,141.9,366.3,141.9,368.3z"
			/>
		<path d="M147.3,363.7c0-5.8,8.7-0.5,10.3,4.2c-0.3-0.3-1.8-6.7-2.9-6.6c-3.4,0.5-0.5,6.1-1.7,7.3c-0.7-0.4-1.4-6.8-2.8-6.6
			c-1.5,0.2-2.8,7.2-3,7.5C147.3,367.7,147.3,365.7,147.3,363.7z"/>
		<path d="M163.8,367c-1-1.3-4.6,2.8-4.6-1.4c0-7.9,5.6,0.3,0.5-5.5C166.4,354.2,163.8,367.1,163.8,367z M163.6,362.9
			C160.7,363.3,160.7,367.9,163.6,362.9z"/>
		<path d="M168.3,361.9c1-2.3,2.5-3.8,4.4-4.4c-0.7,3.9-4.6,4.5,0.4,8c-2.1,0.4-3.1-1.3-4.1-3.2c0.4,0.9-0.8,4-2,4.2
			c0-3.9,0-7.9,0-11.8C169.3,356,167.7,358.2,168.3,361.9z"/>
		<path d="M174.7,361.5c0,1.8,4.2,2.5,4.7,2.7c-4.8,3.2-8.6-6.5-2.6-7.5C189.2,354.7,172.8,365.2,174.7,361.5z M178.6,359.8
			C178.6,358,171.6,358.8,178.6,359.8z"/>
		<path d="M185.1,355.6c0.6,0.1,1.8,5.3,2.1,6.1c0.6-2.4,3.1-6.2,3.3-6.9c-1,3.5-2.6,11.4-6.1,12.7
			C186.2,362.9,184.9,358.5,185.1,355.6z"/>
		<path d="M198.1,357.5c-1.2,1.6-2.4,3.2-3.6,4.8C184.6,363.9,198.1,345.7,198.1,357.5z M192.3,358.5c1.5,3.9,2.9,3.7,4.4-0.7
			C195.3,353.8,193.8,354.1,192.3,358.5z"/>
		<path d="M205.8,358.1c0,5-5,0.2-6.1-4.9c0.7,0.4,1.6,6.8,2.9,6.6c1.8-0.3,2.9-7.1,3.2-7.5C205.8,354.2,205.8,356.2,205.8,358.1z"
			/>
		<path d="M208,354.4c0-1.4,1.3-3.5,3.6-3.2c-0.9,2.9-1.4,4.8-2.3,8.5C208,359.5,207.7,354.4,208,354.4z"/>
		<path d="M221.2,357.6c-6.9,5.1-6.9-10.3,0-7.5c-0.6,0.4-4.4,3-4.4,4.5C216.9,360.8,220.5,354.7,221.2,357.6z"/>
		<path d="M226.8,357c-1-1.3-4.6,2.8-4.6-1.4c0-7.9,5.6,0.3,0.5-5.5C229.4,344.2,226.8,357.1,226.8,357z M226.6,352.9
			C223.7,353.3,223.7,357.9,226.6,352.9z"/>
		<path d="M230,351c0-1.4,1.3-3.5,3.6-3.2c-0.9,2.9-1.4,4.8-2.3,8.5C229.9,356,229.7,351,230,351z"/>
		<path d="M237.8,353.7c6.3,3.6-3.9-11,4.2-6.9c-2.8,6.8,0.3-2.9,0.3,5.5C242.3,356.2,236.5,355.7,237.8,353.7z"/>
		<path d="M245.5,343.7c0.8,3.8,0.5,4.9,1.8,10C240.8,357.7,245.6,342.4,245.5,343.7z"/>
		<path d="M248.9,347.9c0-1.4,1.3-3.5,3.6-3.2c-0.9,2.9-1.4,4.8-2.3,8.5C248.9,353,248.6,347.9,248.9,347.9z"/>
		<path d="M260.2,347.6c-1.2,1.6-2.4,3.2-3.6,4.8C246.7,354,260.2,335.8,260.2,347.6z M254.4,348.6c1.5,3.9,2.9,3.7,4.4-0.7
			C257.4,344,255.9,344.2,254.4,348.6z"/>
		<path d="M261.8,345.6c0-4.9,5-0.2,6.2,4.9c-0.8-0.5-1.4-6.8-3-6.5c-1.7,0.3-2.9,7.1-3.2,7.5C261.8,349.5,261.8,347.5,261.8,345.6z
			"/>
		<path d="M276.4,341.1c-0.2,3.6,0.5,15.7-6.1,11.8c1.4-2.1,3.3-0.5,4.8-5c-1.7-0.5-5.4,8.5-5.4-1.7
			C269.6,342.3,275,342,276.4,341.1z M275,344.5c0-1.9-4.1-3.7-4.1,1.5C271,355.2,275.8,344,275,344.5z"/>
		<path d="M279.2,344.9c0,1.8,4.2,2.5,4.7,2.7c-4.8,3.2-8.6-6.5-2.6-7.5C293.7,338.1,277.3,348.7,279.2,344.9z M283.1,343.2
			C283.1,341.4,276.2,342.2,283.1,343.2z"/>
		<path d="M286,342.1c0-1.4,1.3-3.5,3.6-3.2c-0.9,2.9-1.4,4.8-2.3,8.5C286,347.1,285.7,342.1,286,342.1z"/>
		<path d="M295.7,335.7c0.8,3.7,0.5,4.9,1.8,10C290.9,349.8,295.8,334.5,295.7,335.7z"/>
		<path d="M299,333.7c0.8,1.2,2.1,1.1,1.3,4.8c2.8,1.8,2.5-0.1,4.8,6c-0.7-0.5-1.5-6.8-3-6.5c-1.7,0.3-2.9,7.1-3.2,7.5
			C299,341.6,299,337.7,299,333.7z"/>
		<path d="M311.3,343.6c-1-1.3-4.6,2.8-4.6-1.4c0-7.9,5.6,0.3,0.5-5.5C314,330.8,311.3,343.6,311.3,343.6z M311.1,339.5
			C308.2,339.9,308.2,344.5,311.1,339.5z"/>
		<path d="M314.5,337.2c0-4.9,5-0.2,6.2,4.9c-0.8-0.5-1.4-6.8-3-6.5c-1.7,0.3-2.9,7.1-3.2,7.5C314.5,341.1,314.5,339.2,314.5,337.2z
			"/>
		<path d="M326,335.8c0-3.9,6.8-3.2,6.8,0.2c0-1.7-7.3,9.1-6.8,8.5C326,341.6,326,338.7,326,335.8z M327.3,337.8
			c0,1.9,4.2,4,4.2-1.5C331.5,327.1,326.6,338.1,327.3,337.8z"/>
		<path d="M334.5,334.4c0-1.4,1.3-3.5,3.6-3.2c-0.9,2.9-1.4,4.8-2.3,8.5C334.5,339.4,334.2,334.4,334.5,334.4z"/>
		<path d="M340,335.3c0,1.8,4.2,2.5,4.7,2.7c-4.8,3.2-8.6-6.5-2.6-7.5C354.5,328.5,338,339,340,335.3z M343.8,333.6
			C343.9,331.8,336.9,332.6,343.8,333.6z"/>
		<path d="M347.3,329.8c0.6,0.3,1.8,5.5,2,6.3c-0.3,0.3,3.8-8.2,3.4-7.1c-1.5,4-2.2,6.2-4.1,8.7C347.6,336,346.8,328.7,347.3,329.8z
			"/>
		<path d="M120.6,392.3c6.3,3.6-3.9-11,4.2-6.9c-2.8,6.8,0.3-2.9,0.3,5.5C125,394.8,119.3,394.3,120.6,392.3z"/>
		<path d="M128.3,382.2c0.8,3.8,0.5,4.9,1.8,10C123.5,396.3,128.4,381,128.3,382.2z"/>
		<path d="M135.6,391.4c-1-1.3-4.6,2.8-4.6-1.4c0-7.9,5.6,0.3,0.5-5.5C138.3,378.6,135.6,391.5,135.6,391.4z M135.4,387.4
			C132.5,387.7,132.6,392.4,135.4,387.4z"/>
		<path d="M140.4,380.3c0.8,3.8,0.5,4.9,1.8,10C135.6,394.4,140.5,379.1,140.4,380.3z"/>
		<path d="M144.4,386.3c0,1.8,4.2,2.5,4.7,2.7c-4.8,3.2-8.6-6.5-2.6-7.5C158.9,379.5,142.4,390,144.4,386.3z M148.2,384.6
			C148.3,382.8,141.3,383.6,148.2,384.6z"/>
		<path d="M151,387.5c6.3,3.6-3.9-11,4.2-6.9c-2.8,6.8,0.3-2.9,0.3,5.5C155.4,390,149.7,389.4,151,387.5z"/>
		<path d="M156,390.2C158.5,382.4,157.5,386.7,156,390.2z"/>
		<path d="M163.1,387.1c0.2-3.9,0.1-7.9,0.1-11.8c-0.3-0.3,6.8,9.4,6.8,6.6C170,385.4,164.3,386.6,163.1,387.1z M164.5,383.6
			c0,1.8,4.2,3.9,4.2-1.5C168.7,372.8,163.8,384,164.5,383.6z"/>
		<path d="M172.4,381.8c0,1.8,4.2,2.5,4.7,2.7c-4.8,3.2-8.6-6.5-2.6-7.5C186.9,375.1,170.5,385.6,172.4,381.8z M176.3,380.2
			C176.3,378.3,169.3,379.2,176.3,380.2z"/>
		<path d="M184.3,383.4c-6.9,5.1-6.9-10.3,0-7.5c-0.6,0.4-4.4,3-4.4,4.5C180,386.7,183.7,380.6,184.3,383.4z"/>
		<path d="M189.9,382.8c-1-1.3-4.6,2.8-4.6-1.4c0-7.9,5.6,0.3,0.5-5.5C192.5,370,189.9,382.9,189.9,382.8z M189.7,378.7
			C186.8,379.1,186.8,383.8,189.7,378.7z"/>
		<path d="M193.1,376.8c0-1.4,1.3-3.5,3.6-3.2c-0.9,2.9-1.4,4.8-2.3,8.5C193.1,381.8,192.8,376.8,193.1,376.8z"/>
		<path d="M198.6,381.4c0-2-1.9-14.1,3.7-12.4C200.3,374.2,201.2,374.9,198.6,381.4z"/>
		<path d="M208.8,377.6c0,5-5,0.2-6.1-4.9c0.7,0.4,1.6,6.8,2.9,6.6c1.8-0.3,2.9-7.1,3.2-7.5C208.8,373.7,208.8,375.7,208.8,377.6z"
			/>
		<path d="M211,367.7c0.2,2.2,1.9,8.4,0,11.8C211,375.5,211,371.6,211,367.7z"/>
		<path d="M214.6,367.1c0.2,2.2,1.9,8.4,0,11.8C214.6,375,214.6,371,214.6,367.1z"/>
		<path d="M222.8,367.2c0.8,3.7,0.5,4.9,1.8,10C218.1,381.3,222.9,366,222.8,367.2z"/>
		<path d="M232.7,371.9c-1.2,1.6-2.4,3.2-3.6,4.8C219.2,378.4,232.7,360.1,232.7,371.9z M226.9,372.9c1.5,3.9,2.9,3.7,4.4-0.7
			C229.9,368.3,228.4,368.5,226.9,372.9z"/>
		<path d="M237.5,369.8c0-3.9,6.8-3.2,6.8,0.2c0-1.7-7.3,9.1-6.8,8.5C237.5,375.7,237.5,372.7,237.5,369.8z M238.8,371.8
			c0,1.9,4.2,4,4.2-1.5C243,361.1,238.1,372.2,238.8,371.8z"/>
		<path d="M252.1,370.8c0,5-5,0.2-6.1-4.9c0.7,0.4,1.6,6.8,2.9,6.6c1.8-0.3,2.9-7.1,3.2-7.5C252.1,366.9,252.1,368.8,252.1,370.8z"
			/>
		<path d="M255.8,362c0.8,3.7,0.5,4.9,1.8,10C251.1,376.1,255.9,360.8,255.8,362z"/>
		<path d="M264,360.7c0.8,3.7,0.5,4.9,1.8,10C259.2,374.8,264.1,359.5,264,360.7z"/>
		<path d="M267.3,365c0-1.4,1.3-3.5,3.6-3.2c-0.9,2.9-1.4,4.8-2.3,8.5C267.3,370,267,365,267.3,365z"/>
		<path d="M278.3,366.6c0,5-5,0.2-6.1-4.9c0.7,0.4,1.6,6.8,2.9,6.6c1.8-0.3,2.9-7.1,3.2-7.5C278.3,362.7,278.3,364.6,278.3,366.6z"
			/>
		<path d="M281.2,364.6c0,1.8,4.2,2.5,4.7,2.7c-4.8,3.2-8.6-6.5-2.6-7.5C295.7,357.8,279.2,368.3,281.2,364.6z M285,362.9
			C285.1,361.1,278.1,361.9,285,362.9z"/>
		<path d="M291.1,366.8c0.2-3.9,0.1-7.9,0.1-11.8c-0.3-0.3,6.8,9.4,6.8,6.6C298,365.1,292.2,366.3,291.1,366.8z M292.4,363.3
			c0,1.8,4.2,3.9,4.2-1.5C296.7,352.5,291.7,363.7,292.4,363.3z"/>
		<path d="M299.6,359.9c0-1.4,1.3-3.5,3.6-3.2c-0.9,2.9-1.4,4.8-2.3,8.5C299.6,364.9,299.3,359.9,299.6,359.9z"/>
		<path d="M308.5,364c-1-1.3-4.6,2.8-4.6-1.4c0-7.9,5.6,0.3,0.5-5.5C311.1,351.2,308.5,364.1,308.5,364z M308.3,359.9
			C305.4,360.3,305.4,364.9,308.3,359.9z"/>
		<path d="M311.7,357.6c0-4.9,5-0.2,6.2,4.9c-0.8-0.5-1.4-6.8-3-6.5c-1.7,0.3-2.9,7.1-3.2,7.5C311.7,361.5,311.7,359.6,311.7,357.6z
			"/>
		<path d="M326.2,349.4c0.6,3.7-0.3,8,0.1,11.8c-1-0.1-6.8,0.3-6.8-2.8C319.4,360.4,326.7,348.6,326.2,349.4z M324.9,356.6
			c0-1.9-4.1-4-4.1,1.5C320.8,367.3,325.6,356.2,324.9,356.6z"/>
		<path d="M333,349.8C333.1,352.7,333,346.8,333,349.8z M331.6,360.3c0.5-4.1-0.9-6.1,1.3-8.3C333.5,355.5,331.7,359.3,331.6,360.3z
			"/>
		<path d="M335.1,353.9c0-4.9,5-0.2,6.2,4.9c-0.8-0.5-1.4-6.8-3-6.5c-1.7,0.3-2.9,7.1-3.2,7.5C335.1,357.8,335.1,355.9,335.1,353.9z
			"/>
		<path d="M347,349.8c0.6,0.1,1.8,5.3,2.1,6.1c0.6-2.4,3.1-6.2,3.3-6.9c-1,3.5-2.6,11.4-6.1,12.7C348.1,357.2,346.8,352.8,347,349.8
			z"/>
		<path d="M360,351.7c-1.2,1.6-2.4,3.2-3.6,4.8C346.5,358.2,360,339.9,360,351.7z M354.2,352.7c1.5,3.9,2.9,3.7,4.4-0.7
			C357.2,348.1,355.7,348.3,354.2,352.7z"/>
		<path d="M367.7,352.4c0,5-5,0.2-6.1-4.9c0.7,0.4,1.6,6.8,2.9,6.6c1.8-0.3,2.9-7.1,3.2-7.5C367.7,348.5,367.7,350.5,367.7,352.4z"
			/>
		<path d="M369.9,348.7c0-1.4,1.3-3.5,3.6-3.2c-0.9,2.9-1.4,4.8-2.3,8.5C369.9,353.8,369.6,348.7,369.9,348.7z"/>
		<path d="M383.1,351.9c-6.9,5.1-6.9-10.3,0-7.5c-0.6,0.4-4.4,3-4.4,4.5C378.7,355.1,382.4,349,383.1,351.9z"/>
		<path d="M388.7,351.3c-1-1.3-4.6,2.8-4.6-1.4c0-7.9,5.6,0.3,0.5-5.5C391.3,338.5,388.7,351.3,388.7,351.3z M388.5,347.2
			C385.6,347.6,385.6,352.2,388.5,347.2z"/>
		<path d="M391.9,345.2c0-1.4,1.3-3.5,3.6-3.2c-0.9,2.9-1.4,4.8-2.3,8.5C391.8,350.3,391.6,345.2,391.9,345.2z"/>
		<path d="M122.3,403.1c0.8,3.8,0.5,4.9,1.8,10C117.6,417.2,122.5,401.9,122.3,403.1z"/>
		<path d="M125.7,401.2c0.8,1.2,2.1,1.1,1.3,4.8c2.8,1.8,2.5-0.1,4.8,6c-0.7-0.5-1.5-6.8-3-6.5c-1.7,0.3-2.9,7.1-3.2,7.5
			C125.7,409,125.7,405.1,125.7,401.2z"/>
		<path d="M135.5,401.1C135.6,404,135.5,398.1,135.5,401.1z M134,411.7c0.5-4.1-0.9-6.1,1.3-8.3C136,406.8,134.1,410.7,134,411.7z"
			/>
		<path d="M137.3,409.6c6.3,3.6-3.9-11,4.2-6.9c-2.8,6.8,0.3-2.9,0.3,5.5C141.7,412.1,136,411.6,137.3,409.6z"/>
		<path d="M147.1,401.5c0.7,1.3,1.2,4.9,1.5,6.4c0.2-0.3,3.1-7.5,3-7.1c1.3,0.6,0.7,5.7,1.8,6.4c0.4-3,0.7-5.9,2.9-7.1
			c-0.8,2.8-1.6,5.6-2.3,8.4c-1.9-0.9-2.4-3.1-2.9-6c-1.2,3.5-1,5-3.1,7C147.1,407.8,146.8,400.5,147.1,401.5z"/>
		<path d="M159.1,397.4C159.2,400.3,159.1,394.4,159.1,397.4z M157.6,407.9c0.5-4.1-0.9-6.1,1.3-8.3
			C159.6,403,157.7,406.9,157.6,407.9z"/>
		<path d="M161.1,395.5c0.2,2.2,1.9,8.4,0,11.8C161.1,403.4,161.1,399.5,161.1,395.5z"/>
		<path d="M164.6,395c0.2,2.2,1.9,8.4,0,11.8C164.6,402.9,164.6,398.9,164.6,395z"/>
		<path d="M171.3,399.9c0-5.8,8.7-0.5,10.3,4.2c-0.3-0.3-1.8-6.7-2.9-6.6c-3.4,0.5-0.5,6.1-1.7,7.3c-0.7-0.4-1.4-6.8-2.8-6.6
			c-1.5,0.2-2.8,7.2-3,7.5C171.3,403.8,171.3,401.8,171.3,399.9z"/>
		<path d="M187.8,403.1c-1-1.3-4.6,2.8-4.6-1.4c0-7.9,5.6,0.3,0.5-5.5C190.5,390.3,187.8,403.2,187.8,403.1z M187.6,399
			C184.7,399.4,184.7,404.1,187.6,399z"/>
		<path d="M192.3,398c1-2.3,2.5-3.8,4.4-4.4c-0.7,3.9-4.6,4.5,0.4,8c-2.1,0.4-3.1-1.3-4.1-3.2c0.4,0.9-0.8,4-2,4.2
			c0-3.9,0-7.9,0-11.8C193.3,392.1,191.8,394.3,192.3,398z"/>
		<path d="M198.8,397.6c0,1.8,4.2,2.5,4.7,2.7c-4.8,3.2-8.6-6.5-2.6-7.5C213.3,390.8,196.8,401.4,198.8,397.6z M202.6,396
			C202.7,394.1,195.7,394.9,202.6,396z"/>
		<path d="M208.6,399.8c0.2-3.9,0.1-7.9,0.1-11.8c-0.3-0.3,6.8,9.4,6.8,6.6C215.6,398.1,209.8,399.4,208.6,399.8z M210,396.4
			c0,1.8,4.2,3.9,4.2-1.5C214.2,385.6,209.3,396.8,210,396.4z"/>
		<path d="M217.9,394.6c0,1.8,4.2,2.5,4.7,2.7c-4.8,3.2-8.6-6.5-2.6-7.5C232.4,387.8,216,398.3,217.9,394.6z M221.8,392.9
			C221.8,391.1,214.9,391.9,221.8,392.9z"/>
		<path d="M226.3,386.7c0.8,3.8,0.5,4.9,1.8,10C221.6,400.7,226.4,385.4,226.3,386.7z"/>
		<path d="M231.2,385.9c0.8,3.7,0.5,4.9,1.8,10C226.5,400,231.4,384.6,231.2,385.9z"/>
		<path d="M235.3,391.8c0,1.8,4.2,2.5,4.7,2.7c-4.8,3.2-8.6-6.5-2.6-7.5C249.8,385.1,233.3,395.6,235.3,391.8z M239.1,390.2
			C239.1,388.3,232.2,389.2,239.1,390.2z"/>
		<path d="M242,389c0-1.4,1.3-3.5,3.6-3.2c-0.9,2.9-1.4,4.8-2.3,8.5C242,394,241.7,389,242,389z"/>
		<path d="M250.1,387.8c0-3.9,6.8-3.2,6.8,0.2c0-1.7-7.3,9.1-6.8,8.5C250.1,393.6,250.1,390.7,250.1,387.8z M251.4,389.8
			c0,1.9,4.2,4,4.2-1.5C255.6,379.1,250.7,390.1,251.4,389.8z"/>
		<path d="M259.3,388c0,1.8,4.2,2.5,4.7,2.7c-4.8,3.2-8.6-6.5-2.6-7.5C273.8,381.2,257.4,391.8,259.3,388z M263.2,386.4
			C263.2,384.5,256.3,385.3,263.2,386.4z"/>
		<path d="M266.1,385.2c0-1.4,1.3-3.5,3.6-3.2c-0.9,2.9-1.4,4.8-2.3,8.5C266.1,390.2,265.8,385.2,266.1,385.2z"/>
		<path d="M271.6,389.8c0-2-1.9-14.1,3.7-12.4C273.3,382.6,274.2,383.3,271.6,389.8z"/>
		<path d="M282.1,384.1c-1.2,1.6-2.4,3.2-3.6,4.8C268.7,390.5,282.1,372.3,282.1,384.1z M276.4,385.1c1.5,3.9,2.9,3.7,4.4-0.7
			C279.3,380.4,277.9,380.7,276.4,385.1z"/>
		<path d="M283.8,382.3c0-1.4,1.3-3.5,3.6-3.2c-0.9,2.9-1.4,4.8-2.3,8.5C283.8,387.4,283.5,382.4,283.8,382.3z"/>
		<path d="M288.8,381.2c0-5.8,8.7-0.5,10.3,4.2c-0.3-0.3-1.8-6.7-2.9-6.6c-3.4,0.5-0.5,6.1-1.7,7.3c-0.7-0.4-1.4-6.8-2.8-6.6
			c-1.5,0.2-2.8,7.2-3,7.5C288.8,385.1,288.8,383.2,288.8,381.2z"/>
		<path d="M305.2,384.5c-1-1.3-4.6,2.8-4.6-1.4c0-7.9,5.6,0.3,0.5-5.5C307.9,371.7,305.2,384.6,305.2,384.5z M305,380.4
			C302.1,380.8,302.2,385.4,305,380.4z"/>
		<path d="M308.4,378.1c0-4.9,5-0.2,6.2,4.9c-0.8-0.5-1.4-6.8-3-6.5c-1.7,0.3-2.9,7.1-3.2,7.5C308.4,382,308.4,380.1,308.4,378.1z"
			/>
		<path d="M321.9,381.5c-6.9,5.1-6.9-10.3,0-7.5c-0.6,0.4-4.4,3-4.4,4.5C317.5,384.8,321.2,378.7,321.9,381.5z"/>
		<path d="M324.1,377.7c0,1.8,4.2,2.5,4.7,2.7c-4.8,3.2-8.6-6.5-2.6-7.5C338.6,371,322.1,381.5,324.1,377.7z M327.9,376.1
			C328,374.2,321,375.1,327.9,376.1z"/>
		<path d="M334.1,379.9c0-2-1.9-14.1,3.7-12.4C335.9,372.7,336.8,373.3,334.1,379.9z"/>
		<path d="M344.7,374.1c-1.2,1.6-2.4,3.2-3.6,4.8C331.3,380.5,344.7,362.3,344.7,374.1z M339,375.1c1.5,3.9,2.9,3.7,4.4-0.7
			C341.9,370.5,340.5,370.7,339,375.1z"/>
		<path d="M346.4,372.4c0-1.4,1.3-3.5,3.6-3.2c-0.9,2.9-1.4,4.8-2.3,8.5C346.4,377.4,346.1,372.4,346.4,372.4z"/>
		<path d="M354.9,368.5c0.6,0.1,1.8,5.3,2.1,6.1c0.6-2.4,3.1-6.2,3.3-6.9c-1,3.5-2.6,11.4-6.1,12.7
			C356.1,375.9,354.7,371.5,354.9,368.5z"/>
		<path d="M367.9,370.4c-1.2,1.6-2.4,3.2-3.6,4.8C354.4,376.9,367.9,358.7,367.9,370.4z M362.2,371.4c1.5,3.9,2.9,3.7,4.4-0.7
			C365.1,366.8,363.6,367,362.2,371.4z"/>
		<path d="M375.6,371.1c0,5-5,0.2-6.1-4.9c0.7,0.4,1.6,6.8,2.9,6.6c1.8-0.3,2.9-7.1,3.2-7.5C375.6,367.2,375.6,369.2,375.6,371.1z"
			/>
	</g>
</g>
</svg>
