<?xml version="1.0" encoding="iso-8859-1"?>
<!-- Generator: Adobe Illustrator 19.0.0, SVG Export Plug-In . SVG Version: 6.00 Build 0)  -->
<svg version="1.1" id="Capa_1" xmlns="http://www.w3.org/2000/svg" xmlns:xlink="http://www.w3.org/1999/xlink" x="0px" y="0px"
	 viewBox="0 0 512 512" style="enable-background:new 0 0 512 512;" xml:space="preserve">
<polygon style="fill:#737A7D;" points="512,200 464,200 464,232 432,248 432,272 512,272 "/>
<rect x="8" y="448" width="24" height="16"/>
<rect x="176" y="448" width="24" height="16"/>
<path style="fill:#C6D1D6;" d="M512,8H336c-8.84,0-16,7.16-16,16v160c0,8.84,7.16,16,16,16h176"/>
<path d="M336,16h176V0H336c-13.232,0-24,10.768-24,24v160c0,13.232,10.768,24,24,24h121.072l-0.848,18.944l-27.8,13.896
	C425.712,242.2,424,244.968,424,248v24c0,4.424,3.576,8,8,8h80v-16h-72v-11.056l27.576-13.792c2.592-1.296,4.28-3.896,4.416-6.8
	L473.088,208H512v-16H336c-4.416,0-8-3.584-8-8V24C328,19.584,331.584,16,336,16z"/>
<path style="fill:#FDC66C;" d="M352,176c0-26.512,21.488-48,48-48s48,21.488,48,48"/>
<path d="M456,176h-16c0-22.056-17.944-40-40-40s-40,17.944-40,40h-16c0-30.872,25.128-56,56-56S456,145.128,456,176z"/>
<rect x="392" y="152" width="16" height="24"/>
<path d="M358.152,117.128l-12.296-10.248l40-48c2.792-3.336,7.736-3.856,11.152-1.128l32.696,26.168l27.36-47.88l13.888,7.936
	l-32,56c-1.16,2.032-3.152,3.456-5.448,3.888c-2.304,0.432-4.672-0.152-6.496-1.608l-33.872-27.104L358.152,117.128z"/>
<rect x="480" y="64" width="32" height="16"/>
<rect x="464" y="96" width="48" height="16"/>
<rect x="480" y="128" width="32" height="16"/>
<path style="fill:#50595D;" d="M144,504H64c-30.928,0-56-25.072-56-56V64C8,33.072,33.072,8,64,8h80c30.928,0,56,25.072,56,56v384
	C200,478.928,174.928,504,144,504z"/>
<g style="opacity:0.5;">
	<path style="fill:#414547;" d="M32,464V80c0-30.928,25.072-56,56-56h80c6.288,0,12.312,1.08,17.952,2.992
		C175.696,15.368,160.72,8,144,8H64C33.072,8,8,33.072,8,64v384c0,24.64,15.936,45.52,38.048,53.008
		C37.328,491.136,32,478.208,32,464z"/>
</g>
<path style="fill:#FCB847;" d="M224,168h-24v-40h24c8.84,0,16,7.16,16,16v8C240,160.84,232.84,168,224,168z"/>
<g>
	<path style="fill:#FD3238;" d="M280,376h-16c-8.84,0-16-7.16-16-16V232c0-8.84,7.16-16,16-16h16c8.84,0,16,7.16,16,16v128
		C296,368.84,288.84,376,280,376z"/>
	<path style="fill:#FD3238;" d="M432,312h-64c-8.84,0-16,7.16-16,16v104c0,8.84,7.16,16,16,16h64c8.84,0,16-7.16,16-16V328
		C448,319.16,440.84,312,432,312z"/>
</g>
<polygon style="fill:#50595D;" points="280,184 264,184 256,216 288,216 "/>
<path style="fill:#FCB847;" d="M224,424h-24v40h24c8.84,0,16-7.16,16-16v-8C240,431.16,232.84,424,224,424z"/>
<polygon style="fill:#50595D;" points="280,408 264,408 256,376 288,376 "/>
<rect x="96" y="32" width="16" height="96"/>
<rect x="96" y="192" width="16" height="128"/>
<rect x="96" y="352" width="16" height="128"/>
<rect x="56" y="48" width="16" height="160"/>
<rect x="56" y="240" width="16" height="144"/>
<rect x="136" y="304" width="16" height="160"/>
<rect x="136" y="128" width="16" height="144"/>
<rect x="248" y="272" style="fill:#2EA6DB;" width="48" height="48"/>
<path d="M432,304h-64c-13.232,0-24,10.768-24,24v28.728l-40-7.944V320v-48v-40c0-7.184-3.232-13.56-8.248-17.96l-7.992-31.976
	c-0.896-3.568-4.088-6.064-7.76-6.064v-24c0-8.824-7.176-16-16-16h-17.472c-3.312-9.288-12.112-16-22.528-16h-16V64
	c0-35.288-28.712-64-64-64H64C28.712,0,0,28.712,0,64v384c0,35.288,28.712,64,64,64h80c26.8,0,49.768-16.576,59.288-40H224
	c10.416,0,19.216-6.712,22.528-16H264c8.824,0,16-7.176,16-16v-24c3.672,0,6.864-2.496,7.76-6.064l7.992-31.976
	c3.824-3.352,6.624-7.832,7.712-12.984L344,373.032V432c0,13.232,10.768,24,24,24h64c13.232,0,24-10.768,24-24V328
	C456,314.768,445.232,304,432,304z M277.752,208h-11.504l4-16h3.504L277.752,208z M224,136c4.416,0,8,3.584,8,8v8
	c0,4.416-3.584,8-8,8h-16v-24H224z M144,496H72v-80H56v79.28c-22.664-3.832-40-23.544-40-47.28v-40h16v-16H16v-40h16v-16H16v-40h16
	v-16H16v-48h16v-16H16v-40h16v-16H16v-40h16v-16H16V64h16V48H18.8C25.408,29.384,43.144,16,64,16h72v80h16V16.72
	c17.304,2.92,31.456,15.104,37.2,31.28H176v16h16v40h-16v16h16v8v32h-16v16h16v40h-16v16h16v48h-16v16h16v40h-16v16h16v40h-16v16h16
	v16v24C192,474.472,170.472,496,144,496z M224,456h-16v-8v-16h16c4.416,0,8,3.584,8,8v8C232,452.416,228.416,456,224,456z M264,440
	h-16c0-13.232-10.768-24-24-24h-16V176h16c13.232,0,24-10.768,24-24h16v24c-3.672,0-6.864,2.496-7.76,6.064l-7.992,31.976
	C243.232,218.44,240,224.816,240,232v40v48v40c0,7.184,3.232,13.56,8.248,17.96l7.992,31.976c0.896,3.568,4.088,6.064,7.76,6.064
	V440z M266.248,384h11.504l-4,16h-3.504L266.248,384z M288,360c0,4.416-3.584,8-8,8h-16c-4.416,0-8-3.584-8-8v-32h32V360z M288,312
	h-32v-32h32V312z M288,264h-32v-32c0-4.416,3.584-8,8-8h16c4.416,0,8,3.584,8,8V264z M440,432c0,4.416-3.584,8-8,8h-64
	c-4.416,0-8-3.584-8-8v-55.784l32,6.36V408h16v-32c0-3.824-2.696-7.104-6.448-7.84L360,359.904V328c0-4.416,3.584-8,8-8h64
	c4.416,0,8,3.584,8,8V432z"/>
<rect x="408" y="336" width="16" height="16"/>
<g>
</g>
<g>
</g>
<g>
</g>
<g>
</g>
<g>
</g>
<g>
</g>
<g>
</g>
<g>
</g>
<g>
</g>
<g>
</g>
<g>
</g>
<g>
</g>
<g>
</g>
<g>
</g>
<g>
</g>
</svg>
