<?xml version="1.0" encoding="utf-8"?>
<!-- Generator: Adobe Illustrator 21.0.2, SVG Export Plug-In . SVG Version: 6.00 Build 0)  -->
<svg version="1.1" id="Layer_2" xmlns="http://www.w3.org/2000/svg" xmlns:xlink="http://www.w3.org/1999/xlink" x="0px" y="0px"
	 viewBox="0 0 512 512" style="enable-background:new 0 0 512 512;" xml:space="preserve">
<style type="text/css">
	.st0{fill:#A73945;stroke:#003045;stroke-width:24;stroke-linecap:round;stroke-miterlimit:10;}
	.st1{fill:none;stroke:#1A7300;stroke-width:24;stroke-linecap:round;stroke-miterlimit:10;}
	.st2{fill:#A6C800;}
	.st3{fill:none;stroke:#666666;stroke-width:16;stroke-linecap:round;stroke-miterlimit:10;stroke-dasharray:40,40;}
	.st4{fill:none;stroke:#5CAAFF;stroke-width:16;stroke-linecap:round;stroke-miterlimit:10;}
	.st5{fill:none;stroke:#7C7400;stroke-width:24;stroke-linecap:round;stroke-miterlimit:10;}
	.st6{fill:none;stroke:#00BA00;stroke-width:24;stroke-linecap:round;stroke-miterlimit:10;}
	.st7{fill:none;stroke:#C4B9FF;stroke-width:24;stroke-linecap:round;stroke-miterlimit:10;}
	.st8{fill:none;stroke:#FFFC61;stroke-width:24;stroke-linecap:round;stroke-miterlimit:10;}
</style>
<g>
	<g>
		<path class="st0" d="M256,400c0,0,84-74.7,84-149.3S256,176,256,176s-84,0-84,74.7S256,400,256,400z"/>
	</g>
</g>
<polyline class="st1" points="304,400 416,400 416,80 272,80 272,146 "/>
<g>
	<polygon class="st2" points="384,112 368,112 368,128 384,128 384,112 	"/>
</g>
<g>
	<polygon class="st2" points="384,144 368,144 368,160 384,160 384,144 	"/>
</g>
<g>
	<polygon class="st2" points="352,144 336,144 336,160 352,160 352,144 	"/>
</g>
<g>
	<polygon class="st2" points="320,144 304,144 304,160 320,160 320,144 	"/>
</g>
<g>
	<polygon class="st2" points="384,176 368,176 368,192 384,192 384,176 	"/>
</g>
<g>
	<polygon class="st2" points="352,176 336,176 336,192 352,192 352,176 	"/>
</g>
<g>
	<polygon class="st2" points="384,208 368,208 368,224 384,224 384,208 	"/>
</g>
<g>
	<polygon class="st2" points="384,240 368,240 368,256 384,256 384,240 	"/>
</g>
<g>
	<polygon class="st2" points="384,272 368,272 368,288 384,288 384,272 	"/>
</g>
<g>
	<polygon class="st2" points="384,304 368,304 368,320 384,320 384,304 	"/>
</g>
<g>
	<polygon class="st2" points="384,336 368,336 368,352 384,352 384,336 	"/>
</g>
<g>
	<polygon class="st2" points="352,336 336,336 336,352 352,352 352,336 	"/>
</g>
<g>
	<polygon class="st2" points="352,112 336,112 336,128 352,128 352,112 	"/>
</g>
<g>
	<polygon class="st2" points="320,112 304,112 304,128 320,128 320,112 	"/>
</g>
<line class="st3" x1="480" y1="464" x2="32" y2="464"/>
<line class="st4" x1="538.3" y1="432" x2="-26.3" y2="432"/>
<line class="st4" x1="538.3" y1="496" x2="-26.3" y2="496"/>
<polyline class="st5" points="133.5,400 133.5,307.5 102.7,276.7 "/>
<line class="st5" x1="133.5" y1="276.7" x2="118.1" y2="292.1"/>
<line class="st5" x1="133.5" y1="317.8" x2="143.8" y2="307.5"/>
<path class="st6" d="M152,202.4l-22.4-7.5h-1.3l-24.4,8.1c-21.5,7.2-36,27.3-36,49.9v32.7c0,14,5.5,27.3,15.4,37.2l0,0
	c9.9,9.9,23.2,15.4,37.2,15.4h7.7h1.3h29.5"/>
<polyline class="st7" points="128,128 160,128 176.5,144.5 192.5,128.5 224,128.5 "/>
<polyline class="st7" points="44,83.8 76,83.8 92.5,100.3 108.5,84.3 140,84.3 "/>
<circle class="st8" cx="256" cy="264" r="32"/>
<polyline class="st1" points="472,400 472,160 416,160 "/>
<polyline class="st1" points="400,72 400,48 288,48 288,72 "/>
</svg>
