<?xml version="1.0" encoding="utf-8"?>
<!-- Generator: Adobe Illustrator 22.0.1, SVG Export Plug-In . SVG Version: 6.00 Build 0)  -->
<svg version="1.1" id="Layer_2" xmlns="http://www.w3.org/2000/svg" xmlns:xlink="http://www.w3.org/1999/xlink" x="0px" y="0px"
	 viewBox="0 0 512 512" style="enable-background:new 0 0 512 512;" xml:space="preserve">
<style type="text/css">
	.st0{fill:#7098b3;}
</style>
<g>
	<path class="st0" d="M432,29.2V24c0-6.6-5.4-12-12-12s-12,5.4-12,12v4h-80v-4c0-6.6-5.4-12-12-12s-12,5.4-12,12v4h-80v-4
		c0-6.6-5.4-12-12-12s-12,5.4-12,12v5.2C172.6,34.8,152,59,152,88v352c0,33.1,26.9,60,60,60h208c33.1,0,60-26.9,60-60V88
		C480,59,459.4,34.8,432,29.2z M456,440c0,19.9-16.1,36-36,36H212c-19.9,0-36-16.1-36-36V88c0-15.6,10-29,24-33.9v8.6
		c-9.5,4.5-16,14.1-16,25.3c0,15.4,12.6,28,28,28s28-12.6,28-28c0-11.1-6.5-20.8-16-25.3V52h80v10.7c-9.5,4.5-16,14.1-16,25.3
		c0,15.4,12.6,28,28,28s28-12.6,28-28c0-11.1-6.5-20.8-16-25.3V52h80v10.7c-9.5,4.5-16,14.1-16,25.3c0,15.4,12.6,28,28,28
		s28-12.6,28-28c0-11.1-6.5-20.8-16-25.3v-8.6c14,5,24,18.3,24,33.9V440z"/>
	<path class="st0" d="M427.5,207.5L404,231l-7.5-7.5c-4.7-4.7-12.3-4.7-17,0c-4.7,4.7-4.7,12.3,0,17l16,16c2.3,2.3,5.4,3.5,8.5,3.5
		s6.1-1.2,8.5-3.5l32-32c4.7-4.7,4.7-12.3,0-17C439.8,202.8,432.2,202.8,427.5,207.5z"/>
	<path class="st0" d="M200,216c0,6.6,5.4,12,12,12h144c6.6,0,12-5.4,12-12s-5.4-12-12-12H212C205.4,204,200,209.4,200,216z"/>
	<path class="st0" d="M356,236h-96c-6.6,0-12,5.4-12,12s5.4,12,12,12h96c6.6,0,12-5.4,12-12S362.6,236,356,236z"/>
	<path class="st0" d="M356,284H212c-6.6,0-12,5.4-12,12s5.4,12,12,12h144c6.6,0,12-5.4,12-12S362.6,284,356,284z"/>
	<path class="st0" d="M356,316h-96c-6.6,0-12,5.4-12,12s5.4,12,12,12h96c6.6,0,12-5.4,12-12S362.6,316,356,316z"/>
	<path class="st0" d="M187.5,176.5c2.3,2.3,5.4,3.5,8.5,3.5s6.1-1.2,8.5-3.5l7.5-7.5l7.5,7.5c2.3,2.3,5.4,3.5,8.5,3.5
		s6.1-1.2,8.5-3.5c4.7-4.7,4.7-12.3,0-17L229,152l7.5-7.5c4.7-4.7,4.7-12.3,0-17c-4.7-4.7-12.3-4.7-17,0L212,135l-7.5-7.5
		c-4.7-4.7-12.3-4.7-17,0c-4.7,4.7-4.7,12.3,0,17l7.5,7.5l-7.5,7.5C182.8,164.2,182.8,171.8,187.5,176.5z"/>
	<path class="st0" d="M291.5,176.5c2.3,2.3,5.4,3.5,8.5,3.5s6.1-1.2,8.5-3.5l7.5-7.5l7.5,7.5c2.3,2.3,5.4,3.5,8.5,3.5
		s6.1-1.2,8.5-3.5c4.7-4.7,4.7-12.3,0-17L333,152l7.5-7.5c4.7-4.7,4.7-12.3,0-17c-4.7-4.7-12.3-4.7-17,0L316,135l-7.5-7.5
		c-4.7-4.7-12.3-4.7-17,0c-4.7,4.7-4.7,12.3,0,17l7.5,7.5l-7.5,7.5C286.8,164.2,286.8,171.8,291.5,176.5z"/>
	<path class="st0" d="M444.5,127.5c-4.7-4.7-12.3-4.7-17,0L420,135l-7.5-7.5c-4.7-4.7-12.3-4.7-17,0c-4.7,4.7-4.7,12.3,0,17l7.5,7.5
		l-7.5,7.5c-4.7,4.7-4.7,12.3,0,17c2.3,2.3,5.4,3.5,8.5,3.5s6.1-1.2,8.5-3.5l7.5-7.5l7.5,7.5c2.3,2.3,5.4,3.5,8.5,3.5
		s6.1-1.2,8.5-3.5c4.7-4.7,4.7-12.3,0-17L437,152l7.5-7.5C449.2,139.8,449.2,132.2,444.5,127.5z"/>
	<path class="st0" d="M387.5,336.5c2.3,2.3,5.4,3.5,8.5,3.5s6.1-1.2,8.5-3.5l7.5-7.5l7.5,7.5c2.3,2.3,5.4,3.5,8.5,3.5
		s6.1-1.2,8.5-3.5c4.7-4.7,4.7-12.3,0-17L429,312l7.5-7.5c4.7-4.7,4.7-12.3,0-17c-4.7-4.7-12.3-4.7-17,0L412,295l-7.5-7.5
		c-4.7-4.7-12.3-4.7-17,0c-4.7,4.7-4.7,12.3,0,17l7.5,7.5l-7.5,7.5C382.8,324.2,382.8,331.8,387.5,336.5z"/>
	<path class="st0" d="M404,364H228c-24.3,0-44,19.7-44,44v16c0,24.3,19.7,44,44,44h176c24.3,0,44-19.7,44-44v-16
		C448,383.7,428.3,364,404,364z M424,424c0,11-9,20-20,20H228c-11,0-20-9-20-20v-16c0-11,9-20,20-20h176c11,0,20,9,20,20V424z"/>
	<path class="st0" d="M404,404H228c-6.6,0-12,5.4-12,12s5.4,12,12,12h176c6.6,0,12-5.4,12-12S410.6,404,404,404z"/>
	<path class="st0" d="M76,28c-24.3,0-44,19.7-44,44v48v288v32c0,2.4,0.7,4.7,2,6.7L50,470.6c0,0,0,0.1,0.1,0.1l16,24
		c2.2,3.3,6,5.3,10,5.3s7.8-2,10-5.3l16-24c0,0,0-0.1,0.1-0.1l15.9-23.9c1.3-2,2-4.3,2-6.7v-32V120V72C120,47.7,100.3,28,76,28z
		 M76,445.4c-4.3,0-8.5,0.8-12.5,2.3L56,436.4v-1.1c4.2,1.5,9.1,0.5,12.5-2.8L76,425l7.5,7.5c3.4,3.4,8.3,4.3,12.5,2.8v1.1
		l-7.5,11.3C84.5,446.2,80.3,445.4,76,445.4z M96,403l-4,4l-7.5-7.5c-4.7-4.7-12.3-4.7-17,0L60,407l-4-4V132h40V403z M56,108v-8h40
		v8H56z M76,52c11,0,20,9,20,20v4H56v-4C56,61,65,52,76,52z"/>
</g>
</svg>
