<?xml version="1.0" encoding="utf-8"?>
<!-- Generator: Adobe Illustrator 21.0.2, SVG Export Plug-In . SVG Version: 6.00 Build 0)  -->
<svg version="1.1" id="Layer_2_1_" xmlns="http://www.w3.org/2000/svg" xmlns:xlink="http://www.w3.org/1999/xlink" x="0px" y="0px"
	 viewBox="0 0 500 500" style="enable-background:new 0 0 500 500;" xml:space="preserve">
<style type="text/css">
	.st0{fill:#FFFFFF;}
</style>
<g>
	<path class="st0" d="M250,126.7c-110.4,0-200,55.3-200,123.6c0,67.8,89.7,123,200,123c111,0,200-55.3,200-123
		C450,182,361,126.7,250,126.7 M250,150.3c103.2,0,186.7,44.5,186.7,100c0,55-83.5,99.5-186.7,99.5c-102.5,0-186-44.5-186-99.5
		C63.9,194.7,147.5,150.3,250,150.3z"/>
	<polyline class="st0" points="379.1,204.2 308.6,204.2 308.6,295.8 333.5,295.8 333.5,227 360.9,227 368.1,235.3 368.1,273.1 
		338.8,273.1 338.8,295.8 393,295.8 393,220.5 379.1,204.2 	"/>
	<polyline class="st0" points="267.4,236.7 240.7,236.7 240.7,295.8 268.2,295.8 268.2,258.6 289.1,258.7 299.1,249.4 299.1,204.2 
		271.5,204.2 271.5,232.9 267.4,236.7 	"/>
	<polyline class="st0" points="231.4,204.2 203.6,204.2 203.6,249.3 213.6,258.6 235.5,258.6 235.5,236.7 231.4,232.9 231.4,204.2 	
		"/>
	<path class="st0" d="M194.1,218.5L182,204.2h-75v91.6h23.5v-38.7h40v16.3h-34.7v22.4h44.8l13.4-9.3v-30.7l-6.3-5.8l6.3-5.3v-26.2
		 M170.5,242.8h-40v-16.2h40V242.8z"/>
</g>
</svg>
