<?xml version="1.0" encoding="utf-8"?>
<!-- Generator: Adobe Illustrator 22.0.1, SVG Export Plug-In . SVG Version: 6.00 Build 0)  -->
<svg version="1.1" id="Layer_2_1_" xmlns="http://www.w3.org/2000/svg" xmlns:xlink="http://www.w3.org/1999/xlink" x="0px" y="0px"
	 viewBox="0 0 500 500" style="enable-background:new 0 0 500 500;" xml:space="preserve">
<style type="text/css">
	.st0{fill:#FFFFFF;}
</style>
<g>
	<path class="st0" d="M254.8,105.7c0.5,0.1,1,0.2,1.6,0.2c5.3,0.2,10.6,0.5,15.9,1.1c7.3,0.8,14.5,2,21.7,3.6
		c18.5,4.2,36,10.9,52.1,21c11.1,6.9,21.1,15.2,29.5,25.3c7.8,9.2,13.8,19.5,17.5,31c1.6,4.9,2.7,9.9,3.3,15
		c0.5,4.1,0.7,8.3,0.5,12.4c-0.3,7.8-1.8,15.4-4.3,22.8c-2.7,7.8-6.5,15.1-11.2,21.8c-5,7.2-10.8,13.6-17.3,19.4
		c-7.7,6.8-16.1,12.6-25,17.6c-11.7,6.5-24.1,11.4-37,14.9c-7.2,2-14.5,3.5-21.9,4.6c-3.9,0.6-7.8,1-11.7,1.4
		c-5.7,0.6-11.5,0.8-17.3,0.8c-4.6,0-9.2-0.2-13.8-0.5c-3.2-0.2-6.4-0.4-9.6-0.8c-4.3-0.5-8.7-1.1-12.9-1.9
		c-9.3-1.6-18.5-4-27.5-7.2c-14.4-5-28-11.8-40.4-20.7c-8.8-6.4-16.7-13.7-23.5-22.2c-7.1-8.9-12.5-18.6-15.9-29.5
		c-1.6-5-2.7-10.2-3.2-15.4c-0.4-4.1-0.5-8.3-0.3-12.4c0.5-9.5,2.7-18.5,6.4-27.2c3.2-7.5,7.3-14.4,12.3-20.8
		c6.4-8.2,13.8-15.3,22-21.5c12.6-9.5,26.6-16.7,41.4-22c8.2-2.9,16.6-5.2,25.2-6.9c5.3-1.1,10.7-1.9,16.1-2.5
		c4.2-0.4,8.4-0.7,12.6-1c1.7-0.1,3.4-0.1,5.1-0.2c0.3,0,0.7-0.1,1-0.2C249.1,105.7,252,105.7,254.8,105.7z M361.7,208.2
		c-0.4,0-0.7,0-1,0c-23.7,0-47.4,0-71.1,0c-0.6,0-1.1,0.1-1.7,0.4c-5,2.9-10,5.8-15.1,8.6c-17.8,10.2-35.7,20.4-53.5,30.6
		c-0.6,0.3-1.2,0.5-1.9,0.5c-18.9,0-37.9,0.1-56.8,0.1c-2.8,0-5.7,0-8.5,0c-0.3,0-0.6,0-1,0.1c0.2,0.3,0.3,0.4,0.4,0.6
		c1.7,2.2,3.3,4.5,5.2,6.6c6.5,7.5,14.1,13.6,22.5,18.7c12.4,7.6,25.8,12.6,40,15.6c4.6,1,9.2,1.8,13.9,2.3
		c3.4,0.3,6.9,0.7,10.4,0.9c4,0.2,8,0.3,12,0.1c2.8-0.2,5.5-0.2,8.2-0.5c4.1-0.4,8.2-0.9,12.3-1.6c8.3-1.3,16.3-3.5,24.2-6.4
		c11.4-4.2,22.1-9.8,31.7-17.3c7.4-5.7,13.8-12.4,18.9-20.2c7.4-11.2,11.3-23.5,10.9-37.1C361.8,209.6,361.7,209,361.7,208.2z
		 M349.9,176c0-0.2,0-0.3,0-0.3c-0.1-0.2-0.3-0.5-0.5-0.7c-6-8.4-13.4-15.4-21.8-21.3c-8.6-6.1-18-10.7-27.8-14.3
		c-13.6-4.9-27.6-7.5-42-8.2c-5.3-0.3-10.5-0.2-15.8,0.1c-4.4,0.3-8.8,0.7-13.2,1.3c-7.2,1-14.2,2.6-21.2,4.7
		c-12.5,3.8-24.2,9.3-34.9,16.9c-8.2,5.9-15.4,12.7-21.2,21c-8.3,11.8-12.7,24.8-12.2,39.4c0,0.6,0.1,1.2,0.1,1.9c0.5,0,0.9,0,1.4,0
		c23.1,0,46.2,0,69.2,0c0.9,0,1.6-0.2,2.4-0.6c22.8-13.1,45.6-26.1,68.4-39.2c0.7-0.4,1.4-0.6,2.3-0.6c21.9,0,43.8,0,65.7,0
		C349.1,176,349.5,176,349.9,176z"/>
	<path class="st0" d="M50,391.7c0.1-0.2,0.3-0.3,0.3-0.5c0.7-2,1.8-3.7,3.3-5.2c9.9-9.8,19.8-19.5,29.7-29.3c0.5-0.5,1-1.1,1.4-1.7
		c1-1.5,0.6-2.7-1.1-3.4c-0.8-0.3-1.7-0.5-2.5-0.6c-1.4-0.2-2.7-0.2-4.1-0.2c-7.4,0-14.9,0-22.3,0c-0.7,0-1.2-0.2-1.7-0.7
		c-0.8-0.8-1.7-1.6-2.6-2.6c0.4,0,0.5-0.1,0.7-0.1c15.6,0,31.2,0,46.7,0c1.3,0,2.5,0.2,3.7,0.7c0.1,0.1,0.3,0.1,0.4,0.2
		c2.4,1.1,3.5,3.3,1.3,5.8c-0.7,0.8-1.5,1.5-2.3,2.3c-9.4,9.2-18.9,18.4-28.3,27.6c-0.9,0.8-1.6,1.8-2.4,2.7c-0.4,0.4-0.6,1-0.8,1.6
		c-0.3,0.9,0,1.6,0.8,2.1s1.7,0.6,2.7,0.7c0.8,0.1,1.6,0.1,2.4,0.1c10.9,0,21.9,0,32.8,0c4.3,0,8.3-1.1,11.9-3.4
		c0.3-0.2,0.7-0.5,1-0.7c5.3-5,10.7-10.1,16-15.1c0.2-0.2,0.4-0.4,0.6-0.6c-7.8-7.9-15.5-15.7-23.3-23.6c0.5,0,0.7,0,0.9,0
		c4.8,0,9.6,0,14.4,0c0.6,0,1,0.2,1.5,0.6c4.7,4.7,9.4,9.4,14,14.1c0.3,0.3,0.5,0.5,0.9,0.8c0.3-0.3,0.5-0.6,0.8-0.9
		c3.9-4.7,7.8-9.3,11.7-14c0.4-0.5,0.8-0.7,1.5-0.7c4.3,0,8.6,0,12.9,0c0.3,0,0.6,0,0.9,0c0,0.1,0.1,0.1,0.1,0.2
		c-7.3,7.8-14.5,15.6-21.8,23.5c0.2,0.2,0.4,0.5,0.7,0.7c5.6,5.3,11.1,10.6,16.7,15.8c1.7,1.6,3.6,2.8,5.4,4.3
		c0.2,0.1,0.4,0.3,0.7,0.4c0.3-0.4,0.6-0.7,0.9-1.1c1.6-2,3.2-4.1,4.9-6.1c0.2-0.2,0.4-0.5,0.5-0.8c2.3-3.6,4.7-7.1,7-10.7
		c0.4-0.6,0.8-0.8,1.4-0.8c4.4,0,8.8,0,13.2,0c0.3,0,0.6,0,1,0c-0.2,0.4-0.4,0.7-0.5,0.9c-2.8,4.4-5.6,8.8-8.3,13.2
		c-2.2,3.5-5.3,5.5-9.3,6.2c-1.9,0.3-3.9,0.4-5.8,0.6c-0.5,0.1-1,0.1-1.6,0.2c-1.7,0-3.5,0-5.2,0c-0.3-0.1-0.7-0.1-1-0.1
		c-1.7-0.1-3.3-0.1-5-0.2c-2.3-0.1-4.5-0.5-6.7-1.2c-3.2-1.1-5.8-2.9-8-5.3c-2.5-2.6-4.9-5.3-7.4-8c-0.2-0.2-0.5-0.5-0.8-0.8
		c-0.3,0.3-0.4,0.6-0.7,0.9c-2.5,2.7-4.9,5.3-7.4,8c-3.5,3.7-7.7,5.9-12.8,6.3c-2.1,0.2-4.3,0.3-6.4,0.4c-0.6,0-1.1,0.1-1.7,0.2
		c-21.1,0-42.1,0-63.2,0c-0.2-0.1-0.3-0.2-0.5-0.2c-0.9-0.2-1.7-0.6-2.1-1.6c0-0.1-0.1-0.2-0.2-0.3C50,392.1,50,391.9,50,391.7z"/>
	<path class="st0" d="M266.4,394.3c-0.8-0.1-1.6-0.3-2.5-0.4c-2-0.3-3.9-0.8-5.7-1.9c-2.1-1.2-3.4-3-3.8-5.3c0-0.3-0.1-0.6-0.1-0.8
		c0-3.9,0-7.9,0-11.8c0-0.2,0-0.5,0.1-0.8c5.7,0,11.3,0,17,0c0,0.4,0,0.8,0,1.1c0,4.6,0,9.1,0,13.7c0,0.2,0,0.5,0,0.7
		c0,1.6,0.6,2.2,2.2,2.3c0.2,0,0.5,0,0.7,0c9,0,17.9,0,26.9,0c0.5,0,1.1,0,1.6-0.2c1-0.2,1.3-0.7,1.4-1.7c0-0.4,0-0.7,0-1.1
		c0-4.6,0-9.2,0-13.8c0-0.4,0-0.7,0-1.1c0.8-0.2,16-0.3,17.1,0c0,0.3,0,0.6,0,1c0,3.7,0,7.4,0,11.2c0,2.6-1.1,4.6-3.2,6.1
		c-1.9,1.4-4.1,2-6.4,2.3c-0.8,0.1-1.6,0.3-2.5,0.4C295,394.3,280.7,394.3,266.4,394.3z"/>
	<path class="st0" d="M450,368.5c-5.4,0-10.7,0-16.2,0c0-0.5,0-0.8,0-1.2c0-4.5,0-8.9,0-13.4c0-0.3,0-0.6,0-0.8
		c-0.1-1.1-0.7-1.8-1.8-2.1c-0.5-0.1-1-0.2-1.5-0.2c-9.4,0-18.8,0-28.2,0c-0.6,0-1.2,0.1-1.8,0.2c-0.9,0.2-1.4,0.8-1.5,1.7
		c-0.1,0.4-0.1,0.8-0.1,1.2c0,4.5,0,8.9,0,13.4c0,0.3,0,0.7,0,1c-0.7,0.2-15.1,0.3-16.6,0.1c0-0.2-0.1-0.5-0.1-0.7
		c0-3.6,0-7.2,0-10.8c0-5,2.8-7.5,6.6-8.6c1.8-0.5,3.7-0.8,5.6-0.8c14.4,0,28.9,0,43.3,0c2.7,0,5.3,0.4,7.7,1.7
		c2.1,1.1,3.5,2.7,4.1,4.9c0.1,0.4,0.2,0.8,0.3,1.2C450,359.7,450,364.1,450,368.5z"/>
	<path class="st0" d="M393.7,394.3c-0.8-0.1-1.6-0.2-2.5-0.4c-1.5-0.2-3-0.6-4.3-1.3c-2.8-1.4-4.4-3.8-4.5-6.9c-0.1-4,0-8.1,0-12.1
		c0-0.1,0-0.2,0.1-0.3c0.7-0.2,15.5-0.3,16.6,0c0,0.3,0,0.7,0,1.1c0,4.3,0,8.5,0,12.8c0,0.2,0,0.5,0,0.7c-0.1,2.4,1,2.8,2.9,3
		c0.2,0,0.5,0,0.7,0c9.2,0,18.5,0,27.7,0c0.6,0,1.2-0.1,1.8-0.1c1-0.1,1.5-0.7,1.7-1.7c0.1-0.4,0.1-0.7,0.1-1.1c0-4.5,0-9,0-13.5
		c0-0.4,0-0.7,0-1.2c0.3,0,0.5-0.1,0.7-0.1c5,0,9.9,0,14.9,0c0.2,0,0.4,0,0.5,0.1c0,4.4,0,8.8,0,13.2c-0.1,0.5-0.2,1-0.3,1.4
		c-0.6,2.1-2,3.6-4,4.7c-1.8,0.9-3.8,1.3-5.8,1.5c-0.4,0-0.7,0.1-1.1,0.2C423.8,394.3,408.7,394.3,393.7,394.3z"/>
	<path class="st0" d="M248.3,394.3c-0.7-0.1-1.3-0.1-2-0.2c-1.5-0.2-3-0.3-4.5-0.5c-3.3-0.5-5.8-2.2-7.8-4.8
		c-0.7-0.9-1.3-1.7-1.8-2.7c-2.4-4-4.7-8-7.1-12c-0.2-0.3-0.3-0.5-0.5-0.9c0.4,0,0.7,0,1,0c4.6,0,9.2,0,13.8,0
		c0.7,0,1.1,0.2,1.5,0.8c2.8,4.3,5.7,8.5,8.5,12.7c1.5,2.2,3.2,4.2,5.1,6.2c0.4,0.4,0.8,0.9,1.2,1.4
		C253.3,394.3,250.8,394.3,248.3,394.3z"/>
	<path class="st0" d="M343.5,394.3c0-0.3-0.1-0.7-0.1-1c0-6.3,0-12.6,0-18.8c0-0.4,0-0.7,0-1.2c5.6,0,11,0,16.6,0c0,0.4,0,0.7,0,1
		c0,2.8,0.1,5.6,0,8.4c-0.1,4.1-1.9,7.2-5.4,9.4c-1.8,1.2-3.9,1.7-6,2c-0.3,0-0.6,0.1-0.9,0.2C346.3,394.3,344.9,394.3,343.5,394.3z
		"/>
	<path class="st0" d="M383.4,347.9c-0.7,0.9-1.3,1.7-2,2.5c-0.1,0.2-0.4,0.2-0.6,0.3c-0.2,0-0.5,0-0.7,0c-6.2,0-12.5,0-18.7,0
		c-0.4,0-0.7,0-1.2,0c0,3,0,6,0,8.9s0,5.8,0,8.8c-5.6,0-11,0-16.6,0c-0.1-1.9,0-3.9-0.1-5.8c0-2,0-3.9,0-5.9c0-1.9,0-3.9,0-5.8
		c-0.7-0.2-20.2-0.3-22.1-0.1c0,1.1,0,2.3,0,3.5s0,2.4,0,3.5s0,2.3,0,3.4c0,1.2,0,2.4,0,3.5c0,1.2,0,2.3,0,3.5
		c-0.7,0.2-15.1,0.3-17,0.1c0-0.3-0.1-0.7-0.1-1c0-2.6,0-5.2,0-7.8c0-0.5-0.1-0.9-0.1-1.4c-0.1-2.3,0.3-4.5,1.5-6.5
		c1.4-2.3,3.5-3.4,6.1-3.8c1.1-0.2,2.2-0.2,3.3-0.2c19.8,0,39.5,0,59.3,0c2.7,0,5.3,0,8,0c0.3,0,0.6,0,0.9,0
		C383.3,347.8,383.3,347.8,383.4,347.9z"/>
	<path class="st0" d="M221.7,368.4c-2.2-3.8-4.5-7.6-6.8-11.5c-2.5,3.9-4.9,7.7-7.3,11.5c-5,0-10,0-15,0c0.1-0.3,0.2-0.5,0.3-0.7
		c4.3-6.5,8.5-13.1,12.8-19.6c0.3-0.5,0.7-0.7,1.3-0.7c5.2,0,10.3,0,15.5,0c0.5,0,0.9,0.1,1.2,0.5c4.4,6.6,8.8,13.2,13.2,19.9
		c0.1,0.1,0.1,0.3,0.2,0.4C236.3,368.5,224.1,368.6,221.7,368.4z"/>
	<path class="st0" d="M271.3,347.8c0,6.9,0,13.7,0,20.6c-5.7,0-11.3,0-17,0c0-0.4,0-0.8,0-1.1c0-5.1,0-10.2,0-15.2
		c0-0.7-0.2-1.2-0.7-1.6c-1-0.8-2-1.7-3-2.6C251.3,347.7,270,347.6,271.3,347.8z"/>
</g>
</svg>
