<?xml version="1.0" encoding="utf-8"?>
<!-- Generator: Adobe Illustrator 21.0.2, SVG Export Plug-In . SVG Version: 6.00 Build 0)  -->
<svg version="1.1" id="Layer_2_1_" xmlns="http://www.w3.org/2000/svg" xmlns:xlink="http://www.w3.org/1999/xlink" x="0px" y="0px"
	 viewBox="0 0 500 500" style="enable-background:new 0 0 500 500;" xml:space="preserve">
<style type="text/css">
	.st0{fill:#FFFFFF;}
</style>
<g>
	<g>
		<path class="st0" d="M274.1,76c-8.4,0-37.9,0-45.2,0C51.4,76,51.4,180.3,50.6,199.5c-0.8,19.2-5.7,111.1,33.2,169.1
			s119.5,58,219,54.4c113.5-11.6,142.7-67.9,147.1-212.6C454.3,65.6,282.4,76,274.1,76z M421.6,232.9C419.5,271.3,413.5,354,370,381
			s-65.9,26.1-116.9,28.5c-43.8,0-108.8-2.1-141.5-46.5c-30-42.3-35.1-108.7-33.5-153.1s12.8-118,164.7-119.7
			c0,0,102.2-3.3,139.7,30.2C420,153.8,423.7,194.5,421.6,232.9z"/>
		<path class="st0" d="M384.5,168.1c-23.1-56.7-114.1-57.2-121-57.2s-0.7,0-15.5,0c-100.5,0-124.1,39.2-133.4,59
			s-22.2,75.8,2.1,152.3c24.3,77.4,107.9,71.9,113.3,71.9s4.8,0,24.9,0c104.4,0.5,118.1-46.2,127.4-69.8
			C393.5,287.7,407.6,215.2,384.5,168.1z M121,255c-8.4-109.9,58-117.9,58-117.9s-1.2,66.3-1.2,90.4c-0.7,24,8.4,42.3,18.4,61
			c10,18.8,24.4,47.6,47.2,85.2C159.7,374.5,129.4,338.6,121,255z M253.2,256.6c-2.3,5.3-6,2.2-6.8,0c-2.4-8-48.8-124.7-48.8-124.7
			c23-11,95.5-2.8,100.7-2s3.8,3.4,3.8,3.4S255.5,251.4,253.2,256.6z M380.2,255c-8.4,83.5-38.8,119.5-122.3,118.7
			c22.8-37.6,37.2-66.3,47.2-85.2c10-18.8,19.1-37,18.4-61c0-24.1-1.2-90.4-1.2-90.4S388.6,145.1,380.2,255z"/>
	</g>
</g>
</svg>
