<?xml version="1.0" encoding="utf-8"?>
<!-- Generator: Adobe Illustrator 21.0.2, SVG Export Plug-In . SVG Version: 6.00 Build 0)  -->
<svg version="1.1" id="Layer_2_1_" xmlns="http://www.w3.org/2000/svg" xmlns:xlink="http://www.w3.org/1999/xlink" x="0px" y="0px"
	 viewBox="0 0 500 500" style="enable-background:new 0 0 500 500;" xml:space="preserve">
<style type="text/css">
	.st0{fill:#FFFFFF;}
</style>
<path class="st0" d="M391.4,391.3c-37.3,36-85.3,58.5-141.4,58.5c-56,0-104.7-21.8-141.4-58.5C72.5,354,50,306.2,50,250
	c0-56,21.8-104.6,58.6-141.3C146,72.6,193.9,50.2,250,50.2c56,0,104.7,21.8,141.4,58.5C427.4,146,450,194.1,450,250
	C450,306,428.1,354.6,391.4,391.3z M250,78.8C154,78.9,78.7,154,78.7,250c0,48.1,18.7,89.6,50.2,121c31.4,31.4,73.1,50.1,121.1,50.1
	c96,0,169.6-75.3,171.3-171.1C419.6,154.1,346,78.9,250,78.8z M309.4,383.9l-1.2,0.6l0.6-1.1c32.1-59.3,57-118.9,79.8-178.6l0.4-1.1
	l0.3,1.1c4.3,14.7,7.4,26.9,7.4,44.4C395.7,309,365.1,355.4,309.4,383.9z M301.5,322.9l-0.4-0.8c-9.6-21.5-19.6-44.9-29.7-67.4H226
	c-10,22.5-19,43.7-29.4,66.8l-0.4,0.8l-0.4-0.8C170.7,268.2,148.3,214,130,164.4l0.1-0.4c11.8-16.3,26.2-29.7,43.6-40.2l0.4-0.2
	l0.2,0.4c15.6,36.7,32.8,76.6,51.7,119h45.4c18.9-42.3,36.8-82.9,52.4-119.5l0.2-0.4l0.4,0.2c16.9,10.4,32.6,24.7,44.1,40.2l0.1,0.4
	c-18.9,49.2-42.1,105.2-66.8,158L301.5,322.9z M249.3,203.3l-0.4,0.9l-0.4-0.9c-15-33.5-29-64.1-42.6-93.3l-0.2-0.4l0.5-0.1
	c14.3-4.1,27.6-6.5,42.8-6.5c15.1,0,29.4,2.2,43.1,6.4l0.4,0.1l-0.2,0.4C279,137.4,258.9,179.7,249.3,203.3z M189.9,383.9l-1.1-0.6
	c-50.6-24.7-85.5-71.3-86.1-134.2c0-15.7,2.8-30,6.9-44.4l0.3-1.2l0.4,1.1c22.1,59.6,47.9,121.6,78.9,178L189.9,383.9z M248.4,295.2
	l0.4-0.8l0.4,0.8c15,33.5,29.7,65,43.5,94.5l0.2,0.4l-0.5,0.1c-13.8,3.7-25.2,6.3-43.7,6.3c-17.4,0-29.1-2.9-42.9-6.6l-0.5-0.1
	l0.2-0.4C219.2,360.2,233.5,328.8,248.4,295.2z"/>
</svg>
