<?xml version="1.0" encoding="utf-8"?>
<!-- Generator: Adobe Illustrator 21.0.2, SVG Export Plug-In . SVG Version: 6.00 Build 0)  -->
<svg version="1.1" id="Layer_2_1_" xmlns="http://www.w3.org/2000/svg" xmlns:xlink="http://www.w3.org/1999/xlink" x="0px" y="0px"
	 viewBox="0 0 500 500" style="enable-background:new 0 0 500 500;" xml:space="preserve">
<style type="text/css">
	.st0{fill:#FFFFFF;}
</style>
<g>
	<path class="st0" d="M99,217c9.6,0,19.3,0,28.9,0c0.4,0,0.8,0,1.2,0c0.7,0.1,1.1,0.3,1.1,1.1c0,4,0,7.9,0,11.9c0,0.7-0.3,1-1,1.1
		c-0.5,0-1.1,0.1-1.6,0.1c-18,0-36,0-53.9,0c-0.7,0-1.4,0-2.1,0.1c-1.5,0.1-2.5,1.1-2.5,2.6c0,3.2,0,6.3,0,9.5c0,7.3,0,14.5,0,21.8
		c0,0.3,0,0.7,0,1c0.1,1.7,1,2.7,2.7,2.8c0.2,0,0.5,0,0.7,0c12.5,0,25.1,0,37.6,0c1.1,0,1.1,0,1.1-1.1c0-3.3,0-6.7,0-10
		c0-0.8-0.2-1-1-1c-9.4,0-18.7,0-28.1,0c-0.3,0-0.7,0-1,0c-1.1,0-1.4-0.3-1.4-1.4c0-3.4,0-6.8,0-10.3c0-2.3,0-2.4,2.4-2.4
		c15.3,0,30.7,0,46,0c2,0,2.1,0.1,2.1,2c0,12.1,0,24.2,0,36.3c0,1.9-0.1,2-2,2c-19,0-38.1,0-57.1,0c-3.7,0-7.5-0.4-11.1-1.6
		c-5.3-1.9-8.4-5.7-9.4-11.2c-0.3-1.9-0.5-3.8-0.5-5.7c0-9.8,0-19.7,0-29.5c0-2.4,0.2-4.7,0.9-7c1.5-5.1,4.9-8.2,9.8-9.7
		c2.9-0.9,5.9-1.3,8.9-1.3C79.4,216.9,89.2,217,99,217L99,217z"/>
	<path class="st0" d="M187.5,217c8.3,0,16.5,0,24.8,0c0.4,0,0.8,0,1.2,0c0.6,0.1,1.1,0.4,1.1,1.1c0,3.9,0,7.9,0,11.8
		c0,0.7-0.3,1-1,1.1c-0.5,0-1.1,0.1-1.6,0.1c-15,0-30.1,0-45.1,0c-0.7,0-1.5,0-2.2,0.1c-1.6,0.1-2.5,1-2.6,2.6c-0.1,2.7,0,5.5,0,8.3
		c0,0.2,0.3,0.5,0.6,0.6c0.2,0.1,0.5,0,0.8,0c15.9,0,31.7,0,47.6,0c2.1,0,2.2,0.1,2.2,2.2c0,3.4,0,6.8,0,10.2c0,1.5-0.2,1.7-1.8,1.7
		c-16,0-31.9,0-47.9,0c-0.3,0-0.6,0-0.8,0c-0.5,0-0.7,0.1-0.7,0.7c0,2.9,0,5.8,0,8.8c0,1.6,1,2.6,2.6,2.7c0.4,0,0.7,0,1.1,0
		c15.4,0,30.8,0,46.3,0c0.3,0,0.7,0,1,0c1.2,0,1.6,0.4,1.6,1.6c0,3.7,0,7.3,0,11c0,1.2-0.3,1.5-1.5,1.6c-0.2,0-0.4,0-0.7,0
		c-16.2,0-32.4,0-48.6,0c-3.9,0-7.8-0.4-11.4-1.8c-5-2-7.9-5.7-8.9-10.9c-0.3-1.8-0.5-3.6-0.5-5.5c0-10,0-20,0-30
		c0-2.9,0.4-5.8,1.5-8.5c1.7-4.2,5-6.7,9.2-8c2.9-0.9,5.8-1.3,8.8-1.3C170.7,216.9,179.1,217,187.5,217L187.5,217z"/>
	<path class="st0" d="M269.8,217c8.3,0,16.5,0,24.8,0c0.4,0,0.8,0,1.2,0c0.7,0.1,1.1,0.4,1.1,1.2c0,3.9,0,7.9,0,11.8
		c0,0.7-0.3,1-1,1.1c-0.5,0-1,0.1-1.5,0.1c-15.2,0-30.3,0-45.5,0c-0.7,0-1.4,0-2.1,0.1c-1.4,0.1-2.4,1-2.4,2.5c0,2.8,0,5.6,0,8.3
		c0,0.5,0.1,0.7,0.6,0.6c0.2,0,0.5,0,0.7,0c15.6,0,31.3,0,46.9,0c0.4,0,0.8,0,1.2,0c1.5,0,1.7,0.2,1.7,1.7c0,3.5,0,7,0,10.5
		c0,1.7-0.1,1.9-1.8,1.9c-15.2,0-30.3,0-45.5,0c-1,0-2.1,0-3.1,0c-0.6,0-0.8,0.2-0.8,0.8c0,2.9,0,5.8,0,8.7c0,1.6,1,2.6,2.6,2.7
		c0.4,0,0.7,0,1.1,0c15.5,0,30.9,0,46.4,0c0.4,0,0.7,0,1.1,0c1,0.1,1.3,0.4,1.3,1.4c0,3.8,0,7.6,0,11.4c0,0.8-0.3,1.2-1.1,1.3
		c-0.3,0-0.6,0-0.9,0c-16.3,0-32.5,0-48.8,0c-3.6,0-7.2-0.4-10.7-1.6c-5.4-1.9-8.6-5.8-9.5-11.4c-0.3-1.8-0.5-3.7-0.5-5.5
		c0-9.7,0-19.4,0-29.1c0-2.5,0.2-4.9,0.9-7.3c1.6-5.6,5.5-8.8,11-10.1c2.6-0.6,5.3-1,8-1C253.3,216.9,261.6,217,269.8,217L269.8,217
		z"/>
	<path class="st0" d="M401.7,245.4c1.5-1.6,2.9-3.1,4.2-4.6c6.6-7.2,13.2-14.4,19.7-21.6c1.4-1.5,3.1-2.2,5.1-2.3
		c5.9,0,11.9,0,17.8,0c0.3,0,0.6,0,0.9,0.1c0.4,0.2,0.6,0.5,0.4,0.9c-0.3,0.5-0.5,0.9-0.9,1.3c-8.6,9.4-17.1,18.8-25.7,28.2
		c-3.8,4.2-7.6,8.4-11.4,12.6c-0.3,0.3-0.5,0.9-0.5,1.4c0,6.3,0,12.6,0,18.9c0,0.2,0,0.4,0,0.7c0,1.6-0.3,1.9-2,1.9
		c-5,0-10.1,0-15.1,0c-1.7,0-2-0.3-2-2c0-6.5,0-13,0-19.5c0-0.6-0.2-1-0.6-1.5c-12.1-13.3-24.3-26.7-36.4-40
		c-0.4-0.5-0.9-0.9-1.2-1.4c-0.2-0.3-0.4-0.9-0.3-1.2s0.7-0.5,1.1-0.5c2.9,0,5.9,0,8.8,0s5.9,0,8.8,0c2.3,0,4.1,0.8,5.7,2.5
		c7.6,8.4,15.3,16.8,22.9,25.3C401.3,244.9,401.5,245.1,401.7,245.4z"/>
	<path class="st0" d="M352.5,283c-7.8,0-15.5,0-23.3,0c-3,0-6-0.2-9-0.9c-5.8-1.4-9.1-5.1-10.1-10.8c-0.4-2.3-0.7-4.6-0.7-6.9
		c-0.1-15.1,0-30.2,0-45.3c0-0.2,0-0.4,0-0.7c0-1.1,0.4-1.4,1.5-1.4c3.3,0,6.5,0,9.8,0c2,0,4,0,6,0c1.3,0,1.7,0.4,1.7,1.6
		c0,2.5,0,5.1,0,7.6c0,12.7,0,25.3,0,38c0,0.6,0,1.2,0.1,1.8c0.2,1.4,1.1,2.3,2.6,2.5c0.7,0.1,1.4,0.1,2.2,0.1c14.4,0,28.8,0,43.3,0
		c2.7,0,2.7,0,2.7,2.7c0,3.4,0,6.8,0,10.3c0,1.1-0.3,1.4-1.4,1.5c-0.2,0-0.5,0-0.7,0C368.8,283,360.7,283,352.5,283z"/>
</g>
</svg>
