<?xml version="1.0" encoding="utf-8"?>
<!-- Generator: Adobe Illustrator 22.0.1, SVG Export Plug-In . SVG Version: 6.00 Build 0)  -->
<svg version="1.1" id="Layer_2_1_" xmlns="http://www.w3.org/2000/svg" xmlns:xlink="http://www.w3.org/1999/xlink" x="0px" y="0px"
	 viewBox="0 0 500 500" style="enable-background:new 0 0 500 500;" xml:space="preserve">
<style type="text/css">
	.st0{fill:#FFFFFF;}
</style>
<g>
	<g>
		<path class="st0" d="M171.8,379.9c-3.8-1.9-8.7-2.5-13.8-1.7c-9,1.4-14.3,7.5-16.1,16.1c-1,4.6-0.8,10.3,0.1,14.6
			c2,9,7.5,13.6,17.7,14.6h6.4c2-0.3,4.5-0.6,6.9-1.2c1.9-0.5,4.8-1.1,5.6-2.4c0.9-1.6,0.5-5.7-0.1-7.6c-2.5,0-5.1,1.2-7.9,1.9
			c-9,2.2-18.5,0-17.7-10.5c6.2,0,12.9,0,19.4,0c3.2,0,6.8,0.5,8-1.3c1.1-1.7,0.7-5.2,0.5-7.3C180.1,387.4,176.6,382.3,171.8,379.9z
			 M152.9,396.3c0.1-6,3.5-10.7,9.6-10.3c4.9,0.4,7.5,4.3,7.3,10.3C164.8,396.3,157.9,396.3,152.9,396.3z M133.2,377.9
			c-7-0.5-8.9,4.6-11.8,7.3c-0.1-1.8,0.2-4-0.1-5.6c-2-1.4-7.9-1.4-9.6,0.3c-0.2,13.6-0.2,28.2,0,41.8c2.2,1.6,9.1,1.6,11.3,0
			c0.3-8.4,0-17.4,0.1-26c2-2.8,3.8-6.2,7.3-7.1c2.1-0.5,4.7,1.4,6.1,0.8c1.2-0.5,1-3,1.1-4.8C137.6,379.6,137.5,378.3,133.2,377.9z
			 M76.9,372.9c6.8-1.3,13,0.7,17.4,2.8c1,0.5,3.5,2.3,4.7,1.9c1.9-0.7,1.4-7.4,0.7-9.1c-0.9-2-4.2-3.3-6.5-4
			c-2.5-0.8-6-1.4-8.9-1.6c-7.3-0.5-13.3,0.8-17.8,2.8c-9.1,4-15.7,13-16.4,25.7v5.2c1.7,17.7,12.5,28.3,33.5,26.8
			c3-0.2,5.8-0.5,8.8-1.3c2.5-0.6,6.5-1.5,7.3-3.5c0.7-1.5,0.4-4.5,0.4-6.8c0-5.1,0-8.9,0-14.4c0-3.7,0.6-7.2-2-8.1
			c-2.6-1-7.2-0.3-10.9-0.3h-5.6c-1.7,0-4.3-0.2-5.2,0.3c-1.8,1.1-1.3,7.4,0,8.8c3.6,0.3,7.9,0,11.7,0.1v13.7
			c-7.7,3.7-16.5,0.9-20.6-3.5c-4.3-4.6-6.5-13.5-4.4-21.8C64.9,379.5,69.6,374.3,76.9,372.9z M250,347.4
			c110.5,0,200-60.7,200-135.5c0-74.9-89.5-135.5-200-135.5S50,137.1,50,211.9C50,286.8,139.5,347.4,250,347.4z M250,100.5
			c85.9,0,155.3,49.9,155.5,111.4c0.2,50-30.2,65.4-51.1,65.4c-2.1,0-4.2-0.2-6.1-0.5c0,0-30.2-4.9-29.4-40.8v-58.4l-69-37.8
			l-69,37.8V236c0.8,35.9-29.4,40.8-29.4,40.8c-1.9,0.3-3.9,0.5-6.1,0.5c-20.9,0-51.2-15.4-51.1-65.4
			C94.7,150.4,164.1,100.5,250,100.5z M426.2,360.5c-1-1.5-6-1.2-7.7-1.1c-1.2,0.1-2.4,0.5-3.3,1.2c-0.5,16.5-0.3,36.2-0.3,53.8
			c0,1.8-0.4,6.4,0.3,7.5c0.8,1.1,4,0.9,5.6,0.9c2.3,0,4.5,0.1,5.5-1.1c0.5-15.9,0.3-36.5,0.3-53.8
			C426.5,366.2,427,361.5,426.2,360.5z M401.1,383.4c-4.2-5.8-15.7-6.7-24.4-4.1c-2.5,0.7-6.5,2-7.5,4.1c-0.9,2-0.4,7.1,1.3,7.3
			c1.3,0.2,3.4-1.2,4.8-1.9c4-1.9,14.1-4.5,16.4,0.9c0.8,2,0.5,3.4,0.7,6.7c-11.1,0.1-20.7,0.7-24.5,8.1c-2.1,4.1-1.5,9.9,0.5,13.2
			c2,3.2,6.1,5.3,10.5,5.9h4.7c4-0.5,7-2.4,9.6-4.7c0.2-0.2,0.6-0.8,0.9-0.5c0.2,1.7-0.5,2.9,0.4,3.9c1.5,1.5,7.2,0.3,8.8-0.1
			c0.5-7.2,0.3-13.7,0.3-20.5C403.6,394.8,404.2,387.8,401.1,383.4z M392.4,410.4c-0.5,2.1-5.1,4.9-7.7,5.1
			c-2.8,0.2-5.1-0.8-6.1-2.5c-1.6-2.6-0.4-6.4,1.7-7.7c2.8-1.8,7.1-1.4,12.1-1.5C392.1,406.2,393,408.3,392.4,410.4z M353.8,364.5
			c-0.8,0.9-1.2,4.3-1.5,5.6c-3.2,13.5-6.4,28.1-9.4,40.8c-3.4-13.5-6.7-27.2-10.1-40.9c-0.4-1.7-0.9-4.9-1.7-5.6
			c-1.1-1-3.9-0.8-6.1-0.8s-5,0-6,0.9c-0.8,0.7-1.3,3.7-1.7,5.5c-3.2,13.7-6.5,27.7-9.7,40.8c-3-13.2-6.5-27.3-9.4-40.8
			c-0.4-1.9-0.6-4.9-1.5-5.7c-1.3-1.3-10.8-1-11.7,0.4c-0.9,1.4,0.7,5.4,1.2,7.3c3.8,14.9,7.4,28.6,11.2,43.1
			c0.6,2.1,1.1,5.9,2.3,6.8c2,1.6,13.1,1.5,14.9,0c0.9-0.7,1.2-2.8,1.6-4.5c2.9-12.1,5.4-23.3,8.5-34.8c2.6,11.5,5.8,22.9,8.7,34.4
			c0.4,1.7,0.6,4,1.5,4.8c2,1.9,13.6,1.6,15.3-0.1c1.1-1.1,1.6-4.7,2.1-6.9c3.7-14.3,7.9-29.1,11.3-42.7c0.6-2.4,1.8-5,1.1-7.6
			C362.5,363.4,355.4,362.8,353.8,364.5z M224.7,401.3c0-6.8,0.5-13.9-2.9-18.1c-4.7-5.9-16.3-6.2-24.8-3.6
			c-2.6,0.8-5.7,1.8-6.7,3.7c-1,1.9-0.5,7.1,1.2,7.5c1.4,0.3,3.3-1.2,4.4-1.7c3.5-1.6,10.3-4,14.8-1.3c2.5,1.5,2.8,4.3,2.7,8.9
			c-10.3-0.2-20.1,0.6-24.1,7.2c-2.4,4-2,10.1,0,13.6s5.9,5.6,10.6,6.3h4.8c2.3-0.3,4.3-1.2,6-2.1c1.8-1,3.1-2.2,4.5-3.2
			c0,1.1-0.2,2.8,0.1,3.9c1.9,0.7,7.9,1.5,9.1-0.1c0.6-0.8,0.3-3.6,0.3-5.1L224.7,401.3L224.7,401.3z M213.4,410.6
			c-0.3,1.2-2.7,3.2-4.5,4.1c-2.8,1.5-7.2,0.8-8.8-1.1c-1.5-1.8-1.6-5-0.3-6.9c2.2-3.2,8.1-3,13.6-2.9
			C213,406.2,214,408.4,213.4,410.6z M437.8,360.8c-0.2,16.1-0.1,36-0.1,53.4c0,2.2-0.5,6.6,0.3,7.7c0.8,1.2,6,1.2,8.4,0.9
			c1.2-0.1,2.4-0.5,2.9-1.3v-60.6C447.3,358.7,440,359,437.8,360.8z M250.4,413.2c-1.2-0.8-1.7-3-1.9-4.8
			c-0.4-5.9,0.2-14.8,0.1-20.1c3.1-0.1,6.6,0.2,9.4-0.1c1.4-1.8,1.5-7,0.1-8.9c-2.7-0.6-6.5-0.1-9.7-0.3c-0.1-3.2,0.2-6.8-0.1-9.9
			c-2.2-1.6-9.1-1.6-11.2,0.1c-0.3,3,0,6.6-0.1,9.9c-1.5-0.2-3.9-0.2-5.5,0c-1.7,1.7-1.6,7.2-0.1,9.1c1.6,0.4,4-0.1,5.6,0.3
			c0.9,9.8-2.1,23.7,2.3,30.5c1.6,2.5,4.9,4.2,9,4.5c3.5,0.2,8.7-0.2,10-2s1.1-6.7-0.1-8.5C256.1,413.4,252.5,414.7,250.4,413.2z"/>
	</g>
</g>
</svg>
