<?xml version="1.0" encoding="utf-8"?>
<!-- Generator: Adobe Illustrator 22.0.1, SVG Export Plug-In . SVG Version: 6.00 Build 0)  -->
<svg version="1.1" id="Layer_2_1_" xmlns="http://www.w3.org/2000/svg" xmlns:xlink="http://www.w3.org/1999/xlink" x="0px" y="0px"
	 viewBox="0 0 500 500" style="enable-background:new 0 0 500 500;" xml:space="preserve">
<style type="text/css">
	.st0{fill:#FFFFFF;}
</style>
<g>
	<g>
		<path class="st0" d="M387.6,390.4l-9.7,0.1l-10,0.1c-2.1,0.3-4.2,0.6-6.2,1.1c-6.2,1.4-11.4,4-16.1,7.4c-2.3,1.7-4.4,3.6-6.4,5.7
			v-13.9h-0.1v-0.2h-15.5c0.3-1.1,0.5-2.2,0.5-3.4c0-6.4-5.2-11.6-11.6-11.6c-0.2,0-0.3,0-0.5,0c-6.2,0.3-11.1,5.3-11.1,11.6
			c0,4.4,2.5,8.3,6.3,10.2c-5.9,2.7-10.9,6.8-14.8,11.8c-0.1-0.1-0.1-0.2-0.1-0.3c-2.5-7-7.5-12.9-13.8-16.8c0.7-1.4,1-3.1,1-4.7
			c0-5.4-3.8-10.1-9-11.2c-0.8-0.2-1.7-0.3-2.6-0.3c-6.4,0-11.6,5.2-11.6,11.6c0,3.3,1.4,6.3,3.6,8.3l-0.2,0.1
			c-6.1-4.3-10.8-6.3-18.1-6.6c-0.1,0-0.1,0-0.2,0l-0.1-3.2c0-0.2-1.6-0.1-2.5-0.1c-8.4,0.4-15.7,4.9-19.7,11.8
			c-0.1-0.2-0.3-0.4-0.4-0.6c-4.5-4.9-9.8-7.7-16.9-7.7h-0.1h-7.1h-3.7h0.1v12.6h-8.7l-5.5-0.1l-12.5,12.7c0-0.4,0.1-0.8,0.1-1.2
			c0-10.2-5.6-19.2-13.9-24c-1.9-1.2-4.1-2-6.3-2.7c-2.4-0.7-4.9-1.1-7.5-1.1h-0.1c-5.7,0-11,1.8-15.5,4.8l2.2,2.8
			c-6.5,4.4-10.7,11.9-10.7,20.3c0,8.1,4,15.7,10.6,20.3l-6.7,6.8h-0.1l-4.1,4h0.3h4.9h19.1h7.5h6.3h11.8l2.7-2.8h4.8l12.6-12.8
			l19-19.3c1.4,0.4,2.4,1.7,2.4,3.2c0,1.7-1.3,2.7-2.3,3.9l-19.1,19.4l-6.1,6.2l-4.2,4h10.3H200l2.6-2.7h0.1l17.8-18.1l0.3,0.4
			c1.5,2.6,3.5,5,5.8,7l-7.4,7.6l-4.3,4h27h1l3.6-3.7h24.3h16v-3.4h17.3V434H304c0-0.1,0-0.2,0-0.3c0-6.6,3.3-12.5,8.2-16
			c2.3-1.7,4.9-2.8,7.7-3.4v22.5v0.8h25.8h6.1c0,0.2,0,0.4,0,0.6c0,5.9,4.3,10.7,10,11.7c0.6,0.1,1.2,0.1,1.8,0.1
			c6.5,0,11.8-5.3,11.8-11.8c0-0.1,0-0.2,0-0.3s0-0.2,0-0.2h2.7h6.3h3.4v-45.2h-0.1L387.6,390.4z M259.8,387.5
			c0-4.4,3.7-8.1,8.1-8.1c0.9,0,1.8,0.2,2.6,0.5c3.2,1.1,5.4,4.1,5.4,7.6c0,3.6-2.3,6.6-5.4,7.7c-0.8,0.3-1.7,0.4-2.6,0.4
			C263.5,395.6,259.8,391.9,259.8,387.5z M241.6,391.2l0.1,0.1l0.1,0.1h-0.1L241.6,391.2L241.6,391.2z M136.7,440.8h-15.2l4.5-4.6
			l3.4-3.4c-7.9-2.9-13.4-10.4-13.4-19.2c0-11.3,9.3-20.6,20.6-20.6c2.6,0,5.2,0.5,7.5,1.4s4.4,2.2,6.3,3.9
			c4.2,3.8,6.8,9.2,6.8,15.3c0,4.8-1.7,9.2-4.4,12.7l0.3-0.2l-2.7,2.7l-6.3,6.4l-5.5,5.5h-1.9V440.8z M219.3,421.1
			c-0.4,0.6-0.7,1.2-1.1,1.8v0.1L199,442.6h-16.7h-1.2l1.2-1.2l24.1-24.6c0.9-1.1,1.2-2.4,1.2-3.9c0-4.9-4.2-6.9-8.5-6.8l-4.2,0.1
			L182.3,419l-21.5,21.9h-10.3h-6.3h-0.6l0.6-0.5l6.3-6.4l27.4-27.9h4.4h12.5v-3.8v-8.8h7.1v-0.1c8.8,0,16.1,6.1,18.3,14.8
			c0.4,1.6,0.8,3.2,0.8,4.8C221,415.2,220.4,418.6,219.3,421.1z M319.8,410.9c-2.7,0.4-5.3,1.3-7.7,2.6c-7,3.9-11.7,11.3-11.7,19.9
			c0,0.2,0,0.4,0,0.6h-29.8h-22.5v0.3l-6.4,6.5l-0.1,0.1H224l5.3-5.4l3.1-3.2h-0.1c0-0.1,0-0.2,0.4-0.1
			c-7.2-3.6-11.4-10.9-11.4-18.2c0-11.2,9.2-20.4,20.4-20.5c0.1,0,0.1,0,0.1,0c9.6,0,17.7,6.7,19.8,15.7c0.1,0,0.4,1.7,0.4,1.7
			c0.1,0.2,0.1,0.3,0.1,0.5c0.1,0.1,0.1,0.1,0.1,0.1c0.1,0.8,0.2,1.6,0.2,2.5c0,0.2,0,0.3,0,0.5s-0.1,0.5-0.1,0.7
			c0,0.3-0.1,0.5-0.1,0.8c0,0,0,0,0-0.1c-0.2,2.1-0.7,4-1.4,5.9h9.9h3.7c0.1-0.3,0.1-0.6,0.1-1c0-3.4-1.4-6.4-3.7-8.5
			c-2.1-1.9-4.8-3.1-7.9-3.1c-0.6,0-0.7,0.2-0.7-0.5l4.3-12.7c1.5,0.4,3,0.8,4.3,1.3c13,5.1,18,19.1,17,31.2
			c2.4-13.1,12.6-24.7,24.5-28.7c2.5-0.9,5.1-1.4,7.7-1.5v12.6H319.8z M312.5,395.3c-0.1,0-0.2,0-0.4,0c-4.3-0.2-7.7-3.8-7.7-8.1
			s3.5-7.9,7.7-8.1c0.2,0,0.3,0,0.4,0c4.5,0,8.1,3.7,8.1,8.1C320.6,391.7,316.9,395.3,312.5,395.3z M348.4,434.2h-2.8h-22.4v-40.1
			h12.6v14.6l-0.1,21.3c1.1-7.5,4.7-14.4,9.9-19.9c4.4-4.7,10-8.3,16.1-10.4c2-0.7,4.1-1.2,6.2-1.5l0.2,12.9c-2.2,0.4-4.4,1-6.3,2
			C353.8,416.8,348.4,424.9,348.4,434.2z M355,422.4c0-4,2.9-7.3,6.7-7.9c0.4-0.1,0.9-0.2,1.3-0.2c4.4,0,8.1,3.6,8.1,8
			c0,4.5-3.7,8.1-8.1,8.1c-0.5,0-0.9,0-1.3-0.1C357.9,429.7,355,426.4,355,422.4z M363.4,446.6c-0.6,0-1.2-0.1-1.7-0.2
			c-3.6-0.8-6.4-4-6.4-7.9c0-3.8,2.7-7,6.4-7.8c0.6-0.1,1.1-0.2,1.7-0.2c4.4,0,8,3.6,8,8C371.5,443,367.9,446.6,363.4,446.6z
			 M384.2,434.4H378h-6.3l0.1-40.2h6.2h6.3v40.2H384.2z"/>
		<path class="st0" d="M241.7,405.8c-4.6,0-8.3,3.8-8.3,8.3s3.7,8.3,8.3,8.3s8.2-3.8,8.2-8.3C250,409.5,246.3,405.8,241.7,405.8z"/>
		<path class="st0" d="M144.7,414.1c0-1-0.2-2-0.5-3c-1.2-3.1-4.1-5.3-7.5-5.4c-0.1,0-0.2,0-0.3,0c-4.6,0-8.3,3.8-8.3,8.3
			s3.7,8.3,8.3,8.3c0.1,0,0.2,0,0.3,0c3.5-0.1,6.4-2.3,7.5-5.3C144.5,416.2,144.7,415.1,144.7,414.1z"/>
	</g>
	<g>
		<path class="st0" d="M387.5,192.6c0.1-1.8,0.1-3.7,0.1-5.6V68.6l-1.6-2.1c-6.3-1.5-12.7-3-19-4.3c-6.2-1.3-12.5-2.5-18.7-3.6
			c-12.6-2.2-25.4-3.9-38.1-5.3c-2.1-0.2-4.1-0.4-6.2-0.6c-18-1.7-36-2.6-54-2.6c-0.3,0-0.5,0-0.8,0c-10.3,0-20.5,0.3-30.8,0.9
			c-0.3,0-0.5,0-0.8,0c-1.6,0.1-3.3,0.2-4.9,0.3c-1,0.1-2.1,0.1-3.1,0.2c-1.3,0.1-2.5,0.2-3.7,0.3c-2.4,0.2-4.7,0.4-7.1,0.6
			c-0.5,0-1.1,0.1-1.6,0.1c-2.3,0.2-4.5,0.4-6.8,0.7c-0.3,0-0.7,0.1-1,0.1c-22.3,2.4-44.6,6.1-66.6,11.1c-0.2,0-0.4,0.1-0.6,0.1
			c-2.7,0.6-5.4,1.2-8.1,1.9l-1.7,2.1V187c0,22.2,4.9,43.9,14,63.6c1.4,3.2,3.1,6.4,4.7,9.4c8.8,15.9,20.4,30.3,34.6,42.4
			c3.4,2.9,6.9,5.8,10.6,8.6c3.6,2.7,7.2,5.4,10.9,7.9c11.9,8.2,24.5,15.4,37.6,21.5c8,3.7,16.1,7,24.5,9.9h0.7h0.7
			c4.3-1.5,8.6-3.1,12.8-4.8c4.1-1.7,8.2-3.5,12.4-5.4c21.1-9.9,40.8-22.6,58.5-37.7v-0.1h0.1c4.7-4.1,9.1-8.4,13.3-12.9
			c4.1-4.5,7.9-9.2,11.5-14.3c0.6-0.9,1.2-1.8,1.8-2.6c0.5-0.7,0.9-1.4,1.4-2.1c0.1-0.1,0.1-0.2,0.2-0.3
			c10.7-16.2,18.2-34.4,22-53.5c0-0.1,0.1-0.2,0.1-0.4c0.1-0.4,0.2-0.8,0.2-1.1c0.1-0.4,0.2-0.9,0.2-1.3c0.1-0.3,0.1-0.6,0.1-0.8
			c0.1-0.5,0.2-1,0.2-1.5c0.1-0.6,0.2-1.3,0.3-1.9c0-0.2,0.1-0.3,0.1-0.5c0-0.1,0-0.2,0-0.2C386.8,203.7,387.3,198.2,387.5,192.6
			C387.5,192.7,387.5,192.7,387.5,192.6z M385,70.6C385,70.7,385,70.7,385,70.6C385,70.7,385,70.7,385,70.6
			C385,70.7,385,70.7,385,70.6z M355.8,272.9c-3.4,4.8-7.2,9.4-11.3,13.9c-4,4.4-8.4,8.6-12.9,12.5v0.1
			c-17.5,14.9-36.8,27.4-57.5,37c-3.9,1.9-8.1,3.6-12.2,5.4c-3.9,1.6-7.9,3.1-11.9,4.4c-0.2-0.1-0.5-0.2-0.7-0.3c0,0,0,0-0.1,0
			c-21.1-7.4-41.1-17.6-59.5-30.3c-3.6-2.5-7.2-5.1-10.8-7.9c-3.6-2.7-7-5.5-10.4-8.4c-13.7-11.7-25-25.7-33.5-41.1
			c-1.6-3.1-3.2-6.1-4.6-9.2c-8.8-19.1-13.5-40.2-13.5-61.8V70.3c2.3-0.6,4.7-1.1,7.1-1.7c1-0.2,1.9-0.4,2.9-0.6
			c1.4-0.3,2.8-0.6,4.3-0.9c1.1-0.2,2.2-0.5,3.3-0.7c1.6-0.3,3.1-0.6,4.7-1c1.9-0.4,3.8-0.7,5.6-1.1c1-0.2,1.9-0.4,2.9-0.5
			c1.5-0.3,2.9-0.5,4.4-0.8c0.8-0.1,1.5-0.3,2.3-0.4c5.2-0.9,10.3-1.7,15.5-2.4c0.6-0.1,1.1-0.2,1.7-0.2c1.7-0.2,3.4-0.5,5.2-0.7
			c0.2,0,0.5-0.1,0.7-0.1c3.7-0.5,7.4-0.9,11.1-1.3c0.2,0,0.3,0,0.5-0.1c1.8-0.2,3.5-0.4,5.3-0.5c0.5,0,1-0.1,1.5-0.1
			c5.4-0.5,10.8-1,16.2-1.3c0.5,0,1-0.1,1.6-0.1c1.7-0.1,3.3-0.2,5-0.3c0.6,0,1.2-0.1,1.8-0.1c5.2-0.3,10.4-0.5,15.6-0.6
			c0.8,0,1.6,0,2.3-0.1c1.5,0,3.1-0.1,4.6-0.1c0.7,0,1.5,0,2.2,0c2.9,0,5.8,0,8.8,0c0.7,0,1.4,0,2.1,0c1.2,0,2.5,0,3.7,0.1
			c1.2,0,2.4,0,3.6,0.1c0.9,0,1.8,0,2.7,0.1c2,0.1,4,0.1,6,0.2c0.2,0,0.4,0,0.5,0c12.4,0.5,24.8,1.4,37.2,2.7
			c12.6,1.4,25.2,3.1,37.8,5.4c12,2.1,23.9,4.6,35.8,7.4v116.8C383.3,218.2,373.5,248.2,355.8,272.9z"/>
	</g>
	<g>
		<path class="st0" d="M363.7,181.8L335,134.9c-1-2-1-4.4,0.1-6.4c0.8-2.3,0.4-4.8-1.1-6.7l-22.4-25.1l4.2-10.8
			c0-0.9-0.5-1.6-1.3-1.9c-10-0.8-19.1,5.9-21.2,15.6c-7,0-13.9,0.6-20.6,1.8c-14.5,2.4-28.1,7.3-40.6,14.3
			c-34.9,19.4-59.9,54.9-64.6,97.1c26.7,15.5,48.9,37.5,64.6,63.6c6.1,10.4,11.4,21.4,15.4,32.9c7.4-12.1,14.3-24.7,20.4-37.5
			c2.1-4.3,3.8-8.7,4.8-13.3c1.9-8.5,1.9-17.3,0-25.7c-1.1-5.1-2.9-10-5.5-14.6c-2.7-5.1-5.9-8.7-7.3-14.6
			c-1-11.4,3.8-22.6,12.8-29.8c0.2-0.1,0.4-0.3,0.5-0.4c6.4,7.5,15.6,11.8,25.4,11.9l15.9,12.7c1.4,1,2.1,2.9,1.6,4.5
			c-0.4,0.9-0.4,1.9,0,2.7c0.4,0.9,1.2,1.5,2.1,1.8c4.5-0.4,9.1,0.2,13.4,1.6c0.9,0.4,2,0.4,2.9,0.1c0.8-1.4,0.6-3.2-0.6-4.4
			c-2.4-1.9-4.6-3.7-6.9-5.6c-0.6-0.8-0.6-1.8,0-2.6c0.5-0.8,1.5-1.1,2.4-0.9c5.1,0.6,9,4.8,9.1,9.9c0.2,0.9,0.9,1.6,1.7,1.9
			c0.9,0.3,1.8,0.1,2.5-0.4c1.9-1.6,3.7-3.4,5.3-5.4c3.7-3.1,7.8-5.8,12.1-8.1c2.1-1.1,3.6-3.3,3.6-5.8
			C364.3,185.6,364.3,183.7,363.7,181.8z"/>
		<path class="st0" d="M278.1,191.8c-2.1-3.2-2.1-7.4,0-10.6c-1.5-1.4-3-2.9-4.6-4.3c-0.3,0.3-0.6,0.5-0.9,0.8
			c-8.7,8.2-14.4,22.6-7.1,33.4c2.9,4.4,5.3,8.9,7.1,13.6c4.9,12.4,5.6,25.6,1.3,39.5c-0.4,1-0.9,1.9-1.3,2.9
			c-6.6,15.6-14.6,30.8-23.8,45.1c8.7-6.8,16.7-14.5,23.8-22.9c7.6-9,14.1-18.8,19.5-29.3c3.7-9,5.1-18.9,4-28.6
			C293.1,217.1,287,203.5,278.1,191.8z"/>
		<path class="st0" d="M232.1,112.8c12.5-6.7,26.1-11.5,40.6-13.9c5.6-0.9,11.4-1.5,17.4-1.6c1.9-3,4.1-5.9,6.6-8.4
			c-8-1-16-1.4-23.9-1.1c-14,0.5-27.6,3-40.6,7.3c-46.1,15.2-83.3,52.9-96.2,102.6c9.9,4.3,19.6,8.9,29.1,14
			C170.1,168.4,196,132.4,232.1,112.8z"/>
	</g>
</g>
</svg>
