<?xml version="1.0" encoding="utf-8"?>
<!-- Generator: Adobe Illustrator 21.0.2, SVG Export Plug-In . SVG Version: 6.00 Build 0)  -->
<svg version="1.1" id="Layer_2_1_" xmlns="http://www.w3.org/2000/svg" xmlns:xlink="http://www.w3.org/1999/xlink" x="0px" y="0px"
	 viewBox="0 0 500 500" style="enable-background:new 0 0 500 500;" xml:space="preserve">
<style type="text/css">
	.st0{fill:#FFFFFF;}
</style>
<path class="st0" d="M429.7,368.5c-11.7,7.2-24.5,10.9-38.1,12c-16.6,1.3-32.6-1.3-47.5-8.8c-9.6-4.8-17.8-11.3-23.9-20.4
	c-10.4-15.7-9.6-34.6,2-49.4c9.2-11.7,21.4-18.9,35.5-22.9c23-6.5,45.5-5,67.1,5.8c8.4,4.2,15.5,10,21.3,17.4
	c1.3,1.7,2.3,3.5,1.1,5.7c-1.1,2-2.8,2.6-5,2.5c-10-0.1-20-0.1-29.9,0c-2.7,0-4.6-0.8-6.5-2.7c-10.7-10.8-27.4-12.1-39.6-3.3
	c-9.4,6.7-14.2,18.6-11.6,29.5c3,12.5,10.9,20.3,23.4,22.8s22.9-1.6,30.8-11.8c1.3-1.7,2.8-2.4,5-2.4c10,0.1,20,0.1,29.9,0
	c3.3,0,5.4,0.9,6.4,4.1c0,0.3,0,0.5,0,0.8C445.5,356.7,438.2,363.2,429.7,368.5z M384.9,186c-9.7,16.3-24.2,27.1-40.7,35.6
	c-18.9,9.7-38.9,15.8-59.8,19c-11.1,1.7-22.3,2.8-31.1,2.5c-27.5,0.2-51.8-3.9-75.3-12.4c-15.5-5.7-30.2-13-43.1-23.6
	c-7.5-6.2-13.8-13.4-18.8-21.9c-4-6.8-6.9-14.1-7.7-21.9c-1-9.3-0.1-18.6,3.8-27.4c4.4-9.9,10.6-18.4,18.4-25.8
	c7.1-6.8,15.2-12.3,23.8-17c14.5-7.8,29.9-13.5,46-17c8.8-1.9,17.7-3.1,26.6-4.4c11-1.6,22.2-1.7,33.2-1.1
	c10.2,0.6,20.5,1.8,30.6,3.4c8.1,1.3,16.2,3.4,24.1,5.8c7.1,2.1,14,4.8,20.8,7.7c10.2,4.3,19.7,9.8,28.3,16.7
	c12.5,10,22.5,21.9,27.3,37.5c1.7,5.7,2.7,11.6,2.2,17.5C392.9,168.9,389.9,177.8,384.9,186z M135.5,138.5
	c-2.7,8.5-3.5,17.1-2.1,25.9c2.6,16.1,10.1,29.6,22.3,40.4c10.8,9.5,23.4,16.3,36.2,22.5c1.2,0.6,1.8,0.2,2.4-0.9
	c3.2-6.1,6.5-12.2,9.7-18.3c3.5-6.7,7-13.3,10.5-20c5.1-9.8,10.2-19.5,15.2-29.3c1.4-2.7,1.3-2.9-1.8-3.6
	c-7.8-1.6-15.6-3.3-23.3-4.9c-18.7-3.9-37.4-7.7-56.2-11.5c-3.6-0.7-7.3-1.4-11.5-2.2C136.5,137.1,135.7,137.8,135.5,138.5z
	 M245.1,75.2c-7.1,0.7-14.2,1-21.3,2.1c-20.2,3.1-38.8,10.4-55.9,21.6c-13.2,8.7-23.1,20.3-30.1,34.5c-1,2-0.8,2.3,1.4,2.3
	c4.3,0.1,8.7,0.3,13,0.3c3.8,0,7.6-0.3,11.4-0.3c21.8,0,43.7,0,65.5,0c2.5,0,5.1,0.1,7.6-0.1c0.7-0.1,1.8-0.9,2-1.6
	c1.9-8.5,3.7-17,5.4-25.6c2-10.1,4-20.2,6-30.3c0.2-1,0.2-2,0.3-3.4C248.4,74.9,246.7,75.1,245.1,75.2z M248.9,170.8
	c-4.4,4.6-8.8,9.3-13.3,14c-13.2,13.9-26.4,27.9-39.7,41.8c-1.3,1.3-0.8,1.8,0.6,2.3c5,1.4,9.9,3.1,14.9,4.3
	c13,3.2,26.1,4.7,39.5,5.1c2.1-0.2,4.2-0.3,6.4-0.5c6.8-0.7,13.7-1.1,20.4-2.1c8.9-1.3,17.7-3.4,26.2-6.4c2.8-1,2.8-1,1-3.4
	c-0.4-0.5-0.7-1-1.1-1.4c-5.4-5.6-10.8-11.1-16.2-16.8c-11.7-12.3-23.3-24.6-34.9-36.9C250.9,168.8,250.8,168.8,248.9,170.8z
	 M364.1,133.6c-4.7-9.2-10.3-17.7-17.9-24.8c-15.2-14.1-33.3-23-53.1-28.3c-7.9-2.1-16.1-3.3-24.2-4.5c-5.7-0.8-11.5-0.9-17.9-1.4
	c0.4,2.3,0.8,4.3,1.1,6.2c2,10.4,4.1,20.8,6.1,31.3c1.4,7,2.9,14,4.3,21c0.4,2,1.3,2.5,3.3,2.5c25.9,0.1,51.7,0.2,77.6,0.3
	c6.4,0,12.8-0.2,19.3-0.3C364.4,135.7,364.8,135.1,364.1,133.6z M366.2,138.4c-0.4-1.4-1.2-1.8-2.5-1.6c-6.1,1.3-12.2,2.5-18.3,3.8
	c-12.2,2.5-24.4,5-36.5,7.5c-11.8,2.4-23.6,4.9-35.4,7.4c-2.6,0.5-2.7,0.8-1.5,3.2c2.6,5,5.2,10,7.8,15
	c5.9,11.2,11.7,22.4,17.6,33.6c3.4,6.5,6.8,12.9,10.2,19.4c0.6,1.1,1.2,1.4,2.4,0.8c5.8-3.1,11.6-5.9,17.3-9.1
	c9.7-5.5,18.9-11.9,26.1-20.6c9.9-12,15.5-25.6,15.8-41.3C368.9,150.1,368,144.2,366.2,138.4z M129.2,346.1c0.1-9.7,0-19.4,0-29.1
	c0-9.2-0.1-18.4,0.1-27.5c0-2.1,0.4-4.3,1.2-6.2c1.6-3.8,5.2-5,8.9-5c8.2-0.2,16.5-0.1,24.8-0.1c0.1,0.4,0.2,0.7,0.2,1
	c0,22.6,0.1,45.3,0,67.9c-0.1,11.1-4.3,20.2-14.2,26.1c-5.8,3.5-12.3,4.8-19,4.9c-16.5,0.1-33.1,0.4-49.6-0.1
	c-12.7-0.4-23.1-5.7-29.2-17.3c-1.4-2.7-2-6.1-2.2-9.2c-0.4-4.6-0.1-9.3-0.1-14.3c5.1,0,9.9,0,14.8,0c3.5,0,7.1,0,10.6,0.1
	c4.7,0.1,7.2,2.4,7.4,7.1c0.1,1.3-0.1,2.7,0.2,4c1,5.8,5.6,9.8,12.3,10.1c7.5,0.3,15.1,0.3,22.7,0
	C125.2,358.1,129.2,353.6,129.2,346.1z M60.3,404.9c0.6,0.1,1.3,1,1.6,1.7c2,4.6,3.9,9.2,5.9,13.9c0.3,0.6,0.6,1.2,1,2.2
	c0.5-0.9,0.8-1.4,1.1-2c2-4.7,4.1-9.3,6-14c0.6-1.4,1.3-1.9,2.8-1.9c4.8,0.1,4.1-0.5,4.1,4c0,5.9,0,11.8,0,17.7
	c0,0.8-0.1,1.6-0.1,2.4c-0.8,0-1.5,0.1-2.1,0.1c-0.5,0-1-0.1-1.8-0.1c0-3,0-5.8,0-8.7c0-2.9,0-5.7,0-8.6c-0.2-0.1-0.3-0.1-0.5-0.2
	c-0.3,0.6-0.7,1.3-1,1.9c-1.9,4.5-3.8,9-5.7,13.5c-0.5,1.2-0.9,2.3-2.7,2.3c-1.8,0-2.2-1-2.8-2.3c-1.9-4.6-3.9-9.1-5.8-13.7
	c-0.2-0.5-0.5-1-0.8-1.5c-0.2,0-0.3,0.1-0.5,0.1c0,5.6,0,11.3,0,17c-1.4,0-2.6,0-3.9,0c0-8,0-15.9,0-24.1
	C56.9,404.9,58.6,404.7,60.3,404.9z M138.4,405.1c4-1.2,8.1-1.2,12.1,0c5.6,1.7,8.8,6.8,8.3,12.7c-0.5,6.4-4.5,10.6-10.9,11.6
	c-1.2,0.2-2.4,0.2-3,0.3c-4.1,0-7.4-0.6-10.3-2.7c-4.2-3.2-5.2-7.6-4.4-12.6C131,409.6,133.8,406.5,138.4,405.1z M137.7,423.9
	c3.2,2.4,9.9,2.6,13.1,0c1.3-1,2.5-2.6,2.9-4.1c2-6.7-2-11.6-9.4-11.8c-1.4,0.3-2.9,0.4-4.3,0.8c-3.2,1-5,3.2-5.5,6.5
	C134.2,418.7,134.8,421.7,137.7,423.9z M194.8,326.1c8.5-14.4,17-28.8,25.4-43.2c2.2-3.8,5.5-5.7,9.9-5.7c8.3,0,16.6,0,24.9,0
	c4.2,0,7.4,1.9,9.5,5.4c18,29.3,35.9,58.7,53.8,88c0.5,0.7,1,1.5,1.3,2.2c1.2,2.4,0.1,4.3-2.6,4.4c-4,0.1-8,0-12.1,0
	c-3.8,0-7.5,0-11.3,0c-4-0.1-7.1-1.9-9.3-5.1c-1.3-1.9-2.6-3.8-3.7-5.7c-2.7-4.5-6.8-6.4-11.9-6.4c-13.2,0-26.4,0-39.6,0
	c-0.9,0-1.7,0-2.6-0.1c-3.1-0.2-4.2-2.1-2.8-5c1.7-3.3,3.4-6.5,5.3-9.7c2-3.3,5-5,8.9-5c6.3-0.1,12.6,0,18.9,0c1.6,0,3.2,0,4-1.6
	s-0.1-3-0.9-4.3c-4.5-7-9-13.9-13.5-20.9c-2.5-3.9-5.2-3.8-7.6,0.1c-11.9,19-23.9,38.1-35.8,57.1c-2.7,4.4-6.4,6.6-11.6,6.5
	c-6.8-0.2-13.5,0-20.3,0c-4.2,0-5.3-1.9-3.1-5.6C177,356.5,185.9,341.3,194.8,326.1z M204.8,404.8c7.6,0,15.3,0,22.9,0
	c1.4,0,1.8,0.6,1.8,1.9c0,1.4-0.3,2.1-1.9,2.1c-2.9-0.1-5.9,0-9.1,0c0,6.9,0,13.4,0,20.1c-1.5,0-2.9,0-4.4,0c0-6.6,0-13.2,0-20.1
	c-3.1,0-6-0.1-9,0c-1.7,0.1-2.2-0.6-2.1-2.2C203.1,405.2,203.5,404.8,204.8,404.8z M283.6,404.8c2.8-0.5,5.9-0.5,8.7-0.1
	c6.9,1.1,10.4,5.9,10.2,13.1c-0.2,6.1-4.5,10.7-11,11.6c-1.1,0.2-2.3,0.2-3.1,0.3c-5-0.1-9.3-1-12.4-5.1
	C270.6,417.1,274.6,406.4,283.6,404.8z M282.5,424.5c3.7,1.7,7.5,1.7,11.2-0.1c2.2-1.1,3.5-2.9,4-5.3c1.4-6.6-2.5-11-9.6-11.3
	c-1.6,0.4-3.3,0.5-4.8,1.1c-3.1,1.2-4.8,3.6-4.9,6.9C278.1,419.6,279,422.8,282.5,424.5z M352.1,404.8c4.3,0.1,8.6,0,12.8,0
	c0.9,0,1.9,0.1,2.8,0.2c4.2,0.5,6.2,2.5,6.5,6.3c0.3,3.7-1.7,6.4-5.5,7.6c-0.2,0.1-0.5,0.2-1.2,0.4c2.5,3.3,4.7,6.3,7,9.4
	c-3.3,1.1-5.2,0.5-7.1-2.1c-1.5-2-2.9-4-4.4-5.9c-0.5-0.6-1.5-1.1-2.3-1.1c-1.9-0.2-3.9-0.1-6.1-0.1c0,3.2,0,6.3,0,9.5
	c-1.7,0-3,0-4.7,0c0-1.8,0-3.5,0-5.2c0-5.6,0.1-11.1,0-16.7C349.8,405.2,350.4,404.8,352.1,404.8z M354.6,415.5
	c4.1,0,7.9,0.1,11.7,0c1.8-0.1,3.2-0.9,3.4-3c0.1-1.9-0.5-3.4-2.4-3.5c-4.2-0.2-8.3-0.1-12.6-0.1C354.6,411,354.6,413.2,354.6,415.5
	z M425.9,422.4c3,3.4,10.7,4.5,14.4,1.9c1.9-1.3,1.9-3.4-0.2-4.2c-2.2-0.8-4.7-1.1-7-1.5c-2-0.4-4.1-0.6-6.1-1.2
	c-3.3-1-5.1-3.2-5.2-5.9c-0.1-3.1,1.5-5.3,5-6.4c4.7-1.5,9.4-1.3,14,0.4c2.3,0.9,4.1,2.4,4.9,5c-1,0.4-1.9,0.8-2.9,1
	c-0.6,0.1-1.4-0.2-1.8-0.6c-2.6-3-10.5-4.1-13.6-1.7c-0.6,0.4-1.1,1.5-1,2.2s1,1.6,1.6,1.7c2.9,0.7,5.9,1.1,8.9,1.7
	c1.8,0.4,3.6,0.7,5.2,1.4c2.2,0.9,3.8,2.5,4,5.1s-0.6,4.9-2.9,6.2c-5.8,3.2-11.8,2.9-17.8,0.4c-1.3-0.6-2.4-1.7-3.4-2.7
	c-0.5-0.5-0.8-1.3-1.3-2.2c1.2-0.4,2.2-0.8,3.2-1C424.7,421.7,425.6,422,425.9,422.4z"/>
</svg>
