<?xml version="1.0" encoding="utf-8"?>
<!-- Generator: Adobe Illustrator 22.0.1, SVG Export Plug-In . SVG Version: 6.00 Build 0)  -->
<svg version="1.1" id="Layer_2_1_" xmlns="http://www.w3.org/2000/svg" xmlns:xlink="http://www.w3.org/1999/xlink" x="0px" y="0px"
	 viewBox="0 0 500 500" style="enable-background:new 0 0 500 500;" xml:space="preserve">
<style type="text/css">
	.st0{fill:#FFFFFF;}
</style>
<path class="st0" d="M285.7,438.6c-15.3,8.8-25.9,11.4-35.7,11.4s-20.4-2.5-35.7-11.4c-44.6-25.8-107.9-84.8-108-188.6
	c0.1-103.8,63.4-162.8,108-188.6c15.3-8.8,26-11.4,35.7-11.4c9.8,0,20.4,2.5,35.7,11.4c44.6,25.8,107.9,84.8,108,188.6
	C393.6,353.8,330.3,412.8,285.7,438.6z M283.8,69.5c-14.5-8.4-24.5-11.6-33.8-11.6c-9.2,0-19.3,3.3-33.8,11.6
	c-42.1,24.3-102,82.3-102.1,180.4C114.2,348,174,406,216.2,430.3c14.5,8.4,24.5,11.7,33.8,11.7c9.2,0,19.3-3.3,33.8-11.7
	c42.1-24.3,102-82.3,102.1-180.4C385.8,151.9,325.9,93.9,283.8,69.5z M281.1,426.3C267.8,434,258.5,437,250,437s-17.8-3-31.1-10.7
	c-24.1-13.9-58.1-42.6-77.7-82h92.7c-4.1-7.9-3.8-12.6-0.2-17.9h-10.4c-0.7,0-1.2-0.5-1.2-1.2v-8.1c0-0.7,0.4-1.2,1.4-1.2
	c5,0,3.2-6.6,7.3-7.1c-0.5-0.8-1.7-2-1.2-3c1.9-1.1,3.3-2.8,6.1-4.4c2.1-1.2,3.6,0.2,5.4,0.5c0.9,0.3,1.5-0.1,1-0.6
	c-2.6-2.1-6.7-5.4-3.8-9.1c-2.3,0.8-3.3,1.5-6.9,1.5c-3.7,0-5.8-0.9-7.1-1.3c-2.4-0.6,0.2,2.2,1.1,2.8c0.9,0.8,1.1,1,2.5,2.1
	c-7.3,0.2-10-5.3-13.8-5.1c-1,0.1,0.4,2.2,1.3,3c0.8,0.7,1.5,1.4,2.4,2.1c-4.1,0.2-7.3-1.7-9.8-4.1c-0.7-0.8-0.8-0.8-1.1-1.1
	c-0.2-0.3-0.7-0.5-1.1-0.5c-0.4,0-0.7,0.2-1,0.5c-1.7,2.6-4,3.6-7.3,3.6c-3.8,0-7.9-2.3-9.4-5.5h-5.3c-0.6,0-1.1-0.5-1.1-1.2v-4.7
	c0-0.7,0.5-1.2,1.2-1.2h133.7c0.7,0,1.3,0.6,1.3,1.2v4.7c0,0.7-0.5,1.2-1.2,1.2h-5.1c-1.5,3.3-5.6,5.5-9.4,5.5c-3.4,0-5.6-1-7.3-3.6
	c-0.2-0.3-0.6-0.5-1-0.5s-0.9,0.2-1.1,0.5c-0.3,0.3-0.3,0.2-1.1,1.1c-2.5,2.3-5.7,4.3-9.8,4.1c0.9-0.7,1.6-1.5,2.4-2.1
	c0.9-0.8,2.3-2.9,1.3-3c-3.8-0.2-6.5,5.3-13.8,5.1c1.4-1.1,1.6-1.3,2.5-2.1c0.9-0.6,3.5-3.4,1.1-2.8c-1.3,0.4-3.3,1.3-7.1,1.3
	c-3.6,0-4.6-0.6-6.9-1.5c3,3.7-1.1,6.9-3.8,9.1c-0.5,0.5,0.1,0.9,1,0.6c1.8-0.3,3.3-1.7,5.4-0.5c2.8,1.7,4.1,3.4,6.1,4.4
	c0.5,1-0.7,2.3-1.2,3c4.2,0.5,2.3,7,7.3,7.1c0.9,0,1.3,0.5,1.3,1.2v8.1c0,0.7-0.5,1.2-1.2,1.2h-10.4c3.7,5.3,3.9,10-0.2,17.9h92.7
	C339.2,383.7,305.2,412.4,281.1,426.3z M194.6,357.6H191l-5.3,13.9h-0.1l-5.3-13.9h-3.6v27.6h2.4v-16.3c0-0.8-0.1-4.3-0.1-6.8h0.1
	l6.6,17.3l0,0l6.4-17.3h0.1c0,2.6-0.1,6.1-0.1,6.9v16.3h2.4v-27.7H194.6z M210.1,357.6h-2.9l-7,27.6h2.6l1.2-5.1h8.9l1.1,5.1h2.8
	L210.1,357.6z M256.7,326.9h2.8v-0.3h-2.8V326.9z M244.2,385.2h11.6v-2.6h-9.1v-9.5h8.8v-2.6h-8.8v-10.3h8.9v-2.6h-11.4V385.2z
	 M240.5,326.9h2.8v-0.3h-2.8V326.9z M230,357.6c-5.7,0-8.7,2.3-8.7,6.3c0,4.5,4.1,6.7,6.3,7.7l4.1,1.9c2.1,1,4.4,2,4.4,5
	c0,3.2-3.6,4.7-6,4.7c-2.1-0.1-4.5-0.6-7.3-1.6l-0.2,2.2c2.9,1,4,1.6,7.7,1.6c5.2,0,8.4-3,8.4-6.8c0-4.5-3.4-6.1-6.2-7.4l-4.1-1.9
	c-1.7-0.8-4.4-2.2-4.4-5.3c-0.1-3.4,3.3-4.1,6.2-4.1c2.2,0,3.8,0.4,6.6,1.4l0.1-2.3C234.5,358.1,233.1,357.6,230,357.6z
	 M244.2,312.7c-1.3,1.1-2.1,1.5-3.5,2c-3.4,0.9-6.5-0.7-8.3-2.6v3.7h14.4v-2.4C246.8,313.3,247.1,309.9,244.2,312.7z M267.6,315.9
	v-3.7c-1.8,1.9-4.9,3.4-8.3,2.6c-1.4-0.5-2.3-0.9-3.5-2c-2.9-2.9-2.6,0.6-2.5,0.8v2.4L267.6,315.9z M267.3,357.6h-3.6v27.6h2.7v-5.9
	h1c2.3,0,3.4,0.5,4.4,1.4c1,1.1,1.1,2.6,1.2,4.6h2.9l-0.4-3.1c-0.5-2.2-1.2-3.2-3.5-3.9c3.7-1.1,6.1-3.7,6.1-9.8
	C278,362.5,273.6,357.6,267.3,357.6z M289.1,357.6l-7,27.6h2.6l1.2-5.1h8.9l1.1,5.1h2.8l-6.8-27.6H289.1z M312.2,357.6h-14.3v2.2
	h5.9v25.3h2.5v-25.3h5.9V357.6z M319.9,357.6h-2.5v27.6h2.5V357.6z M290.4,361.7L290.4,361.7l3.5,15.7h-7.2L290.4,361.7z
	 M267.5,376.7h-1.1V360h1.1c5.2,0,7.9,4.1,8,8.3C275.5,372.9,273.7,376.7,267.5,376.7z M271.7,380.6c0,0.1,0.1,0.1,0.1,0.1
	C271.8,380.7,271.7,380.6,271.7,380.6z M208.5,361.7L208.5,361.7l3.5,15.7h-7.2L208.5,361.7z M308.5,260.7h-117
	c-0.7,0-1.2-0.4-1.2-1.2v-5.3c0-0.7,0.4-1.2,1.3-1.2h116.9c0.9,0,1.3,0.5,1.3,1.2v5.3C309.8,260.3,309.2,260.6,308.5,260.7z
	 M308.5,273.3c0.9,0,1.3,0.5,1.3,1.2v5.3c0,0.7-0.5,1.2-1.2,1.2H191.5c-0.7,0-1.2-0.4-1.2-1.2v-5.3c0-0.7,0.4-1.2,1.3-1.2H308.5z
	 M181.9,269.8v-5.3c0-0.7,0.4-1.2,1.3-1.2h133.6c0.9,0,1.3,0.5,1.3,1.2v5.3c0,0.8-0.5,1.2-1.2,1.2H183.1
	C182.4,271,181.9,270.7,181.9,269.8z M311.5,241.5c0.1,1.1,0.6,1.5,2,1.5l0,0h3.3c0.9,0,1.3,0.5,1.3,1.2v5.3c0,0.8-0.5,1.2-1.2,1.2
	H183.1c-0.7,0-1.2-0.4-1.2-1.2v-5.3c0-0.7,0.4-1.2,1.3-1.2h3.3c1.4,0,1.9-0.4,2-1.5c1.1-36.7-12.7-79.2-30.1-109.1
	c10.9,4.6,25.4,17,34.2,32.9h-0.1c-3.9-2.1-7.4-4.1-11.1-6.3c-1.7-0.3-2.9,0-2.6,2c14.3,24.9,24.7,52.1,27.3,82h14.4l23.8-38.5
	v-53.3l0,0c0-1.3-0.6-2.1-1.9-1.6l-17,6.9c13.5-15.5,22.8-33.7,24.8-54l0,0c2,20.3,11.3,38.5,24.8,54l-0.1-0.1
	c-0.2-0.3-0.4-0.5-0.7-0.8c0.3,0.3,0.5,0.6,0.7,0.8c0.1,0.1,0.1,0.1,0.1,0.1l-17-6.9c-1.4-0.5-1.9,0.3-1.9,1.6l0,0v53.3l23.8,38.5
	h14.4c2.5-29.9,12.9-57.1,27.3-82c0.3-2-0.9-2.3-2.6-2c-3.7,2.2-7.3,4.2-11.1,6.3h-0.1c8.7-15.9,23.2-28.3,34.2-32.9
	C324.2,162.3,310.3,204.9,311.5,241.5z M244.2,227.4l-9.7,15.6h9.7V227.4z M273.1,154.6c-0.4-0.5-0.9-1-1.3-1.5
	C272.1,153.5,272.6,154,273.1,154.6z M271.4,152.7c-0.3-0.3-0.6-0.7-0.9-1C270.8,152,271.1,152.4,271.4,152.7z M255.8,227.4V243h9.7
	L255.8,227.4z M158.4,132.4L158.4,132.4L158.4,132.4L158.4,132.4z M341.6,132.4L341.6,132.4L341.6,132.4L341.6,132.4z"/>
</svg>
