<?xml version="1.0" encoding="utf-8"?>
<!-- Generator: Adobe Illustrator 22.0.1, SVG Export Plug-In . SVG Version: 6.00 Build 0)  -->
<svg version="1.1" id="Layer_2_1_" xmlns="http://www.w3.org/2000/svg" xmlns:xlink="http://www.w3.org/1999/xlink" x="0px" y="0px"
	 viewBox="0 0 500 500" style="enable-background:new 0 0 500 500;" xml:space="preserve">
<style type="text/css">
	.st0{fill:#FFFFFF;}
</style>
<g>
	<path class="st0" d="M249.7,344.1c78.9,0,182.1-20.3,182.1-147.3c0-41.2-11-71.9-29-93.4c-1.4-1.5-2.7-3.1-4.1-4.6
		c-37.1-40-98-48.7-149.1-48.7c-51.6,0-114.3,8.7-150.8,51c-0.6,0.8-1.2,1.6-1.7,2.3c-18,21.5-29,52.2-29,93.4
		C68.1,323.8,171.4,344.1,249.7,344.1z M131.4,123.7c24.4-37.7,70.8-47,118.3-47s92.8,8.7,117.8,45.8c0.5,0.8,1,1.7,1.6,2.5
		c-42.3,24.8-90.3,25.7-119.3,88c-31.6-60.4-79.1-60.9-121-84.8C129.6,126.7,130.5,125.2,131.4,123.7z M114.5,175.3
		c0.3-1.4,0.7-2.8,1-4.3c23.6,8,47.3,16,70.9,24c27.8,11.6,46.4,27.8,63.2,64.4c16.8-36.5,34.8-55.1,63.2-66.7
		c23.8-8.5,47.6-17.1,71.5-25.6c0.2,0.6,0.3,1.2,0.5,1.8c1.2,8.1,1.7,18,1.7,27.8c0,100.9-66.7,121.2-136.9,120.7
		c-70.2,0.6-136.3-19.7-136.3-120.7C113.4,189.2,113.4,181.7,114.5,175.3z"/>
	<polygon class="st0" points="244.6,450 292.9,450 292.9,431.1 267.6,431.1 	"/>
	<path class="st0" d="M412.7,385.9h-42.6v17.3c0,0,24,0,33.8,0s8.3,6.5,8.3,6.5s-22.5,0-27.1,0c-3.4,0-13.9-0.5-19.1,7.7
		c0-1,0-2.1,0-3.1c0-29.2-22-28.4-22-28.4h-57.3l-58.4,46.2c0,0,0-9.8,0-28.4s-19.1-17.8-19.1-17.8h-42.6v17.3c0,0,24.3,0,33.8,0
		c9.8,0,8.5,6.5,8.5,6.5s-22.7,0-27.1,0c-3.4,0-13.7-0.5-18.9,7.5V410c0-25.6-23-24-23-24H68.1v64h21.7v-44.9c0,0,7,0,15.2,0V450
		h20.7v-44.9h7c10.1,0,8.8,8.3,8.8,8.3V450h21.4c0,0,0-2.8,0-8.5c5.2,8.5,15.5,8.5,15.5,8.5h59.4l58.6-47.3v47c0,0,33.6,0,46,0
		c8.8,0,17-4.4,20.9-16.3C365.7,449.7,382,450,382,450h49.9c0,0,0-27.6,0-46.2C431.9,385.2,412.7,385.9,412.7,385.9z M208.7,432.4
		H186c0,0-4.6,0.3-4.6-4.4c0-3.9,3.6-4.1,4.9-4.1h22.5L208.7,432.4L208.7,432.4z M336.5,431.1h-19.4V404h19.6c0,0,9.3,0.8,9.3,12.7
		C346.1,428.6,341.7,431.1,336.5,431.1z M411.7,432.4H389c0,0-4.6,0.3-4.6-4.4c0-3.9,3.9-4.1,5.2-4.1h22.2v8.5H411.7z"/>
	<polygon class="st0" points="231.7,405.1 257,405.1 280,385.9 231.7,385.9 	"/>
</g>
</svg>
