<?xml version="1.0" encoding="utf-8"?>
<!-- Generator: Adobe Illustrator 21.0.2, SVG Export Plug-In . SVG Version: 6.00 Build 0)  -->
<svg version="1.1" id="Layer_2_1_" xmlns="http://www.w3.org/2000/svg" xmlns:xlink="http://www.w3.org/1999/xlink" x="0px" y="0px"
	 viewBox="0 0 500 500" style="enable-background:new 0 0 500 500;" xml:space="preserve">
<style type="text/css">
	.st0{fill-rule:evenodd;clip-rule:evenodd;fill:#FFFFFF;}
</style>
<g>
	<g>
		<path class="st0" d="M448.5,224.8c9-24.6-24.9-38.7-39-44.9c-50-21.7-112.7-26.2-180.3-28.2c-18.6,1.7-37.1,3.3-55.7,5
			c-35.5,6.9-70.1,14-96.4,29.9c-11.3,6.9-35.6,21-24.1,41.5c11.6,20.7,40.8,29.7,65.6,37.4c73.2,22.6,185.3,23.3,259.2,0.8
			C403.4,258.6,439.7,248.8,448.5,224.8z M391.2,242.3c-54,32.1-213.8,41.7-271.7,5h-1.7c20-7.8,34.7-18.2,41.5-38.2
			c0.6-0.3,1.1-0.6,1.7-0.8c-1.8,8.6-4.4,26.7-0.8,34.1c1.5,3.1,1.3,3.1,5,4.2c10.1,2.9,31.6-29.4,34.9-38.2
			c0.6-0.3,1.1-0.6,1.7-0.8c-1.9,8.5-4.4,22.7-1.7,32.4c2,4.3,4.5,5,8.3,7.5c7.3-0.6,10.6-2.9,15.8-5c0.1-4.3-4.5-8-5.8-13.3
			c-3.4-14.1,1.6-35.8,5-46.5c-25.2,0.5-32,25.7-44,39.9v1.7c-0.3-11.6-0.6-23.3-0.8-34.9c-2-4.5-6.3-7.4-12.5-5
			c-19.1,8.3-22.1,52.9-53.2,60.6c-6.5-6.1-15.9-8.9-20.8-16.6c-10.7-16.8,7-28.5,17.4-34.9c20.4-12.4,47.3-18.6,74.8-24.1
			c12.7-1.4,25.5-2.8,38.2-4.2c30.3,0.1,61-1.6,87.2,3.3c15.5,3.3,31,6.6,46.5,10c-15.4,10-27.4,21.8-31.6,42.4
			c-0.6,0.3-1.1,0.6-1.7,0.8c-0.4-17.2-2.3-37.4-15.8-42.4c-2.1,0.7-4.3,1.3-5.8,2.5c-14,8.3-11.6,49.9-38.2,61.5
			c-0.3,0.6-0.6,1.1-0.8,1.7c25,5,30.7-21.7,39-36.6v-1.7h0.8c1.8,11.3,1.1,38.6,13.3,39c14.4,0.5,20.9-29.4,26.6-39v-1.7
			c6.6,17.1-1.4,32.5,15,39.9c6.4-0.5,8.8-2.4,13.3-4.2c0.6-0.8,1.1-1.7,1.7-2.5c-11-14.6-10.7-33.7-13.3-58.2
			C393,185.8,434.8,216.3,391.2,242.3z M250.8,229c-0.6,0.3-1.1,0.6-1.7,0.8c0.3-10.3,6.7-47.2,5.8-48.2c-6.1,2.2-12.2,4.4-18.3,6.6
			c-3.5,15.3-7.9,38-3.3,55.7c1.1,0.6,2.2,1.1,3.3,1.7c21.7,8.7,43.5-48.5,49-64C268.5,185.9,255.6,213,250.8,229z M217.5,297.1
			c0.3-1.7,0.6-3.3,0.8-5c-1.1-0.8-2.2-1.7-3.3-2.5c-1.7-0.3-3.3-0.6-5-0.8c-3.7,2.7-4.9,2.4-5,9.1
			C209.2,301,214.6,303.4,217.5,297.1z M302.3,331.2h10.8v-39.9h-10.8V331.2z M140.3,298c-1.4,0.8-2.8,1.7-4.2,2.5
			c-1.1,1.4-2.2,2.8-3.3,4.2c5,5.3,10,10.5,15,15.8h-22.4c0.3,3.3,0.6,6.6,0.8,10c9,2.5,23,0.5,29.9-1.7c1.1-1.9,2.2-3.9,3.3-5.8
			C158.4,311.7,147.4,303.1,140.3,298z M430.2,304.6c-2.2,1.9-4.4,3.9-6.6,5.8c-0.3,3.3-0.6,6.6-0.8,10h-5
			c-7.8-7.5-15.5-15-23.3-22.4c-1.4,0.8-2.8,1.7-4.2,2.5c-1.1,1.4-2.2,2.8-3.3,4.2c5,5.3,10,10.5,15,15.8h-22.4
			c0.3,3.3,0.6,6.6,0.8,10c11.7,3.5,62.3-1.7,63.1-2.5c6-3.1,7.9-13.9,2.5-19.1C443.6,304,435.8,301,430.2,304.6z M438.5,320.4
			c-0.8,0.3-1.7,0.6-2.5,0.8c-0.8-0.3-1.7-0.6-2.5-0.8c-0.6-1.4-1.1-2.8-1.7-4.2c0.8-1.1,1.7-2.2,2.5-3.3c0.8,0.3,1.7,0.6,2.5,0.8
			l2.5,1.7C439.1,317.1,438.8,318.7,438.5,320.4z M68,304.6c-1.7,1.1-3.3,2.2-5,3.3c-1.3,5.3-1.5,10.5-0.8,16.6
			c4.1,3.5,6.2,5.8,14.1,5.8v0.8l-3.3,3.3c-4.7,0.3-9.4,0.6-14.1,0.8c0.6,3,1.1,6.1,1.7,9.1c15.8,15.2,37.7-19,22.4-39.9
			C78.3,303.3,72.5,302.1,68,304.6z M77.1,320.4h-3.3c-1.3-2.8-1.4-3.1-0.8-6.6h3.3c0.3,0.6,0.6,1.1,0.8,1.7V320.4z M197.6,302.9
			c0.6,2.8,1.1,5.5,1.7,8.3c6.4,0.6,12.7,1.1,19.1,1.7v0.8c-5.5,5.7-14.8,7.1-26.6,6.6c-0.1-8.4-2.4-11.2-5.8-15.8
			c-13.1-3.8-27.6,4.3-19.9,19.1c2.4,5.2,6.3,6.9,14.1,6.6v0.8c-3.7,4.3-9.7,4.6-18.3,4.2c0.6,3.6,1.1,7.2,1.7,10.8
			c14.7,0.7,25.1-2.5,27.4-14.1c5.3-0.6,10.5-1.1,15.8-1.7c7.8-3.6,15.5-7.2,23.3-10.8c0.9-4.1-0.4-7.7-1.7-11.6
			C221.1,303,210.8,302.5,197.6,302.9z M176.8,320.4c-0.3-1.9-0.6-3.9-0.8-5.8c1.4-0.3,2.8-0.6,4.2-0.8c0.3,2.2,0.6,4.4,0.8,6.6
			H176.8z M275.7,312.9c0.3-2.2,0.6-4.4,0.8-6.6c-1.4-0.8-2.8-1.7-4.2-2.5c-1.7-0.3-3.3-0.6-5-0.8c-1.1,0.6-2.2,1.1-3.3,1.7
			c-0.6,1.7-1.1,3.3-1.7,5c2.2,2.9,1.7,3.7,5.8,5C270.7,314,273.2,313.5,275.7,312.9z M110.4,307.9c-0.3,7.8-0.6,15.5-0.8,23.3
			c-4.8,3.2-9.4,4.5-18.3,4.2c0.6,3.6,1.1,7.2,1.7,10.8c26.2,0.9,29.3-12.1,28.2-38.2H110.4z M283.2,307.9c-0.3,8-0.6,16.1-0.8,24.1
			c-4.2,2.6-10.7,4.6-17.4,2.5c-2.8-1.4-2.8-1.3-4.2-4.2c-0.3-5.5-0.6-11.1-0.8-16.6h-10.8c-0.4,8.4-0.8,19.1,2.5,24.1
			c6.9,10.4,31.4,11.3,39,0.8c4.4-6,3.8-19.5,3.3-29.9C290.4,308.5,286.8,308.2,283.2,307.9z M364.6,307.9v11.6
			c-5.8,0.3-11.6,0.6-17.4,0.8c-0.3-4.2-0.6-8.3-0.8-12.5h-10.8c-0.3,7.8-0.6,15.5-0.8,23.3c-2.8,4.8-9.5,4.7-17.4,4.2
			c0.6,3.6,1.1,7.2,1.7,10.8c14.9,0.7,26.5-2.7,27.4-15.8c5.9,1.3,17.8,1.9,22.4-0.8c7.1-3.3,7.3-10.8,6.6-21.6H364.6z M352.9,334.5
			c-1.1,1.7-2.2,3.3-3.3,5c1.7,3.6,1.8,4.4,5.8,5.8c3.5,0.8,4.8-1.2,7.5-3.3c2.4,2.3,3.3,3.3,7.5,4.2c1.4-0.8,2.8-1.7,4.2-2.5
			c0.3-2.2,0.6-4.4,0.8-6.6C372.4,335.1,358.9,334.5,352.9,334.5z"/>
	</g>
</g>
</svg>
