<?xml version="1.0" encoding="utf-8"?>
<!-- Generator: Adobe Illustrator 21.0.2, SVG Export Plug-In . SVG Version: 6.00 Build 0)  -->
<svg version="1.1" id="Layer_2_1_" xmlns="http://www.w3.org/2000/svg" xmlns:xlink="http://www.w3.org/1999/xlink" x="0px" y="0px"
	 viewBox="0 0 500 500" style="enable-background:new 0 0 500 500;" xml:space="preserve">
<style type="text/css">
	.st0{fill-rule:evenodd;clip-rule:evenodd;fill:#FFFFFF;}
</style>
<g>
	<path class="st0" d="M450,250c0,55.5-89.5,100.4-200,100.4c-110.5,0-200-45-200-100.4c0-55.5,89.5-100.4,200-100.4
		C360.5,149.6,450,194.5,450,250L450,250z M250,157.5c-106.1,0-192.2,41.4-192.2,92.5c0,51.1,86,92.5,192.2,92.5
		c106.1,0,192.2-41.4,192.2-92.5C442.2,198.9,356.1,157.5,250,157.5L250,157.5z"/>
	<path class="st0" d="M437.2,250c0,48.3-83.8,87.5-187.2,87.5c-103.4,0-187.2-39.2-187.2-87.5c0-48.3,83.8-87.5,187.2-87.5
		C353.4,162.5,437.2,201.7,437.2,250L437.2,250z M370,209h-32.1l-3.9,11.2h20.8l-23.7,8.2l-1.6,4.5l36.5-12L370,209L370,209z
		 M165.3,228.6h-13.1c0,0,12.1-32.3,13.1-34.7c1.7-4.3,2.8-4,2.8-4H150c2.2,1.1,0.3,5.3,0.3,5.3s-14.5,40.3-15.5,42.3
		c-1,2-1.8,2.3-1.8,2.3h31.3l4.4-11.9C168.3,228.9,165.3,228.6,165.3,228.6L165.3,228.6z M220.1,239.7h14.7c0,0-1-1.5-0.4-3.1
		c0.9-2.3,8.7-23.5,8.7-23.5l3.4,26.7h13.3l17.5-47.4c0,0,0.7-2.2,1.7-2.2l-14.2,0c0,0,0.4,1.6-0.1,2.9c-0.5,1.3-8.6,22.8-8.6,22.8
		l-3.1-25.7h-15.2c0,0,0.8,1.3,0.3,2.6c-0.4,1.1-16.1,44.3-16.1,44.3S221,239.7,220.1,239.7L220.1,239.7z M287.5,190
		c0,0,1.3,2-0.4,6.7c-1.6,4.7-14.5,39.3-14.5,39.3s-1,3.3-2.4,3.9l20.1,0c0,0,24.4,0.9,32-24.8c0,0,9.6-25.3-18.1-25.1H287.5
		L287.5,190z M289.6,228.3c0,0,0.1,0,2.3,0c3.4,0,9.8-0.8,14-11.1c7-17.1-2.8-16.5-2.8-16.5h-3.8L289.6,228.3L289.6,228.3z
		 M110.5,279.9h32.1l3.9-11.2h-20.8l23.7-8.2l1.6-4.5l-36.5,12L110.5,279.9L110.5,279.9z M166.8,300.5c-0.5,0-0.5-1.6-0.5-1.6
		l5.9-15.7c0,0,7.4,14.4,7.9,15.4c0.5,1,0.2,1.8,0.2,1.8h17.6c-1.7,0-3.4-3.2-3.4-3.2l-8.8-15.7c12.3,0,16.2-12.1,16.2-12.1
		c6-19.3-14.3-18.8-14.3-18.8h-20.8c1.5,1.7,0.3,5.2,0.3,5.2s-12.9,37-13.9,39.8c-1,2.9-2.9,4.8-2.9,4.8S167.6,300.5,166.8,300.5
		L166.8,300.5z M179.2,262.1l-3.4,10h3.2c0,0,6.2,0.5,8.5-4.4c0,0,2.7-5.7-4.8-5.7C181.1,262.1,179.2,262.1,179.2,262.1L179.2,262.1
		z M348.8,300.7c-1.3,0-0.4-3.1-0.4-3.1l5.3-14.2c0,0,7.1,14.4,7.6,15.4c0.5,1,0.3,1.8,0.3,1.8h18.2c-1.7,0-3.5-3.2-3.5-3.2
		l-8.8-15.7c12.3,0,15.9-11.7,15.9-11.7c6.4-20.2-14.1-19.2-14.1-19.2h-20.6c1.5,1.7,0.3,5.2,0.3,5.2s-13.5,37.1-14.5,39.9
		c-1,2.9-2.9,4.7-2.9,4.7L348.8,300.7L348.8,300.7z M360.8,272.3c0,0,6.2,0.5,8.1-4.4c2.2-5.7-3.3-5.5-3.3-5.5H361l-3.4,9.9H360.8
		L360.8,272.3z M223.6,301.7c18.2,0,29-17.8,29-30.6c0-13.4-5.5-21.8-18.1-21.8c-16.1,0-26.5,12.2-29.2,27.3
		C202.8,290.6,210.6,301.7,223.6,301.7L223.6,301.7z M224.8,289.9c4.5,0.8,9.5-2.4,12.1-12.8c3.9-15.8-3.3-15.9-4.7-16.1
		c-4-0.5-9.4,4.1-11.6,13.8C219.7,279.2,218.6,288.8,224.8,289.9L224.8,289.9z M256.9,250.8c0,0,1.2,0.7,1.2,3.9
		c0,3.2,0,43.1,0,43.1s-0.2,2.4-1.1,2.9h13.5c0,0,0-1,1.3-2.7c1.3-1.7,29.4-39.3,29.4-39.3s6.4-7.9,8.1-7.9h-19.3c0,0,1.5,1,0.3,2.9
		c-1.2,1.8-18.3,27.5-18.3,27.5l0.2-25.9c0,0,0-4.2,1.6-4.5L256.9,250.8L256.9,250.8z M338.5,262.6l4.4-11.8l-32.7,0
		c0,0,1.2,1-0.3,5.2C308.3,260.2,295,296,295,296s-2.3,4.7-3,4.7c-0.7,0,33.7,0,33.7,0l4-11.9c0,0-0.5,0.7-3.7,0.7
		c-3.2,0-14.3,0-14.3,0l3-8.1h11.1c0,0,2.4-0.2,2.9,0.5l4.5-12.7c0,0-0.3,1.2-3.4,1.2c-3,0-10.7,0-10.7,0l3.2-8.9H336
		C336,261.4,337.8,261.1,338.5,262.6L338.5,262.6z M167.9,239.7H184c0,0-0.1-1.2,0.4-2c0.8-1.5,2.8-5,2.8-5h16.3l0,4.4
		c0,0,0.1,1.5-1.1,2.7h16.1c0,0-1.2-0.7-1.4-2.7l-2-43.8c0,0-0.1-2.8,1.2-3.4h-16c0,0,1.1,1.4-1,4.5c-2.1,3.1-29.4,43.6-29.4,43.6
		S169.3,239.1,167.9,239.7L167.9,239.7z M203.1,206.9l-9,14.6h9.1L203.1,206.9L203.1,206.9z"/>
</g>
</svg>
