<?xml version="1.0" encoding="utf-8"?>
<!-- Generator: Adobe Illustrator 22.0.1, SVG Export Plug-In . SVG Version: 6.00 Build 0)  -->
<svg version="1.1" id="Layer_2_1_" xmlns="http://www.w3.org/2000/svg" xmlns:xlink="http://www.w3.org/1999/xlink" x="0px" y="0px"
	 viewBox="0 0 500 500" style="enable-background:new 0 0 500 500;" xml:space="preserve">
<style type="text/css">
	.st0{fill:#FFFFFF;}
</style>
<g>
	<path class="st0" d="M179.4,250c0,9.2,4.6,16.5,11.2,16.5c5.9,0,11.2-7.3,11.2-16.5c0-9.2-5.3-16.5-11.2-16.5
		C184,233.5,179.4,240.8,179.4,250z"/>
	<path class="st0" d="M422.6,118.4c3.7-3.8,9.2-3.4,12.3,0.9l9.7,14.6c2.8,4.5,5,3.9,5-1.4V60.3c0-5.3-4.3-9.6-9.6-9.6h-72.9
		c-5.3,0-5.9,2.2-1.4,4.9l16.8,11c4.3,3.1,4.7,8.7,1,12.4l-5.1,5.1c-3.4,3.4-9.1,4.1-13.4,2C332.6,63.5,292.8,50,250,50
		C139.8,50,50.3,139.4,50.3,249.7C50.3,359.9,139.8,450,250,450c110.3,0,199.7-90.1,199.7-200.3c0-39.2-11-75.7-30.7-106.9
		c-2.2-4.4-5-15.5-1.6-19L422.6,118.4z M250,111.4c61.9,0,114.3,40.6,132.1,96.7H117.9C135.7,152.1,188.1,111.4,250,111.4z
		 M225.6,234.2v-5.9h41.6v5.9h-10.6v31c0,0,7.3,0,11.2,0c4,0,13.2-2.6,13.9-13.2c5.3,0,6.6,0,6.6,0v20.5h-52.1h-10.6v-7.3h10.6v-31
		L225.6,234.2L225.6,234.2z M287.6,234.2H277v-5.9h44.9v5.9h-11.2l15.8,27.1l13.9-27.1h-7.9v-5.9h31v5.9H353l-20.5,38.3h-24.4
		L287.6,234.2z M222.9,250c0,13.2-14.5,23.8-32.3,23.8c-17.2,0-31.7-10.6-31.7-23.8c0-12.5,14.5-23.1,31.7-23.1
		C208.4,226.9,222.9,237.5,222.9,250z M107.4,272.4L87,234.2H76.4v-5.9h44.9v5.9h-11.2l15.8,27.1l14.5-27.1h-8.6v-5.9h31v5.9h-10.6
		l-20.5,38.3L107.4,272.4L107.4,272.4z M250,388.6c-61.9,0-114.3-40.6-132.1-96.7h264.2C364.3,347.9,311.9,388.6,250,388.6z
		 M423.6,250c0,13.2-14.5,23.8-32.3,23.8c-17.2,0-31.7-10.6-31.7-23.8s14.5-23.8,31.7-23.8C409.1,226.2,423.6,236.8,423.6,250z"/>
	<path class="st0" d="M380,250c0,9.2,4.6,16.5,11.2,16.5c5.9,0,11.2-7.3,11.2-16.5c0-9.9-5.3-17.2-11.2-17.2
		C384.6,232.8,380,240.1,380,250z"/>
</g>
</svg>
