<?xml version="1.0" encoding="utf-8"?>
<!-- Generator: Adobe Illustrator 22.0.1, SVG Export Plug-In . SVG Version: 6.00 Build 0)  -->
<svg version="1.1" id="Layer_1" xmlns="http://www.w3.org/2000/svg" xmlns:xlink="http://www.w3.org/1999/xlink" x="0px" y="0px"
	 viewBox="0 0 1021.9 512" style="enable-background:new 0 0 1021.9 512;" xml:space="preserve">
<style type="text/css">
	.st0{opacity:8.000000e-02;fill:#FFFFFF;}
</style>
<g>
	<path class="st0" d="M978.3,349.6c-7.8-0.7-15.5-2.1-22.9-3.4c-18-3.2-35.1-6.2-53-1.1c-3.5,1.2-7.1,2.5-10.5,3.9
		c-11.9,4.6-24.2,9.3-37,7.7c-51.1-5.6-110.6-10.9-171.5-3c-3.5,0.3-7.1,0.5-10.7,0.7c-26.1,1.5-46.3,1.2-65.4-0.9
		c-4.2-0.7-8.8,0.3-13.2,1.2c-2.8,0.6-5.6,1.2-8.3,1.3c-1.4,0.3-2.6,0.6-3.9,0.9c-1.6,0.4-3.2,0.7-4.9,1.1c-3.4,0.8-6.2,1.3-8.8,1.8
		c-19.7,3.7-36.6-0.8-54.5-5.7c-0.5-0.1-1.1-0.3-1.6-0.4c-0.5,0.1-1.1,0.3-1.6,0.4c-11.9,3.2-23.4,6.3-35.6,6.9
		c-3,0.2-6.1,0.1-9.3-0.1c-38.5-1-77.5-5-117.5-6c-24,0-47-7-71-2c-27,6-51,0-77,0c-9,0-17,3-26,2c-21-3-41-7-61.3-11.9
		c-3-0.4-5.9-0.7-8.8-0.8c-11.7-0.4-23.3,1.7-35.3,3.8c-7.5,1.3-15.2,2.7-22.9,3.4c-3.6,0.5-7.1,1.1-10.7,1.6
		c-10.8,1.5-22.6,3-35,4.1l0,1.1c12.5-1.1,24.3-2.6,35.2-4.1c3.6-0.5,7.1-1,10.7-1.6c7.8-0.7,15.5-2.1,23-3.4
		c11.9-2.1,23.4-4.2,35-3.8c2.9,0.1,5.8,0.3,8.7,0.8C166,357,222,359,277,355c62-5,124,4,186.3,6.9c2.5,0.2,4.9,0.3,7.3,0.3
		c13.9,0,26.7-3.5,40.1-7.1c0.4-0.1,0.9-0.2,1.3-0.4c0.4,0.1,0.9,0.2,1.3,0.4c13.4,3.6,26.2,7.1,40.1,7.1c4.8,0,9.8-0.4,14.9-1.4
		c2.6-0.5,5.4-1,8.8-1.8c1.6-0.4,3.3-0.7,4.9-1.1c1.3-0.3,2.5-0.6,3.8-0.9c2.6-0.2,5.5-0.8,8.3-1.3c4.4-0.9,8.9-1.8,12.8-1.2
		c19.2,2.1,39.5,2.3,65.6,0.9c3.6-0.2,7.3-0.4,10.8-0.7c60.8-7.9,120.3-2.6,171.2,3c13.1,1.6,25.5-3.1,37.6-7.7
		c3.4-1.3,7-2.7,10.4-3.8c17.7-5.1,34.6-2.1,52.5,1.1c7.5,1.3,15.2,2.7,23,3.4c3.5,0.5,7.1,1.1,10.7,1.6c10.8,1.5,22.7,3.1,35.2,4.1
		l0-1.1c-12.4-1.1-24.2-2.6-35-4.1C985.4,350.6,981.9,350.1,978.3,349.6z"/>
	<path class="st0" d="M978.6,322.4c-3.7,0.7-6.7,1.2-9.7,1.7c-10.3,0.7-20.5-0.8-30.2-2.2c-5.7-0.8-11.5-1.6-17.3-2
		c-12-1-24.1-0.4-35.8,0.3c-13.4,0.7-27.2,1.4-40.8-0.3c-5.1-0.5-10.3-1-15.6-1.4c-2.6-0.2-5.3-0.4-8-0.6
		C779,315,737,315,695.4,315.5c-3.3,0.1-6.6,0.1-9.9,0.2c-16.5,0.4-33,0.8-49.2,1.3c-25.5,0.7-52,1.5-78,1.8
		c-10.4,0.5-20.5-1.6-30.2-3.6c-2.6-0.5-5.3-1.1-8-1.6c-2.7-0.5-5.4-1-8.1-1.3c-27,18.8-57,27.8-86,0.8c-8-7-22,0-34,1
		c-54,2-108-4-162-1c-14.2,0.8-28.5,2-42.9,3.1c-2.9,0.2-5.8,0.5-8.6,0.7c-28.5,4.1-56.5,7.1-84.7,4c-2.8,0.2-5.7,0.6-8.5,1
		c-9.8,1.4-19.9,2.8-30.2,2.2c-2.9-0.5-6-1-9.7-1.7c-4-0.7-8-1.5-12-2.3c-11.3-2.2-22.4-4.4-33.4-5.6l0,1.1
		c11,1.3,21.9,3.4,33.2,5.6c4,0.8,8,1.6,12,2.3c3.7,0.7,6.8,1.2,9.8,1.7c1.8,0.1,3.6,0.2,5.4,0.2c8.6,0,17-1.2,25.1-2.3
		c2.8-0.4,5.7-0.8,8.5-1.1c27,2.2,54,1.2,81.3-3.7c3.2-0.4,6.4-0.7,9.5-1c19.2-1.8,38.2-3.6,57.2-3.1c47,0,93,4,140,2c9,0,19-1,28-3
		c6,0,13-2,16,2c28,28,59,16,86-1.7c2.6,0.3,5.2,0.8,7.8,1.3s5.3,1,8,1.6c9.8,2,19.9,4.1,30.5,3.6c26.1-0.3,52.5-1,78-1.8
		c23-0.7,46.6-1.4,70.2-1.7c3.4,0,6.7-0.1,10.1,0c29.4-0.2,59.4,0.8,88.2,1.6c2.7,0.2,5.5,0.3,8.2,0.5c10.8,0.7,21.4,1.5,31.7,2.5
		c13.7,1.7,27.5,1,41,0.3c11.7-0.6,23.8-1.2,35.7-0.3c5.7,0.4,11.6,1.2,17.2,2c8.1,1.2,16.5,2.4,25.1,2.4c1.8,0,3.6-0.1,5.4-0.2
		c3-0.5,6.1-1,9.8-1.7c4-0.7,8-1.5,12-2.3c11.2-2.2,22.2-4.3,33.2-5.6l0-1.1c-11.1,1.3-22.1,3.4-33.4,5.6
		C986.6,320.9,982.6,321.7,978.6,322.4z"/>
	<path class="st0" d="M967.6,260.6c-2.7,0-5.4,0-8.1,0.1c-2.5-0.6-6.5,0.4-8.5,2.4c-58,40-126,36-191,23c-23-5-44-11-67-16
		c-17-4-31-14-46-21c-11-4-24-9-35,0c-40,34-87,39-137,23c-26-9-55-8-83-10c-53-4-104,16-156.7,23.4c-3.4,0.5-6.8,0.9-10.2,1.3
		s-6.9,0.8-10.3,1.2c-3.5,0.2-7,0.4-10.4,0.4c-3,0.1-6,0.1-9,0C174,292,160,275.9,141,272.9c-13-1-26,5-39,9c-4,1-8,1-12,0
		c-20-8-37-25-60-19c-2.5,0.4-5,0.9-7.6,1.5c-7.5,1.6-15,3.8-22.5,6.4l0,1.1c7.4-2.7,15-4.8,22.5-6.5c2.5-0.6,5-1,7.6-1.5
		c23.9-6,40.9,15,62.9,19c24,4,48-19,71,1c9,8,24,5,36.1,5.4c1.4,0,2.9,0,4.3,0c3.5-0.1,7-0.2,10.5-0.5c3.5-0.4,6.9-0.7,10.3-1.2
		c3.4-0.4,6.8-0.9,10.2-1.4C286,279,336,260,388,262c28,2,57,3,83,10c54,16,103,11,148-24c4-4,11-3,17,0c96,41,216,76,314,16
		c3-2,7-3,9.6-2.3c2.7-0.1,5.4-0.1,8-0.1c3.7,0,7.4,0.2,11.1,0.5c15.2,1.2,30.4,4.6,45.3,9.9l0-1.1c-14.8-5.3-30-8.6-45.2-9.8
		C975.1,260.8,971.3,260.7,967.6,260.6z"/>
	<path class="st0" d="M1016.6,399.8c-3.6,1.4-7.3,2.6-11,3.8c-3.6,1.1-7.3,2-11,2.8c-3.6,0.8-7.3,1.5-11,2
		c-3.3,0.6-6.7,0.9-10.4,0.9c-2.7,0.5-5.7,0.2-8.5-0.2c-36.8-2.5-74.2-4-112.5-4.6c-3.5-0.1-7-0.1-10.4-0.2C770,387,696,406,624,409
		c-27,1-56-11-85.2-12.1c-3.2-0.2-6.4-0.4-9.7-0.6c-3.3-0.1-6.6-0.2-10-0.3c-2.4-0.2-4.8-0.3-7.1-0.4c-2.4,0.1-4.8,0.3-7.1,0.4
		c-3.4,0.1-6.7,0.2-10,0.3c-3.3,0.1-6.5,0.3-9.7,0.6c-19.2,1-38.2,1-55.2,8c-36,15-71,1-106.6,1.6c-3.8-0.2-7.5-0.3-11.2-0.5
		c-3.7-0.1-7.5-0.3-11.2-0.4c-38-0.7-80-13.7-112,3.3c-31,17-60,18-89-4c-1-1-7,0-10.8,2.1c-3.1,0.3-6.5,0.5-9.9,0.7
		c-6.7,0.4-13.4,0.8-20.1,1.2c-2.8,0.4-5.8,0.7-8.5,0.2c-3.7,0-7.1-0.3-10.4-0.9c-3.7-0.6-7.5-1.2-11-2c-3.7-0.8-7.4-1.8-11-2.8
		c-3.7-1.1-7.4-2.4-11-3.8l-0.1,0c-2.4-0.3-4.8-0.5-7.2-0.7l0,1.1c2.4,0.1,4.7,0.4,7,0.7c3.6,1.4,7.3,2.7,11,3.8
		c3.6,1.1,7.3,2,11.1,2.9c3.6,0.8,7.3,1.5,11.1,2c3.3,0.6,6.8,0.9,10.5,0.9c2.8,0.5,5.9,0.2,8.7-0.2c6.7-0.4,13.4-0.9,20.1-1.2
		c3.4-0.2,6.7-0.4,9.8-0.7c3.7-2.1,9.7-2.1,10.7-2.1c29,23,58,16,89,6c69-24,145,7,219-2c25-3,51-10,77.3-12
		c3.1-0.2,6.4-0.4,9.6-0.6c3.3-0.1,6.6-0.2,10-0.3c2.4-0.2,4.7-0.3,7.1-0.4c2.4,0.1,4.7,0.3,7.1,0.4c3.4,0.1,6.7,0.2,10,0.3
		c3.3,0.1,6.5,0.3,9.6,0.6c30.3,1,59.3,13,87.3,12c72-4,144-22,215.9-4.7c3.4,0.1,6.9,0.2,10.4,0.2c38.3,0.6,75.6,2.2,112.4,4.6
		c2.9,0.4,6,0.7,8.7,0.2c3.7,0,7.2-0.3,10.5-0.9c3.8-0.6,7.5-1.2,11.1-2c3.7-0.8,7.5-1.8,11.1-2.9c3.7-1.1,7.4-2.4,11-3.8
		c2.3-0.3,4.6-0.5,7-0.7l0-1.1c-2.4,0.2-4.8,0.4-7.2,0.7L1016.6,399.8z"/>
	<path class="st0" d="M957,487.4c-5.4,0.6-10.9,1.2-16.3,1.7c-9.4,0.9-19,1.9-28.1,3.3c-3.7,0.5-7.4,1-11.2,1.5
		c-3.7,0.5-7.5,1-11.2,1.5c-2.6,0.3-5.2,0.5-7.9,0.6c-2.7,0-5.3-0.1-8-0.2C857,492,841,501,824,499c-81-10-159-3-239-6
		c-25-1-49-8-73-8c-33,1-66,10-100.4,5.9c-3,0.3-5.9,0.5-8.9,0.7c-8.9,0.6-17.8,1-26.8,1.3c-3,0.1-6,0.2-8.9,0.2
		c-32,0.9-65-1.1-97.2-1.4c-2.9-0.1-5.8-0.1-8.8-0.2c-26.4-0.6-53.2-0.8-79.6,0.7c-5.1,0.3-10.5,1-15.6,1.7
		c-10.6,1.4-21.6,2.8-32,1.4c-3.7-0.5-7.5-1-11.2-1.5c-3.7-0.5-7.5-1-11.2-1.5c-9-1.4-18.7-2.4-28.1-3.3c-5.4-0.5-11-1.1-16.3-1.7
		c-3.7-0.4-7.4-0.7-11.1-1c-19.1-1.7-37.7-3-55.9-3.8l0,1.1c18.2,0.8,36.7,2.1,55.8,3.8c3.7,0.3,7.4,0.7,11,1
		c5.4,0.6,11,1.2,16.4,1.7c9.3,0.9,19,1.9,28,3.3c3.7,0.5,7.4,1,11.2,1.5c3.7,0.5,7.5,1,11.2,1.5c3.1,0.4,6.2,0.6,9.3,0.6
		c7.6,0,15.4-1,23-2c5.1-0.7,10.5-1.4,15.5-1.7c29.4-1.6,59.1-1.2,88.3-0.5c2.9,0.1,5.8,0.2,8.7,0.2c26.5,1,53.5,1,79.5,1.3
		c3,0,6-0.1,8.9-0.1c11.9-0.2,23.9-0.7,35.8-1.5c3-0.2,5.9-0.4,8.9-0.7C446,495,479,485,512,488c91,7,181,1,272,8c18,1,36,4,55,3
		c10-1,20-4,30.6-2.6c1.9,0.2,3.8,0.3,5.8,0.5c1.9,0.1,3.8,0.2,5.8,0.2c3.1,0,6.2-0.2,9.3-0.6c3.7-0.5,7.5-1,11.2-1.5
		c3.7-0.5,7.5-1,11.2-1.5c9-1.4,18.7-2.4,28-3.3c5.4-0.5,11-1.1,16.4-1.7c3.7-0.4,7.4-0.7,11-1c19.1-1.7,37.6-3,55.8-3.8l0-1.1
		c-18.3,0.8-36.8,2-55.9,3.8C964.3,486.7,960.7,487,957,487.4z"/>
	<path class="st0" d="M1012.9,450.3c-7.6,4.2-15.6,6.7-23.9,7.4c-2.7,0.2-5.4,0.2-8.1,0.1c-5.2-0.1-10.7-1.2-16-3.2
		c-5-2.1-10-4.5-14.8-6.8c-16.7-7.9-34.1-16.2-53.1-15.3c-2.5,0.1-5,0.2-7.5,0.4c-2.5,0.1-5,0.3-7.5,0.4c-3,0-7,1-10,0
		c-11-4-23-11-34-7c-35,12-68,19-105,17c-63-5-125-22-189-10c-11,1-22-3-33-2c-11,1-21,5-32,2c-11-2-21-6-33-5c-11,2-22,4-33,4
		c-14,1-29,1-43,1c-67-1-133-2-199,7c-25,4-49,2-74-2c-2,0-4,1-6.4,2.1c-2.6,1.1-5.4,2.3-8.3,3.6c-2.8,1.3-5.6,2.6-8.4,3.9
		c-4.9,2.3-9.9,4.7-14.8,6.8c-5.3,2-10.8,3.1-16,3.2c-2.7,0.2-5.5,0.2-8.1-0.1c-8.3-0.7-16.3-3.1-23.9-7.4c-2.9-1.1-5.7-2.3-8.6-3.3
		c-0.8-0.3-1.6-0.6-2.4-0.9l0,1.1c0.7,0.2,1.3,0.5,2,0.7c2.9,1.1,5.8,2.2,8.6,3.3c7.7,4.3,15.9,6.8,24.3,7.5c1.5,0.1,3,0.2,4.6,0.2
		c1.2,0,2.5,0,3.7-0.1c5.3-0.1,10.9-1.2,16.4-3.3c5-2.1,10-4.5,14.9-6.8c2.8-1.3,5.6-2.6,8.4-3.9c2.8-1.3,5.6-2.5,8.2-3.6
		c4-2.1,9-3.1,13-2.1c23,10,47,2,69,1c65-4,129-7,194-6c13,0,26,1,39,1c17-1,34-7,52-5c9,1,18,5,27,5c9,1,17-3,26-3c6,0,14,2,20,1
		c71-8,139,6,209,10c33,2,64-2,96-16c15-6,29,8,46,7.1c2.5-0.1,5-0.3,7.5-0.4c2.5-0.1,5-0.2,7.5-0.4c18.8-0.8,36,7.3,52.6,15.2
		c4.9,2.3,9.9,4.7,14.9,6.8c5.4,2.1,11.1,3.2,16.4,3.3c1.2,0.1,2.5,0.1,3.7,0.1c1.5,0,3.1-0.1,4.6-0.2c8.5-0.7,16.6-3.2,24.3-7.5
		c2.8-1.1,5.7-2.2,8.6-3.3c0.7-0.3,1.4-0.5,2-0.7l0-1.1c-0.8,0.3-1.6,0.6-2.4,0.9C1018.7,448,1015.8,449.1,1012.9,450.3z"/>
	<path class="st0" d="M1022.1,19.5c-3.2-0.8-6.4-1.4-9.5-1.8c-5.6-0.9-11.2-1.2-17.2-1.1c-2.7,0.1-5.5,0.2-8.4,0.5
		c-6.7,0.8-13.2,2.1-19.7,3.4c-2.1,0.4-4.3,0.9-6.4,1.4c-3.8,0.3-7.8,1.3-11.8,2.3c-11,1-21-5-31-5c-68-1-135,4-203.1,0.2
		c-1.9-0.2-3.9-0.4-5.8-0.6c-5.8-0.6-11.6-1.1-17.5-1.7c-48.3-3.6-87.8-2.4-124.5,3.8c-3.9,0.3-7.4,0.6-10.8,0.7
		c-3.8,0.2-7.4,0.2-10.8,0.2c-3.6,0.3-7,0.6-10.2,0.9c-7.4,0.8-14,1.8-20.1,3.1c-1.1,0-2.1,0.1-3.1,0.1c-1,0-2,0-3.1-0.1
		c-6.1-1.3-12.7-2.3-20.1-3.1c-3.2-0.3-6.6-0.7-10.2-0.9c-3.5,0.1-7,0-10.8-0.2c-3.4-0.1-7-0.4-10.8-0.7
		c-36.6-6.2-76.2-7.4-124.5-3.8c-7.8,0.7-15.6,1.5-23.3,2.3c-48.6,4.8-94.5,9.3-144.2,3C151.1,20,137.4,22,124.2,24
		c-11.3,1.7-23,3.4-34.8,2.5c-8.9-1.1-17.7-2.9-26.2-4.8c-8.4-1.8-17.2-3.7-26.1-4.7c-2.9-0.3-5.7-0.4-8.4-0.5
		c-6-0.1-11.7,0.2-17.2,1.1C8.3,18,5.1,18.6,2,19.3c-0.6,0.2-1.3,0.3-1.9,0.5l0,1.1c0.7-0.2,1.5-0.4,2.2-0.6
		c3.1-0.7,6.3-1.4,9.4-1.8c5.5-0.9,11.1-1.2,17-1.1c2.7,0.1,5.5,0.2,8.3,0.5c8.8,1.1,17.5,2.9,25.9,4.7c8.5,1.8,17.3,3.7,26.3,4.8
		c2.4,0.2,4.7,0.3,7.1,0.3c9.5,0,18.8-1.4,28-2.7c13.2-2,26.8-4,40.4-1.7c49.8,6.4,95.8,1.8,144.5-3c7.7-0.8,15.5-1.5,23.3-2.3
		c48.2-3.6,87.7-2.4,124.2,3.8c3.9,0.3,7.5,0.6,10.9,0.7c3.8,0.2,7.4,0.2,10.8,0.2c3.5,0.3,6.9,0.6,10.1,0.9
		c7.4,0.8,13.9,1.8,20,3.1c1.1,0.1,2.2,0.1,3.3,0.1c1,0,2.1,0,3.3-0.1c6.2-1.3,12.7-2.3,20.1-3.1c3.2-0.3,6.6-0.7,10.1-0.9
		c3.4,0.1,7,0,10.8-0.2c3.4-0.1,7-0.4,10.9-0.7c36.6-6.2,76-7.4,124.2-3.8c5.9,0.5,11.7,1.1,17.5,1.7c1.9,0.2,3.9,0.4,5.8,0.6
		C779,21,844,21,908,19.1c18-1,35,9,53,3.8c2.1-0.5,4.2-0.9,6.4-1.3c6.4-1.3,13-2.6,19.6-3.4c2.9-0.3,5.7-0.4,8.3-0.5
		c6-0.1,11.5,0.2,17,1.1c3.2,0.5,6.3,1.1,9.4,1.8c0.7,0.2,1.5,0.4,2.2,0.6l0-1.1C1023.4,19.8,1022.8,19.6,1022.1,19.5z"/>
	<path class="st0" d="M931.6,101.2c-2.9-0.7-5.7,0.2-8.2,1.1c-1.6,0.5-3,1-4.3,1c-3.7,0-7.4,0-11,0s-7.2,0.1-10.7,0.1
		c-16.5,0.6-33.5,0.6-49.2,1.7c-3.1,0.2-6.1,0.4-9.2,0.6c-24.2,1.7-46.5,4.3-68.9,8c-2.5,0.3-5,0.6-7.5,0.7c-2.5,0.1-5,0.2-7.5,0.2
		C749,115,743,115,738,111c-16-16-39-27-60-16c-15,8-30,17-46.8,19.7c-3.1,0.7-6.1,1.5-9.2,2.3c-18,5-36,23-55,12
		c-26-16-50-36-81-24c-18,7-37,19-54,11c-60-30-122-3-183-4c-10-1-19-2-29-3c-2.9-0.3-5.7-0.7-8.6-1c-31.7-3.3-65.6-4.8-106.5-4.8
		c-1.2,0-2.7-0.5-4.3-1c-2.5-0.8-5.3-1.8-8.2-1.1c-26,9.3-56.3,12-92.4,8.2l0,1.1c36.3,3.9,66.7,1.2,92.8-8.2c2.5-0.6,5,0.2,7.5,1.1
		c1.6,0.5,3.2,1.1,4.6,1.1c40.9,0,74.7,1.5,106.4,4.8c2.9,0.3,5.7,0.6,8.6,0.9c45.2,7,90.2-5,135.2-9c24-3,48,4,69,15c7,4,16,5,23,2
		c41-16,83-21,121,11c14,12,35-4,52-10c2.8-1,5.5-1.9,8.3-2.8c2.8-0.8,5.7-1.6,8.5-2.3C671,97,710,78,742,114c2,2,7,2,9.6,1.6
		c2,0.1,4.1,0.1,6.2,0.1c4.2,0,8.4-0.3,12.7-0.9c22.4-3.7,44.7-6.3,68.8-8c3-0.2,6.1-0.4,9.1-0.6c16.6-2.2,32.6-0.2,49.1-1.7
		c3.5,0,7.1-0.1,10.7-0.1s7.3,0,11,0c1.4,0,3-0.5,4.6-1.1c2.4-0.8,4.9-1.6,7.5-1.1c26.1,9.4,56.5,12.1,92.8,8.2l0-1.1
		C987.9,113.2,957.6,110.6,931.6,101.2z"/>
	<path class="st0" d="M965.3,241.7L965.3,241.7c-2.5,1.7-5.1,3-7.6,3.9c-1.8,0.5-4.8,1.5-5.8,0.5c-17-12-30-32-54-26
		c-21,5-41,9-62,8c-36.7-0.9-73.1-1.6-109.7-1.1c-3.3,0.1-6.6,0.1-10,0.2c-20.4,2.9-40.4,4.9-60,2.8c-3.3,0.2-6.6,0.4-10,0.7
		c-16.7,1.3-33.5,3.1-50.4,5.4c-27,4-53-15-80-20c-27-6-52,24-79,24c-85,0-168-15-254-6c-12.5,0.8-24.3-3.2-36.7-5.5
		c-2.5-0.5-5-0.9-7.5-1.1C114,217.9,91,226.9,69,242.9c-2,1-6,1-9,0c-9-4-17-9-26.6-9.4c-2.6-0.6-5.3-1.1-8-1.6
		c-8.1-1.4-16.6-2.2-25.4-2.5l0,1.1c8.8,0.3,17.2,1.1,25.2,2.5c2.7,0.5,5.3,1,7.9,1.6C46,234.9,56,248.9,67,243.9
		c24-11,46-27,71.9-15.7c2.4,0.5,4.9,1,7.4,1.5c12.4,2.6,24.2,6,36.7,5.1c87-10,171,8,257,7c25-1,50-25,75-24c27,0,54,25,84,20
		c14.2-2.5,28.3-4.4,42.3-5.9c3.5-0.4,7-0.7,10.5-1c21.2-0.1,41.2-0.1,62.7-3.1c3.5-0.1,6.9-0.1,10.4-0.2
		c41.6-0.4,83.1,1.1,125.1,1.1c19-1,38-8,57-9c20-1,29,19,45,27c1,1,4,0,5.9-0.5c2.8-0.9,5.4-2.3,7.9-4c3.2-1.4,6.5-2.6,9.8-3.7
		c14.7-5,30.7-7.7,48.3-8.3l0-1.1c-17.7,0.5-33.8,3.3-48.7,8.3C971.9,239,968.6,240.3,965.3,241.7z"/>
	<path class="st0" d="M1017.2,80c-13-1.8-23.7-6.7-36.7-13.9l-2.3-1.3c-2.3-1.3-4.5-2.5-6.7-3.8c-2.6-1.4-5.5-3-8.5-4.4
		c-4-1.5-9-5.5-13-3.5c-25,10-47,27-76,27c-5,0-10,2-15,2c-39.1,2.2-77.2,2.3-115.4-0.3c-3.5-0.2-7-0.5-10.4-0.8
		c-14.1-2-28.1-3-41.9-4.4c-3.5-0.5-7-0.9-10.5-1.4C670.3,73.7,659.7,72,649,70c-34-7-66-10-97.5-0.4c-2,0.1-4,0.1-6,0.1
		c-6.1-0.1-12.3-0.8-18.3-1.4c-5-0.5-10.1-1.1-15.2-1.3c-5.1,0.2-10.2,0.8-15.2,1.3c-8.1,0.9-16.4,1.8-24.3,1.3
		c-2.3-0.4-4.7-0.6-7-0.8c-1-0.1-2-0.2-3-0.3c-2.1-0.5-4.2-1-6.4-1.5c-11.6-2.9-24.7-6.1-36.1-2.5c-9.8,3.2-19.4,6.3-29.2,8.8
		c-3.5,0.9-6.7,1.6-9.9,2.2c-2.3,0.2-4.5,0.8-6.5,1.3c-2.7,0.7-5.6,1.4-8.6,1.4c-52.6-6.8-104.8-7.9-155.2-9
		c-27.4-0.6-55.7-1.2-83.9-2.7c-2.6-0.9-5.4-2-9-3.5c-1.6-0.7-3.2-1.4-4.7-2.1c-13.6-6-27.7-12.2-42.8-8c-6.2,2-12.4,5.3-17.7,8.1
		c-2.2,1.2-4.5,2.5-6.7,3.8l-2.3,1.3C30.6,73.1,19.9,78,6.9,79.8c-2.3,0.1-4.6,0-6.9-0.3l0,1.1c1.7,0.2,3.4,0.4,5.2,0.4
		c0.6,0,1.2,0,1.8,0c13.2-1.9,24-6.8,37.2-14.1l2.3-1.3c2.2-1.3,4.5-2.5,6.7-3.8c5.2-2.9,11.3-6,17.5-8c14.7-4.1,28.6,2,42,7.9
		c1.6,0.7,3.2,1.4,4.7,2.1c3.7,1.6,6.5,2.7,9.1,3.6l0.2,0c28.3,1.5,56.6,2.1,84,2.7c50.4,1.1,102.5,2.2,155.1,9
		c3.2,0,6.1-0.7,8.9-1.4c2-0.5,4.2-1,6.4-1.2c3.2-0.6,6.5-1.4,10-2.2c9.8-2.5,19.4-5.6,29.2-8.8c11.1-3.5,24-0.3,35.5,2.6
		c2.2,0.5,4.3,1.1,6.5,1.6c1,0.1,2,0.2,3,0.3c2.3,0.2,4.7,0.5,7,0.8c8.1,0.5,16.5-0.4,24.6-1.3c5-0.5,10-1.1,15-1.3
		c5,0.2,10.1,0.8,15,1.3c6.1,0.7,12.3,1.3,18.5,1.4c2,0,4.1,0,6.1-0.1C584,60,619,66,653,72c10,2.1,20.1,3.9,30.1,5.3
		c3.3,0.5,6.7,0.9,10,1.2c14-0.6,27,3.4,40,3.9c3.3,0.3,6.6,0.5,9.9,0.7c36.6,2,73.1,1.4,110,0.9c15,0,30-4,45-6c20-3,34-18,52-25
		c4-1,8,4,12.5,4.5c3,1.4,5.8,2.9,8.4,4.3c2.2,1.2,4.5,2.5,6.7,3.8l2.3,1.3c13.2,7.3,24,12.2,37.2,14.1c0.6,0,1.2,0,1.8,0
		c1.8,0,3.5-0.1,5.2-0.4l0-1.1C1021.8,80,1019.5,80.1,1017.2,80z"/>
	<path class="st0" d="M851.6,148.6c-7.5,1-15,2.1-22.5,3.1c-27.2,3.1-54.1,0.2-80.2-3.3c-2.9-0.4-5.8-0.8-8.7-1.2
		C709,157,679,156,648,140c-4-2-11-2-17.5-0.3c-2.7,0.3-5.3,0.7-8,1c-8,1.1-16,2.6-23.9,4c-3.4,0.3-6.8,0.6-10.2,1
		C554.6,149.2,521,156,486,151c-46-7-91-5-136-4c-6.8,0-13.5-1.7-20.2-1.7c-2.3,0-4.5,0.2-6.8,0.7c-73,8-145-9-218.4-5.6
		c-3-0.2-5.9-0.5-8.9-0.7c-29.8-1.9-59.7-1.4-89.5,4.7L0,145.3l0,1.1l6.4-0.9c29.7-6.1,58.9-6.8,88.3-4.9c2.9,0.2,5.9,0.4,8.8,0.6
		c15.5-0.3,31.5-2.3,46.5-1.3c59,6,117,12,176,7c2.5-0.2,5-0.2,7.5-0.1c12.5,0.3,25,3,37.5,2.1c26-3,50-6,76-1
		c48.7,9.4,94.9,2.1,141.9-1.8c3.1-0.3,6.3-0.5,9.4-0.7c8.9-1.3,17.9-2.8,26.8-4c3-0.4,6-0.8,9-1.1C639,140,645,139,650,141
		c29,15,59,17,90,7.2c2.6,0.4,5.3,0.7,7.9,1.1c18.6,2.5,37.6,4.7,56.8,4.7c8.1,0,16.3-0.4,24.5-1.3c7.5-1,15-2,22.5-3.1
		c56.8-7.9,110.4-15.3,165.8-4l6.4,0.9l0-1.1l-6.2-0.9C962.2,133.2,906,141,851.6,148.6z"/>
	<path class="st0" d="M915.9,189.5c-7-1.3-13.7-0.6-20.1,0.1c-3.9,0.4-8,0.9-12.2,0.9c-49.8,0-97.8,0-145.9,1.3
		c-3.4,0.1-6.9,0.2-10.2,0.3C703,192,681,197,657,203c-19,4-35-8-53.5-9.2c-2.5-0.3-5-0.5-7.5-0.8c-18.5-2-37.5-4.1-57.1-3.1
		c-2.8,0.1-5.6,0.3-8.4,0.6c-12.4-0.5-24.4-0.5-36.9,0c-2.8-0.3-5.6-0.5-8.4-0.6c-5.6-0.3-11.1-0.3-16.7-0.2
		c-2.8,0.1-5.5,0.2-8.2,0.3c-13.3,0.9-26.3,1.9-39.7,3.7c-2.5,0.3-5,0.5-7.4,0.8c-2.5,0.2-4.9,0.5-7.4,0.7c-2.4,0.2-4.9,0.4-7.3,0.5
		c-16.9,1.1-33.9,0.2-50.9-1.2c-3.4-0.3-6.8-0.6-10.2-0.9C286,192,236,201,185,210c-27,5-54-4-79-16c-8-4-17-2-25,0.1
		c-3,0.5-6,0.9-9,1.3c-24,3.3-47.9,4.9-72,2.3l0,1.1c8.3,0.9,16.5,1.3,24.7,1.3c16.7,0,33.3-1.6,50-4c2.8-0.4,5.6-0.8,8.4-1.3
		c5.9-0.8,11.9-2.8,16.9-0.8c26,10,53,22,80,17c52-10,100-14,149.5-17.6c3.2,0.1,6.6,0.3,10.1,0.4c38.6,2,77.3,3.1,116.4-1.7
		c25-3,50-3,74.5-0.5c2.8-0.3,5.6-0.5,8.4-0.6c19.5-1,38.5,1.1,56.9,3.1c2.4,0.3,4.8,0.5,7.3,0.8C621,196,638,206,657,204
		c24-3,47-12,70.5-10.8c3.4-0.1,6.8-0.2,10.2-0.3c48.1-1.3,96.1-1.3,145.9-1.3c4.2,0,8.3-0.5,12.3-0.9c6.7-0.7,13-1.4,19.8-0.2
		c28,5.2,55.7,9.7,83.6,9.7c8.2,0,16.5-0.4,24.7-1.3l0-1.1C987.9,201.8,952.2,196.2,915.9,189.5z"/>
</g>
</svg>
