<?xml version="1.0" encoding="utf-8"?>
<!-- Generator: Adobe Illustrator 21.0.2, SVG Export Plug-In . SVG Version: 6.00 Build 0)  -->
<svg version="1.1" id="Layer_1" xmlns="http://www.w3.org/2000/svg" xmlns:xlink="http://www.w3.org/1999/xlink" x="0px" y="0px"
	 viewBox="0 0 512 512" style="enable-background:new 0 0 512 512;" xml:space="preserve">
<style type="text/css">
	.st0{fill:#00D2E6;}
	.st1{fill:#FFFFFF;}
	.st2{fill:#202020;}
	.st3{fill:#333333;}
	.st4{fill:#454545;}
	.st5{fill:#505050;}
</style>
<g>
	<circle class="st0" cx="256" cy="291.5" r="199"/>
	<circle class="st1" cx="256" cy="291.5" r="51.4"/>
</g>
<path class="st2" d="M256,220.5c-23.6,0-42.6-19.1-42.6-42.6s19.1-42.6,42.6-42.6c39.2,0,71.1-31.9,71.1-71.1
	c0-23.6,19.1-42.6,42.6-42.6c23.6,0,42.6,19.1,42.6,42.6C412.4,150.3,342.2,220.5,256,220.5z"/>
<path class="st3" d="M369.7,334.2c-23.6,0-42.6-19.1-42.6-42.6c0-39.2-31.9-71.1-71.1-71.1s-71.1,31.9-71.1,71.1
	c0,23.6-19.1,42.6-42.6,42.6s-42.6-19.1-42.6-42.6c0-86.2,70.1-156.4,156.4-156.4s156.4,70.1,156.4,156.4
	C412.4,315.1,393.3,334.2,369.7,334.2z"/>
<path class="st4" d="M256,447.9c-86.2,0-156.4-70.1-156.4-156.4c0-23.6,19.1-42.6,42.6-42.6s42.6,19.1,42.6,42.6
	c0,39.2,31.9,71.1,71.1,71.1s71.1-31.9,71.1-71.1c0-23.6,19.1-42.6,42.6-42.6c23.6,0,42.6,19.1,42.6,42.6
	C412.4,377.8,342.2,447.9,256,447.9z"/>
<path class="st5" d="M142.3,334.2c-23.6,0-42.6-19.1-42.6-42.6V64.1c0-23.6,19.1-42.6,42.6-42.6s42.6,19.1,42.6,42.6v227.4
	C184.9,315.1,165.8,334.2,142.3,334.2z"/>
</svg>
