<?xml version="1.0" encoding="utf-8"?>
<!-- Generator: Adobe Illustrator 21.0.2, SVG Export Plug-In . SVG Version: 6.00 Build 0)  -->
<svg version="1.1" id="Layer_1" xmlns="http://www.w3.org/2000/svg" xmlns:xlink="http://www.w3.org/1999/xlink" x="0px" y="0px"
	 viewBox="0 0 512 512" style="enable-background:new 0 0 512 512;" xml:space="preserve">
<style type="text/css">
	.st0{fill-rule:evenodd;clip-rule:evenodd;fill:#459EFF;}
	.st1{opacity:0.5;fill-rule:evenodd;clip-rule:evenodd;fill:#FFFF4E;}
</style>
<g>
	<path class="st0" d="M348.7,158.2c26.1-24.5,42.5-59.3,42.5-97.8c0-20.3-16.5-36.7-36.9-36.7c-20.4,0-36.9,16.4-36.9,36.7
		c0,33.7-27.6,61.1-61.4,61.1c-22.1,0-43,5.3-61.4,14.7V60.4c0-20.3-16.5-36.7-36.9-36.7s-36.9,16.4-36.9,36.7V256
		c0,74.2,60.6,134.5,135.2,134.5c74.5,0,135.2-60.3,135.2-134.5C391.2,217.5,374.8,182.7,348.7,158.2z M256,317.1
		c-33.9,0-61.4-27.4-61.4-61.1c0-33.7,27.6-61.1,61.4-61.1c33.9,0,61.4,27.4,61.4,61.1C317.4,289.7,289.9,317.1,256,317.1z"/>
	<path class="st1" d="M348.6,353.8c26.1-24.5,42.5-59.3,42.5-97.8c0-74.2-60.6-134.5-135.1-134.5v0c0,0,0,0,0,0s0,0,0,0v0
		c-74.5,0-135.1,60.4-135.1,134.5c0,38.5,16.3,73.3,42.5,97.8c-26.1,24.5-42.5,59.3-42.5,97.8c0,20.3,16.5,36.7,36.9,36.7
		c20.4,0,36.9-16.4,36.9-36.7c0-33.7,27.6-61.1,61.4-61.1c33.9,0,61.4,27.4,61.4,61.1c0,20.3,16.5,36.7,36.9,36.7
		c20.4,0,36.9-16.4,36.9-36.7C391.1,413.1,374.8,378.4,348.6,353.8z M256,317.1c-33.9,0-61.4-27.4-61.4-61.1
		c0-33.7,27.6-61.1,61.4-61.1c33.9,0,61.4,27.4,61.4,61.1C317.4,289.7,289.9,317.1,256,317.1z"/>
</g>
</svg>
