<?xml version="1.0" encoding="utf-8"?>
<!-- Generator: Adobe Illustrator 21.0.2, SVG Export Plug-In . SVG Version: 6.00 Build 0)  -->
<svg version="1.1" id="Layer_1" xmlns="http://www.w3.org/2000/svg" xmlns:xlink="http://www.w3.org/1999/xlink" x="0px" y="0px"
	 viewBox="0 0 64 328" style="enable-background:new 0 0 64 328;" xml:space="preserve">
<style type="text/css">
	.st0{opacity:0.2;fill:#FFFCE5;}
	.st1{opacity:0.4;fill:#FFFCE5;}
	.st2{opacity:0.6;fill:#FFFCE5;}
	.st3{fill:#FFFCE5;}
</style>
<path class="st0" d="M19,328l4.2-33.4c2.2-17.6,2.4-35.5,0.6-53.2l-3-29.2c-1.1-10.8-0.2-21.7,2.7-32.1l2.3-8.2
	c2.2-7.9,2.7-16.4,1.4-24.6l-4.8-30.2c-0.8-5-0.7-10.1,0.3-15.1l0,0c0.9-4.3,1.1-8.7,0.6-13.1L20,58.2c-2.1-19.4-1.6-39,1.4-58.2
	l0,0H64v328H19z"/>
<path class="st1" d="M24,0v59.2c0,9,0.4,17.9,1.3,26.8l5.4,54.2c1.7,17.5,1.3,35.3-1.4,52.7l-0.2,1.3c-1.8,12.1-2.4,24.3-1.6,36.5
	l2.4,37.6l-0.8,11.9c-1,16-0.1,32.1,2.8,47.8l0,0H64V0H24z"/>
<path class="st2" d="M27.5,0l5.3,35c3,19.7,3.9,39.8,2.7,59.7l-1.1,17.8c-0.7,11.8-0.5,23.7,0.5,35.5l0.2,2.4
	c1.5,17,1.4,34.1-0.2,51.1l-3.2,34.6c-0.8,8.5,0.2,17,2.9,25l0,0c1.8,5.2,2.5,10.8,2.3,16.4l-0.6,13.3c-0.3,6.8,0.3,13.6,1.9,20.2
	l4.1,17.1H64V0H27.5z"/>
<path class="st3" d="M64,0H33.3l9.8,93.8c2.1,20.4,2.1,41,0,61.4L40.6,195c-1.3,20.5,0,41.2,3.9,61.3l2.9,14.8
	c0.8,4.2,0.5,8.5-0.8,12.5l0,0c-3.3,9.7-3.8,20.3-1.3,30.3l3.4,14.1H64V0z"/>
</svg>
