<?xml version="1.0" encoding="utf-8"?>
<!-- Generator: Adobe Illustrator 22.0.1, SVG Export Plug-In . SVG Version: 6.00 Build 0)  -->
<svg version="1.1" id="Layer_2" xmlns="http://www.w3.org/2000/svg" xmlns:xlink="http://www.w3.org/1999/xlink" x="0px" y="0px"
	 viewBox="0 0 512 512" style="enable-background:new 0 0 512 512;" xml:space="preserve">
<style type="text/css">
	.st0{fill:#444444;}
</style>
<g>
	<path class="st0" d="M421.2,256c6.1-2.9,11.9-6.3,17.5-10.1L425,226.2c-13.9,9.7-30.2,15.7-47.1,17.3l0.1,0.9
		c-3.3-0.3-6.6-0.4-10-0.4h-6.9h-56.9H286h-18v-18v-18v-56.9V144c0-3.3-0.1-6.6-0.4-9.8l0.8,0.1c1.6-16.9,7.6-33.2,17.2-47.1
		l-19.7-13.7c-3.8,5.5-7.1,11.3-10,17.3C236,49,193.3,20,144,20C75.6,20,20,75.6,20,144c0,49.3,29,92,70.8,112
		c-6.1,2.9-11.9,6.3-17.5,10.1L87,285.8c13.9-9.7,30.2-15.7,47.1-17.3l-0.1-0.9c3.3,0.3,6.6,0.4,10,0.4h6.9h56.9H226h18v18v18v56.9
		v7.1c0,3.3,0.1,6.6,0.4,9.8l-0.8-0.1c-1.6,16.9-7.6,33.2-17.2,47.1l19.7,13.7c3.8-5.5,7.1-11.3,10-17.3C276,463,318.7,492,368,492
		c68.4,0,124-55.6,124-124C492,318.7,463,276,421.2,256z M207.7,244h-56.9H144c-55.1,0-100-44.9-100-100S88.9,44,144,44
		s100,44.9,100,100v7.1V208v18v1l-71.3-71.3c9.3-16.8,6.9-38.3-7.3-52.4c-12-12.1-29.4-15.7-44.6-10.8l27.5,27.5
		c0.1,0.1,0.1,0.1,0.2,0.2c7.8,7.8,7.8,20.5,0,28.3s-20.5,7.8-28.3,0l-27.7-27.7c-4.9,15.2-1.3,32.6,10.7,44.7
		c14.3,14.3,35.9,16.7,52.6,7.3L227,244h-1H207.7z M368,468c-55.1,0-100-44.9-100-100v-7.1V304v-18v-18h18h18.3h56.9h6.9
		c55.1,0,100,44.9,100,100S423.1,468,368,468z"/>
	<path class="st0" d="M368,44c12.5,0,24.7,2.3,36.2,6.7l8.7-22.4C398.6,22.8,383.5,20,368,20c-5.7,0-11.4,0.4-17,1.2l3.3,23.8
		C358.8,44.3,363.4,44,368,44z"/>
	<path class="st0" d="M338.6,48.4l-7-22.9c-20.1,6.2-38.4,17.4-53,32.7l17.3,16.6C307.6,62.4,322.4,53.3,338.6,48.4z"/>
	<path class="st0" d="M437.4,216l16.7,17.3c15.2-14.6,26.4-33,32.5-53.1l-23-7C458.8,189.4,449.7,204.2,437.4,216z"/>
	<path class="st0" d="M468,144c0,4.5-0.3,9.1-0.9,13.5l23.8,3.2c0.7-5.5,1.1-11.1,1.1-16.7c0-15.6-2.8-30.7-8.4-45.1l-22.4,8.7
		C465.7,119.2,468,131.4,468,144z"/>
	<path class="st0" d="M454.2,93.2L474.8,81c-10.7-18.1-25.9-33.3-44.1-44l-12.2,20.7C433.3,66.3,445.6,78.6,454.2,93.2z"/>
	<path class="st0" d="M44,368c0-4.5,0.3-9.1,0.9-13.5l-23.8-3.2c-0.7,5.5-1.1,11.1-1.1,16.7c0,15.6,2.8,30.7,8.4,45.1l22.4-8.7
		C46.3,392.8,44,380.6,44,368z"/>
	<path class="st0" d="M144,468c-12.5,0-24.7-2.3-36.2-6.7l-8.7,22.4c14.3,5.5,29.4,8.4,44.9,8.4c5.7,0,11.4-0.4,17-1.2l-3.3-23.8
		C153.2,467.7,148.6,468,144,468z"/>
	<path class="st0" d="M173.4,463.6l7,22.9c20.1-6.2,38.4-17.4,53-32.7l-17.3-16.6C204.4,449.6,189.6,458.7,173.4,463.6z"/>
	<path class="st0" d="M57.8,418.8L37.2,431c10.7,18.1,25.9,33.3,44.1,44l12.2-20.7C78.7,445.7,66.4,433.4,57.8,418.8z"/>
	<path class="st0" d="M74.6,296l-16.7-17.3c-15.2,14.6-26.4,33-32.5,53.1l23,7C53.2,322.6,62.3,307.8,74.6,296z"/>
	<path class="st0" d="M368,78.7l-36.8,36.8c-20.2,20.3-20.2,53.3,0,73.5c9.8,9.8,22.9,15.2,36.8,15.2s27-5.4,36.8-15.2
		c20.2-20.3,20.2-53.3,0-73.5L368,78.7z M387.8,172.1c-5.3,5.3-12.3,8.2-19.8,8.2s-14.5-2.9-19.8-8.2c-10.9-10.9-10.9-28.7,0-39.6
		l19.8-19.8l19.8,19.8C398.7,143.4,398.7,161.2,387.8,172.1z"/>
	<path class="st0" d="M368,292c-41.9,0-76,34.1-76,76s34.1,76,76,76s76-34.1,76-76S409.9,292,368,292z M368,420
		c-28.7,0-52-23.3-52-52s23.3-52,52-52s52,23.3,52,52S396.7,420,368,420z"/>
	<path class="st0" d="M368,331c-20.4,0-37,16.6-37,37s16.6,37,37,37s37-16.6,37-37S388.4,331,368,331z M368,381c-7.2,0-13-5.8-13-13
		s5.8-13,13-13s13,5.8,13,13S375.2,381,368,381z"/>
	<path class="st0" d="M198,392c0-19.9-16.1-36-36-36h-26c-6.6,0-12-5.4-12-12s5.4-12,12-12h62v-24h-62c-19.9,0-36,16.1-36,36
		s16.1,36,36,36h26c6.6,0,12,5.4,12,12s-5.4,12-12,12h-62v24h62C181.9,428,198,411.9,198,392z"/>
</g>
</svg>
